<?xml version="1.0" encoding="UTF-8"?><svg id="Background_Levels_1_Image" xmlns="http://www.w3.org/2000/svg" width="2164.4" height="2261.85" viewBox="0 0 2164.4 2261.85"><path d="M277.38,811.27h352.56c165.63,0,503.99,16.56,605.74,16.56h123.04s-.94,117.94,0,170.59,9.4,224.69,0,237.85-318.71-5.64-392.98,0-165.46-13.16-268.88,9.4-73.33,6.58-89.31,12.22-94.01,103.41-94.01,103.41l-53.59,56.41-12.22-177.69-161.7-1.88,3.76-162.64-12.4-221.87v-42.37Z" style="fill:#fff;"/><polygon points="949.2 1532.25 1110.01 1537.88 1323.68 1525.51 1598.07 1537.88 1883.71 1553.62 2098.51 1583.98 2150.24 1583.98 2150.24 1668.33 2154.73 1988.83 2160.36 2032.69 2152.48 2099.04 2114.25 2117.03 2029.91 2102.41 1938.82 2101.28 1943.31 2242.98 1926.45 2242.98 1807.24 2097.91 1540.72 2076.54 1324.8 2051.8 1115.63 2049.55 949.2 2057.43 922.21 2045.06 941.32 1704.31 932.9 1540.12 949.2 1532.25" style="fill:#fff;"/><polygon points="793.14 24.28 907.81 24.28 1056.69 10.41 1877.86 10.41 2096.1 24.28 2153.43 29.83 2153.43 205.53 2139.56 426.55 2146.04 519.94 2056.34 536.59 1982.36 541.21 1982.36 725.24 1856.59 580.98 1806.66 574.5 1460.81 550.46 1167.66 541.21 800.54 535.66 800.54 74.22 793.14 24.28" style="fill:#fff;"/><g><path d="M798.21,143.28c8.77,65.26,6.58,138.94,1.57,212.69-3.8,55.98-3.11,111.97,2.3,167.88,.65,6.75,2.47,6.92,8.97,7.09,32.07,.82,64.1,3.55,96.17,4.5,59.24,1.76,118.39-4.89,177.69-1.91,68.02,3.42,136.3-1.61,204.22,6.17,75.07,8.6,150.2,8.66,225.61,3.87,34.62-2.2,69.29,3.41,103.92,8.15,39.98,5.47,80.93-.23,121.19,5.83,21.36,3.22,42.78,5.93,64.51,4.7,6.22-.35,14.55-.73,14.32,8.05-.2,7.79-7.72,9.76-14.76,10.18-28.82,1.7-56.92-4.57-85.25-8-37.02-4.48-74.62,1.47-111.42-6.47-77.39-16.69-155.6-.43-233.25-5.84-58.38-4.06-116.51-11.61-175.13-12.54-96.75-1.54-193.49-3.63-290.25-.02-27.81,1.04-55.73-.88-83.6-1.35-10.99-.18-20.64-10.96-33.03-3.3-2.62,1.62-8.12-3.22-8.1-9.15,.16-36.18,.88-72.39,.06-108.55-1.02-45.62,3.43-90.93,5.25-136.38,1.42-35.53-1.4-71.11-4.18-106.76-2.65-34-1.21-68.78-3.24-103.14-1.09-18.46-4.41-36.8-7.03-55.16-.77-5.42-.92-10.01,6.29-8.79,34.9,5.92,70.1,6.72,104.96,2.21,76.43-9.89,153.1-13.62,230.1-13.65,106.76-.03,213.52-1.36,320.28-1.38,67.21,0,134.41,1.66,201.62,2.04,59.74,.34,119.36-6.68,179.16-3.37,55.08,3.05,109.98,11.14,165.22,8.76,48.86-2.1,96.68,3.3,145.08,8.87,27.74,3.19,30.39,16.33,30.07,35.31-.87,51.52-.86,103.23-5.56,154.46-7.94,86.65-18.05,173.04-10.38,260.25,.46,5.27-.51,10.79,.64,15.86,8.6,37.98,12.71,34-28.04,49.52-38.81,14.79-79.49,12.78-119.9,11.92-7.12-.15-8.72,.54-9.9,8.35-7.05,46.93,2.46,93.69,.62,140.55-.46,11.73,6.18,23.74-1.29,35.3-5.78,8.94-15.64,7.2-19.69,1.8-32.05-42.69-72.43-78.43-102.23-122.94-3.47-5.19-7.53-11.26-12.81-13.74-19.8-9.29-15.69-22.85-8.9-38,2.1-4.68,4.53-7.17,9.51-6.89,5.62,.31,7.42,5.42,5.62,8.47-8.89,15.13,3.2,22.93,10.59,32.01,29.62,36.35,57.98,73.79,91.12,107.15,2.57,2.59,5.46,6.35,9.15,3.94,2.19-1.43,3.45-5.62,3.59-8.64,2.03-45.36-2.2-90.47-7.02-135.45-2.61-24.3,5.7-31.21,29.74-28.83,44.89,4.44,89.6,2.44,131.31-18.4,4.59-2.3,4.42-6.38,4.26-10.25-2.05-50.09-7.06-100.27-5.47-150.23,1.31-41.34,12.83-82.27,15.42-123.66,3.77-60.12,11.07-120.41,2.6-180.75-1.5-10.67-7.88-15.56-19.19-11.82-14.41,4.76-27.44-2.82-40.84-5.55-40.95-8.34-82.19-2.77-123.27-4.06-76.67-2.41-153-10.38-229.94-10.17-161.15,.44-322.32-4.19-483.45-2.84-105.87,.89-212.14-1.76-317.54,12.79-42.62,5.88-85.36,7.91-128.3,5.9-7.52-.35-10.52,.88-8.39,9.88,7.37,31.23,9.03,63.13,8.58,103.53Z"/><path d="M394.16,1242.06c-39.97,2.04-76.84,3.94-113.71,5.8-6.03,.3-13.02,.88-16.11-5.13-2.76-5.39,3.98-9.06,5.42-13.24,3.1-8.98,3.05-19.19,3.45-28.93,1.6-38.55-3.24-77.01,.62-115.73,6.28-62.97-2.91-125.83-6.03-188.65-1.41-28.44,.88-57.68-8.07-85.76-2.24-7.04,3.81-12.88,11.3-11.1,55.08,13.07,110.55,3.52,165.84,3.47,100.15-.09,200.28-4.43,300.46-.68,107.32,4.02,214.67,8.9,322.03,9.77,83.2,.67,166.25,9.84,249.52,4.23,7.6-.51,15.17-1.53,22.77-2,21.86-1.36,31.21,7.9,32.42,29.79,2.89,51.95-7.11,103.41-5.26,155.33,3.04,85-4.22,170.28,6.78,255.07,.13,.99,.1,2.05,.47,2.94,3.45,8.15,7.68,18.96-3.46,21.67-11.62,2.82-12.66-8.97-12.53-17.72,.17-12.17-8.94-4.73-12.88-5.65-21.34-4.97-42.9-9.45-64.63-12.22-48.65-6.2-97.36-2.96-146.18-.55-30.26,1.5-60.37-5.75-91.21-5.7-62.1,.09-124.03,3.14-186.04,4.34-46.86,.91-93.71,1.9-140.29,6.02-34.17,3.03-68.34,9.35-101.58,17.84-12.2,3.12-23.21,15.41-32.22,25.73-35.82,41.01-70.3,83.18-106.14,124.17-5.97,6.82-11.26,23.6-26.44,9.42-5.89-5.5,.07-9.83,.26-14.5,1.38-33.32-5.47-65.94-7.47-98.94-1.08-17.83-3.13-35.66-3.04-53.48,.05-9.85-2.22-13.33-12.31-13.13-9.56,.19-19.17-1.79-25.75-2.49Zm953.9-359.88l4.75-.1c-1.4-11.2-2.15-22.53-4.42-33.55-1.61-7.81,7.2-23.92-16.07-15.87-13.46,4.66-31.82-.69-48.05-1.02-92.74-1.91-185.59-2.37-278.18-7.42-124.07-6.78-248.23-7.14-372.35-10.31-116.69-2.97-233.35,9.78-350.03,.38-5.28-.43-6.11,1.92-6.05,6.38,.37,27.63-.49,55.32,1.04,82.89,3.84,69.37,11.93,138.54,6.58,208.25-2.88,37.59,1.82,75.03,4.62,112.48,.51,6.89,4.43,6.03,8.79,6.07,54.47,.51,108.95,1.03,163.42,1.66,5.6,.07,9.26,2.12,8.95,9.1-.3,6.6-3.27,9.69-9.16,8.14-12.42-3.26-13.82,3.76-14.42,13.3-2.94,46.76,9.98,92.41,9.59,138.98-.01,1.39,1.23,2.8,1.88,4.2,.96-.74,2.09-1.33,2.86-2.24,31.47-36.94,63.83-73.18,94.03-111.14,20.64-25.95,42.79-45.33,77.86-49.37,70.67-8.13,141.33-14.11,212.48-16.51,50.37-1.7,100.7-6.74,151.17-6.23,50.14,.51,100.34,4.81,150.36,3.06,58.5-2.04,116.65-5.7,174.57,6.66,11.78,2.52,24.57,5.3,23.58-17.29-1.66-37.79,1.87-75.77,2.37-113.69,.49-37.13-.11-74.27-.16-111.41-.05-35.14-.01-70.28-.01-105.42Z"/><path d="M934.54,1660.73c3.9,48.47,5.38,97.07-.42,145.38-4.44,37.05-.22,73.05,2.82,109.84,1.98,23.93-4.54,50.78-9.52,76-1.31,6.64-3.65,13.58,.92,20.28,2.55,3.74-.95,6.02-3.19,8.37-2.58,2.71-5.68,3.6-9.01,1.69-2.9-1.66-5.72-3.57-4.85-7.77,12.3-59.38,2.84-119.35,4.98-178.99,.98-27.37,5.83-54.6,6.94-81.98,1.38-34.04,.55-68.05-2.38-102.16-2.91-33.87-3.98-68.23-1.74-102.1,1.78-26.79,18.94-34.84,57.11-28.01,52.93,9.47,105.88,4.95,158.9,3.89,85.76-1.71,171.25-9.54,257.32-5.66,90.34,4.08,180,17.11,270.56,17.62,84.24,.48,168.37,5.78,252.12,14.26,61.91,6.27,123.33,17.28,185.04,25.59,9.02,1.21,18.48-1,27.74-1.34,13.24-.49,27.24-5.97,23.24,19.3-4.54,28.66-.96,58.5-3.42,87.62-7.73,91.24,9.43,182.07,3.61,273.26-.73,11.38,2.15,23.06,3.97,34.5,1.36,8.58-2.57,15.1-9.87,15.74-8.6,.76-7.85-7.29-7.85-13.84,0-67.43,.1-134.71-5.19-202.18-3.73-47.67,2.74-96.15,4.89-144.26,.77-17.27,2.07-34.52,3.54-51.74,.38-4.41-.36-6.65-4.97-5.54-44.17,10.63-85.57-7.83-127.74-14.07-79.39-11.73-158.93-17.89-238.92-22.33-106.61-5.92-213.45-6.34-319.91-17.53-87.86-9.23-176.35-4.99-264.58,.62-65.34,4.15-130.73,8.77-196.29,5.9-9.23-.4-18.4-2.54-27.55-4.19-17.03-3.07-23.13,7.41-24.72,21.2-3.93,34.1-2.99,68.37-1.57,102.6Z"/><path d="M1929.53,2173.57c-2.55-21.95-.9-44.38-8.75-65.91-4.05-11.1,.76-16.98,14.26-16.41,28.88,1.22,57.84,1.21,86.76,.98,24.67-.2,47.06,10.97,71.46,12.8,31.13,2.33,46.26-10.12,45.74-40.73-.25-14.89-1.94-29.97,3.52-44.45,2.2-5.85,5.26-10.89,11.94-12.28,4.78-.99,6.03,3.02,8.07,6,4.1,5.98,.56,9.37-2.28,15.08-7.75,15.59-9.6,33.57-7.29,50.59,2.09,15.39-.66,32.15,9.61,46.12,2.62,3.57-.38,7.43-3.89,8.87-3.4,1.4-8.27,3.59-10.49-1.58-4.61-10.73-1.39-23.37-24.34-15.03-32.94,11.98-67.84-4.07-101.68-10.32-26.47-4.89-52.09,4.92-78.3,5.65-5.92,.16-3.94,6.14-3.82,9.7,1.52,42.19,5.62,84.43-3.49,126.34-1.19,5.46-1.41,11.77-8.25,12.72-6.79,.94-11.34-3.31-13.69-9.44-13.92-36.29-41.67-61.96-67.71-89.06-15.86-16.51-31-33.72-45.96-51.06-4.12-4.77-7.97-9.48-14.46-9.18-47.49,2.18-93.93-13.79-140.95-10.68-78.68,5.2-153.02-21.4-230.25-26.65-95.93-6.52-191.4-17.57-287.97-10.11-58.87,4.55-117.97,11.55-177.25,4.99-12.15-1.35-24.22-3.63-36.25-5.89-7.18-1.35-12.11-6.73-9.47-13.4,2.51-6.35,8.83-5.68,15.35-2.63,32.25,15.15,67.01,13.17,101.06,12.03,59.05-1.99,118.02-6.31,177.04-9.34,55.75-2.87,110.9,4.12,166.18,10.01,47.62,5.07,95.74,5.94,143.14,12.35,42.52,5.75,85.15,14.53,127.73,12.36,54.44-2.77,106.82,14.93,160.92,11.06,13.15-.94,17.27,11.34,22.32,18.91,22.58,33.88,54.74,59.04,79.87,90.47,5.4,6.75,10.39,13.82,15.78,20.57,2.37,2.97,5.27,5.51,7.93,8.25,1.19-3.41,3.16-6.75,3.43-10.23,1.09-13.86,6.6-27.23,4.44-41.47Z"/><path d="M1373.98,1936.34c0,5.66,.53,11.39-.14,16.98-.82,6.84-5.52,14.81-11.97,9.59-24.58-19.91-55-19.07-83.13-26.46-10.87-2.86-20.91-9.23-22.98-21.25-1.91-11.09-8.47-12.02-17.05-11.43-1.99,.14-3.95,.54-5.94,.75q-36.73,3.88-16.39,35.21c3.54,5.43,3.55,10.63-.19,15.62-4.52,6.02-9.32,1.81-12.98-.91-17.6-13.03-38.54-23.93-29.66-52.69,1.93-6.26-5.03-3.35-8.39-1.93-19.5,8.22-28.35,26.16-38.94,42.58-2.65,4.12-4.64,10.84-11.68,7.86-6.21-2.64-7.75-7.93-6.51-14.74,2.19-12.04-.17-24.06-3.79-35.35-7.25-22.62-23.9-27.22-42.83-9.44-14.04,13.19-22.2,31.35-18.96,52.23,.66,4.23,2.39,7.51,6.69,9.12,4.08,1.53,9.28,3.33,7.2,8.81-2.22,5.85-8.29,6.76-13.63,5.21-8.76-2.54-14.02-8.8-14.96-18.05-2.78-27.21,6.93-50.48,25.18-69.6,10.57-11.08,25.19-17.93,40.95-12.01,18.32,6.88,23.96,23.46,26.59,41.27,.47,3.18,1.03,6.35,1.54,9.52,2.64-2.16,5.6-4.03,7.86-6.54,11.6-12.86,22.79-26.23,41.83-27.89,2.3-.2,5.76-1.32,6.75-.24,18.13,19.85,39.8,5.89,59.85,6.44,16.9,.46,31.44,.1,37.1,23,3.43,13.85,23.01,13.91,36.39,16.14,12.99,2.17,25.26,5.57,37.17,10.83,7.5,3.31,9.79,.77,9.97-7.18,.94-40.79,18.26-51.24,54.72-32.5,21.43,11.02,41.53,24.16,53.42,46.43,3.89,7.28,6.43,3.48,8.12-1.22,10.2-28.38,58.76-39.77,83-31.39,7.54,2.6,14.93,6.7,17.97,13.53,7.64,17.2,14.08,8.98,21.53,.38,3.02-3.48,6.44-6.9,10.33-9.3,20.97-12.96,27.79-10.39,35.39,12.61,1.98,6,4.18,11.95,6.6,17.79,9.06,21.89,12.19,22.61,28.41,6.88,14.92-14.48,40.36-10.64,47.39,7.25,.99,2.53,1.1,5.41,1.62,8.13-3.5-.19-7.58,.74-10.39-.75-19.64-10.35-35.22-4.87-43.6,15.92-1.31,3.25-.95,8.17-5.89,8.02-4.88-.15-9.68-.95-12.66-6.28-9.39-16.77-23.07-31.21-26.16-51.36-1.22-7.96-5-11.14-13.54-5.05-13,9.28-21.93,20.83-26.92,35.9-1.74,5.26-4.33,11.58-11.82,9.29-6.19-1.89-9.84-7.86-6.99-13.4,7.18-13.93-.38-23.32-8.93-31.73-10.12-9.95-23.29-7.84-35.85-5.68-27.94,4.79-38.96,24.35-43.45,49.79-.67,3.81,.82,10.21-7.07,9.42-6.83-.69-10.52-5.21-11.48-10.81-6.03-35.24-32.5-51.28-61.35-63.58-21.77-9.28-27.75-2.62-27.35,26.25Z"/><path d="M1792.92,218.28c-15.36-1.14-31.5-12.34-42.37-30.82-8.47-14.4-18.5-16.06-32.4-8.11-36.06,20.64-48.46,17.44-73.43-16.13-6.97-9.38-14.88-22.62-26.89-21.11-10.11,1.27-8.81,16.95-13.47,25.82-5.72,10.87-9.94,22.54-15.85,33.3-6.2,11.28-23.91,9.81-32.59-3.33-7.64-11.55-17.83-21.48-22.18-35.28-3.32-10.53-10.1-12.05-18.73-4.87-10.06,8.38-16.92,18.96-19.27,31.65-.94,5.07-2.03,7.12-6.96,7.14-5.36,.03-7.88-2.52-8.15-7.81-.8-16.27,25.23-48.58,41.1-50.41,12.63-1.45,20.48,5.57,23.96,16.73,3.9,12.5,11.51,22.42,19.53,32.15,5.34,6.47,11,7.48,15.28-1.51,7.57-15.88,16.36-31.3,22.41-47.74,5.72-15.56,15.01-15.83,26.21-8.66,10.9,6.98,20.11,16.27,27.19,27.41,13.32,20.94,27.83,23.96,48.82,12.52,33.85-18.45,44.77-14.17,58.62,10.74,11.54,20.77,35.85,29.11,50.6,21.43,24.5-12.77,26.21-48.84,2.85-65.17-6.1-4.26-8.01-9.47-4.23-15.2,3.98-6.04,12.07-6.25,15.89-1.82,13.89,16.11,33.42,18,51.62,24.85,31.67,11.93,58.98,8.27,85.6-11.15,9.59-6.99,21.64-5.86,28.73,1.5,13.83,14.35,31.97,18.33,48.9,25.56,2.69,1.15,5.47,2.45,7.66,4.31,4.66,3.97,13.08,8.44,9.56,14.47-4.34,7.44-9.01-2.57-13.96-3.49-23.46-4.36-45.19-12.13-64.34-27.42-7.38-5.89-18.88-1.97-25.31,3.74-24.81,22.04-51.45,16.01-78.71,7.56-1.9-.59-3.85-1.05-5.8-1.44-15.11-3.06-36.57-16.74-23.24,18.85,6.74,17.98-23.75,41.57-56.64,41.76Z"/><path d="M1033.54,1659.44c.42-26.92,22.74-52.36,53.79-56.97,27.54-4.08,43.76,12.51,39.35,40.07-.55,3.44-.1,7.05-.11,10.57,2.92-1.26,5.98-2.25,8.72-3.82,10.94-6.23,25.39-7.25,31.87,.68,11.98,14.66,25.01,9.12,37.74,7.14,24.73-3.85,52.1-3.71,70.72,8.71,26.44,17.63,51.85,12.31,78.62,12.11,6.85-.05,15.01,.37,20.34,3.92,21.02,14,39.98,6.93,60.18-2.03,11.27-5,24.32-7.95,36.77-2.4,3.66,1.63,10.12,2.72,8.41,9.27-1.94,7.41-8.86,4.48-12.62,3.64-14.22-3.18-26.12,1.49-37.61,8.73-2.65,1.67-7.14,3.75-2.98,7.38,10.38,9.06,4.78,16.8-2.95,21.72-10.36,6.6-23.79,2.89-25.83-7.59-5.41-27.75-26.95-25.59-45.61-27.7-17.37-1.97-34.11,2.87-49.72,11.47-6.82,3.76-15.03,7.94-22.19,.94-6.21-6.07,.29-11.57,2.73-16.87,2.05-4.46-.18-6.37-3.56-7.59-25.79-9.28-51.96-13.56-79.23-6.77-7.35,1.83-8.66,4.97-5.12,11.05,3.99,6.86,7.67,13.95,12.17,20.46,4.05,5.86,5.78,12.19,4.26,18.76-.43,1.87-5.94,4.42-8.16,3.69-6.89-2.24-12.35-7.46-15.4-13.86-6.12-12.85-12.05-25.69-16.05-39.63-2.89-10.07-15.21-15.12-24.69-13-12.62,2.82-21.15,13.21-24.89,26.22-1.27,4.43-1.71,9.1-2.54,13.66-1.25,6.85-6.3,8.22-12,7.62-5.9-.61-5.62-5.21-5.59-9.8,.11-16.9,6.55-32.48,9.74-48.73,1.95-9.93,6.11-20.19-3.21-28.82-11.42-10.58-23.93-5.42-35.4-1.03-24.93,9.53-35.27,37.91-22.03,61.07,10.17,17.78,16.94,37.82,32.87,52.04,1.16,1.03,2.1,4.34,1.48,4.99-3.09,3.21-7.04,1.53-10.08-.03-11.36-5.83-16.77-17.21-22.19-27.55-7.93-15.13-22.02-27.95-20.01-51.74Z"/><path d="M898.61,181.15c2.11,10.99,.04,20.72,4,30.08,2.25,5.32-1.7,10.16-6.97,11.42-6.98,1.67-4.84-4.8-5.3-8.01-5.61-38.92-4.06-77.02,19.14-110.58,7.25-10.48,19.78-14.6,32.96-8.54,12.44,5.72,11.56,16.45,9.66,27.38-3.18,18.3-6.47,36.58-9.46,54.91-.32,1.93,1.03,4.13,1.6,6.2,1.18-1.5,2.63-2.86,3.48-4.53,7.84-15.34,16.58-30.23,18.77-47.92,.68-5.46,5.26-10,11.6-8.25,5.62,1.55,5.5,6.5,4.3,11.56-5.29,22.44,14.28,42.33,36.83,36.37,19.54-5.16,38.56-12.3,57.84-18.45,13.54-4.32,29.36,2.33,41.25-13,5.34-6.89,19.51,.91,29.45,2.86,31.18,6.13,63.6,9.57,85.74,37.06,4.29,5.32,10.6,3.83,15.36,.08,10.44-8.2,20.19-17.31,30.77-25.31,10.86-8.21,22.1-14.75,29.7,4.16,2.09,5.2,5.37,9.94,8.28,14.79,4.66,7.76,9.89,17.21,18.75,17.45,3.43,.09,6.99-12.82,10.87-19.58,7.55-13.16,19.48-20.23,34.03-23.12,1.56-.31,4.33,.74,5.08,2.02,1.64,2.79-1.09,3.81-3.11,5.05-18.04,11.05-27.22,27.34-29.36,48.26-1.16,11.36-5.69,13.32-16.54,6.9-18.52-10.97-31.54-26-40.81-44.87-3.19-6.49-7.25-3.48-10.38-.68-7.15,6.39-14.17,13-20.6,20.1-17.46,19.3-30.79,20.87-46.94,0-23.26-30.08-57.39-25.15-88.07-31.81-1.17-.25-4.14,1.96-4.12,2.98,.1,4.96,.64,9.84,5.49,13.14,6.74,4.6,14.9,10.21,6.98,18.94-7.84,8.64-13.98-.56-19.03-5.28-27.13-25.37-31.51-26.1-66.97-10.35-27.42,12.18-54.6,21.14-79.96-5.07-5.02-5.19-6.12,1.7-7.44,4.98-5.73,14.17-9.96,36.48-28.33,30.23-16.28-5.54-5.51-26.48-3.15-40.21,2.24-13,6.93-25.61,7.23-39.04,.14-6.1-.04-13.31-5.63-15.98-6.33-3.03-12.72,.24-17.74,5.66-18.48,19.96-16.44,45.36-19.27,68.03Z"/><path d="M1128.56,357.84c2.47,.66,8.42,.41,11.19,3.26,28.8,29.69,77.08,18.92,104.83,50.85,4.39,5.05,7.36-2,9.91-4.65,11.86-12.37,18.26-28.26,25.85-43.16,8.51-16.71,17.72-14.44,26.49-2.11,22.26,31.33,53.7,44.95,90.4,48.67,12.57,1.28,15.46-11.47,21.15-18.6,12.67-15.9,28.87-15.91,36.65,2.57,6.27,14.91,10.89,22.29,24.11,5.07,7.63-9.94,19.84-15.08,32.48-17.78,6.69-1.43,12.97-.17,14.28,6.86,1.48,7.91-5.71,5.16-10.12,7.01-17.9,7.5-32.7,19.35-39.03,38.75-2.2,6.74-5.02,11.68-12.71,11.59-8.29-.1-6.47-7.28-8.56-12.09-4.49-10.31-9.72-20.33-15.18-30.18-2.34-4.22-5.66-4.21-8.13,.6-10.05,19.63-26.83,25.26-46.93,20.3-32.85-8.1-64.1-20.07-87.39-46.26-6.34-7.13-8.82-2.14-11.54,2.4-8.67,14.48-16.95,29.18-25.57,43.68-6.69,11.26-15.91,13-23.56,2.38-12.48-17.32-32.56-19.33-49.77-26.88-6.17-2.71-14.41-.99-10.93,9.72,1.81,5.57,3.88,10.75-1.05,15.45-3.37,3.22-7.8,2.45-11.32,.7-5.85-2.92-8.14-8.35-8.18-14.87-.11-16.63-6.64-31.28-22.56-35.86-19-5.47-33.95,3.86-43.98,21.09-4.38,7.53-3.39,14.76-.79,21.96,1.19,3.28,5.54,6.86,1.79,9.45-4.07,2.81-9.84,4.5-14.77,4.31-3.74-.15-5.32-4.99-6.07-9.3-5.54-31.96,23.09-64.78,59.02-64.95Z"/><path d="M1635.27,1731.53c.98-14.39,3.36-32.82,10.05-50.2,4.18-10.84,12.97-10.99,19.06-2.4,9.01,12.69,16.28,26.64,23.94,40.26,9.41,16.74,21.92,17.62,36.49,7.43,21.27-14.88,41.77-30.72,59.52-49.81,2.76-2.97,5.21-6.01,10.03-5.07,5.16,1.01,5.27,5.03,6.31,8.95,9.4,35.43,23.18,49.58,48.22,46.92,19.09-2.03,34.02-14.29,49.2-24.93,9.51-6.67,18.38-14.3,27.28-21.81,7.06-5.95,13.26-3.25,20.08,.56,21.77,12.16,38.33,32.23,62.38,40.87,4.37,1.57,8.68,3.66,13.2,4.41,5.44,.9,12.07,.88,10.62,8.36-1.48,7.59-9,4.58-13.33,3.8-18.25-3.27-34.42-11.35-49.48-22.31-10.68-7.78-22.46-14.06-33.79-20.95-5.81-3.53-9.09,1.38-13.08,4.05-23.02,15.43-42.92,36.39-71.52,42.02-24.31,4.78-54.44-15.62-60.39-39.74-.74-2.99-3.11-5.57-4.73-8.34-2.39,1.66-5.04,3.05-7.13,5.03-17.66,16.68-36.17,32.44-56.94,44.98-17.68,10.68-34.18,9.99-52.6-26.75-3.49-6.95-6.58-19.58-12.65-18.14-6.87,1.63-5,14.24-6.44,22.24-2.83,15.79-1.34,29.32,16.22,36.02,4.18,1.6,4.33,6.25,2.79,9.5-1.71,3.61-5.71,3.89-9.59,3.09-13.92-2.87-23.49-16.5-23.72-38.04Z"/><path d="M1802.2,1834.25c11.99,.01,24.35-.36,29.47,10.51,7.55,16.02-2.26,30.23-9.55,43.91-2.91,5.47-7.36,10.3-11.8,14.73-13.75,13.75-24.48,26.91-3.19,43.76,4.03,3.19,5,11.48,5.43,17.56,.33,4.7-2.25,10.81-7.93,11.08-5.27,.26-7.65-5.06-7.82-9.9-.18-5.19-2.32-8.34-6.3-11.55-19.11-15.46-18.94-27.38-2.55-47.29,10.16-12.35,24.48-21.78,28.66-38.79,1.81-7.36,3.53-15.28-5.5-17.2-9.5-2.02-20.99-1.67-25.91,8.69-2.9,6.1-6.15,9.46-11.96,9.8-6.01,.35-9.38-4.74-12.09-9.25-3.44-5.71,1.61-9.04,4.77-12.65,9.98-11.41,24.13-11.16,36.26-13.41Z"/><path d="M942.12,352.9c14.06,1.36,20.06,12.87,24.87,25.2,4.46,11.45,7.9,23.4,24.67,17.73,2.97-1,7.2,.79,5.52,4.53-4.58,10.19-14.28,16.39-24.26,16.15-7.12-.17-14.73-5.81-17.05-16.07-2.72-11.99-.26-29.18-18.21-31.41-14.39-1.79-37.71,19.91-38.15,33.99-.28,8.88-4.51,12.19-12.34,11.48-9.16-.83-8.42-6.87-6.77-13.82,6.22-26.31,33.77-48.33,61.73-47.76Z"/><path d="M1580.08,358.42c1.05-21.89,.51-43.38-7.35-64.5-2.89-7.78,7.46-5.83,11.27-6.79,6.92-1.75,11.47,1.86,11.95,10.35,1.57,27.53-4.9,55.03-.16,82.52,1.62,9.43,3.79,18.77,5.92,28.1,1.22,5.36,5.08,12.56-2.47,14.42-6.8,1.67-13.46-2.53-15.25-10.71-3.86-17.6-4.46-35.45-3.91-53.38Z"/><path d="M1605.62,458.5c-.8,5.08-2.82,9.68-8.82,9.92-8.62,.34-13.19-6.38-13.8-12.98-.75-8.14,8.43-9.33,13.73-9.6,6.56-.35,7.33,7.06,8.89,12.67Z"/><path d="M1783.72,1987.2c7.74-.88,8.37,4.68,8.66,9.56,.38,6.38-3.57,9.37-9.72,9.98-7.73,.77-11.9-5.34-12.34-10.33-.75-8.57,8.22-7.37,13.4-9.2Z"/><path d="M3,95.76c-.43,.72-.73,1.24-1.03,1.75-.67-.59-1.5-1.08-1.94-1.81-.18-.3,.45-1.1,.72-1.67,.74,.57,1.49,1.14,2.26,1.74Z"/><path d="M1435.75,860.94c1.83-.96,2.79-1.65,3.86-1.92,.33-.08,.95,.98,1.44,1.53-.71,.52-1.37,1.31-2.16,1.48-.64,.14-1.45-.46-3.14-1.08Z"/><path d="M700.22,916.61c.96,.24,5.11,.15,5.74,1.59,7.51,17.21,19.71,13.46,34.58,11.2,18.78-2.85,34.35,10.52,50.68,18.38,5.58,2.69,8.28,2.83,13.25-2.25,11.96-12.21,25.94-5.13,39-1.04,27.26,8.53,54.42,17.6,83.41,17.49,12.02-.04,25.94,3.65,31.41-13.28,1-3.09,5.65-4.46,9.67-3.33,4.62,1.29,6.38,4.81,6.17,9.12-1.27,26.26,16.26,40.51,34.27,54.72,5.67,4.48,7.59,2.43,9.25-3.24,6.47-22.15,13.26-44.2,19.54-66.4,2.26-7.98,7.44-13.89,14.87-13.91,8.53-.03,17.56,3.44,21.3,12.42,6.42,15.42,21.53,21.5,33.58,29.94,4.38,3.07,16.25-4.02,24.49-7.06,29.71-10.98,59.96-5.46,74.75,14.52,3.41,4.61,5.39,10.52,6.98,16.13,.64,2.24-.76,6.35-2.62,7.73-3.16,2.35-6.31-.29-8.49-2.9-23.64-28.28-34.18-31.23-68.64-19.06-29.81,10.53-45.19,6.21-66.04-17.99-4.57-5.31-7.95-16.03-14.92-13.87-7.65,2.37-8.3,13.52-10.57,21.35-5.71,19.63-10.73,39.45-16.33,59.11-2.23,7.83-6.34,8.59-13.24,3.66-20.51-14.67-41.76-28.41-51.84-53.23-.48-1.19-2.65-2.71-3.71-2.49-37.69,7.69-72.93-4.87-108.74-12.81-3.6-.8-7.54-.05-11.32-.01,3.04,2.23,5.82,5.05,9.18,6.54,4.83,2.14,10.22,2.99,15.13,4.99,4.22,1.72,13.27-4.23,11.95,6.52-1.33,10.9-7.9,11.77-17.04,8.08-33.1-13.39-66.38-26.32-99.47-39.72-7.33-2.97-15.6-4.52-20.63,.84-4.99,5.32,4.13,9.54,5.79,14.8,1.58,5.01,4.49,9.65,5.74,14.72,1.21,4.9-1.23,9.87-5.51,11.78-2.53,1.12-8.55-.28-9.72-2.38-4.85-8.67-13.71-14.73-14.66-26.16-1.07-12.89-11.57-24.49-21.53-25.18-12.41-.86-16.34,15.15-21.75,25.48-2.26,4.31-3.09,9.4-4.39,14.19-2.15,7.92-7.38,4.35-11.91,3.29-6.01-1.41-3.26-4.05-2.43-8.36,3.67-19.07,15.88-32.57,27.48-46.73,4.23-5.16,9.32-7.21,17.3-7.19Z"/><path d="M399.36,1070.18c29.07,.39,52.85,21.13,62.15,54.09,.98,3.49,2.2,9.55,3.81,9.72,4.74,.51,1.38-5.03,3.47-7.38,5.47-6.18,11.21-6.74,17.01-.92,3.97,3.98,6.94,9.03,11.17,12.66,6.21,5.33,10.21,18.24,20.7,.71,8.73-14.59,28.15-15.34,44.77-12.5,25.26,4.32,45.33,20.11,66.79,32.62,5.6,3.26,4.54,9.19,3.18,14.45-.97,3.76-4,7.48-7.49,6.6-4.51-1.13-8.53-3.94-9.71-9.96-1.31-6.71-43.38-27.7-49.76-25.84-3.14,.91-2.68,2.77-1.18,4.24,5.97,5.92,6.47,12.21,1.23,18.59-7.12,8.67-17.06,12.4-27.62,10.74-18.67-2.94-34.21-13.65-48.49-25.03-8.8-7.02-11.55-7.92-16.39,3.28-21.74,50.25-79.98,76.29-121.24,30.35-17.01-18.94-14.6-41.76,6.13-57.19,2.12-1.58,4.17-2.6,2.9-6.29-12.73-37.2-.81-53.46,38.57-52.93Zm2.52,126.92c11.33,2.13,19.45-5.47,28.71-9.54,2.82-1.24,4.24-4.13,1.32-6.31-11.12-8.33-13.83-20.92-16.4-33.14-3.03-14.44-10.86-22.76-25.45-19.46-16.78,3.79-33.46,10.86-36.19,30.6-2.72,19.71,19.83,36.58,48.01,37.86Zm52.34-56.18c-.96-13.28-4.18-24.07-11.38-33.8-16.74-22.62-45.5-28.97-67.76-14.3-6.16,4.06-11.16,9.66-7.16,17.44,1.96,3.8,3.19,10.22,11.46,7.3,24.73-8.73,39.92,.12,46.91,25.46,2.86,10.35,6.32,26.42,16.68,25.24,12.47-1.43,7.05-18.9,11.24-27.33Zm85.68,23.32c4.42-1.15,12.32,.21,12.63-4.55,.34-5.31-7.53-4.91-12.1-5.79-7.65-1.47-15.45-2.16-23.2-3.08-.8-.1-1.67,.45-2.51,.71,.32,.55,.53,1.42,.99,1.6,8.23,3.13,14.33,10.92,24.2,11.12Z"/><path d="M372.6,947.11c.51,4.83-.56,16.04,4.9,26.13,3.15,5.83,3.43,11.4-1.53,16.4-2.6,2.61-5.14,2.08-8.85,1.18-7.93-1.92-4.35-6.59-5.2-11.37-4.97-28.05,.66-55.58,2.53-83.29,.48-7.11,3.08-11.84,10.43-13.4,8.18-1.74,11.57,4.08,14.36,9.61,12.7,25.15,25.01,50.51,37.56,75.74,1.26,2.54,3.18,4.74,4.8,7.11,2.22-2.32,5.16-4.27,6.53-7.01,8.82-17.66,20.67-33.24,32.77-48.65,2.94-3.74,6.23-7.33,11.6-6.18,6.05,1.29,6.02,7.21,6.3,11.29,.68,9.81,3,18.95,7.17,27.77,1.44,3.04,2.41,6.77,6.45,6.67,4.48-.11,4.6-4.18,5-7.4,1.85-14.75,3.28-29.57,5.48-44.27,.92-6.12,3.78-11.61,11.57-11.35,7.71,.26,9.72,6.2,11.39,11.99,4.42,15.3,7.62,31.02,13.02,45.96,7.4,20.49,21.77,24.7,39.39,12.9,2.68-1.8,5.25-2.89,8.26-.9,5.09,3.36,4.2,9.13,4.18,13.64-.02,4.68-3.91,7.82-9.19,8.98-26.92,5.94-49.57-7.67-57.77-35.06-2.54-8.47-4.93-16.98-7.39-25.46-1.7,8.32-2.67,16.88-5.29,24.9-3.68,11.25-4.24,28-18.97,28.36-15.59,.37-15.63-18.07-22.08-28.43-3.29-5.29-4.08-12.14-6.01-18.29-4.24,5.66-9.25,10.91-12.56,17.07-6.44,11.98-11.66,24.62-17.94,36.69-2.3,4.43-3.76,11.33-10.04,11.04-5.51-.26-8.76-5.49-11.14-10.44-11.47-23.84-22.81-47.74-34.49-71.47-2.53-5.13-4.09-12.68-11.15-12.2-1.69,.11-3.42,9.57-3.94,14.85-.68,6.91-.17,13.93-.17,26.93Z"/><path d="M733.23,1160.4c-.95-7.28,2.23-13.03,6.1-18.59,2.42-3.47,4.59-6.69-1.15-9.51-5.05-2.48-8.64-1.26-10.51,3.58-4.1,10.6-7.49,21.66-4.51,32.98,1.84,6.96,2.51,13.02-2.61,18.46-2.55,2.71-5.41,.94-8.22-.36-8.05-3.72-8.47-12.4-7.5-17.98,2.54-14.59,6.43-29.28,12.27-42.87,5.75-13.38,15.8-16.3,30.14-8.55,25.24,13.64,49.37,28.67,71.74,46.6,1.41,1.13,3.62,1.26,5.46,1.85,.05-2.39,.55-4.87,.09-7.16-6.76-33.92,4.31-52.06,34.08-54,20.14-1.31,24.24,17.41,33.2,29.35,7.95,10.59,16.06,20.56,29.73,22.76,7.77,1.25,14.9-.46,17-10.52,1.63-7.8,34.11-16.02,38.97-9.75,5.2,6.72-1.86,9.95-6.26,11.42-9.43,3.16-16.62,8.49-23.84,15.36-15.62,14.88-42.36,11.92-55.78-5.23-7.1-9.07-13.36-18.8-20.27-28.02-5.36-7.15-10.3-15.16-21.78-9.91-10.27,4.69-14.27,13.11-13.46,23.24,.87,10.84,4.33,21.46,5.55,32.3,1.19,10.53-4.27,15.07-13.8,9.52-16.04-9.34-31.4-19.83-47.11-29.74-1.88-1.18-4.15-1.74-6.23-2.58-.78,1.95-1.78,3.85-2.31,5.86-1.08,4.16-.99,8.92-3.02,12.5-5.26,9.28-13.02,19.1-24.11,15.46-10.75-3.52-9.92-16.64-11.85-26.47Zm26.66-3.07c-1.07-2.59,.34-8.85-4.17-7.98-5.98,1.16-5.92,8.08-6.27,13.22-.16,2.29-1.12,7.53,3.54,6.2,4.47-1.28,7.27-5.57,6.91-11.44Z"/><path d="M1045.56,1161.68c-.14,7.84,1.04,15.65-9.09,15.13-5.55-.28-10.04-2.43-9.13-9.9,1.13-9.27,8.14-13.43,15.12-14.26,5.48-.65,2.74,6.51,3.09,9.03Z"/></g></svg>