<?xml version="1.0" encoding="UTF-8"?><svg xmlns="http://www.w3.org/2000/svg" width="1911.91" height="876.34" viewBox="0 0 1911.91 876.34"><g id="Layer_2"><path d="M580.02,183.19c5.89-8.03,247.59,3.73,338.48,0s450.27-30.38,458.81-21.75c8.54,8.63,11.1,73.11,10.86,98.23-.24,25.11-3.76,70.11-10.86,77.85-7.1,7.74-259.46,5.3-424.23,15.39-164.76,10.09-362.38,24.71-373.07,12.71s-8.09-171.39,0-182.42Z" style="fill:#ceb9d2;"/></g><g id="Layer_1"><g><path d="M1217.07,643.39c4.25-4.01,6.95-7.78,9.33-11.67,7.25-11.87,17.97-20.11,29.98-25.96,10.88-5.3,21.04-3.43,24.3,11.66,2.79,12.9,3.81,25.91,2.71,39.07-.14,1.64-.02,3.29-.02,4.86,2.24,.64,3.23-.6,4-1.86,6.04-9.94,13.96-18.52,20.23-28.35,3.45-5.41,8.29-10.3,15.38-11.61,5.9-1.09,10.46,1.6,12.36,7.22,1.93,5.69,3.02,11.54,3.82,17.46,.19,1.4-.39,3.3,1.64,3.71,1.7,.34,2.61-1.03,3.57-2.25,9.03-11.46,19.16-21.77,31.94-29.03,8.78-4.99,18.01-7.58,28.01-3.13,1.99,.89,3.28,2.1,4.22,3.93,.76,1.48,1.59,2.92,2.35,4.4,5,9.74,5.07,9.83,13.25,3,10.57-8.83,22.4-15.34,35.35-19.95,5.94-2.11,11.95-2.87,18.18-2.15,8.07,.93,13.22,5.82,16.79,12.63,1.01,1.93,1.39,4.4,3.95,4.58,2.52,.17,3.41-2.13,4.66-3.92,4.38-6.28,10.06-11.13,17.3-13.7,9.05-3.21,15.91,2.29,19.78,9.24,.77,1.38,1.12,3,1.87,5.1,2.77-3.49,5.44-6.28,8.37-8.9,8.09-7.26,17.02-6.25,25.77-3,11.54,4.28,22.92,8.98,34.98,11.63,5.99,1.32,12.07,2.28,18.14,3.26,2.04,.33,3.59-.64,5.29-2.04,12.22-10.07,25.77-17.15,42.13-16.73,7.84,.2,15.55,1.53,22.54,5.41,2.95,1.63,5.6,3.5,5.11,7.62-.46,3.86-3.08,5.78-6.2,7.03-7.15,2.86-14.87,3.44-22.3,5.21-12.51,2.97-25.21,3.46-37.99,2.82-1.34-.07-2.74-.25-3.86,.63-6.32,4.98-11.4,11.07-15,18.23-2.13,4.23,0,7.13,4.22,8.36,5.47,1.59,11.2,2.41,16.76,1.33,20.48-4,39.39-11.93,55.68-25.08,5.04-4.07,10.2-8.68,12.51-15.3,1.03-2.95,3.09-4.98,6.29-4.39,3.65,.67,5.18,3.59,4.95,7.08-.3,4.64-.9,9.27-1.58,13.87-.75,5.07-.14,10.03,1.71,14.66,2.47,6.18,10.85,7.99,19.15,4.59,9.54-3.91,17.18-10.59,24.99-17.05,11.56-9.55,21.69-20.61,32.56-30.89,4.26-4.03,9.58-6.13,14.78-8.1,5.35-2.02,12.22,2.98,15.8,11.04,4.64,10.48,11.54,19.32,18.7,28.12,3.68,4.52,7.24,9.07,11.58,12.98,1.32,1.19,3.22,2.62,1.58,4.55-1.36,1.6-3.33,1.02-5.02-.06-6.07-3.85-11.51-8.5-16.75-13.37-7.26-6.75-12.78-14.8-17.61-23.45-6.19-11.08-9-11.55-18.92-3.27-8.14,6.79-15.85,14.02-23.29,21.67-7.3,7.51-15.73,14.14-24.53,20.14-3.99,2.72-8.14,5.04-12.38,7.25-14.21,7.42-30.65,.53-32.07-18.41-.09-1.16,.07-2.35-.13-3.49-.33-1.89,1.07-4.55-1.13-5.51-2.22-.97-3.89,1.39-5.42,2.68-13.6,11.55-29.27,19.16-45.95,25.13-10.2,3.65-20.64,4.95-31.29,4.56-13.88-.51-19.64-11.78-12.35-23.6,1.48-2.41,2.82-4.95,4.58-7.13,7.8-9.69,7.88-9.82-4.14-12.2-13.85-2.74-27.04-7.78-40.66-11.32-10.66-2.77-15.1-1.26-20.06,8.44-3.06,5.99-5.55,12.14-6.11,19.46-.62,8.25-3.45,16.43-4.44,24.86-.41,3.45-2.84,6.86-7.31,5.55-4.55-1.33-4.01-5.22-3.12-8.68,2.91-11.32,4.02-22.82,3.81-34.47-.07-3.86-1.26-7.48-2.58-11.1-2.57-7.08-6.49-7.58-13.83-3.48-6.27,3.5-8.17,10.07-11.4,15.68-3.52,6.12-2.56,12.68-1.35,19.21,1.23,6.63-.46,10.76-4.65,11.58-3.96,.78-7.22-2.07-8.69-8.33-1.29-5.52-1.7-11.2,.63-16.6,1.22-2.83-.67-5.14-.95-7.68-1.12-10.21-7.1-17-16.27-18.93-5.28-1.12-10.24,1.2-15.11,2.57-12.96,3.65-22.08,12.95-32.23,21.32-9.85,8.13-9.54,18.02-11.33,28.18-.88,4.96-4.04,8.59-8.2,11.11-3.66,2.22-9.12-1.04-8.71-5.32,.59-6.14,.86-12.39,5.05-17.71,2.15-2.73,4.87-5.91,3.61-9.94-1.88-6.01-3.47-12.36-8.21-16.84-3.59-3.39-15.94-2.52-20.36,1.58-3.91,3.63-8.55,6.19-12.43,9.91-10.19,9.78-17.7,21.07-22.25,34.43-.94,2.77-2.61,5.57-6.49,4.92-3.8-.64-5.03-2.79-5.85-6.71-2.22-10.65-1.96-21.76-5.91-32.08-1.93-5.03-4.28-5.55-8.52-2.12-7.72,6.23-11.77,15.21-17.44,22.97-4.38,5.99-6.98,13.11-11.98,18.75-2.32,2.61-5.06,3.8-8.37,3.54-2.9-.22-4.68-1.46-5.04-4.94-.87-8.36,1.07-16.61,.63-24.91-.53-9.95-1.03-19.97-4.87-29.34-2.62-6.4-4.94-7.23-11.16-4.33-12.41,5.8-22.77,14.1-30.48,25.54-7.28,10.82-13.3,22.26-18.04,34.45-1.89,4.86-4.61,9.4-6.08,14.49-.86,2.97-3.71,4.18-5.97,5.8-1.78,1.28-2.97-.59-3.59-1.64-1.21-2.04-3.28-3.48-1.68-6.95,5.93-12.92,13.24-25.4,15.54-39.68,2.56-15.9,4.28-31.89,3.79-48.07-.13-4.37-.41-8.31-2.66-12.24-1.35-2.36-2.73-2.33-4.33-1.36-8.71,5.25-14.61,13.08-18.49,22.22-4.99,11.76-6.78,24.26-6.7,37.02,.06,8.82,.7,17.35,5.47,25.35,2.22,3.72,4.5,8.14,2.92,13.21-.71,2.29-1.55,2.99-3.79,2.39-1.65-.44-3.4-.86-4.24-2.39-3.48-6.36-7.54-12.33-8.89-19.8-3.24-17.97,2.74-34.46,6.77-51.44,2.11-8.87,5.71-16.54,10.68-23.83,5.07-7.44,11.53-12.75,21.05-13.36,4.59-.29,7.27,1.9,8.76,5.85,1.97,5.23,1.96,10.73,1.74,16.22-.57,14.21-1.53,28.37-4.84,42.28-.33,1.38-.04,2.91-.04,5.59Zm427.2-23.54c1.67,1.98,3.74,2.27,5.64,2.25,11.94-.16,23.81-1.27,35.56-3.4,2.36-.43,6.21-1.36,6.17-3.22-.07-2.97-3.98-2.55-6.37-3.32-1.26-.41-2.56-.73-3.87-.94-13.52-2.18-25.63,1.49-37.13,8.64Z" style="fill:#1e5166;"/><path d="M1457.28,278.87c-.99,9.29-2.15,18.57-2.91,27.89-.35,4.21-2.33,8.3-.72,12.72,.57,1.57-1.01,2.67-2.62,3.05-1.57,.36-2.91,.24-3.74-1.51-1.99-4.16-2.96-8.6-2.35-13.08,2.63-19.21,4.66-38.53,9.47-57.37,2.91-11.41,6.61-22.64,9.14-34.13,2.41-10.97,6.6-21.15,11.29-31.24,1.46-3.13,4.03-5.27,6.17-7.74,1.26-1.46,3.78-1.29,5.55,0,2.29,1.67,2.69,4.17,2.14,6.74-1.1,5.18-2.24,10.35-3.59,15.46-3.04,11.49-2.79,23.34-3.91,35.03-.35,3.61,.23,7.32-.23,10.91-.43,3.34,.91,4.17,3.79,4.09,7.98-.22,15.96-1.05,23.9-1.15,10.97-.14,21.22-3.06,31.7-5.52,11.34-2.65,20.18,4.33,22.32,16.09,1.06,5.83,3.36,11.4,3.88,17.43,.29,3.27,.28,6.48-1.26,9.23-1.46,2.61-1.87,5.18-1.68,7.99,.14,2.07-.83,4.94,1.76,5.71,2.61,.78,4.91-1.36,6.12-3.37,2.62-4.32,6.55-7.58,9.12-11.84,4.31-7.14,9.75-13.47,15.05-19.76,7.13-8.47,13.65-17.62,22.8-24.29,2.48-1.81,4.98-3.45,7.67-1.98,2.67,1.46,3.16,4.71,2.65,7.55-.86,4.87-2.27,9.67-3.66,14.38-3.85,13-7.67,25.88-5.59,39.68,.72,4.8,4.64,7.24,7.84,9.74,2.02,1.57,4.66-1.36,6.84-2.76,16.27-10.44,28.85-25.03,42.86-38.02,5.85-5.42,12.07-10.43,18.06-15.7,3.5-3.08,5.96-1.61,8.21,1.55,2.16,3.02,2,6.59,2.54,10.03,1.22,7.74,3.18,15.27,7.88,21.75,3.53,4.87,7.53,6.16,13.03,3.55,16.46-7.81,30.83-18.17,40.66-34.02,1.8-2.91,5.21-2.63,7.97-1.22,2.69,1.37,3.35,4.48,1.48,6.34-2.45,2.42-1.03,5.49-2.48,8.15-1.06,1.94,1.92,4.22,5.02,2.88,5.48-2.35,10.96-4.51,16.1-7.78,9.65-6.15,19.53-12.08,30.25-16.25,5.27-2.05,10.86-3.33,16.46-.66,1.88,.9,4.47,1.18,3.85,4.26-.56,2.77-2.59,3.68-5.15,3.72-11.04,.19-20.41,5.11-29.66,10.4-9.21,5.27-17.78,11.64-27.33,16.34-8.65,4.26-12.41,3.41-18.73-4.05-1.93-2.28-3.65-1.52-5.57,0-6.91,5.45-13.84,10.88-20.82,16.25-4.87,3.75-10.64,5.59-16.55,6.58-6.84,1.15-14.72-3.6-18.15-10.77-3.58-7.48-7.72-14.79-8.91-23.21-.44-3.12-1.87-2.71-3.55-.99-10.07,10.31-21.16,19.54-31.12,30-7.17,7.54-14.8,14.76-23.34,20.81-12.2,8.64-21.05,1.18-24.22-11.62-3.71-15-1.57-29.98,2.55-44.69,.13-.48,.16-.99,.21-1.48,.17-1.62,1.02-3.85-.6-4.58-1.69-.77-2.62,1.47-3.65,2.66-6.79,7.81-13.11,15.94-19.22,24.33-5.97,8.22-10.83,17.33-18.07,24.6-7.4,7.43-14.95,6.12-19.1-3.38-.91-2.09-1.45-1.93-3.14-.98-9.43,5.25-19.48,7.2-30.22,5.37-4.71-.8-9.35-1.69-14.02-2.85-15.21-3.82-23.54-26-10.32-38.94,2.08-2.04,4.83-3.62,5.81-7.33-6.29,.43-12.34,.74-18.37,1.31-2.76,.26-4.66,1.65-4.22,4.96,1.52,11.54,2.38,23.13,2.83,34.76,.03,.78,.54,1.53,.71,2.31,.65,3.18,1.2,6.38-3.04,7.56-3.83,1.07-6.29-.54-7.83-4.07-4.03-9.24-10.66-16.96-14.67-26.22-.46,.12-.93,.24-1.39,.37Zm68.14,20.63c3.68,.64,8.32-.64,13.03-1.64,8.64-1.83,15.67-4.84,17.93-14.9,1.85-8.25,.61-13.77-6.33-18.43-7.42-4.98-15.81-6.61-24.5-7.11-2.86-.17-5.56,.76-7.97,2.43-4.93,3.39-9.13,7.58-13.46,11.68-4.59,4.34-5.53,9.11-4.09,14.9,1.75,7.06,6.38,10.82,13.28,12.38,3.63,.82,7.26,.59,12.11,.7Zm-49.64-80.78c-.83-2.64,1.64-6.88-.97-7.3-3.13-.5-3.53,3.94-4.5,6.67-3.42,9.66-3.76,20.1-7.63,29.65-.68,1.67-1.09,3.9,.14,5.23,.98,1.06,2.75-.34,4.16-.62,1.78-.36,3.5-1.03,5.27-1.47,2.37-.59,3.47-1.65,3.45-4.49-.08-9.28-.96-18.56,.08-27.67Zm-.43,68.75c.69-6.96,1.33-13.69,.56-20.44-.25-2.21-.02-5.38-3.4-4.79-2.77,.48-5.83,1.47-5.65,5.68,.32,7.63,4.04,13.69,8.49,19.55Z" style="fill:#1e5166;"/><path d="M969.97,608.19c-4.19,3.19-5.74,7.91-7.12,12.08-4.11,12.42-11.88,22.96-16.9,34.88-1.18,2.8-3.39,5.29-5.51,7.56-4.41,4.74-12.4,4.04-18.04-1.88-2.54-2.67-4.79-4.89-8.78-4.48-1.03,.11-2.25-.55-3.23-1.11-9.69-5.58-20.57-7.84-31.31-8.64-8.02-.6-16.35-.01-24.54,.1-2.55,.04-2.69,1.07-2.1,3.08,2.72,9.35,.01,17.66-5.01,25.49-2.04,3.18-9.3,7.06-11.76,6.31-3.9-1.19-7.23-6.5-7.86-11.67-.76-6.24-1.22-12.56-3.11-18.61-.84-2.68-2.05-5.03-4.9-6.53-3.2-1.69-6.65-3.67-8.3-7-2.16-4.34-4.57-3.33-7.81-1.57-11.45,6.21-17.53,16.47-21.18,28.34-1.25,4.08,2.23,8.14,1.67,12.5-.12,.97,.11,1.98,.21,2.98,.29,2.93-1.25,4.9-3.71,5.88-2.7,1.07-4.43-1.03-5.74-2.88-3.41-4.82-4.86-10.36-3.57-16.09,1.12-4.98,.09-9.03-1.7-13.78-6.71-17.73-20.01-30.62-31.44-44.9-2.29-2.86-5.61-3.51-8.91-1.93-7.09,3.4-13.31,7.74-18.18,14.3-8.94,12.02-17.61,24.15-25.02,37.22-1.73,3.06-5.92,5.84-10.2,4.46-3.94-1.27-6.46-4.32-6.7-8.89-.5-9.42-1.52-18.81-2.32-28.2-.78-9.18-3.15-18.23-4.94-27.31-.73-3.74-3.26-4.54-6.66-1.91-8.2,6.35-16.04,13.3-20.83,22.57-5.06,9.78-12.19,18.08-17.87,27.4-6.95,11.41-13.5,23.03-20.11,34.62-1.26,2.2-2.56,4.31-4.48,5.92-4.57,3.83-10.77,2.02-12.92-3.52-3.39-8.72-4.58-17.98-6.87-26.98-.48-1.89-.56-3.91-2.79-5.67-3.21,13.77-12.03,25.39-12.32,39.77-.06,2.89-1.86,4.75-4.08,5.8-1.2,.56-3.29,.3-4.4-1.25-1.39-1.92-1.63-3.74-1.24-6.37,2.49-16.85,12.26-31.15,16.18-47.47,.41-1.72,1.63-3.25,2.48-4.87,1.29-2.48,2.36-5.33,5.99-4.76,3.48,.55,4.74,3.35,5.44,6.26,1.05,4.33,1.05,9.07,2.82,13.05,2.28,5.13,2.05,10.51,3.08,15.74,.51,2.62,1.31,5.14,1.98,7.68,.59,2.25,2.2,2.22,3.5,.22,3.49-5.37,6.25-11.43,10.59-15.99,8.28-8.71,12.27-20.22,20.53-29.07,4.57-4.9,7.2-12.09,11-18.08,6.46-10.19,14.91-18.49,24.68-25.4,4.87-3.44,11.07-.99,13.23,4.56,2.79,7.16,2.64,14.76,3.81,22.15,1.82,11.42,1.88,23.05,4.55,34.33,.26,1.09,.17,2.53,1.62,2.73,1.19,.16,1.43-1.2,2.05-1.92,7.89-9.21,13.19-20.27,21.19-29.42,6.03-6.89,11.69-14.54,19.72-18.82,10.81-5.76,16.35-6.53,24.16,3.84,7.55,10.03,15.2,19.98,22.44,30.23,2.95,4.17,5.18,8.91,7.27,13.6,1.32,2.97,2.26,2.7,3.9,.51,1.4-1.86,2.62-3.95,4.35-5.45,12.65-10.96,25.54-21.45,43.66-21.32,6.88,.05,11.95,3.27,14.94,9.04,3.34,6.44,7.74,8.43,15.1,8.2,14.01-.44,28.13-.19,42.48,3.69-2.28-6.62-5.28-12.53-4.64-19.31,.35-3.73,.07-7.47,4.87-8.62,4.7-1.13,7.37,1.68,9.16,5.14,4.2,8.11,8.21,16.34,11.94,24.69,2.12,4.74,5.19,8.45,9.32,11.44,2.14,1.54,3.57,1.56,5.26-.94,8.57-12.71,16.53-25.72,22.28-40.02,1.83-4.56,4.68-8.71,6.92-13.13,1.77-3.5,4.64-4.47,8.26-4.21,3.36,.24,5.13,1.9,6.35,5.17,2.67,7.15,4.34,14.57,6.62,21.8,3.25,10.26,3.98,21.7,12.81,29.65,3.08,2.77,5.88,5.86,9.44,8.03,1.98,1.21,4.08,2.47,2.65,4.97-1.33,2.33-3.93,1.77-5.78,.63-7.41-4.55-14.16-9.76-18.56-17.63-5.3-9.48-8.13-19.84-11.53-30.01-1.27-3.81-3.1-7.3-5.55-10.99Zm-132.62,38.79c-4.04-.84-5.24,.15-3.87,4.54,1.67,5.33,3.46,10.71,3.98,16.36,.09,.95,.31,2.11,1.44,2.3,.88,.14,1.31-.77,1.8-1.46,3.54-4.93,4.93-10.13,3.64-16.31-.89-4.29-2.69-6.16-7.01-5.43Zm-11.82-18.31c-.72,.29-3.57-1.16-4.2,1.22-.46,1.7,2.26,2.52,3.27,3.99,.18,.26,.46,.48,.74,.66,2.46,1.63,10.56,2.62,10.67,1.33,.38-4.4-3.81-4.71-6.29-6.54-.93-.69-1.83-1.47-4.18-.65Z" style="fill:#1e5166;"/><path d="M260.04,826.78c-6.77,7.74-13,14.08-19.79,19.84-14.35,12.17-40.9,14.83-56.67,4.89-8.4-5.29-15.42-12.35-19.24-21.96-1.25-3.16-1.51-6.52-1.46-9.75,.11-5.83,5.39-9.43,11.14-7.87,2.8,.76,5.6,.88,8.41,.85,5.12-.04,6.46-2.76,3.87-7.4-5.65-10.1-13.76-16.46-25.02-20.24-7.53-2.53-15.05-5.43-22.78-6.52-8.47-1.19-17.02-3.76-25.81-1.58-8.97,2.23-9.45,3.39-9.87,12.53-.85,18.3-5.74,35.36-18.83,48.94-8.64,8.96-16.62,6.64-19.73-5.38-2.11-8.15-1.15-16.81,.78-24.37,2.24-8.75,7.54-17.08,15.4-22.84,4.25-3.11,7.66-7.25,12.7-9.45,3.64-1.59,1.49-5.33,.98-7.59-1.62-7.07-4.06-13.81-8.87-19.68-7.58-9.25-20.93-13.04-31.69-7.79-12.32,6.02-21.63,15.44-30.51,25.89-14.16,16.67-12.46,35.27-8.83,54.24,2.45,12.8,6.73,25.17,13.54,36.46,2.53,4.19,4.69,8.99,10.85,8.79,.91-.03,1.56,.47,1.65,1.48,.11,1.22-.1,2.15-1.28,2.95-3.33,2.29-7.74,1.86-11.05-1.5-5.2-5.26-9.02-11.58-11.15-18.52-2.13-6.98-4.99-13.63-7.5-20.43-1.81-4.9-1.21-10.11-2.35-15.11-1.9-8.39-1.77-17.01-.97-25.49,1.15-12.22,6.24-22.45,15.15-31.42,8.71-8.77,17.2-17.48,28.31-23.18,13.32-6.83,33.79-4.01,42.5,11.89,3.57,6.52,6.56,13.09,8.47,20.24,.52,1.94,1.12,4.73,4.24,3.59,12.23-4.47,24.3-1.19,36.35,.71,14.73,2.32,28.47,7.47,40.78,16.01,7.67,5.32,12.31,12.99,14.75,21.8,1.68,6.07-3,11.34-10.03,11.94-2.64,.23-5.32-.1-7.98-.2-1.51-.05-3.26-2-4.47,.03-1.15,1.92-1.01,4.32,.08,6.25,8.79,15.53,21.62,23.82,39.99,22.07,4.08-.39,7.58-2.3,11.25-3.86,12.77-5.43,22.18-14.87,30.58-25.5,2-2.53,2.45-5.28,2.16-8.78-.59-7.22-.23-14.56,.19-21.82,.2-3.49,2.57-6.47,5.83-7.37,3.19-.88,4.71,2.37,6.45,4.57,5.44,6.88,2.67,14.12,.12,20.73-5.21,13.51-1.21,24.67,7.42,34.91,3.85,4.57,6.67,4.5,10.67-.08,5.11-5.87,9.79-12.13,14.88-18.02,5.64-6.53,11.29-13.27,19.02-17.33,9.14-4.8,13.71-2.97,18.79,8.96,4.5,10.58,7.27,21.9,10.89,32.87,.55,1.66,.45,4.3,2.44,4.53,2.52,.29,1.07-2.61,1.99-3.8,5.54-7.16,10.71-14.59,16.53-21.57,6.67-8,14.91-13.46,24.48-16.39,8.29-2.54,18.38-.57,26.08,8.99,6.76,8.39,8.14,17.89,7.36,28.02-.25,3.28,.55,6.61-.74,9.89-1.32,3.36-3,5.62-7,4.39-4.1-1.25-5.16-4.25-3.6-7.81,3.13-7.13,2.65-14.14,.66-21.42-3.99-14.59-18.18-15.64-28.22-9.73-10.7,6.29-17.92,15.6-23.6,26.32-2.26,4.26-4.52,8.51-7.46,12.37-2.37,3.11-5.59,4.11-9.19,4.12-2.91,0-4.71-1.41-5.68-4.5-4.6-14.66-8.13-29.66-14.18-43.86-1.39-3.26-3.08-4.51-6.31-2.23-8.47,5.97-16.01,12.79-21.75,21.58-3.4,5.21-6.91,10.65-11.5,14.7-7.81,6.89-18.13,2.78-23.04-4.85-3.95-6.15-8.45-12.34-9.57-21.21Zm-164.33-41.89c-7.19,2.51-11.15,8.04-16.23,12.21-9.25,7.6-10.19,17.56-9.6,28.2,.13,2.44,.67,4.89,1.33,7.25,1.19,4.22,3.37,4.92,6.72,1.87,3.06-2.78,6.13-5.66,8.24-9.32,7.11-12.31,10.33-25.54,9.54-40.21Z" style="fill:#1e5166;"/><path d="M854.23,817.07c-6.5,3.71-12.41,6.25-19.53,6.53-5.15,.2-9.52-1.04-13.47-3.32-7.48-4.31-14.14-9.88-19.7-16.56-2.09-2.51-3.02-2.56-4.89,.36-6.37,9.95-15.04,17.39-25.28,23.36-8.86,5.17-17.9,9.93-27.06,14.54-13.76,6.92-28.5,9.57-43.55,9.07-7.18-.24-15.63-1.7-17.87-11.11-1.33-5.6-.59-11.26,1.14-16.66,2.86-8.95,5.12-18.07,9.21-26.65,2.12-4.44,1.61-9.36-1.75-13.62-3.3-4.18-6.37-8.52-11-11.44-7.05-4.45-17.04-4.1-23.19,1.51-4.95,4.52-10.56,8.22-14.57,13.93-3.25,4.62-4.7,8.46-2.67,14.09,4.75,13.22,1.94,25.54-6.57,36.41-4.02,5.13-11.46,3.11-13.54-3.14-2.81-8.42-.38-16.38,1.77-24.42,.86-3.21,1.95-6.28,3.36-9.31,3.82-8.23-.77-15.61-10.04-15.96-9.79-.37-18.45,3.81-19.94,15.98-1.35,11.04,.76,21.53,2.04,32.19,1.07,8.89,1.82,17.78,2.48,26.69,.2,2.71-.83,3.92-3.46,4.4-2.76,.51-4.38-.07-5.21-3.01-.97-3.42-1.22-6.84-1.19-10.34,.06-10.02-2.1-19.77-3.56-29.62-1.84-12.39-1.19-24.37,4.74-35.96,2.59-5.07,6.87-7.67,11.12-9.16,9.2-3.23,18.31-2.16,26.15,4.71,4.7,4.12,4.61,3.74,8.83-1.19,7.1-8.3,14.39-16.36,25.7-19.31,16.63-4.33,24.6,1.23,33.38,12.24,2.73,3.42,5.54,7.05,7.09,11.06,2.52,6.52,.81,12.99-2.14,19.21-4.34,9.19-8.12,18.6-9.32,28.82-.56,4.74,2.54,7.74,7.12,8.64,8.25,1.63,16.24,1.68,24.49-.15,14.85-3.3,27.72-10.57,40.45-18.46,8.22-5.1,16.16-10.39,22.41-17.85,2.02-2.41,3.73-5.08,5.45-7.73,1.55-2.38,1.8-4.99,.6-7.61-5.67-12.33-3.93-25.81-5.99-38.7-.42-2.64,.07-5.14,3.43-5.55,3.26-.4,6.31,.29,7.08,3.91,1.65,7.73,5.08,15.09,5.17,23.11,.06,4.97,1.44,9.86,.65,14.9-.2,1.29,.72,2.89,1.44,4.17,4.78,8.42,11.76,14.95,19.55,20.29,10.04,6.89,19.58,2.93,28.51-3.24,1.37-.94,2.74-1.9,4-2.98,3.47-2.96,7.86-4.65,11.33-1.67,3.43,2.95,1.23,7.53-.42,11.07-2.74,5.9-5.28,11.83-6.65,18.21-2.6,12.02,3.06,18.51,15.28,17.03,7.09-.86,13.94-2.94,20.73-5.19,13.2-4.37,26.14-10.05,40.34-10.18,10.16-.09,18.92,3.33,21.57,14.28,1.33,5.48,3.4,10.79,3.97,16.46,.16,1.56,.89,2.81,1.69,4.09,1.18,1.88,4.34,4.2,1.18,5.98-2.35,1.32-5.81,4.28-8.96-.51-1.62-2.46-2.82-4.6-3.14-7.48-.52-4.64-2.08-9.03-3.82-13.35-2.53-6.28-7.61-8.63-14.52-8.61-13.97,.03-26.46,5.44-39.38,9.51-8.77,2.76-17.44,5.82-27.03,5.4-12.11-.53-21.81-13.4-18.38-25.22,1.55-5.34,2.76-10.78,4.31-16.89Zm-222.15-7.07c-1.83,5.21-2.09,10.17-2.11,15.15,2.83-4.64,5.25-9.33,2.11-15.15Z" style="fill:#1e5166;"/><path d="M480.59,438.27c-4.02,10.47-7.99,19.85-11.22,29.48-4.44,13.27-10.77,25.47-19.1,36.64-4.17,5.59-12.91,6.21-18.64,1.1-5.88-5.24-10-11.79-13.22-19.07-5.25-11.86-7.55-24.2-8.13-37.08-.24-5.26,.63-10.4,.45-15.67-.37-11.28,1.33-22.59,.77-33.95-.12-2.5,1.61-4.9,1.75-7.65,.2-3.96-1.11-5.64-4.75-3.72-5.13,2.7-10.64,2.03-16.03,2.73-2.99,.38-4.64-.23-4.68-3.28-.04-2.91,.18-6.04,4.18-6.06,4.35-.03,8.44-1.06,12.66-1.89,5.29-1.04,10.37-1.55,14.51-5.6,1.87-1.83,4.62-.81,6.52,.51,1.96,1.36,1.25,3.65,.47,5.47-5.91,13.7-6.7,28.31-8.43,42.87-1.46,12.33-2.11,24.5-.22,36.72,2.15,13.87,7.07,26.61,16.94,36.97,3.83,4.02,8.36,3.94,11.13-.77,1.42-2.41,6.75-3.24,3.92-7.81-.07-.11,.24-.66,.46-.73,8.49-2.67,8.42-11.17,11.21-17.36,4.19-9.31,6.63-19.38,10.47-28.86,2.48-6.12,5.14-12.31,9.43-17.53,1.96-2.38,5.74-1.49,6.92,1.55,1.98,5.09,1.92,10.49,2.05,15.76,.24,9.8,1.02,19.46,2.58,29.17,.92,5.72,2.14,11.16,4.3,16.45,1,2.46,1.94,5.09,3.56,7.11,1.76,2.2,3.21,6.06,6.67,5.13,3.18-.86,2.67-4.67,3.48-7.44,2.14-7.38-.96-13.29-3.72-19.83-2.4-5.69-5.58-11.83-4.29-18.43,2.16-11.06,16.01-19.25,28.66-17.19,14.33,2.33,26.26,9.77,38.34,16.93,4.65,2.76,9.56,5.13,13.58,9.03,2.6,2.53,5.7,4.43,7.41,7.87,1.25,2.51,2.79,3.27,4.97,.32,11.04-14.92,26.02-24.94,42.28-33.23,5.33-2.72,10.26-.22,12.6,5.73,3.66,9.3,5.32,19.14,7.94,28.73,.69,2.54,1.05,6.36,3.82,6.27,2.82-.1,2.78-3.99,3.24-6.51,1.99-10.7,4.76-21.36,11.03-30.21,6.22-8.78,14.35-16.1,25.34-18.83,4.4-1.09,7.72,.83,11.53,3.8,5.23,4.09,6.64,10.09,9.32,15.07,3.15,5.85,5.45,12.76,6.18,19.75,.2,1.9,.37,4.3,1.99,4.8,2.16,.67,2.58-2.08,3.59-3.46,6.23-8.54,12.18-17.33,21.55-22.92,4.11-2.45,8.16-5.07,12.85-6.25,6.42-1.62,9.68,3.01,8.76,11.28-1.13,10.17-3.49,20.21-5.45,30.28-.65,3.32,.08,6.58-.01,9.86-.04,1.29,.06,2.23,1.93,1.7,3.13-.89,4.08,2.38,6.01,3.71,1.37,.94,.52,2.73-1.11,2.77-2.36,.06-4.05,1.36-5.96,2.29-5.37,2.61-10.72-.75-10.73-6.81-.02-8.14,.75-16.05,3.31-23.97,1.84-5.7,1.58-12.09,2.2-18.18,.26-2.54-1.63-2.14-3.03-1.89-7,1.23-11.97,5.89-15.98,11.07-5.08,6.56-9.01,14-13.78,20.82-1.71,2.45-4.05,5.49-7.71,4.23-3.93-1.35-5.64-4.59-5.93-8.87-.34-5.12-.58-10.43-2.12-15.25-2.7-8.44-5.75-16.93-13.18-22.75-1.85-1.45-3.75-1.48-6.07-1.03-8.35,1.63-12.17,8.48-16.93,14.22-6.78,8.18-7.05,18.68-9.75,28.31-1.56,5.54-2.15,11.3-4.57,16.67-1.08,2.4-2.1,3.84-4.62,4.26-2.44,.41-3.92-1.29-4.84-2.86-4.05-6.92-8.12-13.79-10.07-21.8-1.71-7.01-2.9-14.2-6.05-20.86-1.56-3.3-2.91-4.15-6.38-2.28-10.23,5.51-19.91,11.78-27.47,20.64-5.33,6.25-11.16,12.27-14.37,20.1-1.04,2.54-3.05,3.53-5.65,2.7-2.35-.75-3.93-2.01-3.65-5.06,.88-9.64-3.22-16.37-11.99-20.72-7.22-3.58-13.1-9.5-20.61-12.64-5.95-2.49-11.93-5.08-18.13-6.79-7.15-1.96-13.89,.71-19.95,4.26-3.68,2.16-4.36,9.49-2.44,14.09,2.93,7.02,7.04,13.75,7.55,21.48,.52,7.87-1.09,15.43-6.72,21.58-3.7,4.05-11.87,.88-15.09-3-7.05-8.49-11.75-18.32-13.13-29.35-1.41-11.29-3.52-22.54-3.47-33.99,0-.56-.4-1.13-1.04-2.81Z" style="fill:#1e5166;"/><path d="M998.35,462.76c3.14-7.13,7.4-13.03,11.88-18.68,4.57-5.75,9.54-11.43,17.31-13.08,5.95-1.27,11.65,2.75,13.71,8.55,3.95,11.08,8.22,22.05,12.67,32.95,.63,1.55,1.39,4.22,3.77,4.17,2.28-.04,2.97-2.45,3.9-4.12,5.64-10.09,10.29-20.62,13.06-31.87,.8-3.25,2.81-4.74,5.53-4.58,2.84,.17,4.58,1.69,5.26,5.31,1.09,5.74-1.87,11.01-.74,16.64,.91,4.51,1.09,9.22,3.24,13.38,2.06,3.99,4.37,4.15,7.08,.65,5.23-6.76,10.12-13.81,15.64-20.32,4.89-5.76,9.84-11.19,18.33-12.69,6.46-1.14,10.98,.55,15.45,4.38,3.53,3.02,7.12,5.99,10.52,9.16,2.39,2.23,4,1.54,5.57-.83,2.02-3.03,3.4-6.39,5.42-9.47,4.35-6.61,10.18-10.98,17.13-14.31,4.12-1.98,8.39-1.93,12.04,.08,3.72,2.04,4.75,6.61,6.31,10.36,1.45,3.47,2.23,7.24,3.17,10.91,.83,3.25,1.36,6.55,5.91,6.56,.94,0,2.1,1.1,2.77,1.98,4.33,5.72,9.54,10.46,15.53,14.35,1.53,.99,2.18,2.12,1.37,3.7-.83,1.61-2.38,1.62-3.93,1.14-5.4-1.66-10.9-3.09-14.82-7.67-2.6-3.04-4.7-2.7-6.08,1.19-1.91,5.39-5.78,8.24-11.46,8.7-3.31,.26-4.33,3.51-6.61,5.05-3.97,2.68-8.06,5.25-12.32,7.42-9.03,4.59-22.38,1.81-25.79-8.85-1.86-5.8-.89-11.23,2.49-15.99,2.09-2.94,1.19-4.46-1.26-5.9-3.6-2.12-6.97-4.62-9.79-7.61-7.29-7.74-15.91-4.68-21.09,1.72-4.89,6.04-9.14,12.6-13.66,18.94-2.02,2.84-3.92,5.75-6.47,8.19-6.78,6.5-15.53,4.58-19.08-4.21-1.45-3.59-3.04-7.13-4.88-11.43-2.69,4.17-4.25,7.87-5.77,11.32-1.96,4.47-5.2,7.35-8.79,9.8-3.51,2.39-7.05,.43-9.45-2.52-3.45-4.24-5.66-9.33-7.34-14.42-2.81-8.55-7-16.47-10.45-24.71-2.18-5.19-6.06-4.7-10.42-1.65-9.22,6.45-12.3,16.84-18.2,25.39-1.72,2.49-3.29,4.86-7.07,4.35-3.66-.49-5.33-2.67-6.86-5.67-4.02-7.92-5.78-16.59-5.2-25.06,.86-12.55,.12-24.63-3.28-36.72-1.12-4-2.76-3.53-5.2-1.99-4.66,2.95-7.47,7.61-10,12.22-3.95,7.22-6.86,14.79-8.65,23.04-1.51,6.94-3.56,13.9-5.02,20.9-1.62,7.77-4.69,15.04-6.65,22.68-.62,2.41-2.6,4.09-5.12,4.04-2.49-.06-3.94-1.83-5.08-4.14-2.91-5.87-2.32-12.16-3.13-18.34-.85-6.58,1.11-13.49-2.31-19.81-.69-1.28,.01-3.27-.08-4.92-.44-7.32-1.52-14.45-6.6-20.81-11.47,15.19-16.1,32.57-17.74,50.99-.46,5.21-.65,10.44-.83,15.67-.03,.89-.93,2.77,1.13,2.56,5.34-.56,2.9,2.2,1.99,4.36-.79,1.87-2.19,3.29-3.39,4.87-1.82,2.4-3.91,3.91-6.75,2.48-2.78-1.39-3.96-4.24-3.57-7.19,2.09-16.04,3.23-32.31,8.42-47.74,3.77-11.21,7.63-22.5,14.75-32.22,2.17-2.96,4.55-6.16,8.7-5.49,4.25,.68,5.42,4.27,6.97,8.02,3.79,9.12,2.36,18.88,4.49,28.13,1.77,7.66,.95,15.6,2.67,23.72,5.52-11.48,7.63-23.6,11.41-35.16,4.01-12.25,9.97-23.38,17.7-33.53,5.28-6.93,11.3-8,16.74-4.13,1.34,.95,1.95,2.06,2.5,3.5,3.37,8.89,4.12,18.18,3.98,27.53-.14,9.08-.62,18.16,.75,27.18,.49,3.2,1.01,6.45,3.65,9.62Zm199.72-4.92c-1.84-5.62-3.79-12.12-6.14-18.48-.76-2.05-2.79-1.68-4.74-1.01-9.48,3.25-14.89,10.85-20.31,18.53-2.2,3.11-.71,4.74,2.01,5.96,5.45,2.45,10.81,5.15,16.77,6.22,5,.9,12.46-5.33,12.4-11.23Zm-16.48,19.82c-6.88-2.47-13.27-4.64-18.94-8.37-.84-.55-2.08-1.2-2.63-.09-1.54,3.09-3,6.36-2.34,9.9,.56,3.02,3.01,3.85,5.83,4.53,7.12,1.72,12.37-1.52,18.08-5.97Z" style="fill:#1e5166;"/><path d="M309.16,679.18c2.42-5.38,4.06-9.68,6.23-13.71,4.79-8.88,9.77-17.65,14.81-26.39,1.84-3.19,4.29-5.85,7.7-7.58,4.92-2.51,7.84-1.68,10.53,3.18,2.93,5.29,2.51,11.3,3.57,16.96,1.44,7.7,6.25,12.78,12.08,16.91,4.51,3.19,12.08-.41,12.85-5.82,.77-5.42,4.22-9.64,5.83-14.67,.89-2.77,3.6-3.3,6.22-2.99,2.65,.32,4.71,1.62,5.31,4.49,.24,1.14,.78,2.38,.55,3.43-1.42,6.31,2.08,9.49,7.12,11.88,8.18,3.89,16.45,7.18,25.8,5.06,2.45-.56,4.94-1.2,7.1,.99-3.8,7.26-9.62,9.04-17.72,8.28-7.19-.67-13.54-3.75-20.46-4.94-3.54-.61-5.84-3.72-8.39-6.05-2.13-1.94-3.02-2.3-4.51,.79-2.1,4.36-5.43,7.66-10.31,9.46-9.12,3.38-15.61-2.59-22.21-9.25-5.93-5.98-6.1-14.01-8.47-21.27-.15-.46-.08-.99-.07-1.49,.04-2.3-1.75-4.58-2.88-5.19-1.67-.9-2.52,2.07-3.47,3.48-5.96,8.84-10.75,18.28-14.61,28.24-2.39,6.18-5.36,12.14-8.16,18.16-1.13,2.42-2.82,4.18-5.89,3.28-3.43-1-6.19-3.55-6.5-6.68-1.39-13.92-2.37-27.89-3.14-41.86-.49-8.74-.58-17.53-.4-26.28,.12-5.94-.94-11.71-1.59-17.53-.47-4.21-2.96-4.26-6.38-2.45-10.44,5.52-17.64,14.62-25.34,23.05-12.87,14.09-21.65,30.94-30.62,47.6-1.67,3.1-3.57,5.99-5.54,8.88-2.4,3.53-5.81,3.11-8.9,2.14-3.37-1.05-2.62-4.32-2.09-6.85,2.2-10.49,4.75-20.92,5.84-31.59,1.15-11.28,3.61-22.46,2.3-33.97-.49-4.29-2.46-3.76-4.89-2.39-5.14,2.91-8.92,7.41-12.71,11.8-7.04,8.16-10.05,18.15-12.28,28.42-1.51,6.98-2.88,13.99-4.14,21.01-.47,2.6-2.13,3.38-4.27,3.11-2.81-.35-5.28-1.71-5.09-5,.22-3.79,.62-7.63,1.51-11.31,.62-2.55-.07-4.34-1.25-6.45-4.44-8.02-9.68-15.4-15.81-22.23-9.56-10.66-18.95-11.06-29.74-1.56-12.26,10.81-20.35,24.47-27.28,38.89-2.36,4.92-5.95,8.75-9.1,12.92-2.31,3.05-6.66,3.62-10.16,2.36-4.17-1.49-7.69-3.96-9.07-9.04-3.78-13.89-3.84-28.06-3.44-42.2,.17-5.97-1.31-11.63-1.51-17.49-.13-3.81-3.85-5.04-6.36-2.14-8.37,9.67-15.7,20.07-21.21,31.69-2.54,5.35-4.07,10.87-3.79,16.81,.27,5.8,1,11.24,7.52,13.93,1.81,.74,5.5,1.72,4.12,4.91-1.29,2.98-4.22,3.79-7.64,2.84-7.8-2.18-12.81-9.02-13.11-17.82-.44-13.31,3.83-24.79,11.95-35.33,6.68-8.67,12.27-18.16,20.79-25.36,6.42-5.43,10.51-4.71,14.24,3,2.01,4.17,2.12,8.43,1.86,13.04-.51,9.28,.06,18.62-.26,27.92-.2,6.06,.6,11.91,1.89,17.76,.4,1.83,1.08,3.54,2.25,4.93,3.46,4.08,5.94,3.97,8.97-.39,5-7.2,9.49-14.74,14.34-22.02,7.75-11.65,15.5-23.69,28.01-31.05,10.13-5.95,18.41-6.19,29.09,5.06,6.3,6.64,10.98,14.53,16.76,21.57,.68,.83,.87,2.48,2.39,2.07,1.07-.29,.92-1.64,1.28-2.54,4.85-12.28,10.4-24.17,20.57-33.1,3.7-3.25,7.25-6.7,12.11-8.53,5.64-2.12,10.14,.12,11.12,6.39,.87,5.62,.77,11.35,.03,16.92-2,14.93-4.44,29.79-6.7,44.67,1.66,.51,1.78-.81,2.19-1.54,5.21-9.33,12.17-17.42,18.25-26.08,6.1-8.68,12.28-17.26,18.9-25.55,5.58-6.99,12-12.95,19.77-17.44,1.87-1.08,3.64-2.34,5.35-3.67,4.33-3.38,7.56-2.72,10.84,1.65,3.81,5.08,3.44,11.12,3.65,16.71,.55,14.73-1.52,29.51,.11,44.23,.9,8.16-.03,16.61,3.79,25.92Z" style="fill:#1e5166;"/><path d="M1158.18,68.35c-3.32,1.44-5.24,3.18-7.07,5.14-8.15,8.73-16.85,16.86-26.36,24.11-5.37,4.09-11.17,3.77-16-.97-2.89-2.84-5.17-6.18-7.02-9.68-5.01-9.51-10.64-18.71-14.52-28.84-1.24-3.25-3.76-.43-5.02,.5-4.58,3.37-7.94,7.96-11.35,12.46-3.01,3.97-5.94,8-9.1,11.85-5.2,6.34-11.41,6.03-16.79,.11-4.69-5.16-6.62-11.34-8.36-17.71-.4-1.47-.51-3.15-2.07-3.66-1.59-.52-2.25,1.2-3.02,2.14-7.95,9.61-17.26,17.8-27.33,25.04-7.57,5.45-15.53,10.11-25.73,8.45-8.84-1.43-19.43-10.17-21.68-18.83-.25-.97-.47-1.94-.78-2.89-.93-2.87-2.29-4.05-4.8-1.29-7.6,8.35-15.89,16-24.46,23.32-5.01,4.28-8.65,9.96-14.17,13.69-6.74,4.56-13.4,9.58-22.33,7.4-8.09-1.97-17.32-12.96-18.98-21.2-1.03-5.12-3.24-10.01-5.1-14.94-.85-2.24-2.09-2.22-4.16-.71-5.57,4.07-8.51,10.11-11.58,15.78-3.21,5.92-7.11,11.65-8.53,18.5-.46,2.21-1.98,4.04-4.68,3.36-2.57-.64-3.24-2.89-3-5.12,.25-2.42,.61-5.03,1.73-7.14,5.82-11,11.5-22.11,19.18-32.01,.51-.66,1.08-1.28,1.69-1.84,8.84-8.17,16.3-6.73,18.51,5.34,1.54,8.38,2.59,17.15,8.21,24.33,6.11,7.8,16.07,9.63,24.07,3.63,4.97-3.73,9.49-8.08,14.03-12.35,9.17-8.64,18.22-17.42,27.28-26.17,.7-.68,1.11-1.65,1.66-2.48,2.14-3.25,5.08-5.95,9.01-5.08,4.03,.9,4.64,5.33,4.71,8.51,.17,7.16,4.02,11.78,9.17,15.69,4.91,3.73,10.46,3.97,15.98,1.47,16.63-7.54,30.1-19.03,41.32-33.32,1.58-2.01,2.7-4.28,3.34-6.65,.86-3.16,2.38-5.46,5.82-4.58,3.17,.82,5.02,3.51,4.53,6.82-1.06,7.18,.86,13.85,2.94,20.51,.91,2.91,2.3,5.98,5.58,6.46,3.08,.45,4.67-2.38,6.71-4.39,7.18-7.05,12.77-15.57,20.9-21.76,7.36-5.6,13.3-4.63,15.82,4.2,2.9,10.19,8.08,19.12,13.08,28.23,5.04,9.19,6.9,8.94,15.63,3.03,9.16-6.2,17.45-13.19,25.21-20.96,4.32-4.33,8.63-8.67,12.94-13.01,1.32-1.32,2.72-2.7,4.74-2.22,2.25,.54,2.21,2.62,2.46,4.43,.95,7.03-2.75,13.18-3.78,19.85-1.06,6.87-2.48,13.67-1.5,20.68,.27,1.94-.1,4.66,2.22,4.99,2.25,.31,1.77-2.74,2.76-3.97,5.71-7.08,9.34-15.3,13.19-23.37,4.56-9.59,8.87-19.32,12.97-29.12,1.38-3.3,1.71-7.04,2.63-10.55,.81-3.09,1.61-6.73,5.9-5.93,3.64,.68,5.22,3.37,5.27,7.3,.09,7.87,1.08,15.53,6.09,22.17,8.72,11.55,17.34,15.99,32.62,12.23,6.21-1.53,12.26-.4,18.33,.45,8.04,1.12,16.02,2.64,24.07,3.67,3.6,.46,6.65,1.86,9.6,3.73,1.38,.88,3.26,1.85,2.6,3.76-.6,1.76-2.35,2.81-4.36,2.8-6.49-.03-13.01,.19-19.48-.28-8.56-.62-17.17-.87-25.6-2.95-3.68-.91-7.57,.29-11.3,.6-12.14,1.01-21.68-3.37-29.55-12.21-3.51-3.95-7.02-7.87-9.37-12.73-1.38-2.84-2.98-2.04-3.99,.53-1.88,4.79-3.65,9.62-5.62,14.38-4.25,10.25-9.04,20.25-13.96,30.19-2.41,4.86-3.68,10.26-7.77,14.23-3.62,3.52-7.1,3-10.3-.95-8.6-10.61-6.32-22.77-5.34-34.75,.24-2.93,.86-5.84,1.42-9.47Z" style="fill:#1e5166;"/><path d="M1653.34,454.67c-5.42,8-10.56,15.95-16.9,22.94-6.64,7.33-14.58,11.8-25.13,10.09-5.36-.87-9.02-4.05-11.39-8.15-5.7-9.87-7.89-20.78-7-32.17,1.07-13.56,2.39-27.11,3.51-40.67,.11-1.34,.85-3.59-1.04-3.87-2.36-.35-1.82,2.16-2.27,3.6-2.31,7.46-4.38,15.02-6.99,22.37-5.43,15.27-10.96,30.51-16.82,45.62-2.96,7.64-6.84,14.93-10.07,22.47-1.37,3.2-3.92,3.89-6.8,3.94-1.99,.04-3.59-1.35-4.05-3.2-.64-2.6-.69-5.2,1.85-7.23,3.06-2.45,3.95-6.45,5.84-9.67,5.25-8.94,9.38-18.53,12.99-28.3,5.02-13.56,10.12-27.08,14.99-40.69,3.24-9.05,6.31-18.14,10.24-26.93,.71-1.59,1.72-2.79,2.74-4.05,1.29-1.59,2.78-2.97,5.11-2.32,2.63,.74,3.79,2.84,3.92,5.25,.2,3.82,.22,7.68-.15,11.48-.57,5.94-1.67,11.82-2.27,17.75-.72,7.07-.54,14.28-1.83,21.22-2.02,10.86-1.84,21.51,1.34,31.97,3.8,12.49,14.05,16.38,24.26,7.35,12.19-10.78,19.8-24.5,26.97-38.59,3.76-7.39,7.96-14.47,12.24-21.56,3.14-5.2,6.27-10.51,9-15.97,1.43-2.87,3.25-2.97,5.62-2.26,2.53,.75,4.03,2.47,3.47,5.24-.73,3.6-1.99,7.03-4.08,10.1-10.44,15.3-14.86,32.81-18.35,50.6-1.54,7.86,2.07,16.16,7.21,18.72,2.23,1.11,4.29,1.1,6.72,.52,7.95-1.91,13.7-7.48,19.86-12.09,16.05-12.01,33.02-22.72,48.63-35.33,2.81-2.27,6.21-3.89,9.48-5.5,7.17-3.53,13.28-.77,15.45,6.93,2.06,7.28,2.78,14.85,5.67,21.99,3.55,8.77,8.48,16.36,15.55,22.6,1.69,1.49,3.13,.57,4.41-.56,2.88-2.53,5.06-5.65,7.2-8.81,5.56-8.23,10.41-17,17.06-24.43,7.59-8.48,18.64-9.64,27.9-3.07,8.56,6.08,16.93,12.39,27.14,15.62,9.11,2.88,18.36,4.71,27.95,4.47,1.33-.03,2.67-.1,4,.03,2.39,.23,5.24,.91,5.38,3.45,.14,2.68-2.91,2.6-4.96,3.02-14.91,3.08-28.82-.06-42.81-5.52-8.21-3.2-15.14-8.21-22.68-12.32-7.85-4.28-15.36-2.26-20.17,5.13-5.89,9.05-11.68,18.13-16.9,27.6-4.28,7.77-13.96,8.8-20.45,2.38-10.94-10.83-17.39-24.17-20.78-39.08-.33-1.45-.55-2.97-1.12-4.33-2.35-5.62-4.07-6.02-9.44-3.16-12.24,6.52-22.38,16.1-34.1,23.29-12.49,7.67-22.6,18.44-35.29,25.88-12.52,7.35-27.74-2.98-28.89-14.99-.6-6.22-.91-12.44-.97-18.83Z" style="fill:#1e5166;"/><path d="M1505.11,22.49c-4.25,6.75-7.68,14.26-9.09,21.75-2.36,12.44-7.62,23.79-10.99,35.81-2.09,7.46-6.23,14.32-9.01,21.61-2.48,6.48-5.61,12.71-6.86,19.68-.75,4.18-4.52,7.16-5.64,11.36-.22,.84-1.45,1.12-2.15,.67-1.93-1.25-4.31-2.6-4.39-5.01-.06-1.99,.19-4.15,1.16-6.21,4.72-9.99,9.4-20,13.78-30.15,5.92-13.71,11.71-27.47,17.2-41.36,1.85-4.69,2.65-9.8,3.87-14.73,2.76-11.17,6.65-21.87,12.81-31.69,1.44-2.29,3.41-3.31,5.82-2.98,2.45,.33,3.15,2.27,3.59,4.68,1.25,6.85,.12,13.47-1.02,20.17-1.31,7.66-1.08,15.33-.76,23.12,.32,7.53-.04,15.09,1.16,22.6,1.34,8.34,9.08,20.54,17.13,21.89,2.93,.49,5.34,.1,7.48-1.59,11.17-8.75,20.37-19.36,29.22-30.39,9.87-12.3,18.51-25.57,29.57-36.95,2.35-2.42,5.3-3.95,7.58-6.4,1.6-1.72,3.52-.45,4.96,.59,1.83,1.33,3.45,2.57,2.9,5.66-1.24,6.93-4.64,13.07-6.56,19.72-2.29,7.91-4.87,15.72-6.68,23.78-1.53,6.78-3.28,13.44-2.77,20.46,.29,4,.96,7.83,2.74,11.54,3.9,8.14,10.54,9.42,17.62,3.75,14.46-11.59,26.59-25.39,38.74-39.24,4.37-4.99,9.44-9.37,14.15-14.07,1.55-1.54,3.24-2.3,5.4-1.62,2.35,.74,3.57,2.56,3.79,4.81,.26,2.62,.09,5.24-.36,7.92-1.09,6.48-.5,12.98,2.22,19,1.98,4.4,4.77,5,8.95,2.71,10.31-5.65,18.95-13.43,27.42-21.42,2.24-2.12,1.8-6.49,6.46-6.74,3.71-.2,5.45,2.91,8.4,3.76,6.4,1.85,12.85,3.49,19.57,3.36,13.13-.25,26.26-.26,39.34-1.93,7.68-.98,15.25,.41,22.23,3.83,4.47,2.19,8.68,4.93,12.9,7.59,1.32,.83,4.13,.8,3.09,3.6-.83,2.26-2.25,4.11-4.89,4.5-2.79,.41-5.43-.35-7.6-1.88-5.14-3.62-11.01-5.4-16.86-7.29-3.53-1.14-7.06-1.38-10.81-.87-15.52,2.09-31.15,2.74-46.78,2.46-5.38-.1-10.79-1.78-16.06-3.24-3.32-.92-5.41-.22-8,2.05-7.7,6.77-14.64,14.39-23.42,19.99-11.55,7.35-20.63,2.49-23.95-9.51-1.18-4.25-2.4-8.67-2.14-13.25,.07-1.28,.04-2.94-1.45-3.44-1.24-.42-2.05,.93-2.86,1.68-8.29,7.66-14.99,16.83-22.98,24.74-7.98,7.9-14.61,17.29-24.41,23.25-7.91,4.82-19.91,2.55-23.98-6.16-5.47-11.73-6.28-23.69-2.6-36.19,2.47-8.38,3.9-17.06,6.06-25.54,1.02-3.99,2.67-7.81,4.02-11.71,.4-1.14,1.83-2.5,0-3.4-1.46-.71-2.43,.68-3.26,1.69-5.26,6.44-11.01,12.57-15.58,19.47-4.87,7.35-10.93,13.7-15.89,20.91-6.88,10-14.91,18.87-24.66,26.19-4.92,3.69-12.88,4.29-18.12,1.03-7.24-4.51-11.22-11.17-14.04-19.1-3.48-9.77-3.59-20.01-4.01-29.96-.35-8.3,.61-16.81,.39-25.25-.04-1.54,.11-2.99-1.09-4.14Z" style="fill:#1e5166;"/><path d="M142.36,278.16c2.39-4.13,4.68-7.9,5.15-12.8,.82-8.49,2.54-16.89,4.02-25.31,.34-1.95,1.84-3.35,3.85-3.27,1.89,.08,3.54,1.15,3.97,3.23,.77,3.74,1.74,7.55,.59,11.33-3.52,11.52-3.26,23.16-1.52,34.89,.18,1.19,.19,2.56,1.57,2.74,1.43,.19,1.84-1.06,2.1-2.29,1.8-8.48,6.18-16.06,10.31-23.34,3.09-5.45,5.21-11.6,9.54-16.49,5.68-6.42,7.54-15.05,11.8-22.34,.93-1.6,1.73-3.07,3.24-4.16,1.8-1.3,3.68-2.78,5.88-1.43,2.18,1.33,2.77,3.74,2.41,6.17-1.1,7.37-2.55,14.7-3.48,22.09-1.91,15.18-2.82,30.33-.01,45.59,1.44,7.82,1.85,15.8,5.53,23.07,.77,1.52,.47,3.08-1.34,3.58-2.38,.67-4.51-.25-5.27-2.56-2.96-8.96-5.59-18.01-6.44-27.48-1.31-14.74-1.95-29.49-.28-45.78-4.83,5.12-8.31,9.59-10.81,14.61-1.55,3.12-3.02,6.27-4.72,9.32-5.33,9.59-8.32,20.14-11.93,30.41-.87,2.47-1.7,4.99-2.62,7.45-.99,2.64-2.71,5.02-5.68,4.71-2.89-.3-4.77-2.47-6.05-5.3-1.85-4.07-.59-8.44-1.71-12.55-.21-.78,.01-1.75-.81-2.21-1.18-.65-1.76,.44-2.47,1.07-5.2,4.52-10.99,2.4-12.87-4.46-1.12-4.09-2.82-8.02-4.42-12.46-4.8,4.44-8.26,9.55-11.84,14.52-4.66,6.46-10.51,7.66-17.3,3.44-1.28-.8-1.18-1.68-1.22-2.89-.06-1.92,0-3.99-2.09-5.45-3.8,6.26-8.84,11.46-12.62,17.67-4.58,7.54-13.78,9.2-21.11,4.48-3.04-1.96-3.55-5.43-4.77-8.35-5.22-12.53-3.98-25.69-3.12-38.73,1.02-15.35,2.37-30.68,3.58-46.02,.09-1.1,.77-2.49-.76-2.99-1.39-.45-2,.98-2.7,1.8-4.22,4.93-6.03,11.18-8.15,17-4.57,12.54-9.09,25.27-11.65,38.31-1.99,10.16-3.07,20.95,.96,31.31,1.21,3.1,.35,6.56-.13,9.82-.19,1.3-1.03,2.74-2.6,2.56-2.47-.27-5.08-.78-6.12-3.51-1.5-3.92-1.97-8.07-1.93-12.23,.09-10.61,.64-21.33,3.83-31.42,2.88-9.15,5.03-18.53,9.2-27.37,3.39-7.19,4.67-15.42,8.07-22.73,3.21-6.9,7.04-13.51,10.58-20.25,1.5-2.85,4.24-2.17,6.64-2.31,2.41-.14,2.13,1.99,2.74,3.46,1.27,3.06,1.2,6.25,.77,9.35-1.95,14.31-3.23,28.7-5.19,43.02-2,14.62-3.71,29.44,1.16,44.01,.76,2.27,1.57,4.43,3.34,5.96,2.6,2.24,4.92,2.92,8.26,.18,9.69-7.94,16.16-18.41,22.58-28.71,2.5-4.01,4.94-8.9,5.51-14.14,.15-1.39,1.07-2.79,1.94-3.97,1.47-2.02,2.92-4.06,6.13-2.57,3.39,1.58,2.93,4.27,2.1,6.75-1.94,5.82-4.33,11.49-6.37,17.28-1.06,3.01-1.38,6.18-.29,9.3,.84,2.43,2.23,3.34,4.32,1.15,1.25-1.32,2.65-2.59,3.56-4.14,4.86-8.22,11.41-15.55,13.21-25.41,.41-2.22,2.15-4.21,4.6-3.68,2.75,.6,5.79,2.02,5.14,5.63-.99,5.58,1.18,10.88,.96,16.36-.11,2.81,2,4.81,3.26,7.45Z" style="fill:#1e5166;"/><path d="M512.55,96.36c7.07-6.98,11.23-15.43,16.57-22.97,4.83-6.81,9.32-13.89,14.49-20.45,4.07-5.16,9.9-8.68,13.81-14.09,1.28-1.77,3.12-1.66,4.87-.44,2.39,1.67,3.65,3.86,2.75,6.8-1.74,5.68-3.29,11.45-5.45,16.97-4.29,11-6.42,22.43-7.49,34.09-.59,6.43-.74,12.91-.9,19.37-.15,6.22,1.01,12.26,3.53,17.96,2.39,5.39,6.28,6.58,11.11,3.28,5.2-3.55,9.73-7.85,12.68-13.56,2.14-4.14,5.58-7.37,8.36-11.01,8.5-11.14,15.01-23.47,22.36-35.28,1.49-2.4,2.9-4.28,5.76-3.4,2.71,.82,3.59,3.04,3.38,5.93-.18,2.54-.56,4.94-1.68,7.22-3.6,7.4-1.66,14.61,1,21.67,2.94,7.79,10.1,8.25,16.71,4.6,10.89-6.01,18.9-15.44,27.69-23.91,4.65-4.48,8.72-9.56,13.35-14.08,2.18-2.13,4.94-3.72,7.62-5.24,1.27-.72,3.02-.6,4.19,.59,1.95,1.98,3.08,4.63,2.37,7.21-2.64,9.61-3.25,19.27-1.26,29.03,1.44,7.04,4.65,13.13,10.73,17.31,1.48,1.02,4.02,1.88,2.9,3.74-1.06,1.74-3.42,2.86-6.13,1.85-6.23-2.31-10.98-6.37-13.3-12.45-3.45-9.05-6.59-18.29-4.29-28.31,.27-1.2,.5-2.97-.73-3.69-1.59-.94-2.86,.55-3.85,1.54-6.65,6.67-13.36,13.3-19.76,20.21-5.46,5.89-11.52,11.09-18,15.71-7.48,5.33-19.52,2.26-24.45-5.97-2.39-3.98-4.38-8.22-5.2-12.89-.19-1.09,.15-2.63-1.31-2.94-1.46-.31-1.69,1.25-2.37,2.14-9.06,11.85-16.64,24.76-26.29,36.19-4.39,5.2-10.35,7.5-16.35,9.86-1.25,.49-2.31,.04-3.28-.62-6.06-4.15-10.67-9.06-11.52-17-1.43-13.35-.66-26.56,.36-39.89,.9-11.77,3.69-23.01,7.25-35.57-6.82,5.94-11.62,11.77-15.26,18.6-4.98,9.35-11.48,17.79-16.24,27.33-1.79,3.59-4.88,6.98-10.42,5.56-5.1-1.31-7.55-4.31-8.43-9.18-.82-4.55-2.01-9.04-2.09-14.98-4.18,7.5-7.68,14-11.41,20.36-1.7,2.91-3.31,5.96-7.54,6.25-4.63,.32-7.52-2.73-6.1-7.22,1.2-3.79,2.71-7.47,3.99-11.24,.89-2.64,3.48-3.33,5.45-3.86,3.76-1.01,5.54-3.81,6.89-6.66,6.58-13.95,11.05-28.41,9.47-44.15-.45-4.5,2.32-7.3,6.55-7.22,3.31,.06,4.43,2.15,4.24,4.84-1.05,14.51-2.13,29.03-3.49,43.51-.62,6.58,1.28,12.36,4.11,18.58Z" style="fill:#1e5166;"/><path d="M379.26,281.85c-2.51,4.78-4.84,9.66-7.56,14.31-4.42,7.57-7.42,16.21-15.35,21.27-4.18,2.67-10.84,1.41-12.7-2.48-1-2.09-1.91-4.24-2.62-6.44-3.75-11.58-5.58-23.42-5.06-35.64,.28-6.66,.05-13.35-.55-20.08-4.76,3.75-5.33,9.29-6.79,14.12-4.13,13.68-9.22,27.01-13.87,40.49-1.37,3.96-2.01,8.04-3.17,12.02-.82,2.84-2.08,5.43-5.43,4.12-2.6-1.02-5.91-1.78-4.52-6.61,2.04-7.09,4.64-14.02,7.9-20.46,4.59-9.1,6.96-18.96,11.15-28.18,5.07-11.17,7.42-23.37,11.64-34.93,2.42-6.63,4.62-13.79,5.82-20.8,.75-4.4,2.48-7.29,5.09-10.22,.84-.95,1.86-2.32,3.34-1.59,1.58,.78,3.49,1.6,3.54,3.8,.06,2.66,.35,5.43-.26,7.96-2.16,8.89-4.87,17.46-5.81,26.84-1,10.03-1.19,20.05-1.83,30.06-.71,11.13,2.77,21.67,5.24,32.32,.33,1.43,1.12,2.79,1.89,4.07,1.8,3.02,3.57,3.33,6.02,.33,7.89-9.65,13.96-20.17,18.84-31.74,2.57-6.1,6.67-11.56,7.46-18.45,.06-.53,.72-1.22,1.25-1.42,2.38-.93,4.07-5.01,7.27-2.23,2.78,2.41,3.66,5.7,2.15,9.33-2.6,6.24-3.78,12.64-3.01,19.47,.85,7.56,6.65,11.66,13.97,8.82,5.56-2.15,10.81-5.17,15.21-9.34,6.77-6.43,14.88-11.08,22.21-16.77,4.47-3.48,6.75-2.13,10.14,3.08,1.88,2.88,4.19,5.88,7.04,7.61,3.47,2.11,.48,3.69,.27,5.34-.3,2.4-2,1.35-3.44,.93-2.57-.75-5.03-1.6-7.32-3.07-5.81-3.75-8.02-3.18-14.11,.5-5.66,3.42-9.81,8.39-14.68,12.59-3.97,3.42-8.55,5.76-12.97,8.35-5.36,3.14-15.76,.55-19.63-4.26-3.03-3.77-5.46-7.73-6.73-12.99Z" style="fill:#1e5166;"/><path d="M103.68,451.34c4.92-6.17,7.69-12.27,11.07-17.96,8.34-14.04,14.24-29.4,23.24-43.08,2.07-3.15,4.69-5.99,8.23-7.83,3.58-1.86,5.33-.54,6.1,2.94,.62,2.79,.25,5.61,.18,8.44-.29,11.3,.38,22.59,1.45,33.83,.46,4.88,2.33,9.63,3.65,14.41,.53,1.9,1.81,2.25,3.85,2.07,4.41-.4,7.25,3.13,5.25,6.86-1.48,2.76-1.38,5.38-1.38,8.13,0,3.33-.79,6-4.47,6.75-3.68,.74-4.2-2.61-4.78-4.61-4.38-15.05-11.14-29.65-10.54-45.72,.17-4.67-2.38-8.89-1.14-13.52,.25-.92-.07-2.09-1.23-2.45-1.4-.44-2,.66-2.77,1.57-5.25,6.16-8.09,13.68-11.55,20.8-5.89,12.1-11.4,24.38-18.1,36.07-1.63,2.85-2.15,6.25-4.84,8.6-2.38,2.08-5.15,3.08-7.78,1.91-2.48-1.11-3.37-4.06-3.22-6.8,.44-8.07-.22-16.02-1.93-23.92-.39-1.79-.33-3.89-2.29-4.39-2.39-.62-2.84,1.73-3.62,3.32-4.16,8.52-7.38,17.5-12.92,25.35-3.86,5.47-8.48,5.96-13.04,1.05-4.18-4.5-6.38-9.85-8.14-15.69-2.8-9.31-6.39-18.38-9.49-27.61-1-2.97-2.39-2.41-4.46-1.26-4.5,2.51-6.97,6.79-9.02,11.06-8.31,17.34-15.78,35.03-19.98,53.91-.42,1.9-.16,4.79-2.44,4.92-2.86,.16-4.85-2.14-6.73-4.42-2.09-2.53,.33-3.24,1.07-4.84,2.91-6.32,5.7-12.69,8.23-19.17,6.29-16.11,13.15-31.94,22.56-46.52,1.94-3.01,4.86-5.01,8.32-5.85,2.97-.72,5.22,.08,6.94,3.22,3.96,7.2,5.74,15.14,8.15,22.83,2.01,6.44,4.38,12.7,6.8,18.97,.76,1.98,2.34,2.86,4.13,3.16,1.99,.34,2.23-1.65,2.88-2.9,4.45-8.52,8.94-17.03,13.23-25.63,1.51-3.04,4.11-5.14,5.92-7.89,1.69-2.56,4.51-3.07,7.11-2.53,2.75,.57,2.63,3.48,3.07,5.69,1.82,9.09,1.62,18.51,4.42,28.76Z" style="fill:#1e5166;"/><path d="M1407.87,457.22c-2.35,5.37-3.6,10.45-7.69,14.01-5.23,4.56-11.55,6.07-18.09,5.75-4.36-.21-4.34,1.43-3.42,4.49,.48,1.59,.98,3.17,1.47,4.75,.96,3.13,.28,5.73-2.94,6.92-3.39,1.26-5.69-.84-6.54-3.66-2.37-7.95-4.32-16.03-6.39-24.08-.53-2.08-.84-4.21-1.34-6.3-1.75-7.36-1.4-14.43,.1-22.03,1.96-9.98,3.38-19.95,8.89-28.64,5.67-8.95,12.75-16.73,23.85-18.57,9.01-1.5,12.08,1.9,13.85,11.82,2.06,11.57,1.34,23.12,.65,34.69-.15,2.59,.29,5.05,1.6,7.19,4.45,7.25,7.49,15.11,10.2,23.11,1.34,3.97,3.83,6.37,7.75,7.75,8.45,2.98,16.99,4.18,26.01,3.45,3.64-.29,7.54-.23,11.32,.13,2.97,.28,3.1,1.62,1.48,3.47-1.48,1.7-3,3.06-5.75,3.31-7.05,.64-13.68,4.22-21.01,3.26-5.41-.71-10.97-.95-16.17-2.45-7.85-2.26-12.32-8-13.58-16.16-.62-4.03-.86-8.22-4.25-12.22Zm-23.66-19.57c-6.83-.74-12.37,3.82-12.02,12.73,.28,7.16,6.82,17.81,14.86,16.99,8.32-.85,14.82-8.7,14.73-19.35-.04-4.74-9.96-10.6-17.57-10.37Zm18.32-17.78c-.09-5.48-.28-10.93-2.39-16.13-1.13-2.79-2.94-3.96-5.82-2.82-10.78,4.24-16.29,13.09-20.02,23.36-1.17,3.23,.41,3.79,3.19,2.67,5.06-2.04,10.12-1.52,15.07,.28,10.01,3.65,9.99,3.71,9.97-7.36Z" style="fill:#1e5166;"/><path d="M349.87,83.45c-8.29,1.13-17.42-.38-26.47-.19-6.69,.14-13.07-.21-19.52-1.59-3.49-.74-6.05,1.5-8.65,3.18-8.66,5.61-17.83,8.01-27.9,4.61-4.81-1.62-8.72-4.62-11.14-9.17-1.23-2.32-2.27-2.77-4.55-1.11-6.02,4.39-12.34,8.33-18.72,12.21-13.67,8.31-32.25,.26-36.39-13.35-1.53-5.04-3.35-3.94-6.16-1.44-6.04,5.38-12.42,10.36-19.75,13.85-20.44,9.74-35.25-2.34-36.74-22.31-.14-1.84,.22-3.66,1.3-5.25,1.38-2.03,2.68-5.1,5.49-4.13,2.56,.89,1.62,3.74,1.23,6.12-1.29,8.04,2.07,14.85,8.18,19.22,6.91,4.95,14.38,1.11,21.08-1.93,9.59-4.36,17.1-11.68,24.73-18.74,1.98-1.83,4.1-3,6.74-1.85,2.57,1.13,2.08,3.63,1.85,5.68-1.55,13.83,14.66,20.16,25,15.57,8.7-3.86,16.14-9.88,22.58-16.94,3.56-3.9,6.68-3.54,9.03,1.27,1.8,3.68,3.13,7.53,6.95,10.03,8.73,5.69,16.58,2.25,24.22-2.05,2.53-1.42,4.94-3.28,6.46-6.48,1.24-2.6,4.94-2.26,7.53-.41,8.3,5.91,17.86,4.4,27.1,4.68,7.76,.24,15.6-.32,22.81,3.47,1.92,1.01,4.21,1.81,3.31,4.71-.84,2.69-2.94,2.73-5.27,2.35-1.13-.18-2.32-.03-4.33-.03Z" style="fill:#1e5166;"/><path d="M664.15,273.84c2.08-.58,3.05-2.29,4.37-3.81,3.7-4.28,8.04-8.64,13.95-8.27,8.04,.5,11.69,9.37,7.44,16.59-3.84,6.51-9.6,10.3-17.22,11.44,2.29,6.21,6.16,10.62,11.8,13.21,3.53,1.62,7.24,1.93,11.04,0,2.74-1.4,5.13-3.8,8.65-3.46,1.47,.14,1.14-1.07,1.1-2.1-.24-5.61,1.39-10.66,5.1-14.88,.72-.81,.79-1.29,.43-2.06-2.16-4.61,1.56-5.99,4.39-6.31,9.38-1.06,18.66,.26,27.01,4.74,6.82,3.66,8.14,13.11,3.59,19.55-4.76,6.74-10.87,11.33-19.13,12.9-6.44,1.23-11.98-.94-16.51-5.04-2.53-2.28-3.75-1.91-5.49,.26-6.01,7.47-13.54,9.67-22.92,7.58-4.28-.95-7.09-3.62-9.97-6.13-6.13-5.33-11.23-11.55-11.82-20.2-.29-4.24,.33-8.28,3.6-11.44,.79-.76,1-1.69,.76-2.74l-.17,.18Zm59.43,26.38c4.54,1.05,7.84-1.42,10.86-4.75,4.07-4.49,3.6-6.6-2.11-8.61-8.92-3.14-9.73-2.83-14.55,4.29-1.37,2.02-1.98,3.78-.44,5.85,1.48,1.98,2.78,4.32,6.24,3.22Z" style="fill:#1e5166;"/><path d="M1124.44,310.33c-3.88,1.85-5.97,5.77-9.49,7.9-6.98,4.24-14.74,4.13-22.49,3.2-5.95-.71-11.48-2.72-17.05-5.06-6.95-2.92-9.17-8.23-10.33-14.86-1.64-9.38-.92-18.73,.32-28,1.28-9.55,4.88-18.39,8.91-27.19,3.84-8.39,9.25-15.61,15.24-22.17,8.77-9.6,17.9-19.38,30.7-23.74,5.38-1.83,11.3-2.38,16.77,1.25,2.56,1.7,1.65,3.68,1.5,5.71-.13,1.8-1.28,2.75-3.06,2.44-12.93-2.25-21.86,4.75-30.56,12.77-13.29,12.24-23.72,26.32-28.09,44.07-2.4,9.77-4.65,19.8-2.56,29.96,1.59,7.72,6.43,10.45,13.98,12.8,8.05,2.5,15.55,2.19,23.34,.14,1.11-.29,2.22-.67,3.23-1.19,3.89-1.99,6.08-1.61,9.64,1.97Z" style="fill:#1e5166;"/><path d="M664.32,273.65c-3.86,2.8-7.81,5.36-12.42,6.88-6.53,2.15-11.7-.27-13.93-6.81-.27-.79-.52-1.6-.94-2.3-.62-1.03-1.56-1.9-2.82-1.66-1.41,.27-.67,1.57-.88,2.44-2.89,11.57-3.21,23.43-4.07,35.23-.36,4.92-2.42,6.76-6.38,6.16-3.08-.47-5.77-4.46-4.75-7.83,2.29-7.62,1.84-15.41,2-23.18,.36-17.37,3.47-34.05,12.09-49.4,5.08-9.05,18.02-14.92,27.8-9.79,5.9,3.09,7.49,8.82,9.12,14.16,3.59,11.77,2.52,23.29-4.22,33.95-.42,.67-.52,1.55-.78,2.34,0,0,.17-.18,.17-.18Zm-2.24-21.47c.33-5.85-.63-9.91-1.92-13.84-1.56-4.73-6.13-7.24-10.57-6.2-5.29,1.23-10.75,7.59-11.22,13.09-.1,1.15-.42,2.14-.94,3.24-2.52,5.36-3.76,11.05-3.16,17.02,.12,1.21-.41,2.81,1.5,3.24,1.35,.3,1.89-.59,2.82-1.36,2.48-2.04,5.45-3.63,8.04-.19,3.03,4.03,5.08,4.18,8.77,.88,5.31-4.75,5.12-11.46,6.67-15.88Z" style="fill:#1e5166;"/><path d="M1006.99,258.8c3.17-.18,4.98-.33,6.79-.38,3.3-.09,2.82,2.95,3.33,4.68,.56,1.93-1.61,2.27-3.01,2.36-5.13,.31-9.7,3.31-14.93,3.04-2.01-.1-2.06,1.46-2.09,2.7-.1,4.73,.05,9.46-.06,14.18-.12,5.15-.03,10.24,.88,15.37,.43,2.41-.88,5.49-3.6,5.75-3.37,.32-6.47-1.22-7.39-5.1-1.78-7.5-1.11-15.09-.63-22.65,.38-5.89,2.04-11.68-4.05-16.29-2.81-2.12-.52-7.39,3.42-7.68,3.18-.23,3.24-1.67,3.55-3.97,1.87-14.19,5.54-27.79,13.38-40.01,9.08-14.15,24.11-14.21,33.6-.06,4.91,7.33,6.56,15.79,7.58,24.32,.28,2.35-.69,5.59-3.84,5.27-2.4-.25-5.28-1.72-4.68-5.3,1.47-8.8-3.41-14.87-9.18-20.18-4.91-4.51-10.61-3.64-14.63,1.75-7.08,9.48-11.25,20.12-12.03,32.01-.01,.17,0,.33,0,.5-.56,8.52,.44,9.6,7.62,9.68Z" style="fill:#1e5166;"/><path d="M379.78,426.19c1.46,6.46-2.29,11.47-4.63,16.53-4.94,10.67-11.38,20.57-17.83,30.41-1.74,2.65-4.12,4.84-6.86,6.48-5.45,3.26-11.78,1.03-16.24-6.04-4.29-6.82-7.12-14.31-9.6-22-2.75-8.52-6.71-16.67-9.19-25.26-1.05-3.64-4.45-5.79-4.6-10.03-.07-2.16-2.51-.53-3.56,.82-4.23,5.44-6.81,11.83-9.4,18.05-6.7,16.08-14.66,31.58-21.53,47.56-3.24,7.53-7.64,14.42-11.38,21.68-2.82,5.47-6.97,6.58-11.4,4.35-3.19-1.6-3.05-3.7-.68-5.24,9.34-6.06,12.91-16.24,18.11-25.14,4.04-6.91,6.42-14.77,10.03-21.96,4.92-9.8,9.3-19.81,13.51-29.92,2.1-5.05,4.44-10.02,6.93-14.9,1.78-3.49,4.46-6.55,8.63-6.65,4.49-.11,6.6,3.37,7.93,7.12,3.57,10.02,7.13,19.99,9.88,30.33,2.25,8.48,5.92,16.88,10.58,24.54,3.21,5.28,8.42,5.96,12.87,1.77,3.21-3.02,5.43-7.11,8.17-10.31,3.16-3.7,5.16-8.05,8.34-11.61,4.83-5.42,6.25-12.67,9.98-18.68,.41-.67,.49-1.61,1.94-1.91Z" style="fill:#1e5166;"/><path d="M752.93,350.98c1.7-11.53,2.57-23.21,5.76-34.51,1.78-6.32,2.92-12.83,5.51-18.94,.42-.99,.45-2.43,.07-3.44-3.39-9.04,2.1-14.73,7.52-20.48,3.56-3.78,4.45-9.06,7.55-13.22,4.64-6.21,9.93-6.43,14.26-.19,6.76,9.73,6.52,30.18-1.51,39.96-3.74,4.55-9.67,8.46-16.54,5.5-3.18-1.37-3.83-.21-4.85,2.36-4.91,12.48-6.71,25.65-8.3,38.79-.51,4.18-1.63,9.61,3.61,12.72,1.72,1.02,1.19,2.58,.26,3.9-2.09,2.98-5.23,2.33-8.19,2.26-2.83-.06-3.67-2.1-3.98-4.31-.48-3.43-1.52-6.83-1.18-10.4Zm35.71-71.13c-.05-1.59,.22-4.22-1.69-4.89-1.63-.57-2.78,1.74-3.95,3.15-3.01,3.63-4.14,8.17-6.32,12.2-1.57,2.9,.27,3.96,2.77,4.14,2.27,.16,4.06-.96,5.6-2.64,3.06-3.31,3.03-7.52,3.59-11.96Z" style="fill:#1e5166;"/><path d="M85.86,21.58c-6.04,10.6-11.02,21.43-12.89,33.67-.85,5.56-3.72,10.89-4.55,16.63-1.86,12.9-6.12,25.36-7.11,38.43-.25,3.28-1.22,6.45-1.57,9.76-.3,2.83-2.34,6.06-6.02,5.43-3.41-.58-3.94-3.64-3.39-6.66,.68-3.73,1.09-7.59,2.41-11.09,2.65-7.01,3.27-14.46,5.34-21.59,1.33-4.58,3.03-8.92,5.25-13.09,.3-.56,1.01-1.11,.95-1.6-1.2-10.63,6.06-18.87,8.08-28.65,1.84-8.92,6.5-17.04,9.53-25.67,1.79-5.11,4.26-10.63,8.27-14.83,1.41-1.48,2.98-3.08,5.62-1.87,2.56,1.18,2.49,3.08,2.39,5.36-.29,6.78-3.1,12.85-4.99,19.2-6.02,20.17-11.76,40.43-8.85,61.88,.69,5.13,2.04,10.02,5.01,14.43,2.28,3.4,4.99,3.81,7.89,1.38,7.07-5.94,15.08-10.95,19.76-19.33,.98-1.75,2.52-1.38,3.94-.95,1.24,.37,1.29,1.25,.64,2.34-6.28,10.61-13.27,20.58-24.65,26.4-4.95,2.54-11.33-.35-13.4-5.51-7.13-17.82-6.84-36.18-2.72-54.35,1.84-8.12,2.54-16.62,6-24.38,.79-1.78-.64-3.45-.95-5.31Z" style="fill:#1e5166;"/><path d="M872.43,271.77c-.47,6.35-2.16,10.88-6.02,14.5-3.69,3.47-7.25,7.11-11.51,9.89-3.29,2.15-2.7,3.95,.18,5.86,3.12,2.07,6.53,3.34,10.22,3.61,2.03,.15,3.88,.84,5.83,1.18,2.64,.46,1.69,2.84,2.28,4.21,.62,1.45-1.48,1.12-2.44,1.54-11.3,4.96-24.03-.71-31.29-8.32-3.89-4.08-3.12-7.86-3.52-12.32-1.2-13.29,4.56-22.24,15.92-28.29,7.08-3.77,15.37-1.96,19.03,4.1,1.01,1.67,1.41,3.34,1.32,4.02Zm-25.56,14.83c.05,.31-.08,1.34,.37,1.85,.89,1.01,1.89,.09,2.57-.5,4.06-3.49,8.26-6.84,11.61-11.08,.72-.91,1.83-1.76,.79-2.98-.82-.96-1.95-.81-3.21-.6-6.31,1.04-11.43,6.37-12.14,13.31Z" style="fill:#1e5166;"/><path d="M968.2,279.99c2.12,20.97-18.75,32.28-33.12,27.54-6.85-2.26-11.47-9.78-11.44-16.84,.04-10.35,5.89-16.19,14.15-20.68,4.02-2.19,8.31-3.76,12.35-6.03,7.81-4.4,17.24,2.7,18.04,12.91,.12,1.49,.02,2.99,.02,3.11Zm-10.26,2.03c.63-2.16,1.08-5.23-1.22-6-2.13-.71-5.24-.21-7.19,1.96-.61,.67-1.28,1.36-2.06,.96-5.09-2.62-7.56,1.89-10.22,4.28-3.51,3.15-3.4,7.24-.93,11.64,2.24,3.99,5.49,3.18,8.56,2.81,10.18-1.21,13-4.71,13.07-15.66Z" style="fill:#1e5166;"/><path d="M1231.37,295.8c-.89-5.18,1.42-10.1,4.58-14.36,3.85-5.19,6.75-11.17,11.87-15.36,3.11-2.54,6.51-2.34,9.69-.38,4.64,2.86,9.36,5.69,13.55,9.13,5.26,4.32,6.82,15.18,3.13,20.89-2.59,4-5.62,7.81-9.32,10.93-7.22,6.07-15.56,7.88-24.63,5.84-5.49-1.24-8.75-7.61-8.87-16.68Zm34.38-8.2c.1-3.48-9.49-12.38-12.77-11.75-.75,.14-1.65,.68-2.06,1.31-3.35,5.19-8.46,9.36-9.51,15.91-.61,3.82,.62,7.33,4.15,8.67,6.86,2.61,19.98-6.86,20.19-14.15Z" style="fill:#1e5166;"/><path d="M1191.46,293.83c.55,3.03-.89,5.47-3.33,7.55-9.66,8.24-20.4,13.47-33.51,11.86-7.8-.96-14.49-9.62-12.41-16.21,.72-2.27,2.25-4.34,3.62-6.35,5.41-7.94,11.95-14.31,21.7-16.9,9.48-2.52,26.53,9.45,23.93,20.05Zm-10.04-2.92c-7.18,2.88-7.25,2.91-10.12-3.7-1.04-2.4-2.73-2.32-4.44-1.43-4.7,2.45-9.19,5.02-12.28,9.76-1.96,3.01-1.16,4.35,1.29,5.97,7.65,5.07,22.49-.77,25.55-10.6Z" style="fill:#1e5166;"/><path d="M822.79,311.15c-3.78-.04-6.39-3.29-5.49-6.78,.92-3.6-1.27-6.72-1.3-10.36-.14-14.56,2.12-28.83,3.52-43.22,1.3-13.47,4.58-26.57,6.37-39.93,.46-3.44,4.63-5.98,7.69-5.22,2.81,.7,5.36,6.29,4.27,9.36-5.88,16.66-9.01,33.95-11.13,51.4-1.11,9.14-1.27,18.41-1.46,27.63-.08,3.64-.23,7.62,3.06,10.5,1.23,1.08,1.41,3.05,.63,4.16-1.41,2.03-3.95,2.2-6.15,2.46Z" style="fill:#1e5166;"/><path d="M1211.43,292.2c.03-21.13,.98-42.18,3.58-63.19,.57-4.59,2.26-9.43,.57-14.48-1.04-3.09,3.64-7.9,6.89-7.62,3.72,.32,5.76,2.33,6.02,6.5,.47,7.56-2.42,14.49-3.69,21.69-1.85,10.48-3.07,21.01-3.44,31.57-.34,9.94-1.84,19.88-.66,29.86,.24,2.03,.59,3.89,2.36,5.27,1.77,1.39,2.85,3.8,.75,4.99-2.38,1.35-4.36,5.18-8.02,2.86-2.66-1.69-4.22-4.27-4.34-7.47-.13-3.32-.03-6.65-.03-9.98Z" style="fill:#1e5166;"/><path d="M1290.17,287.66c-2.89-8.27,4.18-13.56,8.03-19.97,5.53-9.21,14.12-13.52,24.74-14.08,2.28-.12,5.06-.19,5.34,2.23,.24,2.09-.06,5.09-2.49,6.49-2.12,1.22-4.12,2.64-6.6,3.35-10.19,2.9-19.55,18.62-15.63,29.4,1.38,3.81-.91,7.64-4.54,8.63-4.34,1.18-6.12-1.76-7.24-5.03-1.12-3.27-2.1-6.66-1.61-11.02Z" style="fill:#1e5166;"/><path d="M1014.84,857.78c-4.79,.12-7.68-2.29-7.69-6.42-.02-6.42,4.78-12.63,9.88-12.79,4.11-.13,7.5,5.56,7.84,13.14,.18,4.02-2.91,5.9-10.03,6.08Z" style="fill:#1e5166;"/></g></g></svg>