<svg id="Layer_1" data-name="Layer 1" xmlns="http://www.w3.org/2000/svg" viewBox="0 0 1000 1000"><path d="M108,33.52V71.78Q156.19,20,204.8,20q29.25,0,51.32,15.53t36.91,47q25.2-31.52,51.09-47t52-15.53q41,0,65.27,26.55,32,34.21,32,74.73V385.53h32q13.51,0,19.36,5.18t5.85,13.73a17.61,17.61,0,0,1-5.85,13.5q-5.85,5.4-19.36,5.4H455.53V124.9q0-28.8-17.55-47.72t-40.52-18.9q-20.7,0-43.66,15.53t-52.22,61V385.53h31.51q13.5,0,19.36,5.18t5.85,13.73a17.64,17.64,0,0,1-5.85,13.5q-5.86,5.4-19.36,5.4H263.32V127.6q0-30.15-17.78-49.74T205.7,58.28q-20.25,0-40.06,13Q138.18,89.8,108,134.8V385.53h32q13.5,0,19.36,5.18t5.85,13.73a17.64,17.64,0,0,1-5.85,13.5q-5.86,5.4-19.36,5.4H38.25q-13.51,0-19.36-5.4A17.61,17.61,0,0,1,13,404.44q0-8.55,5.85-13.73t19.36-5.18h32V71.78h-32q-13.51,0-19.36-5.4A18.12,18.12,0,0,1,13,52.43a17.61,17.61,0,0,1,5.85-13.51q5.85-5.4,19.36-5.4Z"/><path d="M668.83,314.86H685a59.36,59.36,0,0,1,43.22,17.78q18,17.79,18,43,0,26.12-18.23,43.66t-43,17.56h-16.2a59.32,59.32,0,0,1-43.22-17.78q-18-17.77-18-43,0-26.1,18.23-43.66T668.83,314.86Z"/><path d="M346.93,607.33q0-13.05,5.4-18.9a17.62,17.62,0,0,1,13.5-5.86,18.15,18.15,0,0,1,14,5.86q5.4,5.85,5.4,19.8v64.82q0,13.51-5.4,19.36a18.14,18.14,0,0,1-14,5.85,17.8,17.8,0,0,1-12.83-5q-5.17-4.95-6.07-16.21-2.7-27-27.91-44.56-36.91-25.2-97.68-25.21-63.48,0-98.58,25.66Q96.2,652.36,96.2,676.2q0,27,31.51,45,21.6,12.6,81.92,19.36,78.78,8.55,109.39,19.35,43.65,15.77,65,43.67t21.39,60.32q0,48.17-46.37,85.75T223.14,987.25q-89.58,0-146.75-45.46,0,15.32-1.8,19.81a16.67,16.67,0,0,1-6.53,7.65,18.65,18.65,0,0,1-10.57,3.15A17.61,17.61,0,0,1,44,966.55q-5.4-5.85-5.4-19.36V869.32q0-13.52,5.18-19.36t13.73-5.85a18.67,18.67,0,0,1,13.72,5.63q5.63,5.63,5.63,15.08,0,20.7,10.35,34.66,15.77,21.6,50.2,35.78t84.4,14.18q73.82,0,109.83-27.46t36-58.06q0-35.11-36.46-56.27-36.92-21.17-107.36-28.36t-101-18.91Q92.14,748.68,75,725.27t-17.1-50.42q0-48.61,47.71-77.2t113.89-28.58Q297.86,569.07,346.93,607.33Z"/><path d="M518.45,863.92h16.21a59.3,59.3,0,0,1,43.21,17.78q18,17.77,18,43,0,26.12-18.24,43.67t-43,17.55H518.45a59.3,59.3,0,0,1-43.21-17.78q-18-17.77-18-43,0-26.1,18.23-43.66T518.45,863.92Z"/></svg>