<svg id="b8963f5f-cf12-4be2-87e5-8d4a15861b8f" data-name="Ebene 1" xmlns="http://www.w3.org/2000/svg" viewBox="0 0 166.07 193.79"><title>logo_farbe</title><path d="M5.64,122.28l3.43,3.43a1.63,1.63,0,0,1,.56,1.07,1.44,1.44,0,0,1-.5,1,1.42,1.42,0,0,1-1.05.52,2,2,0,0,1-1.17-.71l-6.3-6.3A1.86,1.86,0,0,1,0,120.22a1.34,1.34,0,0,1,.47-1,1.21,1.21,0,0,1,1.16-.44,3.86,3.86,0,0,1,1.58,1.12l.27.27,14.84-14.83-.27-.27a3.93,3.93,0,0,1-1.12-1.58,1.23,1.23,0,0,1,.43-1.17,1.37,1.37,0,0,1,1.05-.46,1.86,1.86,0,0,1,1.11.62l2.17,2.17a1.45,1.45,0,0,1,.48.77.7.7,0,0,1-.25.63l-1.38,1.39a9.33,9.33,0,0,1,3.65.65,9,9,0,0,1,3,2,9.18,9.18,0,0,1,2.85,6.74,9.43,9.43,0,0,1-2.94,6.81,8.86,8.86,0,0,1-6.46,2.8,9,9,0,0,1-6.49-2.86,10.08,10.08,0,0,1-2.25-3.32,8.09,8.09,0,0,1-.6-3.67ZM15.8,121a6.27,6.27,0,0,0,4.51,2,6.12,6.12,0,0,0,4.51-2,6.08,6.08,0,0,0,1.93-4.48,6.27,6.27,0,0,0-2-4.52,6.1,6.1,0,0,0-9,0,6.09,6.09,0,0,0,0,9Z" style="fill:#2b2b2a"/><path d="M44.65,140.79a9.27,9.27,0,0,1-7.09,2.92,10.81,10.81,0,0,1-7.36-3.48,10.74,10.74,0,0,1-3.46-7.35,9.24,9.24,0,0,1,2.91-7.09,9.23,9.23,0,0,1,7.09-2.9,10.8,10.8,0,0,1,7.34,3.46,10.81,10.81,0,0,1,3.46,7.36A9.19,9.19,0,0,1,44.65,140.79Zm-12.44-2.57a7,7,0,0,0,5,2.22,7.16,7.16,0,1,0-5.06-12.17,6.77,6.77,0,0,0-2.16,5A6.94,6.94,0,0,0,32.21,138.22Z" style="fill:#2b2b2a"/><path d="M64.77,149.39l.06,0a1.18,1.18,0,0,1,1-.43,1.88,1.88,0,0,1,1.07.63,1.25,1.25,0,0,1,.46,1.15,4.21,4.21,0,0,1-1.19,1.63L63.47,155a1.45,1.45,0,0,1-1.07.52,1.53,1.53,0,0,1-1.07-.55,1.44,1.44,0,0,1-.45-.88,4.79,4.79,0,0,1,.25-1.6,7,7,0,0,0,.08-3.42,6,6,0,0,0-1.66-2.85,7.15,7.15,0,0,0-4.93-2.3,6.26,6.26,0,0,0-4.8,2,6.65,6.65,0,0,0-2.14,4.81,6.54,6.54,0,0,0,2.08,4.79,8.83,8.83,0,0,0,2.09,1.56,8.33,8.33,0,0,0,2.43.84,10.48,10.48,0,0,0,1.26.2,3.87,3.87,0,0,1,2.21.7,1.38,1.38,0,0,1,.45,1,1.36,1.36,0,0,1-.45,1c-.75.76-2.23.81-4.44.18a13.12,13.12,0,0,1-5.72-3.36,10.12,10.12,0,0,1-3.18-7.16,9.9,9.9,0,0,1,9.92-9.93,10,10,0,0,1,7.14,3.15,12.24,12.24,0,0,1,1.89,2.47A18,18,0,0,1,64.77,149.39Z" style="fill:#2b2b2a"/><path d="M79.78,175.92a9.27,9.27,0,0,1-7.09,2.92A12,12,0,0,1,61.87,168a9.94,9.94,0,0,1,10-10,12,12,0,0,1,10.81,10.82A9.19,9.19,0,0,1,79.78,175.92Zm-12.44-2.57a7,7,0,0,0,5,2.21,6.74,6.74,0,0,0,5-2.13,6.82,6.82,0,0,0,2.14-5,7.5,7.5,0,0,0-7.19-7.2,6.8,6.8,0,0,0-5,2.16,6.73,6.73,0,0,0-2.16,5A6.94,6.94,0,0,0,67.34,173.35Z" style="fill:#2b2b2a"/><path d="M94.64,155.18l-2.43,2.43a5.75,5.75,0,0,1-2,1.51,1.23,1.23,0,0,1-1.16-.45,1.42,1.42,0,0,1-.48-1.07,1.77,1.77,0,0,1,.6-1.11l4.71-4.72a1.47,1.47,0,0,1,.76-.44.68.68,0,0,1,.64.22l16.11,16.11,4.49-4.49a1.62,1.62,0,0,1,1-.56,1.41,1.41,0,0,1,1,.5,1.54,1.54,0,0,1,.57,1,2,2,0,0,1-.7,1.14l-10.55,10.55a1.75,1.75,0,0,1-1.1.59,1.4,1.4,0,0,1-1.07-.48,1.27,1.27,0,0,1-.44-1,2,2,0,0,1,.65-1.15l4-4Z" style="fill:#2b2b2a"/><path d="M111.17,137.3a5.8,5.8,0,0,1-1.66-2.22c-.08-.46.18-1,.79-1.6a2.14,2.14,0,0,1,1.51-.83,3.93,3.93,0,0,1,1.88,1.3c.82.82,1.24,1.42,1.26,1.79s-.28.87-.9,1.49a2.57,2.57,0,0,1-1.47.92A2.35,2.35,0,0,1,111.17,137.3Zm18,12.66,4.59-4.59a1.7,1.7,0,0,1,1.05-.58,1.36,1.36,0,0,1,1,.48,1.56,1.56,0,0,1,.56,1.06,2.06,2.06,0,0,1-.7,1.15l-11.08,11.07a1.74,1.74,0,0,1-1.12.6,1.38,1.38,0,0,1-1-.48,1.27,1.27,0,0,1-.45-1,2,2,0,0,1,.66-1.14l4.36-4.36-9.18-9.18-2.8,2.8a1.9,1.9,0,0,1-1.15.64,1.56,1.56,0,0,1-1.53-1.49,1.79,1.79,0,0,1,.61-1.1l4.18-4.19a1.45,1.45,0,0,1,.77-.45.72.72,0,0,1,.65.21Z" style="fill:#2b2b2a"/><path d="M138.87,119.43a2.53,2.53,0,0,1,1.27-.78,1.26,1.26,0,0,1,1.09.46,1.28,1.28,0,0,1,.45,1,2,2,0,0,1-.65,1.15l-5.79,5.79,4.78,4.77q2.34,2.34,3.69,2.48a3.61,3.61,0,0,0,2.82-1.34,11.53,11.53,0,0,0,2.36-3.87,12.66,12.66,0,0,1,1.49-3,1.31,1.31,0,0,1,1-.4,1.36,1.36,0,0,1,1,.43,1.56,1.56,0,0,1,.48,1.17,5.07,5.07,0,0,1-.52,1.87,23.93,23.93,0,0,1-1.71,3.34,12.65,12.65,0,0,1-1.85,2.36,9.23,9.23,0,0,1-3.34,2.28,5.09,5.09,0,0,1-3.29.1,5.32,5.32,0,0,1-1.59-.78,18.31,18.31,0,0,1-2.24-2l-.44-.44L133,129.3l-2.43,2.43a1.83,1.83,0,0,1-1.11.63,1.34,1.34,0,0,1-1-.49,1.18,1.18,0,0,1-.43-1.17,5.2,5.2,0,0,1,1.37-1.8l1.61-1.62-2.92-2.93-.76-.76a1.89,1.89,0,0,1-.65-1.17,1.52,1.52,0,0,1,.53-1.11,1.41,1.41,0,0,1,1.23-.52,4.9,4.9,0,0,1,1.88,1.39l2.9,2.9Z" style="fill:#2b2b2a"/><rect x="45.6" y="54.54" width="74.35" height="74.35" transform="translate(-40.61 85.39) rotate(-45)" style="fill:#004b62"/><rect x="45.6" y="54.54" width="74.35" height="74.35" transform="translate(-40.61 85.39) rotate(-45)" style="fill:none;stroke:#2b2b2a;stroke-width:3.45000004768372px"/><rect x="45.6" y="42.3" width="74.35" height="74.35" transform="translate(-31.96 81.81) rotate(-45)" style="fill:#eda279"/><rect x="45.6" y="42.3" width="74.35" height="74.35" transform="translate(-31.96 81.81) rotate(-45)" style="fill:none;stroke:#2b2b2a;stroke-width:3.45000004768372px"/><rect x="45.6" y="30.07" width="74.35" height="74.35" transform="translate(-23.31 78.23) rotate(-45)" style="fill:#ceb9d2"/><rect x="45.6" y="30.07" width="74.35" height="74.35" transform="translate(-23.31 78.23) rotate(-45)" style="fill:none;stroke:#2b2b2a;stroke-width:3.45000004768372px"/><rect x="45.6" y="17.84" width="74.35" height="74.35" transform="translate(-14.66 74.64) rotate(-45)" style="fill:#9cdcb2"/><rect x="45.6" y="17.84" width="74.35" height="74.35" transform="translate(-14.66 74.64) rotate(-45)" style="fill:none;stroke:#2b2b2a;stroke-width:3.45000004768372px"/><circle cx="85.57" cy="190.29" r="3.5" style="fill:#2b2b2a"/><circle cx="162.57" cy="116.29" r="3.5" style="fill:#2b2b2a"/></svg>