<?xml version="1.0" encoding="utf-8"?>
<!-- Generator: Adobe Illustrator 22.1.0, SVG Export Plug-In . SVG Version: 6.00 Build 0)  -->
<svg version="1.1" id="Layer_1" xmlns="http://www.w3.org/2000/svg" xmlns:xlink="http://www.w3.org/1999/xlink" x="0px" y="0px"
	 viewBox="0 0 499.2 294.2" style="enable-background:new 0 0 499.2 294.2;" xml:space="preserve">
<style type="text/css">
	.st0{fill:#231F20;}
</style>
<polygon class="st0" points="303.4,50.5 303.4,25.7 188.7,25.7 188.7,50.5 225.2,50.5 151.7,258.4 78.2,50.5 114.6,50.5 114.6,25.7 
	0,25.7 0,50.5 44.9,50.5 136.3,294.2 167,294.2 258.5,50.5 "/>
<path class="st0" d="M444.1,43.7c0.7,0.2,2.6,1,2.6,2.1c-0.2,0.9-0.7,1.8-1.4,2.4c-1,1.2-8.7,9.8-9.8,12.8c-1.6,3.8,0,8.2,3.6,10.2
	c0.6,0.2,1.2,0.5,1.8,0.9c3.3,1.7,3.7,1.7,5.8,1.7c5,0,6.9-4.5,10.9-13.8c1.9-4,3.6-7.6,5.2-7.6c1.4,0,7.4,10.4,7.8,11.6
	c2.4,5.2,2.6,5.7,4.5,7.6c1.4,1.4,2.6,2.1,4.3,2.1c2.6,0,7.4-2.8,7.6-3.1c1.4-1.2,3.6-4.3,3.6-6.6c0-0.2,0-4.3-5.2-10
	c-1-1.2-6.6-8.3-6.6-8.8c0-1.4,0.5-1.7,3.1-2.1c1.4-0.2,6.9-1.9,8.5-2.1c5.9-1.4,8.8-3.8,8.8-8.1s-3.4-11.2-9.8-11.2
	c-1.8,0.1-3.5,0.7-5,1.7c-3.6,2.1-10.7,5-11.9,5c-1.7,0-1.9-1.9-1.9-3.5c0-1,1-10.7,1-12.6s-0.2-5-1.9-6.6c-0.9-1.3-4.5-2.9-8.3-2.9
	c-5.4-0.1-9.4,2.5-9.4,9.6c0,1.4,1.4,12.6,1.4,13c0,2.8-1,2.8-1.6,2.8c-1,0-9.5-3.5-11.4-4.3c-2.1-0.8-4.4-1.3-6.6-1.4
	c-5.7,0-9,8.5-9,11.4c0,2.6,1.6,5.2,3.1,5.9c1.4,1,2.9,1,4.5,1.4C432.3,41.3,442.5,43.2,444.1,43.7"/>
<path class="st0" d="M351,43.7c0.7,0.2,2.6,1,2.6,2.1c-0.2,0.9-0.7,1.8-1.4,2.4c-1,1.2-8.7,9.8-9.8,12.8c-1.6,3.8,0,8.2,3.6,10.2
	c0.6,0.2,1.2,0.5,1.8,0.9c3.3,1.7,3.7,1.7,5.8,1.7c5,0,6.9-4.5,10.9-13.8c1.9-4,3.6-7.6,5.2-7.6c1.4,0,7.4,10.4,7.8,11.6
	c2.4,5.2,2.6,5.7,4.5,7.6c1.4,1.4,2.6,2.1,4.3,2.1c2.6,0,7.4-2.8,7.6-3.1c1.4-1.2,3.6-4.3,3.6-6.6c0-0.2,0-4.3-5.2-10
	c-1-1.2-6.6-8.3-6.6-8.8c0-1.4,0.5-1.7,3.1-2.1c1.4-0.2,6.9-1.9,8.5-2.1c6-1.4,8.8-3.7,8.8-8s-3.4-11.3-9.8-11.3
	c-1.8,0.1-3.5,0.7-5,1.7c-3.6,2.1-10.7,5-11.9,5c-1.7,0-1.9-1.9-1.9-3.5c0-1,1-10.7,1-12.6s-0.2-5-1.9-6.6c-0.9-1.4-4.5-3-8.3-3
	c-5.5,0-9.5,2.6-9.5,9.7c0,1.4,1.4,12.6,1.4,13c0,2.8-1,2.8-1.6,2.8c-1,0-9.5-3.5-11.4-4.3c-2.1-0.8-4.4-1.3-6.6-1.4
	c-5.7,0-9,8.5-9,11.4c0,2.6,1.6,5.2,3.1,5.9c1.4,1,2.9,1,4.5,1.4C339.2,41.3,349.4,43.2,351,43.7"/>
</svg>
