<svg id="BOOK" xmlns="http://www.w3.org/2000/svg" viewBox="0 0 77 96"><polygon points="8.41 95 1 87.59 1 9 76 9 76 95 8.41 95" style="fill:#fff"/><path d="M75,10V94H8.83L2,87.17V10H75m2-2H0V88l8,8H77V8Z"/><polygon points="4.41 91 1 87.59 1 5 72 5 72 91 4.41 91" style="fill:#fff"/><path d="M71,6V90H4.83L2,87.17V6H71m2-2H0V88l4,4H73V4Z"/><rect x="1" y="1" width="67" height="86" style="fill:#fff"/><path d="M67,2V86H2V2H67m2-2H0V88H69V0Z"/><path d="M21.23,25h-2.7l-.87,1.5h.78a.35.35,0,0,1,.19,0,.13.13,0,0,1,.05.12.22.22,0,0,1-.08.18.34.34,0,0,1-.24.07H16.83a.32.32,0,0,1-.19,0,.17.17,0,0,1-.05-.12.21.21,0,0,1,.08-.17.37.37,0,0,1,.25-.08h.31l2.85-4.89H18.87a.26.26,0,0,1-.18,0,.17.17,0,0,1-.05-.13.25.25,0,0,1,.08-.17.33.33,0,0,1,.24-.07H21l.88,5.3h.32a.34.34,0,0,1,.18,0,.13.13,0,0,1,.05.12.22.22,0,0,1-.08.18.33.33,0,0,1-.24.07H20.6a.3.3,0,0,1-.19,0,.17.17,0,0,1-.05-.12.21.21,0,0,1,.08-.17.37.37,0,0,1,.25-.08h.78Zm-.07-.41-.5-3h-.15l-1.74,3Z"/><path d="M26.67,26.88l.12-.6a3.25,3.25,0,0,1-2,.76,1,1,0,0,1-.77-.28.94.94,0,0,1-.29-.71,1.86,1.86,0,0,1,0-.33l.56-2.65h-.55a.26.26,0,0,1-.18-.05s-.05-.06-.05-.12a.21.21,0,0,1,.08-.17.33.33,0,0,1,.24-.08h1l-.65,3.07a1.25,1.25,0,0,0,0,.21.73.73,0,0,0,.19.51.69.69,0,0,0,.52.19,3.11,3.11,0,0,0,2-.91l.56-2.65h-.76a.26.26,0,0,1-.18-.05s-.05-.06-.05-.12a.21.21,0,0,1,.08-.17.33.33,0,0,1,.24-.08H28l-.81,3.82h.34a.41.41,0,0,1,.19,0,.17.17,0,0,1,.05.12.25.25,0,0,1-.08.18.37.37,0,0,1-.25.07Z"/><path d="M31.34,22.65h2.23a.34.34,0,0,1,.18,0,.13.13,0,0,1,0,.12.33.33,0,0,1,0,.15.23.23,0,0,1-.09.08.49.49,0,0,1-.2,0H31.25l-.58,2.73a.82.82,0,0,0,0,.21.55.55,0,0,0,.24.43,1.08,1.08,0,0,0,.7.19,4.19,4.19,0,0,0,.95-.12,3.28,3.28,0,0,0,.81-.28.46.46,0,0,1,.18-.07.16.16,0,0,1,.11.05.17.17,0,0,1,0,.13.26.26,0,0,1-.12.19,3.3,3.3,0,0,1-1.05.39,4.68,4.68,0,0,1-1,.12,1.42,1.42,0,0,1-1-.28.88.88,0,0,1-.33-.68,1.41,1.41,0,0,1,0-.28l.58-2.73h-.76a.31.31,0,0,1-.19-.05s0-.06,0-.12a.21.21,0,0,1,.08-.17.33.33,0,0,1,.24-.08h.75l.26-1.21a.42.42,0,0,1,.11-.21.23.23,0,0,1,.16-.06.16.16,0,0,1,.12,0,.15.15,0,0,1,0,.11.3.3,0,0,1,0,.12Z"/><path d="M37.22,20.75l-.53,2.53a3.28,3.28,0,0,1,.88-.6,2,2,0,0,1,.83-.17,1.36,1.36,0,0,1,1,.32,1.06,1.06,0,0,1,.34.82,1.41,1.41,0,0,1,0,.28l-.54,2.54h.47a.34.34,0,0,1,.18,0,.17.17,0,0,1,.05.12.25.25,0,0,1-.08.18.33.33,0,0,1-.24.07H38.19a.32.32,0,0,1-.19,0,.16.16,0,0,1,0-.12.19.19,0,0,1,.08-.17.33.33,0,0,1,.24-.08h.46L39.27,24a.83.83,0,0,0,0-.22.78.78,0,0,0-.25-.59,1.05,1.05,0,0,0-.75-.23,1.58,1.58,0,0,0-.71.15,6,6,0,0,0-1,.8L36,26.47h.46a.41.41,0,0,1,.19,0,.17.17,0,0,1,.05.12.25.25,0,0,1-.08.18.37.37,0,0,1-.25.07H35.05c-.1,0-.16,0-.19,0a.17.17,0,0,1,0-.12.21.21,0,0,1,.08-.17.36.36,0,0,1,.24-.08h.47l1.12-5.3h-.55a.34.34,0,0,1-.18,0,.17.17,0,0,1-.05-.13.25.25,0,0,1,.08-.17.33.33,0,0,1,.24-.08Z"/><path d="M43.21,27a1.82,1.82,0,0,1-1.32-.51,1.76,1.76,0,0,1-.52-1.29,2.54,2.54,0,0,1,.39-1.3,2.87,2.87,0,0,1,1.08-1.05,2.82,2.82,0,0,1,1.38-.38,1.78,1.78,0,0,1,1.31.51,1.67,1.67,0,0,1,.52,1.26,2.56,2.56,0,0,1-.38,1.32,2.89,2.89,0,0,1-1.06,1A2.8,2.8,0,0,1,43.21,27Zm.1-.41a2.35,2.35,0,0,0,1.14-.32,2.39,2.39,0,0,0,.87-.86,2.12,2.12,0,0,0,.31-1.08,1.38,1.38,0,0,0-.42-1,1.5,1.5,0,0,0-1.09-.42,2,2,0,0,0-.88.19,3,3,0,0,0-.72.48,2.66,2.66,0,0,0-.52.71,1.87,1.87,0,0,0-.21.85,1.44,1.44,0,0,0,.43,1.06A1.49,1.49,0,0,0,43.31,26.63Z"/><path d="M49.67,22.65l-.21,1a9.48,9.48,0,0,1,1.4-.94,2,2,0,0,1,.77-.2.92.92,0,0,1,.6.23c.18.15.27.26.27.35a.25.25,0,0,1-.08.18.27.27,0,0,1-.19.08l-.07,0-.11-.11a1.34,1.34,0,0,0-.24-.24.53.53,0,0,0-.24-.06,1.54,1.54,0,0,0-.69.22,12.38,12.38,0,0,0-1.54,1.05l-.48,2.24h1.82a.35.35,0,0,1,.19,0,.17.17,0,0,1,.05.12.25.25,0,0,1-.08.18.37.37,0,0,1-.25.07H47.38c-.1,0-.16,0-.19,0a.16.16,0,0,1,0-.11.21.21,0,0,1,.08-.17.33.33,0,0,1,.24-.07h1l.73-3.42h-.76a.31.31,0,0,1-.19-.05.12.12,0,0,1,0-.11.22.22,0,0,1,.08-.18.33.33,0,0,1,.24-.08Z"/><path d="M7.76,41.48v-9.4H7.38a1.81,1.81,0,0,1-1.23-.33,1.13,1.13,0,0,1-.37-.88A1.11,1.11,0,0,1,6.15,30a1.81,1.81,0,0,1,1.23-.33h6a4.92,4.92,0,0,1,3.46,1.2,3.73,3.73,0,0,1,1.32,2.85,3.67,3.67,0,0,1-.31,1.48A4,4,0,0,1,17,36.48a5,5,0,0,1,1.7,1.58,3.8,3.8,0,0,1,.57,2.06,3.65,3.65,0,0,1-.41,1.7,2.78,2.78,0,0,1-.75,1,4.9,4.9,0,0,1-1.47.8,6.37,6.37,0,0,1-2.16.31H7.38a1.81,1.81,0,0,1-1.23-.33,1.21,1.21,0,0,1,0-1.74,1.85,1.85,0,0,1,1.23-.33Zm2.4-5.91H12.8a3.73,3.73,0,0,0,2.35-.71,1.45,1.45,0,0,0,.63-1.2,1.38,1.38,0,0,0-.59-1.1,3,3,0,0,0-1.9-.48H10.16Zm0,5.91h4.15a3.65,3.65,0,0,0,2.06-.43,1.1,1.1,0,0,0,.46-.94,1.89,1.89,0,0,0-.91-1.43,4.12,4.12,0,0,0-2.59-.7H10.16Z"/><path d="M33.81,36.78a7.41,7.41,0,0,1-2,5.33,6.24,6.24,0,0,1-9,.35,7.36,7.36,0,0,1-2.39-5.68,7.38,7.38,0,0,1,2.39-5.69,6.24,6.24,0,0,1,9,.35A7.41,7.41,0,0,1,33.81,36.78Zm-2.4,0a5.17,5.17,0,0,0-1.33-3.63,4,4,0,0,0-3-1.43,4,4,0,0,0-3,1.44,5.62,5.62,0,0,0,0,7.24,3.87,3.87,0,0,0,6,0A5.13,5.13,0,0,0,31.41,36.78Z"/><path d="M48.21,36.78a7.44,7.44,0,0,1-2,5.33,6.37,6.37,0,0,1-4.71,2.12,6.24,6.24,0,0,1-4.33-1.77,7.32,7.32,0,0,1-2.39-5.68,7.34,7.34,0,0,1,2.39-5.69,6.24,6.24,0,0,1,4.33-1.77,6.33,6.33,0,0,1,4.71,2.12A7.45,7.45,0,0,1,48.21,36.78Zm-2.4,0a5.13,5.13,0,0,0-1.33-3.63,3.86,3.86,0,0,0-6,0,5.62,5.62,0,0,0,0,7.24,3.87,3.87,0,0,0,6,0A5.09,5.09,0,0,0,45.81,36.78Z"/><path d="M53.37,38.82v2.66h.86a1.86,1.86,0,0,1,1.24.33,1.13,1.13,0,0,1,.37.88,1.09,1.09,0,0,1-.37.86,1.86,1.86,0,0,1-1.24.33H50.59a1.86,1.86,0,0,1-1.24-.33,1.15,1.15,0,0,1-.37-.87,1.12,1.12,0,0,1,.38-.87,1.85,1.85,0,0,1,1.23-.33H51v-9.4h-.37a1.86,1.86,0,0,1-1.24-.33,1.17,1.17,0,0,1-.37-.88,1.15,1.15,0,0,1,.37-.87,1.86,1.86,0,0,1,1.24-.33h3.64a1.86,1.86,0,0,1,1.24.33,1.09,1.09,0,0,1,.37.86,1.13,1.13,0,0,1-.37.88,1.86,1.86,0,0,1-1.24.33h-.86v3.56L57.63,32a1.74,1.74,0,0,1-.51-.51A1,1,0,0,1,57,30.9a1.15,1.15,0,0,1,.36-.89,1.8,1.8,0,0,1,1.24-.34H61a1.86,1.86,0,0,1,1.24.33,1.2,1.2,0,0,1,0,1.73,1.66,1.66,0,0,1-1.16.34L56.8,35.85A7.94,7.94,0,0,1,59.07,38,15.42,15.42,0,0,1,61,41.48h.64a1.85,1.85,0,0,1,1.23.33,1.17,1.17,0,0,1,.37.88,1.09,1.09,0,0,1-.37.86,1.81,1.81,0,0,1-1.23.33H59.41a36,36,0,0,0-1.64-3.42,8,8,0,0,0-1.37-1.93,5.12,5.12,0,0,0-1.56-1Z"/></svg>