<svg xmlns="http://www.w3.org/2000/svg" viewBox="0 0 96 96"><g id="NEWSPAPER"><rect x="1" y="1" width="94" height="94" style="fill:#fff"/><path d="M94,2V94H2V2H94m2-2H0V96H96V0Z"/><path d="M22.83,20V34H7V20H22.83m2-2H5V36H24.83V18Z"/><rect x="5" y="46" width="18.89" height="2"/><rect x="27.54" y="18" width="18.03" height="2"/><rect x="27.54" y="22" width="16.23" height="2"/><rect x="27.54" y="26" width="17.13" height="2"/><rect x="27.54" y="30" width="18.03" height="2"/><rect x="27.54" y="42" width="8.11" height="2"/><rect x="27.54" y="46" width="18.03" height="2"/><rect x="27.54" y="50" width="16.23" height="2"/><rect x="27.54" y="54" width="17.13" height="2"/><rect x="27.54" y="58" width="18.03" height="2"/><rect x="27.54" y="34" width="17.13" height="2"/><rect x="27.54" y="38" width="18.03" height="2"/><rect x="27.54" y="62" width="15.32" height="2"/><rect x="27.54" y="66" width="18.03" height="2"/><rect x="48.54" y="34" width="15.32" height="2"/><rect x="48.54" y="38" width="18.03" height="2"/><rect x="27.54" y="70" width="16.23" height="2"/><rect x="27.54" y="74" width="17.13" height="2"/><rect x="27.54" y="78" width="18.03" height="2"/><rect x="27.54" y="86" width="18.03" height="2"/><rect x="27.54" y="90" width="18.03" height="2"/><rect x="27.54" y="82" width="9.01" height="2"/><rect x="5" y="50" width="15.11" height="2"/><rect x="5" y="54" width="19.83" height="2"/><rect x="5" y="38" width="15.11" height="2"/><rect x="5" y="42" width="19.83" height="2"/><rect x="5" y="62" width="19.83" height="2"/><rect x="5" y="66" width="16.68" height="2"/><rect x="5" y="70" width="18.26" height="2"/><rect x="5" y="74" width="18.89" height="2"/><rect x="5" y="78" width="17.94" height="2"/><rect x="5" y="82" width="19.2" height="2"/><rect x="5" y="86" width="15.11" height="2"/><rect x="5" y="90" width="19.83" height="2"/><rect x="5" y="58" width="19.52" height="2"/><path d="M67,48V62H50.27V48H67m2-2H48.27V64H69V46Z"/><rect x="48.27" y="18" width="19.75" height="2"/><rect x="48.27" y="22" width="15.8" height="2"/><rect x="48.27" y="26" width="20.73" height="2"/><rect x="48.27" y="42" width="20.73" height="2"/><rect x="48.27" y="66" width="17.44" height="2"/><rect x="48.27" y="70" width="19.09" height="2"/><rect x="48.27" y="74" width="19.75" height="2"/><rect x="48.27" y="78" width="18.76" height="2"/><rect x="48.27" y="82" width="20.07" height="2"/><rect x="48.27" y="86" width="15.8" height="2"/><rect x="48.27" y="90" width="20.73" height="2"/><rect x="48.27" y="30" width="20.4" height="2"/><path d="M90,64V78H73.27V64H90m2-2H71.27V80H92V62Z"/><rect x="71.27" y="22" width="19.75" height="2"/><rect x="71.27" y="18" width="15.8" height="2"/><rect x="71.27" y="38" width="15.8" height="2"/><rect x="71.27" y="26" width="20.73" height="2"/><rect x="71.27" y="42" width="20.73" height="2"/><rect x="71.27" y="46" width="17.44" height="2"/><rect x="71.27" y="50" width="19.09" height="2"/><rect x="71.27" y="54" width="19.75" height="2"/><rect x="71.27" y="58" width="18.76" height="2"/><rect x="71.27" y="82" width="20.07" height="2"/><rect x="71.27" y="86" width="15.8" height="2"/><rect x="71.27" y="90" width="20.73" height="2"/><rect x="71.27" y="30" width="20.4" height="2"/><rect x="71.27" y="34" width="20.4" height="2"/><path d="M24.19,7.53a1.07,1.07,0,0,1,.11-.33.29.29,0,0,1,.19-.08.16.16,0,0,1,.12,0,.15.15,0,0,1,0,.11.32.32,0,0,1,0,.12l-.22,1a.41.41,0,0,1-.1.21.25.25,0,0,1-.16.06.21.21,0,0,1-.12,0A.16.16,0,0,1,24,8.56a.44.44,0,0,1,0-.1c0-.05,0-.09,0-.14a.82.82,0,0,0-.33-.64,1.37,1.37,0,0,0-.92-.28,1.88,1.88,0,0,0-1.26.42,1.24,1.24,0,0,0-.49.95.67.67,0,0,0,.29.59,2.62,2.62,0,0,0,1,.33,5.17,5.17,0,0,1,1,.23,1.29,1.29,0,0,1,.55.4,1.07,1.07,0,0,1,.18.63,1.79,1.79,0,0,1-.3,1,2.06,2.06,0,0,1-.91.77,3,3,0,0,1-1.26.29,2.21,2.21,0,0,1-.93-.17,1.57,1.57,0,0,1-.64-.5l0,.24a.42.42,0,0,1-.11.21.25.25,0,0,1-.16.06.16.16,0,0,1-.12,0,.15.15,0,0,1,0-.11.57.57,0,0,1,0-.12l.24-1.14a.35.35,0,0,1,.11-.21.23.23,0,0,1,.16-.06.16.16,0,0,1,.12,0,.13.13,0,0,1,0,.1.41.41,0,0,1,0,.1.71.71,0,0,0,0,.14,1,1,0,0,0,.38.74,1.67,1.67,0,0,0,1.09.31,2.23,2.23,0,0,0,1-.23,1.7,1.7,0,0,0,.72-.58,1.36,1.36,0,0,0,.23-.72.72.72,0,0,0-.14-.46.89.89,0,0,0-.43-.31,4.6,4.6,0,0,0-.85-.2A3.15,3.15,0,0,1,21,9.66a.94.94,0,0,1-.38-.8,1.72,1.72,0,0,1,.64-1.3A2.32,2.32,0,0,1,22.83,7a2,2,0,0,1,.77.13A1.53,1.53,0,0,1,24.19,7.53Z"/><path d="M27.55,13a1.79,1.79,0,0,1-1.32-.51,1.73,1.73,0,0,1-.52-1.3,2.56,2.56,0,0,1,.39-1.3,2.81,2.81,0,0,1,1.07-1,2.71,2.71,0,0,1,1.38-.38,1.81,1.81,0,0,1,1.32.5,1.73,1.73,0,0,1,.52,1.27A2.66,2.66,0,0,1,30,11.55a3,3,0,0,1-1.07,1A2.76,2.76,0,0,1,27.55,13Zm.09-.41a2.29,2.29,0,0,0,1.14-.32,2.37,2.37,0,0,0,.88-.87A2.16,2.16,0,0,0,30,10.32a1.39,1.39,0,0,0-.43-1,1.46,1.46,0,0,0-1.08-.42,2,2,0,0,0-.88.19,2.44,2.44,0,0,0-.73.48,2.51,2.51,0,0,0-.52.71,2,2,0,0,0-.2.85,1.43,1.43,0,0,0,.42,1.06A1.5,1.5,0,0,0,27.64,12.58Z"/><path d="M32.63,8.6,32.54,9a1.85,1.85,0,0,1,1.18-.56.72.72,0,0,1,.5.17,1,1,0,0,1,.31.5,3.46,3.46,0,0,1,.66-.51,1.29,1.29,0,0,1,.61-.16.81.81,0,0,1,.6.24.89.89,0,0,1,.24.64.82.82,0,0,1,0,.21L36,12.42h.34c.1,0,.16,0,.19,0a.13.13,0,0,1,0,.12.25.25,0,0,1-.08.18.37.37,0,0,1-.25.07H35.5l.69-3.24a.88.88,0,0,0,0-.16A.58.58,0,0,0,36.07,9a.47.47,0,0,0-.35-.15,1,1,0,0,0-.47.14,3,3,0,0,0-.75.69l-.58,2.72h.34a.3.3,0,0,1,.19,0,.17.17,0,0,1,0,.12.25.25,0,0,1-.08.18.37.37,0,0,1-.25.07h-.75l.68-3.21a1.23,1.23,0,0,0,0-.19A.59.59,0,0,0,34,9a.44.44,0,0,0-.34-.16,1,1,0,0,0-.46.13,3.58,3.58,0,0,0-.78.7l-.58,2.72h.34c.1,0,.16,0,.19,0a.13.13,0,0,1,0,.12.22.22,0,0,1-.08.18.36.36,0,0,1-.24.07H31a.3.3,0,0,1-.19,0,.17.17,0,0,1-.05-.13.25.25,0,0,1,.08-.17.36.36,0,0,1,.24-.07h.35L32.13,9h-.34a.29.29,0,0,1-.19,0,.17.17,0,0,1-.05-.12.25.25,0,0,1,.08-.17.37.37,0,0,1,.25-.08Z"/><path d="M42.26,10.81H38.08c0,.1,0,.18,0,.23a1.45,1.45,0,0,0,.46,1.11,1.69,1.69,0,0,0,1.23.43,3.6,3.6,0,0,0,1-.15,3.24,3.24,0,0,0,.92-.4.32.32,0,0,1,.18-.07.13.13,0,0,1,.1,0,.17.17,0,0,1,0,.12.25.25,0,0,1-.08.17,2.41,2.41,0,0,1-.9.47,4.28,4.28,0,0,1-1.37.23,2,2,0,0,1-1.44-.53,1.83,1.83,0,0,1-.54-1.35,2.28,2.28,0,0,1,.23-1,2.82,2.82,0,0,1,.62-.83,3.33,3.33,0,0,1,.88-.57,2.66,2.66,0,0,1,1.09-.22A1.85,1.85,0,0,1,41.82,9a1.68,1.68,0,0,1,.51,1.26A2.84,2.84,0,0,1,42.26,10.81Zm-.34-.41a1.41,1.41,0,0,0-.4-1.11,1.56,1.56,0,0,0-1.15-.42,2.24,2.24,0,0,0-1.31.42,2.35,2.35,0,0,0-.9,1.11Z"/><path d="M52.93,7.53l-1,4.89H53a.26.26,0,0,1,.18,0,.13.13,0,0,1,0,.12.22.22,0,0,1-.08.18.33.33,0,0,1-.24.07H50.33a.3.3,0,0,1-.19,0,.17.17,0,0,1,0-.13.25.25,0,0,1,.08-.17.37.37,0,0,1,.25-.07h1.06l1-4.89H50.84L50.54,9a.41.41,0,0,1-.1.21.23.23,0,0,1-.17.07.17.17,0,0,1-.12-.05.14.14,0,0,1,0-.1.34.34,0,0,1,0-.13l.39-1.83h4.59L54.72,9a.35.35,0,0,1-.1.21.23.23,0,0,1-.17.07.17.17,0,0,1-.16-.15.83.83,0,0,1,0-.13l.3-1.42Z"/><path d="M58.72,8.6l-.81,3.82h1.61a.32.32,0,0,1,.19,0,.17.17,0,0,1,0,.12.23.23,0,0,1-.09.18.33.33,0,0,1-.24.07H55.8a.26.26,0,0,1-.18,0,.14.14,0,0,1,0-.13.21.21,0,0,1,.08-.17.33.33,0,0,1,.24-.07H57.5L58.22,9H57a.29.29,0,0,1-.19,0,.13.13,0,0,1-.05-.12.21.21,0,0,1,.08-.17.36.36,0,0,1,.24-.08Zm.43-2.1-.22,1.06h-.6l.22-1.06Z"/><path d="M62.64,8.6,62.55,9a1.85,1.85,0,0,1,1.18-.56.74.74,0,0,1,.5.17.92.92,0,0,1,.3.5,3.22,3.22,0,0,1,.67-.51,1.29,1.29,0,0,1,.6-.16.81.81,0,0,1,.6.24.89.89,0,0,1,.24.64.82.82,0,0,1,0,.21L66,12.42h.34a.3.3,0,0,1,.19,0,.17.17,0,0,1,0,.12.23.23,0,0,1-.09.18.33.33,0,0,1-.24.07H65.5l.69-3.24a.88.88,0,0,0,0-.16A.58.58,0,0,0,66.07,9a.45.45,0,0,0-.34-.15,1,1,0,0,0-.47.14,3,3,0,0,0-.76.69l-.58,2.72h.35a.26.26,0,0,1,.18,0,.13.13,0,0,1,0,.12.25.25,0,0,1-.08.18.33.33,0,0,1-.24.07h-.76l.69-3.21a1.23,1.23,0,0,0,0-.19A.55.55,0,0,0,64,9a.42.42,0,0,0-.33-.16.92.92,0,0,0-.46.13,3.83,3.83,0,0,0-.79.7l-.57,2.72h.34a.3.3,0,0,1,.19,0,.17.17,0,0,1,0,.12.23.23,0,0,1-.09.18.33.33,0,0,1-.24.07H61a.26.26,0,0,1-.18,0,.14.14,0,0,1,0-.13.21.21,0,0,1,.08-.17.33.33,0,0,1,.24-.07h.34L62.14,9h-.35a.26.26,0,0,1-.18,0,.13.13,0,0,1,0-.12.21.21,0,0,1,.08-.17.33.33,0,0,1,.24-.08Z"/><path d="M72.26,10.81H68.08a2.2,2.2,0,0,0,0,.23,1.48,1.48,0,0,0,.45,1.11,1.69,1.69,0,0,0,1.23.43,3.72,3.72,0,0,0,1-.15,3.17,3.17,0,0,0,.91-.4.38.38,0,0,1,.18-.07.15.15,0,0,1,.11,0,.16.16,0,0,1,0,.12.21.21,0,0,1-.08.17,2.34,2.34,0,0,1-.89.47,4.33,4.33,0,0,1-1.37.23,2,2,0,0,1-1.44-.53,1.8,1.8,0,0,1-.55-1.35,2.29,2.29,0,0,1,.24-1,2.79,2.79,0,0,1,.61-.83,3.39,3.39,0,0,1,.89-.57,2.59,2.59,0,0,1,1.09-.22A1.85,1.85,0,0,1,71.83,9a1.68,1.68,0,0,1,.51,1.26A2.92,2.92,0,0,1,72.26,10.81Zm-.33-.41a1.44,1.44,0,0,0-.4-1.11,1.58,1.58,0,0,0-1.15-.42,2.3,2.3,0,0,0-1.32.42,2.39,2.39,0,0,0-.89,1.11Z"/><path d="M77.81,8.87a.34.34,0,0,1,.1-.2.21.21,0,0,1,.16-.07.17.17,0,0,1,.12.05.14.14,0,0,1,0,.1,1.05,1.05,0,0,1,0,.13l-.15.7a.41.41,0,0,1-.1.21.23.23,0,0,1-.17.07.16.16,0,0,1-.11,0,.14.14,0,0,1,0-.1V9.55a.52.52,0,0,0-.23-.43,1.62,1.62,0,0,0-1-.25,2,2,0,0,0-1.2.32.66.66,0,0,0-.33.51.47.47,0,0,0,.29.43,2.63,2.63,0,0,0,.88.19,4.8,4.8,0,0,1,1,.18,1.21,1.21,0,0,1,.61.38.87.87,0,0,1,.2.56,1.2,1.2,0,0,1-.27.72,1.9,1.9,0,0,1-.8.6,3.16,3.16,0,0,1-1.22.23,2.79,2.79,0,0,1-.86-.12,1.78,1.78,0,0,1-.63-.37.5.5,0,0,1-.1.26.24.24,0,0,1-.18.07.15.15,0,0,1-.11,0,.16.16,0,0,1,0-.11.74.74,0,0,1,0-.12l.18-.85a.35.35,0,0,1,.1-.21.25.25,0,0,1,.17-.06.15.15,0,0,1,.11,0,.18.18,0,0,1,.05.11.74.74,0,0,1,0,.12.46.46,0,0,0,0,.1.58.58,0,0,0,.29.49,1.82,1.82,0,0,0,1.11.28A2.11,2.11,0,0,0,77,12.23a.92.92,0,0,0,.46-.68.6.6,0,0,0-.13-.37.91.91,0,0,0-.41-.28,3.66,3.66,0,0,0-.9-.17,4.35,4.35,0,0,1-.9-.17.92.92,0,0,1-.45-.3.74.74,0,0,1-.16-.47,1,1,0,0,1,.21-.6,1.66,1.66,0,0,1,.7-.52,2.73,2.73,0,0,1,1.1-.21,2.48,2.48,0,0,1,.75.1A1.49,1.49,0,0,1,77.81,8.87Z"/></g></svg>