<svg xmlns="http://www.w3.org/2000/svg" viewBox="0 0 96 96"><g id="WEBSITE"><rect x="1" y="1" width="94" height="94" style="fill:#fff"/><path d="M94,2V94H2V2H94m2-2H0V96H96V0Z"/><circle cx="7.5" cy="7.5" r="2.5"/><circle cx="15.5" cy="7.5" r="2.5"/><circle cx="22.5" cy="7.5" r="2.5"/><rect x="29" y="5" width="39" height="5"/><path d="M66,28V42H7V28H66m2-2H5V44H68V26Z"/><rect x="5" y="46" width="60" height="2"/><rect x="71" y="26" width="20" height="2"/><rect x="71" y="30" width="18" height="2"/><rect x="71" y="34" width="19" height="2"/><rect x="71" y="38" width="20" height="2"/><rect x="71" y="42" width="9" height="2"/><rect x="71" y="46" width="20" height="2"/><rect x="71" y="50" width="18" height="2"/><rect x="71" y="54" width="19" height="2"/><rect x="71" y="58" width="20" height="2"/><rect x="71" y="62" width="17" height="2"/><rect x="71" y="66" width="20" height="2"/><rect x="71" y="70" width="18" height="2"/><rect x="71" y="74" width="19" height="2"/><rect x="71" y="78" width="20" height="2"/><rect x="71" y="86" width="20" height="2"/><rect x="71" y="90" width="20" height="2"/><rect x="71" y="82" width="10" height="2"/><rect x="5" y="50" width="48" height="2"/><rect x="5" y="54" width="63" height="2"/><rect x="5" y="62" width="63" height="2"/><rect x="5" y="66" width="53" height="2"/><rect x="5" y="70" width="58" height="2"/><rect x="5" y="74" width="60" height="2"/><rect x="5" y="78" width="57" height="2"/><rect x="5" y="82" width="61" height="2"/><rect x="5" y="86" width="48" height="2"/><rect x="5" y="90" width="63" height="2"/><rect x="5" y="58" width="62" height="2"/><path d="M35.06,14.7v2.72a2.19,2.19,0,0,1,1.79-1,2.06,2.06,0,0,1,1.54.65,2.2,2.2,0,0,1,.64,1.6,2.27,2.27,0,0,1-.65,1.62,2.07,2.07,0,0,1-1.53.66,2.14,2.14,0,0,1-1.79-1v.81h-1a.33.33,0,0,1-.21-.06.2.2,0,0,1-.06-.15.17.17,0,0,1,.06-.14.33.33,0,0,1,.21-.06h.56v-5.3h-.56a.33.33,0,0,1-.21-.06.22.22,0,0,1,0-.3.33.33,0,0,1,.21-.06Zm3.56,4a1.8,1.8,0,0,0-.54-1.32,1.68,1.68,0,0,0-1.24-.54,1.71,1.71,0,0,0-1.25.54,1.9,1.9,0,0,0,0,2.63,1.71,1.71,0,0,0,1.25.54A1.68,1.68,0,0,0,38.08,20,1.79,1.79,0,0,0,38.62,18.73Z"/><path d="M42.81,14.7v5.72h1.61a.34.34,0,0,1,.22.06.17.17,0,0,1,.06.14.2.2,0,0,1-.06.15.34.34,0,0,1-.22.06H40.79a.29.29,0,0,1-.21-.06.2.2,0,0,1-.06-.15.17.17,0,0,1,.06-.14.29.29,0,0,1,.21-.06H42.4v-5.3H41.22a.29.29,0,0,1-.21-.06.18.18,0,0,1-.07-.15.2.2,0,0,1,.06-.15.34.34,0,0,1,.22-.06Z"/><path d="M50.9,18.73A2.29,2.29,0,0,1,48.61,21,2.21,2.21,0,0,1,47,20.32a2.14,2.14,0,0,1-.67-1.59A2.18,2.18,0,0,1,47,17.12a2.24,2.24,0,0,1,1.63-.66,2.29,2.29,0,0,1,2.29,2.27Zm-.42,0a1.77,1.77,0,0,0-.55-1.32,1.91,1.91,0,0,0-2.66,0,1.78,1.78,0,0,0-.55,1.32,1.75,1.75,0,0,0,.55,1.3,1.9,1.9,0,0,0,2.66,0A1.78,1.78,0,0,0,50.48,18.73Z"/><path d="M56,17.35V16.6h1a.33.33,0,0,1,.21.06.22.22,0,0,1,0,.3A.33.33,0,0,1,57,17h-.56v4.09a1.5,1.5,0,0,1-.17.74,1.69,1.69,0,0,1-.39.44,2.37,2.37,0,0,1-.5.33,1.65,1.65,0,0,1-.6.09H53.57a.3.3,0,0,1-.21-.05.2.2,0,0,1,0-.3.29.29,0,0,1,.21-.06h1.17a1.23,1.23,0,0,0,.66-.18,1.49,1.49,0,0,0,.48-.54,1.17,1.17,0,0,0,.1-.53V19.82a2,2,0,0,1-1.69.91,2,2,0,0,1-1.46-.63,2.15,2.15,0,0,1,0-3,2,2,0,0,1,1.46-.62A2,2,0,0,1,56,17.35Zm0,1.24a1.66,1.66,0,0,0-.49-1.22,1.65,1.65,0,0,0-2.37,0,1.76,1.76,0,0,0,0,2.44,1.65,1.65,0,0,0,2.37,0A1.66,1.66,0,0,0,56,18.59Z"/><path d="M60.52,19.65h.18a.65.65,0,0,1,.47.2.64.64,0,0,1,.19.46.67.67,0,0,1-.66.67h-.18a.65.65,0,0,1-.47-.2.6.6,0,0,1-.19-.46.65.65,0,0,1,.19-.48A.7.7,0,0,1,60.52,19.65Z"/></g></svg>