<?xml version="1.0" encoding="UTF-8"?><svg id="Layer_1" xmlns="http://www.w3.org/2000/svg" width="3288.65" height="1795.36" viewBox="0 0 3288.65 1795.36"><g><path d="M1033.1,612.68c3.34,9.63,6.89,17.55,8.78,25.84,3.74,16.32,8.73,31.96,17.64,46.32,3.47,5.6,5.84,11.95,8.25,18.14,6.86,17.62,11.35,36.27,23.11,51.71,1.19,1.56,2.14,3.46,2.67,5.35,3.82,13.63,12.78,24.8,17.97,37.7,4.6,11.43,11.48,19.07,24.33,20.32,7.25,.7,14.63,3.46,21.63,2.62,16.48-1.97,32.74-5.78,49.16-8.39,11.48-1.83,23.08-4.1,34.62-4.11,46.6-.07,93.27-2.71,139.78,2.55,1.64,.19,3.34,.13,4.99-.06,17.04-1.95,33.88,.5,50.78,2,24.24,2.15,48.43,3.99,72.28-3.66,12.32-3.95,25.03-6.26,38.1-7.18,10.87-.76,21.66-3.36,32.36-5.69,11.06-2.41,21.88-5.94,32.98-8.14,10.2-2.02,18.69-6.86,26.43-13.36,10.57-8.89,19.72-18.63,23.57-32.63,3.88-14.1,10.56-27.63,12.85-41.92,2.4-14.93,2.13-30.55,1.09-45.73-2.57-37.54-5.96-75.04-9.63-112.49-1.32-13.5-1.14-27.09-5.11-40.49-3.76-12.68-5.63-26.09-6.91-39.31-1.9-19.54-2.79-39.18-3.62-58.8-.52-12.29-.06-24.63-.22-36.94-.11-8.32-.97-16.66-.73-24.96,.88-30.02,5.38-59.7,9.8-89.33,3.41-22.82,5.28-45.6,4.97-68.64-.1-7.22-1.78-13.89-5.24-20.06-3.25-5.8-6.79-11.48-10.65-16.88-1.65-2.31-4.2-4.3-6.77-5.59-16.38-8.25-32.97-15.97-51.6-17.81-3.96-.39-7.95-1.15-11.77-2.27-21.07-6.15-42.8-6.44-64.32-5.87-26.6,.71-53.13,3.51-79.71,5.22-22.26,1.43-44.54,3.56-66.81,3.62-25.61,.07-51.21-1.88-76.83-2.77-12.3-.43-24.61-.64-36.92-.59-14.26,.06-28.57,1.36-42.77,.56-14.96-.84-29.82-2.44-44.82-.73-7.26,.83-14.59,1.01-21.88,1.64-15.24,1.31-30.5,2.51-45.71,4.22-5.23,.59-8.25-1.32-10.27-5.68-1.12-2.4-2.23-4.83-3.04-7.35-3.14-9.82-5.89-19.78-9.27-29.52-6.1-17.58-15.21-34.05-18.24-52.79-1.24-7.68-8.37-11.98-16.43-11.85-5.65,.1-11.3,.72-16.95,.67-11.92-.1-23.83-.64-35.75-.73-28.97-.23-57.93-.34-86.9-.43-8.99-.03-17.99,.3-26.98,.21-18.63-.17-37.33,.41-55.87-.98-27.84-2.09-55.6-4.73-83.59-3.54-15.97,.68-32,.83-47.98,.45-17.3-.41-34.57-1.91-51.87-2.55-15.27-.57-30.64-1.67-45.83-.6-13.83,.97-27.45,4.64-41.2,6.9-10.33,1.7-17.79,7.18-22.53,16.36-4.4,8.52-7.95,17.55-13.03,25.62-4.16,6.61-4.8,13.32-5.47,20.74-1.98,21.82,4.7,43.5,.62,65.31-.39,2.09,.85,4.48,1.31,6.74,1.99,9.75,4.56,19.42,5.79,29.26,1.44,11.5,.38,23.42,2.77,34.66,4.07,19.12,2.3,38.39,3.34,57.54,1.49,27.6-5.62,54.98-3.52,82.74,.75,9.95,.84,19.95,1.19,29.93,1.01,28.94,1.99,57.87,3.03,86.81,.07,1.97,.69,3.92,.88,5.9,.6,6.24,1.24,12.47,1.6,18.73,.19,3.31-.4,6.67-.19,9.98,.82,12.91,2.05,25.8,2.68,38.73,.96,19.78,6.47,37.45,22.92,49.9,8.47,6.41,17.47,12.14,26.44,17.85,2.39,1.53,5.47,2.35,8.33,2.7,15.25,1.83,30.5,1.9,45.73-.4,4.6-.7,9.27-1.01,13.93-1.27,14.92-.82,29.86-1.36,44.77-2.33,16.29-1.06,32.54-3.32,48.83-3.56,23.96-.36,47.93,.75,71.9,.94,35.98,.29,71.97,.4,107.95,.43,29.98,.02,59.97-.29,89.95-.22,8.28,.02,16.56,.85,24.8,1.31Z" style="fill:#fff;"/><path d="M1033.1,612.68c-8.24-.46-16.52-1.3-24.8-1.31-29.98-.07-59.97,.24-89.95,.22-35.98-.03-71.97-.14-107.95-.43-23.97-.19-47.95-1.31-71.9-.94-16.29,.25-32.54,2.5-48.83,3.56-14.91,.97-29.85,1.51-44.77,2.33-4.65,.26-9.33,.57-13.93,1.27-15.24,2.31-30.49,2.23-45.73,.4-2.86-.34-5.94-1.17-8.33-2.7-8.96-5.72-17.96-11.45-26.44-17.85-16.45-12.44-21.96-30.12-22.92-49.9-.63-12.92-1.87-25.81-2.68-38.73-.21-3.31,.39-6.67,.19-9.98-.37-6.25-1.01-12.49-1.6-18.73-.19-1.98-.81-3.92-.88-5.9-1.04-28.93-2.02-57.87-3.03-86.81-.35-9.98-.44-19.98-1.19-29.93-2.1-27.75,5.01-55.14,3.52-82.74-1.04-19.15,.74-38.42-3.34-57.54-2.39-11.23-1.33-23.16-2.77-34.66-1.23-9.84-3.81-19.51-5.79-29.26-.46-2.26-1.7-4.65-1.31-6.74,4.08-21.81-2.6-43.49-.62-65.31,.67-7.42,1.31-14.13,5.47-20.74,5.08-8.08,8.63-17.11,13.03-25.62,4.74-9.18,12.2-14.66,22.53-16.36,13.75-2.26,27.38-5.94,41.2-6.9,15.19-1.06,30.56,.03,45.83,.6,17.3,.65,34.57,2.15,51.87,2.55,15.98,.38,32.01,.23,47.98-.45,27.99-1.19,55.75,1.45,83.59,3.54,18.54,1.39,37.24,.81,55.87,.98,8.99,.08,17.99-.24,26.98-.21,28.97,.09,57.93,.2,86.9,.43,11.92,.09,23.83,.63,35.75,.73,5.65,.05,11.3-.58,16.95-.67,8.06-.14,15.19,4.17,16.43,11.85,3.03,18.74,12.14,35.21,18.24,52.79,3.38,9.74,6.13,19.69,9.27,29.52,.8,2.52,1.92,4.94,3.04,7.35,2.03,4.36,5.04,6.27,10.27,5.68,15.2-1.71,30.46-2.91,45.71-4.22,7.29-.63,14.62-.81,21.88-1.64,15-1.7,29.86-.11,44.82,.73,14.2,.79,28.51-.5,42.77-.56,12.3-.05,24.62,.16,36.92,.59,25.61,.89,51.22,2.84,76.83,2.77,22.27-.06,44.55-2.19,66.81-3.62,26.57-1.71,53.11-4.51,79.71-5.22,21.53-.58,43.26-.29,64.32,5.87,3.82,1.12,7.81,1.88,11.77,2.27,18.63,1.84,35.22,9.55,51.6,17.81,2.57,1.29,5.12,3.28,6.77,5.59,3.86,5.41,7.4,11.08,10.65,16.88,3.45,6.17,5.14,12.84,5.24,20.06,.31,23.04-1.56,45.82-4.97,68.64-4.42,29.62-8.92,59.3-9.8,89.33-.24,8.31,.62,16.64,.73,24.96,.16,12.31-.3,24.65,.22,36.94,.83,19.62,1.73,39.27,3.62,58.8,1.28,13.22,3.15,26.63,6.91,39.31,3.97,13.4,3.79,26.99,5.11,40.49,3.67,37.45,7.06,74.95,9.63,112.49,1.04,15.18,1.31,30.8-1.09,45.73-2.29,14.29-8.97,27.82-12.85,41.92-3.85,14-13,23.75-23.57,32.63-7.74,6.51-16.22,11.34-26.43,13.36-11.09,2.2-21.92,5.72-32.98,8.14-10.7,2.33-21.49,4.93-32.36,5.69-13.07,.92-25.78,3.23-38.1,7.18-23.86,7.65-48.05,5.81-72.28,3.66-16.9-1.5-33.75-3.95-50.78-2-1.65,.19-3.35,.24-4.99,.06-46.51-5.26-93.18-2.62-139.78-2.55-11.55,.02-23.14,2.29-34.62,4.11-16.42,2.61-32.68,6.42-49.16,8.39-7,.84-14.38-1.91-21.63-2.62-12.84-1.25-19.72-8.89-24.33-20.32-5.2-12.9-14.15-24.08-17.97-37.7-.53-1.89-1.48-3.79-2.67-5.35-11.77-15.44-16.25-34.09-23.11-51.71-2.41-6.19-4.78-12.54-8.25-18.14-8.91-14.36-13.9-30.01-17.64-46.32-1.9-8.29-5.45-16.21-8.78-25.84Zm258.91-19.7c-1.16-24.47-11.08-44.66-18.96-65.37-6.49-17.04-14.47-33.52-20.83-50.61-3.44-9.25-4.18-19.49-7.4-28.85-4.75-13.79-10.35-27.31-16.11-40.71-5.25-12.22-11.29-24.01-19.31-34.83-8.72-11.76-17.44-23.72-24.31-36.59-12.37-23.17-23.05-47.24-35-70.64-8.61-16.87-16.74-34.27-27.64-49.62-11.42-16.07-21.85-32.63-31.5-49.69-10.48-18.53-19.8-37.64-25.22-58.49-3.34-12.85-7.88-25.41-12.25-37.98-2.82-8.12-6.5-15.95-9.43-24.03-1.68-4.65-4.2-7.24-9.44-7.02-7.3,.31-14.71,1.03-21.91,.17-15.86-1.88-31.67-3.59-47.69-2.61-7.61,.47-15.26,.52-22.88,.39-18.97-.33-37.93-.84-56.89-1.36-21.96-.61-43.93-1.03-65.87-2.06-13.28-.62-26.5-2.9-39.78-3.24-14.94-.38-29.91,.5-44.86,.98-44.64,1.43-89.21-.97-133.78-2.81-16.27-.67-32.02,1.85-47,7.59-5.82,2.23-11.86,6.96-15.14,12.21-10.87,17.37-16.12,36.53-13.25,57.25,1,7.23,2.3,14.44,3.98,21.53,3.18,13.4,2.57,26.78,2.38,40.47-.32,22.89,2.29,45.83,3.93,68.73,1.27,17.64,2.49,35.21-.2,52.85-1.3,8.54-2.33,17.22-2.29,25.84,.1,22.32,.7,44.64,1.43,66.94,.35,10.63,1.6,21.24,2.16,31.87,1.07,20.26,1.41,40.57,3.04,60.79,2.05,25.53,5.67,50.95,7.46,76.49,.94,13.36,7.02,23.92,15.67,32.46,15.48,15.27,35,21.34,56.78,19.43,23.2-2.03,46.38-4.25,69.58-6.19,14.91-1.25,29.85-2.15,44.78-3.16,2.31-.16,4.65-.06,6.97-.02,26.95,.47,53.9,1.07,80.86,1.38,21.31,.24,42.63,0,63.94,.2,17.98,.16,35.95,.86,53.93,.92,32.62,.1,65.25-.18,97.87-.16,23.64,.01,47.29,.58,70.93,.31,29.63-.35,59.25-1.61,88.87-1.92,27.3-.28,54.61,.23,81.92,.27,3.89,0,7.77-.68,12.44-1.11Zm40-115.44c-3.76-5.58-6.57-9.26-8.84-13.25-4.1-7.18-8.33-14.34-11.64-21.89-2.76-6.3,.35-13.12,5.72-14.97,4.83-1.66,9.9,1.76,12.62,8.55,.5,1.24,.7,2.62,1.36,3.75,4.52,7.74,9.05,15.47,13.73,23.11,2.74,4.48,6.41,5.56,10.87,2.22,13.32-9.96,27.16-19.3,39.77-30.09,7.8-6.67,13.3-16.02,15.39-26.3,4.13-20.3,6.51-40.74,1.17-61.35-2.22-8.57-3.48-9.78-12.1-9.16-7.29,.52-14.96,2.11-21.84,.54-12.24-2.79-23.43,1.76-34.8,1.76-3.04,7.44,6.07,15.15-2.79,22.72-3.36-4.87-6.09-9.33-9.34-13.38-2.4-2.99-5.06-6.95-8.32-7.81-5.95-1.58-12.49-2.01-18.65-1.46-20.87,1.86-41.68,4.37-62.51,6.6-8.69,.93-17.38,1.8-26.36,2.73,7.44,12.07,15.03,22.68,20.84,34.2,8.69,17.24,16.31,35.03,23.98,52.77,2.63,6.08,4.04,12.68,6,19.05,2.35,7.61,4.14,15.45,7.13,22.81,9.54,23.44,20.21,46.44,29.13,70.1,7.25,19.24,12.63,39.2,18.77,58.86,.49,1.57,.39,3.32,.77,4.93,.98,4.15-.39,7.22-4.14,9.16-3.69,1.91-7,1.29-10.08-1.51-1.88-1.71-4.01-3.15-6.54-5.11-3.95,4.5-7.21,8.65-10.91,12.36-17.98,18.06-33.02,38.25-45.69,60.38-13.48,23.54-29.83,44.87-49.98,63.28-13,11.87-25.37,24.44-37.79,36.92-2.89,2.9-4.82,6.75-7.31,10.32,1.97,1.19,2.75,1.97,3.65,2.15,2.27,.45,4.59,.77,6.9,.91,16.46,.99,32.5-1.76,48.57-5.01,10.38-2.1,21.04-3.97,31.57-4.01,23.95-.09,47.91,1.51,71.87,1.47,17.7-.03,35.27,.63,52.81,2.91,4.61,.6,9.31,.55,13.97,.83,28.9,1.79,57.8,3.88,86.72,5.22,8.87,.41,18.4,.43,26.64-2.31,19.18-6.39,38.79-9.35,58.68-11.68,7.21-.85,14.34-2.88,21.35-4.89,9.89-2.83,19.47-6.91,29.48-9.08,13.91-3.03,25.26-10.1,35.07-19.82,3.18-3.15,5.79-7.49,7.12-11.77,4.96-15.87,9.49-31.89,13.71-47.98,1.33-5.08,1.83-10.59,1.55-15.84-.82-15.28-1.05-30.74-3.71-45.74-3.27-18.5-1.88-37.16-4.21-55.63-2.33-18.49-3.59-37.11-5.85-55.6-2.14-17.51-5.21-34.91-7.44-52.41-4.8-37.75-1.83-75.79-3.75-113.67-.8-15.9,.21-31.96,1.35-47.88,1.19-16.57,2.01-33.4,5.76-49.48,5.44-23.35,7.05-46.79,5.99-70.43-.57-12.84-5.64-24.22-16.1-33.13-9.89-8.43-21.52-11.9-33.56-14.38-13.35-2.75-27.06-3.83-40.37-6.73-23.13-5.03-46.46-1.65-69.67-2.61-10.59-.44-21.27,.9-31.9,1.6-7.64,.5-15.25,1.4-22.89,1.93-11.6,.79-23.2,1.62-34.81,2.05-11.65,.43-23.31,.29-34.97,.58-9.32,.22-18.65,1.29-27.93,.96-25.24-.9-50.45-2.84-75.69-3.46-27.32-.67-54.66-.58-81.99-.33-22.3,.2-44.6,1.08-66.89,1.78-3.51,.11-7.01,.85-11.84,1.47,1.27,3.58,1.86,6.04,2.97,8.23,1.95,3.83,4.29,7.46,6.33,11.24,5.06,9.36,9.61,19.03,15.17,28.07,7.83,12.74,16.49,24.96,24.59,37.53,5.22,8.09,10.73,16.09,14.97,24.7,12.06,24.49,23.43,49.32,35.29,73.91,2.96,6.15,6.73,11.92,9.54,16.84,6.64-1.92,11.54-4.3,16.58-4.63,21.58-1.42,43.2-2.07,64.79-3.35,10.19-.61,20.32-2.02,30.33-3.04,.3-2,.72-3.01,.56-3.92-2.11-11.78-4.45-23.53-6.43-35.33-1.26-7.54-2.58-15.13-2.85-22.74-.25-6.99,4.36-11.42,10.05-11.21,5.19,.2,8.03,4.62,8.64,11.46,1.37,15.21,3.18,30.38,4.92,45.55,.3,2.63,1.14,5.2,1.8,7.78,1.34,5.23,4.7,7.83,10.15,7.69,2.33-.06,4.66,.02,6.99-.03,14.64-.37,29.29-.71,43.93-1.17,22.63-.71,45.28-1.09,67.87-2.42,16.93-1,33.76-3.46,50.68-4.83,3.77-.31,7.93,.63,11.46,2.09,3.57,1.47,4.38,4.6,1.78,8.2-4.9,6.8-13.64,10.25-22.05,8.52-3.24-.67-6.56-1.81-9.77-1.6-19.59,1.27-39.17,2.83-58.74,4.36-4.95,.39-6.9,3.2-6.43,8.13,.41,4.28,.81,8.62,.48,12.88-.76,9.62-2.12,19.2-2.98,28.82-2.76,30.78-18.26,53.5-43.69,70.2-7.78,5.11-15.07,10.97-22.65,16.39-3.83,2.73-4.06,5.91-1.35,9.38,6.74,8.65,12.83,17.97,20.56,25.64,18.02,17.88,32.4,38.8,49.49,57.4,13,14.14,22.66,31.14,38.71,42.76,7.93,5.74,8.29,15.6,6.68,24.85-.86,4.93-4.2,6.82-7.79,4.18-6.56-4.84-14.85-7.49-18.99-15.57-1.93-3.77-5.35-6.78-8.1-10.12-7.6-9.25-15.35-18.37-22.76-27.76-7.83-9.92-15.05-20.35-23.05-30.12-17.07-20.84-36.37-39.81-52.04-61.86-3.77-5.3-5.67-5.86-11.9-2.75-7.11,3.56-13.83,7.88-20.71,11.9-3.43,2-6.65,4.57-10.31,5.96-5.5,2.08-10.15-.3-12.32-5.42-1.58-3.73,.04-7.85,5.11-10.56,5.27-2.81,10.95-4.84,16.42-7.3,6.59-2.96,13.14-6.01,21.26-9.74Zm-56,134.31c-3.92-.68-7.71-1.92-11.48-1.89-12.29,.12-24.58,1.01-36.88,1.07-43.9,.23-87.82-1.99-131.69,1.97-7.16,.65-14.48-.58-21.73-.87-4.3-.17-8.63-.57-12.9-.21-4.04,.34-5.76,3.06-4.66,7.11,3.75,13.76,6.59,27.88,11.59,41.17,6.31,16.78,14.37,32.91,21.75,49.28,3.14,6.96,6.26,13.94,9.78,20.71,7.53,14.46,15.2,28.83,23.04,43.12,2.94,5.37,6.49,10.41,10.34,16.52,18.58-17.9,35.99-34.73,53.47-51.49,4.78-4.59,10.05-8.7,14.61-13.49,13.87-14.54,22.55-32.78,34.34-48.83,11.19-15.24,21.88-30.84,32.82-46.27,3.62-5.11,7.58-10.05,7.58-17.93Z" style="fill:#1e5166;"/><path d="M1292.01,592.97c-4.67,.44-8.55,1.12-12.44,1.11-27.31-.04-54.61-.55-81.92-.27-29.63,.3-59.25,1.57-88.87,1.92-23.64,.28-47.29-.29-70.93-.31-32.62-.02-65.25,.26-97.87,.16-17.98-.05-35.95-.76-53.93-.92-21.31-.19-42.63,.04-63.94-.2-26.95-.31-53.9-.91-80.86-1.38-2.32-.04-4.66-.14-6.97,.02-14.93,1-29.87,1.91-44.78,3.16-23.2,1.94-46.39,4.16-69.58,6.19-21.78,1.91-41.3-4.16-56.78-19.43-8.65-8.54-14.74-19.1-15.67-32.46-1.79-25.55-5.41-50.96-7.46-76.49-1.63-20.21-1.96-40.53-3.04-60.79-.56-10.63-1.82-21.23-2.16-31.87-.73-22.31-1.33-44.63-1.43-66.94-.04-8.61,.99-17.3,2.29-25.84,2.69-17.64,1.47-35.22,.2-52.85-1.65-22.9-4.25-45.84-3.93-68.73,.19-13.69,.8-27.07-2.38-40.47-1.69-7.09-2.98-14.31-3.98-21.53-2.87-20.73,2.39-39.89,13.25-57.25,3.28-5.25,9.32-9.97,15.14-12.21,14.98-5.75,30.73-8.26,47-7.59,44.57,1.84,89.14,4.25,133.78,2.81,14.95-.48,29.93-1.36,44.86-.98,13.28,.34,26.5,2.62,39.78,3.24,21.94,1.03,43.91,1.46,65.87,2.06,18.96,.52,37.93,1.03,56.89,1.36,7.62,.13,15.28,.08,22.88-.39,16.02-.98,31.82,.73,47.69,2.61,7.2,.85,14.61,.13,21.91-.17,5.24-.22,7.76,2.37,9.44,7.02,2.93,8.09,6.61,15.91,9.43,24.03,4.37,12.56,8.91,25.12,12.25,37.98,5.42,20.86,14.74,39.96,25.22,58.49,9.65,17.06,20.09,33.62,31.5,49.69,10.9,15.35,19.03,32.75,27.64,49.62,11.95,23.41,22.64,47.47,35,70.64,6.86,12.87,15.59,24.83,24.31,36.59,8.03,10.82,14.06,22.61,19.31,34.83,5.76,13.41,11.36,26.93,16.11,40.71,3.22,9.36,3.96,19.6,7.4,28.85,6.36,17.09,14.34,33.57,20.83,50.61,7.88,20.71,17.8,40.9,18.96,65.37Zm-352.02-217.64v.65c7.32,0,14.65-.25,21.96,.08,6.15,.27,7.56,2.47,6.08,8.41-.48,1.92-1.23,3.83-2.18,5.57-3.58,6.54-5.42,13.37-5.9,20.92-.38,5.83-1.65,12.1-4.35,17.2-8.66,16.36-22.04,28.39-38.92,35.61-11.54,4.94-23.89,8.11-36.05,11.45-13.92,3.82-28.24,1.68-42.41,1.72-.96,0-1.91-.55-2.87-.82-18.64-5.21-37.27-10.41-52.42-23.47-1.48-1.27-3.62-1.74-5.23-2.9-21.89-15.77-42.94-31.72-52.87-58.92-6.67-18.27-13.07-36.11-14.2-55.74-.76-13.11-.77-26.03,3.26-38.52,5.8-18.01,11.77-35.99,18.54-53.65,8.42-21.99,22.98-40.03,41.39-54.12,19.87-15.21,43.71-22.05,68.08-26.62,2.27-.43,4.66-.46,6.97-.28,11.59,.9,23.28,1.26,34.73,3.07,19.9,3.13,38.71,9.31,54.01,23.41,2.42,2.23,5.2,4.51,8.22,5.49,2.85,.92,7.34,1.38,9.08-.2,1.67-1.52,1.68-6.23,.75-8.97-2.46-7.21-8-11.71-14.59-15.64-12.17-7.26-25.48-11.65-38.85-15.27-14.64-3.97-29.35-8.57-44.99-7.78-15.62,.79-31.2,1.09-45.97,7.34-10.37,4.39-21.46,7.28-31.41,12.41-31.47,16.21-50.05,44.24-64.74,74.89-7.29,15.22-11.5,31.89-17.64,47.69-6.89,17.72-5.78,36.02-4.15,54.17,1.73,19.27,7.74,37.6,14.12,55.94,7.61,21.85,22.19,37.61,39.39,51.51,10.06,8.13,20.79,15.6,31.9,22.25,13.07,7.82,26.37,15.98,41.73,18.31,14.12,2.14,28.48,3.84,42.72,3.75,11.16-.07,22.67-1.98,33.35-5.26,11.67-3.59,22.67-9.47,33.73-14.83,5.04-2.44,10.23-5.32,14.15-9.22,13.37-13.29,27.67-25.62,32.61-45.54,3.97-16.03,11.18-31.19,12.73-47.97,.96-10.41-.74-13.05-11.24-13.62-1.66-.09-3.33,.01-4.99,.08-30.59,1.29-61.19,2.58-91.78,3.87-5.32,.22-10.64,.46-15.96,.55-3.57,.06-7.26,.79-7.97,4.53-.55,2.9,.01,6.66,1.52,9.17,4.37,7.25,13.35,9.19,20.96,4.18,4.72-3.11,9.51-4.75,14.9-4.8,14.93-.13,29.86-.05,44.8-.05Z" style="fill:#ceb9d2;"/><path d="M1332.01,477.53c-8.12,3.72-14.67,6.78-21.26,9.74-5.47,2.46-11.15,4.49-16.42,7.3-5.07,2.7-6.7,6.83-5.11,10.56,2.17,5.12,6.82,7.49,12.32,5.42,3.66-1.38,6.87-3.95,10.31-5.96,6.88-4.01,13.6-8.34,20.71-11.9,6.22-3.11,8.13-2.55,11.9,2.75,15.67,22.04,34.97,41.01,52.04,61.86,8.01,9.78,15.22,20.2,23.05,30.12,7.41,9.39,15.16,18.52,22.76,27.76,2.75,3.35,6.17,6.35,8.1,10.12,4.14,8.08,12.43,10.73,18.99,15.57,3.59,2.65,6.93,.75,7.79-4.18,1.61-9.25,1.25-19.11-6.68-24.85-16.05-11.62-25.71-28.62-38.71-42.76-17.1-18.6-31.47-39.52-49.49-57.4-7.73-7.67-13.82-17-20.56-25.64-2.71-3.47-2.48-6.64,1.35-9.38,7.58-5.42,14.87-11.28,22.65-16.39,25.43-16.71,40.93-39.43,43.69-70.2,.86-9.62,2.22-19.19,2.98-28.82,.34-4.26-.07-8.61-.48-12.88-.47-4.93,1.48-7.74,6.43-8.13,19.58-1.53,39.15-3.09,58.74-4.36,3.21-.21,6.53,.93,9.77,1.6,8.41,1.73,17.15-1.72,22.05-8.52,2.6-3.6,1.79-6.72-1.78-8.2-3.53-1.46-7.7-2.4-11.46-2.09-16.91,1.37-33.75,3.83-50.68,4.83-22.59,1.33-45.24,1.71-67.87,2.42-14.64,.46-29.29,.8-43.93,1.17-2.33,.06-4.66-.02-6.99,.03-5.45,.14-8.81-2.46-10.15-7.69-.66-2.58-1.5-5.15-1.8-7.78-1.75-15.17-3.55-30.34-4.92-45.55-.62-6.85-3.45-11.27-8.64-11.46-5.69-.21-10.31,4.22-10.05,11.21,.28,7.61,1.59,15.21,2.85,22.74,1.98,11.81,4.32,23.55,6.43,35.33,.16,.91-.25,1.92-.56,3.92-10.01,1.03-20.14,2.44-30.33,3.04-21.59,1.28-43.21,1.93-64.79,3.35-5.04,.33-9.94,2.71-16.58,4.63-2.81-4.92-6.58-10.69-9.54-16.84-11.86-24.59-23.23-49.42-35.29-73.91-4.24-8.61-9.75-16.61-14.97-24.7-8.1-12.57-16.76-24.79-24.59-37.53-5.56-9.05-10.11-18.71-15.17-28.07-2.05-3.78-4.39-7.41-6.33-11.24-1.11-2.19-1.71-4.65-2.97-8.23,4.83-.62,8.32-1.36,11.84-1.47,22.29-.7,44.59-1.58,66.89-1.78,27.33-.25,54.67-.34,81.99,.33,25.24,.62,50.45,2.55,75.69,3.46,9.29,.33,18.62-.73,27.93-.96,11.65-.28,23.32-.15,34.97-.58,11.61-.43,23.21-1.26,34.81-2.05,7.64-.52,15.25-1.42,22.89-1.93,10.63-.7,21.31-2.04,31.9-1.6,23.21,.96,46.55-2.42,69.67,2.61,13.31,2.9,27.02,3.98,40.37,6.73,12.04,2.48,23.68,5.96,33.56,14.38,10.46,8.91,15.53,20.29,16.1,33.13,1.06,23.64-.55,47.08-5.99,70.43-3.74,16.08-4.56,32.92-5.76,49.48-1.15,15.92-2.16,31.98-1.35,47.88,1.92,37.88-1.05,75.92,3.75,113.67,2.23,17.5,5.3,34.9,7.44,52.41,2.26,18.5,3.52,37.12,5.85,55.6,2.33,18.48,.93,37.14,4.21,55.63,2.65,15,2.89,30.46,3.71,45.74,.28,5.25-.22,10.76-1.55,15.84-4.21,16.09-8.75,32.11-13.71,47.98-1.34,4.28-3.94,8.62-7.12,11.77-9.81,9.72-21.16,16.79-35.07,19.82-10.01,2.18-19.6,6.25-29.48,9.08-7.02,2.01-14.14,4.04-21.35,4.89-19.89,2.34-39.51,5.3-58.68,11.68-8.24,2.75-17.77,2.72-26.64,2.31-28.93-1.33-57.82-3.43-86.72-5.22-4.66-.29-9.35-.23-13.97-.83-17.54-2.28-35.12-2.94-52.81-2.91-23.96,.04-47.91-1.56-71.87-1.47-10.54,.04-21.19,1.91-31.57,4.01-16.07,3.25-32.1,6-48.57,5.01-2.31-.14-4.63-.46-6.9-.91-.9-.18-1.68-.96-3.65-2.15,2.49-3.58,4.42-7.42,7.31-10.32,12.42-12.49,24.79-25.05,37.79-36.92,20.15-18.4,36.5-39.74,49.98-63.28,12.67-22.12,27.71-42.32,45.69-60.38,3.7-3.71,6.96-7.86,10.91-12.36,2.53,1.95,4.66,3.39,6.54,5.11,3.08,2.81,6.4,3.43,10.08,1.51,3.75-1.94,5.12-5,4.14-9.16-.38-1.62-.28-3.36-.77-4.93-6.15-19.66-11.52-39.61-18.77-58.86-8.92-23.67-19.59-46.67-29.13-70.1-2.99-7.35-4.78-15.19-7.13-22.81-1.96-6.37-3.37-12.97-6-19.05-7.67-17.73-15.29-35.52-23.98-52.77-5.8-11.52-13.4-22.13-20.84-34.2,8.97-.93,17.67-1.8,26.36-2.73,20.84-2.24,41.65-4.75,62.51-6.6,6.16-.55,12.71-.12,18.65,1.46,3.25,.86,5.92,4.82,8.32,7.81,3.25,4.05,5.98,8.51,9.34,13.38,8.86-7.57-.25-15.28,2.79-22.72,11.37,0,22.56-4.56,34.8-1.76,6.89,1.57,14.55-.03,21.84-.54,8.62-.61,9.88,.59,12.1,9.16,5.34,20.61,2.96,41.04-1.17,61.35-2.09,10.28-7.59,19.63-15.39,26.3-12.61,10.78-26.45,20.13-39.77,30.09-4.46,3.34-8.13,2.26-10.87-2.22-4.68-7.64-9.21-15.38-13.73-23.11-.66-1.13-.87-2.52-1.36-3.75-2.72-6.79-7.78-10.21-12.62-8.55-5.37,1.84-8.49,8.67-5.72,14.97,3.31,7.55,7.55,14.71,11.64,21.89,2.28,3.99,5.09,7.67,8.84,13.25Z" style="fill:#9cdcb2;"/><path d="M1276.01,611.84c0,7.88-3.95,12.82-7.58,17.93-10.94,15.42-21.63,31.03-32.82,46.27-11.79,16.05-20.47,34.29-34.34,48.83-4.57,4.79-9.83,8.9-14.61,13.49-17.48,16.76-34.89,33.59-53.47,51.49-3.85-6.12-7.4-11.16-10.34-16.52-7.83-14.29-15.51-28.67-23.04-43.12-3.52-6.77-6.64-13.75-9.78-20.71-7.39-16.37-15.44-32.5-21.75-49.28-5-13.3-7.84-27.41-11.59-41.17-1.1-4.04,.62-6.76,4.66-7.11,4.26-.36,8.6,.04,12.9,.21,7.25,.29,14.58,1.52,21.73,.87,43.86-3.97,87.79-1.74,131.69-1.97,12.29-.07,24.58-.95,36.88-1.07,3.77-.04,7.56,1.2,11.48,1.89Z" style="fill:#9cdcb2;"/><path d="M939.99,375.33c-14.93,0-29.86-.08-44.8,.05-5.39,.05-10.18,1.69-14.9,4.8-7.61,5.02-16.59,3.07-20.96-4.18-1.51-2.51-2.07-6.28-1.52-9.17,.71-3.74,4.4-4.47,7.97-4.53,5.32-.1,10.64-.33,15.96-.55,30.59-1.28,61.19-2.58,91.78-3.87,1.66-.07,3.34-.17,4.99-.08,10.5,.57,12.2,3.2,11.24,13.62-1.55,16.79-8.76,31.95-12.73,47.97-4.94,19.92-19.24,32.26-32.61,45.54-3.92,3.89-9.11,6.77-14.15,9.22-11.06,5.36-22.07,11.24-33.73,14.83-10.68,3.29-22.19,5.19-33.35,5.26-14.24,.09-28.6-1.61-42.72-3.75-15.37-2.33-28.66-10.48-41.73-18.31-11.1-6.65-21.83-14.12-31.9-22.25-17.2-13.9-31.79-29.66-39.39-51.51-6.38-18.34-12.39-36.66-14.12-55.94-1.63-18.14-2.73-36.45,4.15-54.17,6.14-15.8,10.35-32.47,17.64-47.69,14.69-30.66,33.28-58.68,64.74-74.89,9.96-5.13,21.04-8.02,31.41-12.41,14.77-6.25,30.35-6.55,45.97-7.34,15.64-.79,30.35,3.8,44.99,7.78,13.36,3.63,26.67,8.01,38.85,15.27,6.59,3.94,12.13,8.43,14.59,15.64,.93,2.74,.92,7.45-.75,8.97-1.73,1.58-6.23,1.13-9.08,.2-3.03-.98-5.81-3.26-8.22-5.49-15.3-14.1-34.11-20.27-54.01-23.41-11.46-1.8-23.14-2.17-34.73-3.07-2.31-.18-4.71-.14-6.97,.28-24.38,4.58-48.22,11.42-68.08,26.62-18.42,14.1-32.97,32.13-41.39,54.12-6.76,17.66-12.73,35.65-18.54,53.65-4.03,12.49-4.02,25.41-3.26,38.52,1.14,19.62,7.53,37.46,14.2,55.74,9.94,27.21,30.98,43.15,52.87,58.92,1.61,1.16,3.75,1.63,5.23,2.9,15.15,13.06,33.78,18.26,52.42,23.47,.96,.27,1.92,.82,2.87,.82,14.16-.04,28.48,2.1,42.41-1.72,12.16-3.34,24.51-6.51,36.05-11.45,16.88-7.22,30.26-19.25,38.92-35.61,2.7-5.11,3.98-11.37,4.35-17.2,.49-7.54,2.33-14.38,5.9-20.92,.95-1.74,1.7-3.65,2.18-5.57,1.49-5.94,.08-8.14-6.08-8.41-7.31-.33-14.64-.08-21.96-.08v-.65Z" style="fill:#1e5166;"/></g><g><path d="M2480,1026.62c-.1,0-.19-.01-.29-.02,.18-1.99,.72-4.02,.47-5.96-1.87-14.91-4.01-29.6-18.1-39.04-8.66-5.81-16.82-12.37-25.13-18.7-15.02-11.44-31.02-21.5-44.37-35.24-9.69-9.97-21.16-18.21-31.98-27.05-3.07-2.51-6.5-4.7-10.03-6.51-6.22-3.2-11.7-7.33-17.36-11.39-9.65-6.93-20.11-13.21-31.08-17.7-12.21-5.01-23.08-11.41-32.83-20.16-5.54-4.97-11.37-9.71-17.51-13.89-9.88-6.73-20.48-12.42-30.14-19.43-19.34-14.06-38.34-28.6-57.28-43.21-7.1-5.47-14.3-11.06-20.3-17.65-13.32-14.62-31.13-21.19-48.51-28.6-8.72-3.72-17.53-3.17-25.91,1.73-3.87,2.26-8.05,4.03-11.85,6.4-20.75,12.91-42.2,24.55-63.46,36.56-23.56,13.31-48.73,22.86-72.55,35.45-21.98,11.62-45.26,20.92-68.4,30.17-19.94,7.97-39.75,16.13-58.87,25.9-14.2,7.26-28.66,14.06-42.44,22.04-18.12,10.49-35.58,21.56-56.56,26.53-15.09,3.58-28.5,12.25-38.11,25.17-10.2,13.71-19.34,27.81-18.42,46.21,.35,6.89-1.4,13.89-2.12,20.84-.77,7.45-1.74,14.89-2.13,22.36-.57,10.96-.9,21.95-.99,32.93-.11,13.45,.11,26.9,.21,40.36,.05,6.46,.65,12.96,.16,19.38-1.02,13.41-2.59,26.79-3.98,40.17-.36,3.48-.91,6.93-1.32,10.4-2.99,25.27-6.25,50.52-8.87,75.83-2.21,21.33-3.62,42.75-5.5,64.12-.26,2.95-.58,6.15-1.89,8.71-3.65,7.09-3.86,14.19-1.9,21.72,.87,3.36,1.01,6.91,1.42,10.38,1.21,10.32,5.79,19.32,12.9,26.42,10.2,10.2,20.86,20.09,32.28,28.87,12.6,9.68,24.72,20.14,39.33,27.11,5.72,2.73,10.32,7.76,15.5,11.65,4.77,3.59,9.23,7.96,14.55,10.35,7.9,3.54,14.7,8.38,21.26,13.78,11.24,9.24,23,18.04,36.58,23.14,19.13,7.2,34.2,20.49,50.45,31.86,10.62,7.43,20.97,15.24,32.22,21.71,8.28,4.76,15.68,10.53,22.78,16.91,18.15,16.31,36.02,32.93,55.12,48.18,18.7,14.94,36.73,30.72,55.26,45.87,10.43,8.53,21,16.92,33.52,22.4,2.72,1.19,5.31,2.84,7.65,4.68,9.54,7.51,20.33,12.86,31.58,16.93,12.69,4.59,25.05,9.71,36.93,16.06,11.84,6.33,23.85,12.38,35.54,18.97,4.29,2.42,7.95,5.99,11.8,9.17,3.07,2.54,5.96,5.3,8.98,7.9,7.93,6.82,16.52,13.11,18.95,24.25,.2,.92,.95,1.75,1.54,2.55,4.87,6.7,14.83,6.15,18.51-1.35,1.94-3.96,3.03-8.42,3.99-12.76,.85-3.88,.71-7.96,1.48-11.87,5.34-27.11,5.88-54.43,4.1-81.91-.41-6.4,.52-12.89,.99-19.33,.22-2.97,1.08-5.91,1.23-8.88,.94-17.93,2.03-35.85,2.53-53.79,.41-14.59,6.86-24.8,20.3-30.28,7.84-3.2,16.08-5.42,23.92-8.63,16.61-6.8,33.67-12.84,49.37-21.35,10.5-5.69,20.99-11.32,31.8-16.39,4.97-2.33,9.76-5.04,14.72-7.39,5.84-2.78,11.79-5.31,17.65-8.04,9.47-4.42,19.1-8.55,28.3-13.5,7.42-3.99,14.3-8.99,21.42-13.54,4.24-2.71,8.45-5.56,10.38-10.45,4.36-11.01,11.64-21.15,9.97-34-.31-2.38,.73-4.91,.97-7.39,1.39-14.35,3.77-28.71,3.8-43.07,.04-17.65,2.76-34.7,7.13-51.63,3.35-12.98,8.8-25.79,9.73-38.93,1.12-15.89,5.09-31.4,4.79-47.48-.25-13.43,1.64-26.88,2.37-40.34,.56-10.39,.53-20.72,2.12-31.17,1.63-10.67-.32-21.88-.66-32.86-.05-1.49,.27-2.99,.23-4.49-.14-5.95,.05-11.95-.62-17.85-1.58-13.94-2.22-27.79-.46-41.8,1.55-12.3,2.12-24.72,3.13-37.09Z" style="fill:#fff;"/><path d="M2480,1026.62c-1.01,12.37-1.58,24.79-3.13,37.09-1.76,14.01-1.12,27.86,.46,41.8,.67,5.9,.48,11.89,.62,17.85,.04,1.49-.28,3-.23,4.49,.34,10.98,2.29,22.19,.66,32.86-1.59,10.45-1.56,20.77-2.12,31.17-.73,13.46-2.62,26.91-2.37,40.34,.29,16.08-3.67,31.59-4.79,47.48-.93,13.14-6.38,25.95-9.73,38.93-4.37,16.93-7.08,33.97-7.13,51.63-.04,14.36-2.42,28.72-3.8,43.07-.24,2.48-1.28,5.01-.97,7.39,1.68,12.85-5.61,22.99-9.97,34-1.94,4.89-6.14,7.74-10.38,10.45-7.12,4.55-14,9.56-21.42,13.54-9.2,4.94-18.83,9.08-28.3,13.5-5.86,2.73-11.81,5.26-17.65,8.04-4.96,2.36-9.75,5.06-14.72,7.39-10.81,5.08-21.3,10.7-31.8,16.39-15.7,8.51-32.77,14.55-49.37,21.35-7.84,3.21-16.08,5.43-23.92,8.63-13.43,5.48-19.89,15.69-20.3,30.28-.5,17.94-1.59,35.86-2.53,53.79-.16,2.97-1.01,5.9-1.23,8.88-.48,6.44-1.41,12.93-.99,19.33,1.78,27.48,1.24,54.79-4.1,81.91-.77,3.9-.63,7.99-1.48,11.87-.95,4.35-2.04,8.8-3.99,12.76-3.68,7.5-13.64,8.05-18.51,1.35-.58-.8-1.34-1.63-1.54-2.55-2.43-11.14-11.02-17.43-18.95-24.25-3.02-2.6-5.91-5.36-8.98-7.9-3.84-3.17-7.5-6.75-11.8-9.17-11.69-6.6-23.7-12.64-35.54-18.97-11.88-6.35-24.25-11.47-36.93-16.06-11.24-4.07-22.04-9.42-31.58-16.93-2.34-1.84-4.93-3.49-7.65-4.68-12.52-5.48-23.1-13.87-33.52-22.4-18.53-15.15-36.56-30.93-55.26-45.87-19.1-15.26-36.97-31.87-55.12-48.18-7.1-6.38-14.51-12.15-22.78-16.91-11.25-6.47-21.6-14.28-32.22-21.71-16.24-11.36-31.32-24.66-50.45-31.86-13.58-5.11-25.34-13.9-36.58-23.14-6.56-5.39-13.36-10.24-21.26-13.78-5.33-2.39-9.78-6.76-14.55-10.35-5.18-3.89-9.78-8.92-15.5-11.65-14.62-6.97-26.74-17.43-39.33-27.11-11.42-8.78-22.08-18.67-32.28-28.87-7.1-7.1-11.68-16.1-12.9-26.42-.41-3.47-.55-7.03-1.42-10.38-1.96-7.53-1.75-14.64,1.9-21.72,1.32-2.56,1.63-5.76,1.89-8.71,1.88-21.37,3.3-42.78,5.5-64.12,2.62-25.31,5.88-50.55,8.87-75.83,.41-3.47,.96-6.93,1.32-10.4,1.39-13.39,2.95-26.76,3.98-40.17,.49-6.42-.11-12.92-.16-19.38-.11-13.45-.33-26.91-.21-40.36,.09-10.98,.42-21.96,.99-32.93,.39-7.47,1.35-14.91,2.13-22.36,.72-6.95,2.47-13.95,2.12-20.84-.93-18.4,8.22-32.5,18.42-46.21,9.61-12.92,23.02-21.6,38.11-25.17,20.98-4.97,38.44-16.04,56.56-26.53,13.78-7.98,28.24-14.78,42.44-22.04,19.12-9.77,38.93-17.93,58.87-25.9,23.14-9.25,46.42-18.55,68.4-30.17,23.82-12.59,48.99-22.14,72.55-35.45,21.26-12.01,42.71-23.65,63.46-36.56,3.8-2.37,7.97-4.13,11.85-6.4,8.38-4.9,17.19-5.44,25.91-1.73,17.37,7.41,35.18,13.98,48.51,28.6,6,6.59,13.21,12.18,20.3,17.65,18.94,14.6,37.94,29.14,57.28,43.21,9.65,7.02,20.26,12.7,30.14,19.43,6.14,4.19,11.97,8.92,17.51,13.89,9.75,8.75,20.62,15.16,32.83,20.16,10.96,4.5,21.43,10.77,31.08,17.7,5.66,4.07,11.14,8.19,17.36,11.39,3.53,1.82,6.96,4,10.03,6.51,10.82,8.84,22.3,17.08,31.98,27.05,13.35,13.74,29.35,23.79,44.37,35.24,8.31,6.33,16.47,12.89,25.13,18.7,14.09,9.45,16.23,24.13,18.1,39.04,.24,1.94-.3,3.97-.47,5.96,.1,0,.19,.01,.29,.02Zm-291.04,716.51c3.31-8.04,5.79-15.2,5.86-22.48,.21-21.43-.41-42.87-.72-64.31-.04-2.45-.65-5-.17-7.34,4.62-22.58,6-45.51,5.68-68.41-.18-13.01,4.11-23.48,12.31-32.53,6.32-6.98,13.4-13.48,23.15-15.78,7.74-1.83,15.73-3.08,23.1-5.91,14.39-5.52,28.79-11.26,42.52-18.23,14.2-7.21,27.96-15.31,42.76-21.28,20.39-8.22,40.47-16.96,58.64-29.64,11.05-7.7,19.81-16.67,21.8-30.73,.41-2.92,1.71-5.72,2.7-8.54,2.01-5.74,2.84-11.52,1.98-17.66-1.12-7.94-.46-15.75,1.91-23.56,1.58-5.18,1.91-10.76,2.61-16.19,.77-5.93,1.5-11.87,1.97-17.82,1.41-18.03,7.56-35.04,11.1-52.62,4.72-23.48,8.43-47.05,9.19-71.02,.64-20.44,1.14-40.88,1.8-61.32,.27-8.47,1.29-16.95,1.08-25.4-.38-15.97-1.53-31.91-2.12-47.87-.67-18.34-.87-36.61,3.61-54.71,2.53-10.21-.95-20.18-7.07-28.09-4.41-5.7-11.39-9.47-17.43-13.81-4.4-3.17-9.33-5.62-13.7-8.83-8.43-6.18-16.64-12.65-24.91-19.05-5.89-4.56-12.17-8.63-15.98-15.49-1.37-2.47-4.14-4.25-6.46-6.1-5.44-4.33-10.94-8.6-16.54-12.74-6.79-5.02-13.59-10.02-20.57-14.77-7.8-5.31-16.24-9.77-23.59-15.63-7.93-6.33-16.62-10.83-25.83-14.79-6.36-2.74-12.43-6.24-18.44-9.72-15.94-9.23-27.82-24.41-45.5-31.13-.89-.34-1.58-1.21-2.37-1.82-17.37-13.37-34.84-26.61-52.07-40.16-12.53-9.86-25.45-19.39-36.89-30.42-10.03-9.67-21.55-15.53-34.11-20.82-12.11-5.1-21.88-2.56-32.37,3.86-18.69,11.43-37.75,22.29-56.91,32.92-11.33,6.29-23.16,11.67-34.77,17.46-4.02,2-7.86,4.62-12.1,5.88-11.11,3.31-21.12,8.89-31.33,14.1-2.66,1.36-5.37,2.65-8.13,3.81-34.93,14.78-69.87,29.51-104.79,44.31-2.28,.97-4.43,2.27-6.61,3.47-14.86,8.17-29.76,16.28-44.55,24.58-6.06,3.4-12.19,6.82-17.75,10.96-8.95,6.67-18.67,11.38-29.34,14.5-7.65,2.24-15.2,4.89-22.68,7.66-22.47,8.34-33.83,25.32-36.86,48.43-1.37,10.39-2.12,20.86-3.3,31.28-2.26,19.85-3.14,39.73-2.99,59.72,.17,22.91,.29,45.87-2.87,68.66-2.46,17.77-5.33,35.51-7.21,53.34-1.99,18.86-2.91,37.82-4.49,56.72-2.2,26.36-4.48,52.72-6.92,79.07-1.29,13.9,2.69,25.74,13.19,34.99,11.98,10.54,23.69,21.5,36.49,30.96,16.02,11.85,33.11,22.26,49.59,33.5,11.54,7.87,22.7,16.29,34.26,24.13,9.89,6.71,19.57,14.11,30.33,19.08,13.27,6.14,24.9,14.62,36.97,22.46,9.59,6.23,17.86,14.6,27.71,20.32,17.37,10.1,32.7,22.8,48.39,35.08,5.49,4.3,11.01,8.56,16.36,13.04,11.85,9.92,23.47,20.12,35.41,29.93,10.01,8.22,20.57,15.79,30.47,24.13,11.05,9.31,21.32,19.56,32.52,28.67,9.66,7.86,19.83,15.38,31.54,19.94,14.88,5.79,29.06,12.98,43.55,19.56,20.08,9.13,39.18,19.75,57.58,31.82,9.69,6.35,18.55,13.45,25.61,22.74,1.4,1.84,3.6,3.06,6.68,5.59Z" style="fill:#1e5166;"/><path d="M2188.96,1743.13c-3.07-2.53-5.28-3.75-6.68-5.59-7.05-9.29-15.92-16.39-25.61-22.74-18.4-12.07-37.5-22.69-57.58-31.82-14.49-6.59-28.67-13.77-43.55-19.56-11.7-4.55-21.88-12.08-31.54-19.94-11.2-9.11-21.47-19.36-32.52-28.67-9.9-8.34-20.46-15.91-30.47-24.13-11.94-9.81-23.56-20-35.41-29.93-5.34-4.48-10.87-8.74-16.36-13.04-15.7-12.28-31.02-24.98-48.39-35.08-9.84-5.72-18.11-14.09-27.71-20.32-12.07-7.84-23.7-16.32-36.97-22.46-10.75-4.97-20.43-12.37-30.33-19.08-11.56-7.84-22.72-16.26-34.26-24.13-16.48-11.25-33.57-21.65-49.59-33.5-12.8-9.47-24.51-20.42-36.49-30.96-10.51-9.25-14.48-21.08-13.19-34.99,2.44-26.34,4.72-52.7,6.92-79.07,1.58-18.9,2.5-37.87,4.49-56.72,1.88-17.84,4.75-35.57,7.21-53.34,3.15-22.79,3.04-45.75,2.87-68.66-.15-19.99,.73-39.88,2.99-59.72,1.19-10.42,1.94-20.89,3.3-31.28,3.04-23.11,14.4-40.09,36.86-48.43,7.48-2.78,15.03-5.42,22.68-7.66,10.67-3.13,20.4-7.84,29.34-14.5,5.56-4.14,11.69-7.56,17.75-10.96,14.79-8.3,29.69-16.41,44.55-24.58,2.18-1.2,4.32-2.5,6.61-3.47,34.92-14.79,69.86-29.53,104.79-44.31,2.75-1.17,5.46-2.45,8.13-3.81,10.21-5.21,20.22-10.8,31.33-14.1,4.24-1.26,8.08-3.88,12.1-5.88,11.61-5.79,23.44-11.18,34.77-17.46,19.16-10.63,38.22-21.49,56.91-32.92,10.49-6.41,20.26-8.96,32.37-3.86,12.56,5.29,24.08,11.15,34.11,20.82,11.44,11.03,24.36,20.57,36.89,30.42,17.23,13.55,34.7,26.78,52.07,40.16,.79,.61,1.48,1.48,2.37,1.82,17.68,6.72,29.57,21.9,45.5,31.13,6.01,3.48,12.07,6.98,18.44,9.72,9.21,3.96,17.89,8.46,25.83,14.79,7.34,5.86,15.79,10.32,23.59,15.63,6.97,4.75,13.78,9.75,20.57,14.77,5.59,4.14,11.09,8.41,16.54,12.74,2.32,1.85,5.09,3.63,6.46,6.1,3.81,6.86,10.09,10.93,15.98,15.49,8.27,6.4,16.49,12.87,24.91,19.05,4.37,3.21,9.29,5.66,13.7,8.83,6.04,4.34,13.02,8.11,17.43,13.81,6.12,7.91,9.6,17.87,7.07,28.09-4.48,18.1-4.29,36.37-3.61,54.71,.59,15.96,1.73,31.91,2.12,47.87,.2,8.45-.81,16.93-1.08,25.4-.66,20.44-1.16,40.88-1.8,61.32-.75,23.97-4.47,47.54-9.19,71.02-3.53,17.58-9.69,34.59-11.1,52.62-.46,5.96-1.2,11.9-1.97,17.82-.71,5.43-1.04,11.01-2.61,16.19-2.38,7.81-3.03,15.62-1.91,23.56,.86,6.14,.03,11.91-1.98,17.66-.99,2.82-2.29,5.62-2.7,8.54-1.98,14.06-10.75,23.02-21.8,30.73-18.17,12.67-38.25,21.41-58.64,29.64-14.8,5.97-28.56,14.07-42.76,21.28-13.73,6.97-28.12,12.71-42.52,18.23-7.37,2.83-15.36,4.08-23.1,5.91-9.75,2.3-16.83,8.8-23.15,15.78-8.2,9.06-12.49,19.52-12.31,32.53,.32,22.9-1.07,45.83-5.68,68.41-.48,2.34,.13,4.89,.17,7.34,.31,21.44,.93,42.88,.72,64.31-.07,7.28-2.55,14.44-5.86,22.48Zm-63.84-529.04c-.47,3.87-.68,5.84-.95,7.8-1.54,11.41,2.4,20.44,11.41,27.6,4.68,3.72,8.77,8.16,13.25,12.14,14.01,12.44,30.24,17.89,48.35,12,25.36-8.24,48.59-20.65,67.72-39.76,1.71-1.71,3.61-3.48,4.63-5.6,6.84-14.26,9.43-29.27,7.08-44.98-.9-6.03-2.77-11.96-7.86-15.71-11.49-8.45-23.78-14.65-38.85-11.72-3.34,.65-7.02,.93-10.3,.24-5.06-1.06-9.79-.28-14.78,.28-9.39,1.06-18.89,1.18-28.35,1.55-1.4,.05-3.08-.35-4.22-1.13-6.15-4.22-12.72-8.03-18.13-13.08-14.91-13.94-29.5-28.25-43.87-42.75-15.82-15.98-32.11-31.43-49.8-45.32-7.72-6.07-13.51-12.95-15.53-22.96-1.17-5.81-3.65-11.42-6.05-16.9-7.81-17.83-20.18-30.43-39.67-35.65-22.63-6.06-45.3-6.84-68.18-2.36-3.32,.65-6.57,2.4-9.47,4.24-4.2,2.66-8.42,5.51-11.99,8.94-5.35,5.15-13.37,7.25-16.98,14.15-3.7,7.06-6.66,14.51-9.93,21.8-3.6,8.01-3.85,16.38-2.95,24.96,2.11,20.24,12.79,36.49,24.31,52.28,1.94,2.66,5.26,4.57,8.3,6.12,23.97,12.23,48.08,10.99,72.2,.32,7.67-6.9,14.51-4.4,20.97,1.89,7.86,7.65,15.68,15.33,23.51,23.01,5.29,5.19,10.22,10.58,16.25,15.19,15.8,12.11,32.85,22.73,46.62,37.4,2.02,2.15,4.74,3.64,7.1,5.49,8.61,6.74,17.21,13.51,26.15,20.53Zm-100.83,136.97c18.78,.68,31.9-1.92,48.24-8.68,6.9-2.85,13.92-5.65,21.13-7.49,10.82-2.76,18.45-9.49,25.14-17.81,4.17-5.18,5.17-10.65,1.62-16.62-1.53-2.57-2.42-5.72-4.45-7.76-8.56-8.57-11.65-19.56-14.4-30.77-.47-1.94-.67-4-1.47-5.79-2.23-5.02-6.72-7.36-11.73-8.27-4.83-.88-8.52,1.19-11.22,5.57-9.18,14.94-23.63,22.72-39.83,26.95-7.77,2.03-15.21,4.58-22.69,7.36-9.33,3.47-18.88,6.32-28.37,9.35-5.25,1.68-9.72,.54-13.49-3.73-8.09-9.17-18.41-13.35-30.59-13.22-1.99,.02-4.01-.16-5.97-.5-19.91-3.38-38.6,1.62-56.97,8.46-2.69,1-5.13,3.06-7.27,5.06-15.89,14.85-24.56,31.66-19.16,54.66,5.23,22.29,16.96,38.95,36.07,50.79,5.93,3.67,12.23,6.73,18.28,10.2,14.37,8.26,29.82,7.33,45.19,4.77,6.47-1.08,11.63-5.73,15.78-10.86,4.07-5.04,7.77-10.39,11.56-15.65,4.95-6.88,10.12-13.62,14.69-20.75,7.48-11.67,17.52-17.45,29.88-15.29Z" style="fill:#9cdcb2;"/><path d="M2125.12,1214.1c-8.94-7.02-17.54-13.79-26.15-20.53-2.36-1.85-5.08-3.33-7.1-5.49-13.77-14.67-30.82-25.29-46.62-37.4-6.02-4.62-10.96-10.01-16.25-15.19-7.83-7.68-15.65-15.36-23.51-23.01-6.46-6.29-13.3-8.79-20.97-1.89-24.11,10.67-48.22,11.91-72.2-.32-3.04-1.55-6.36-3.47-8.3-6.12-11.52-15.79-22.21-32.04-24.31-52.28-.89-8.58-.65-16.95,2.95-24.96,3.28-7.28,6.24-14.73,9.93-21.8,3.61-6.9,11.62-9,16.98-14.15,3.57-3.43,7.78-6.27,11.99-8.94,2.9-1.84,6.15-3.59,9.47-4.24,22.88-4.48,45.54-3.69,68.18,2.36,19.5,5.22,31.86,17.82,39.67,35.65,2.4,5.48,4.88,11.09,6.05,16.9,2.02,10.02,7.81,16.9,15.53,22.96,17.68,13.9,33.97,29.34,49.8,45.32,14.37,14.51,28.96,28.81,43.87,42.75,5.4,5.05,11.98,8.86,18.13,13.08,1.14,.78,2.82,1.19,4.22,1.13,9.46-.37,18.96-.49,28.35-1.55,4.99-.56,9.72-1.34,14.78-.28,3.28,.69,6.96,.41,10.3-.24,15.07-2.93,27.36,3.26,38.85,11.72,5.1,3.75,6.96,9.67,7.86,15.71,2.35,15.71-.23,30.72-7.08,44.98-1.02,2.12-2.92,3.89-4.63,5.6-19.13,19.11-42.36,31.52-67.72,39.76-18.11,5.89-34.34,.44-48.35-12-4.48-3.98-8.57-8.42-13.25-12.14-9.02-7.16-12.95-16.19-11.41-27.6,.26-1.96,.48-3.93,.95-7.8Zm-162.77-218.1l-.09,.86c-2.49,.14-4.99,.52-7.47,.38-16.81-.93-29.79,6.46-40.48,18.66-3.59,4.1-7.96,8.09-9.88,12.95-7.78,19.68-1.47,41.87,12.88,56.54,8.58,8.77,19.69,11.76,31.42,11.52,12.98-.26,25.82-1.34,35.37-12.59,5.12-6.03,10.73-5.8,17.3-1.33,.41,.28,.78,.63,1.17,.93,11.08,8.47,21.7,17.38,31.54,27.37,15.37,15.61,31.64,30.25,50.49,41.79,4.59,2.82,8.31,7.1,12.29,10.86,2.89,2.73,5.08,6.51,8.39,8.44,14.46,8.47,25.44,22.2,42.53,26.87,8.05,2.2,9.47,11.23,4.16,18.31-.59,.79-1.51,1.33-2.11,2.11-4.25,5.54-4.1,7.29-.65,13.38,4.11,7.27,10.89,11.61,17.3,16.27,8.64,6.28,18.08,7.87,28.17,3.32,3.63-1.64,7.46-2.84,11.09-4.46,15.09-6.73,29.49-14.32,41.17-26.6,8.28-8.7,9.67-19.3,10.88-30.18,.2-1.78-.52-4.34-1.77-5.49-5.88-5.43-12.11-11.02-20.86-9.92-17.72,2.23-35.76,.97-53.3,5.07-2.38,.56-4.97,.23-7.46,.3-6.84,.17-13.14-2-17.73-6.79-13.77-14.37-30.45-25.52-43.81-40.32-5-5.53-10.76-10.38-16.11-15.6-6.38-6.24-13.69-11.84-18.74-19.03-5.01-7.13-10.99-13.03-17.59-18.15-8.63-6.69-17.99-12.51-27.42-18.05-10.31-6.06-12.16-8.95-8.78-20.29,1.52-5.1,1.49-9.79-.37-14.58-5.81-14.9-15.8-25.42-31.92-28.55-9.75-1.89-19.71-2.72-29.58-4.02Z" style="fill:#1e5166;"/><path d="M2024.29,1351.06c-12.36-2.16-22.4,3.62-29.88,15.29-4.57,7.13-9.73,13.88-14.69,20.75-3.79,5.26-7.49,10.61-11.56,15.65-4.15,5.14-9.31,9.79-15.78,10.86-15.37,2.56-30.83,3.48-45.19-4.77-6.05-3.48-12.36-6.53-18.28-10.2-19.11-11.84-30.84-28.5-36.07-50.79-5.4-23,3.27-39.82,19.16-54.66,2.15-2,4.58-4.06,7.27-5.06,18.36-6.84,37.05-11.84,56.97-8.46,1.96,.33,3.98,.52,5.97,.5,12.17-.13,22.49,4.06,30.59,13.22,3.77,4.27,8.24,5.4,13.49,3.73,9.49-3.03,19.04-5.88,28.37-9.35,7.48-2.78,14.91-5.33,22.69-7.36,16.21-4.23,30.65-12.01,39.83-26.95,2.69-4.38,6.39-6.45,11.22-5.57,5.02,.91,9.5,3.25,11.73,8.27,.8,1.79,.99,3.86,1.47,5.79,2.74,11.21,5.84,22.2,14.4,30.77,2.03,2.04,2.92,5.19,4.45,7.76,3.55,5.96,2.55,11.44-1.62,16.62-6.69,8.31-14.33,15.05-25.14,17.81-7.21,1.84-14.23,4.64-21.13,7.49-16.34,6.75-29.46,9.36-48.24,8.68Zm59.77-68.93c-3.21,.92-5.44,1.01-6.96,2.09-13.17,9.33-27.2,16.58-43.3,19.36-2.39,.41-4.58,1.93-6.92,2.78-6.08,2.23-12.16,4.46-18.3,6.53-9.43,3.18-18.94,6.14-28.35,9.37-10.03,3.44-15.4,1.39-20.8-8.31-.48-.87-.76-1.84-1.19-2.74-3.33-7.02-8.81-10.54-16.66-10.38-2.48,.05-5.02-.09-7.45-.56-14.99-2.9-28.57,2.14-41.91,7.73-12.99,5.45-18.02,16.2-18.52,29.78-.44,11.7,3.71,21.48,11.5,29.86,3.71,3.99,7.42,8.15,11.79,11.33,10.9,7.94,22.21,15.23,36.07,17.14,8.55,1.17,15.49-.96,21.5-7.54,7.53-8.25,13.14-17.53,17.32-27.77,2.28-5.58,4.66-11.18,9.58-14.95,12.06-9.25,24.64-16.61,41-14.87,7.27,.77,15.01-.09,22.17-1.76,11.62-2.7,23.13-6.17,34.32-10.29,6.34-2.33,13.2-4.63,18.46-11.27-3-8.67-7.74-16.67-13.36-25.52Z" style="fill:#1e5166;"/><path d="M1962.35,996c9.87,1.31,19.83,2.13,29.58,4.02,16.12,3.13,26.11,13.65,31.92,28.55,1.87,4.78,1.9,9.47,.37,14.58-3.39,11.34-1.54,14.23,8.78,20.29,9.43,5.54,18.8,11.36,27.42,18.05,6.6,5.12,12.59,11.02,17.59,18.15,5.04,7.19,12.36,12.79,18.74,19.03,5.35,5.23,11.11,10.07,16.11,15.6,13.37,14.8,30.05,25.95,43.81,40.32,4.59,4.79,10.88,6.96,17.73,6.79,2.49-.06,5.08,.26,7.46-.3,17.54-4.1,35.58-2.84,53.3-5.07,8.75-1.1,14.98,4.49,20.86,9.92,1.25,1.16,1.97,3.71,1.77,5.49-1.21,10.88-2.61,21.48-10.88,30.18-11.68,12.27-26.08,19.87-41.17,26.6-3.64,1.62-7.46,2.82-11.09,4.46-10.09,4.55-19.53,2.96-28.17-3.32-6.41-4.66-13.19-8.99-17.3-16.27-3.45-6.1-3.6-7.85,.65-13.38,.6-.78,1.52-1.33,2.11-2.11,5.31-7.08,3.89-16.11-4.16-18.31-17.08-4.67-28.07-18.4-42.53-26.87-3.31-1.94-5.5-5.71-8.39-8.44-3.98-3.76-7.7-8.05-12.29-10.86-18.84-11.55-35.12-26.18-50.49-41.79-9.83-9.99-20.45-18.9-31.54-27.37-.4-.3-.76-.65-1.17-.93-6.57-4.47-12.18-4.7-17.3,1.33-9.55,11.25-22.39,12.33-35.37,12.59-11.73,.23-22.83-2.75-31.42-11.52-14.35-14.67-20.66-36.86-12.88-56.54,1.92-4.87,6.3-8.86,9.88-12.95,10.69-12.2,23.66-19.59,40.48-18.66,2.48,.14,4.98-.24,7.47-.38l.09-.86Z" style="fill:#fff;"/><path d="M2084.07,1282.14c5.62,8.85,10.35,16.85,13.36,25.52-5.26,6.64-12.12,8.93-18.46,11.27-11.19,4.12-22.7,7.59-34.32,10.29-7.17,1.66-14.9,2.53-22.17,1.76-16.36-1.73-28.94,5.62-41,14.87-4.92,3.77-7.3,9.37-9.58,14.95-4.18,10.24-9.79,19.52-17.32,27.77-6,6.58-12.95,8.71-21.5,7.54-13.87-1.91-25.17-9.2-36.07-17.14-4.37-3.18-8.08-7.33-11.79-11.33-7.79-8.38-11.94-18.16-11.5-29.86,.51-13.58,5.54-24.33,18.52-29.78,13.33-5.6,26.91-10.64,41.91-7.73,2.43,.47,4.97,.61,7.45,.56,7.86-.16,13.33,3.36,16.66,10.38,.43,.9,.71,1.87,1.19,2.74,5.4,9.7,10.77,11.75,20.8,8.31,9.41-3.23,18.92-6.18,28.35-9.37,6.13-2.07,12.22-4.3,18.3-6.53,2.34-.86,4.52-2.37,6.92-2.78,16.1-2.78,30.13-10.03,43.3-19.36,1.52-1.08,3.75-1.16,6.96-2.09Z" style="fill:#fff;"/></g></svg>