<?xml version="1.0" encoding="UTF-8"?><svg id="Layer_1" xmlns="http://www.w3.org/2000/svg" width="3023.26" height="1367.5" viewBox="0 0 3023.26 1367.5"><path d="M2232.76,1226.34c-2.92,.59-5.83,1.21-8.74,1.77-9.59,1.86-16.09-3.42-16.3-13.31-.07-3.33,.4-6.7,.02-9.98-.62-5.48-3.1-7.82-8.37-8.02-41.54-1.56-83.09-3.02-124.63-4.57-13.96-.52-27.92-1.82-41.86-1.68-19.64,.19-39.27,1.78-58.91,2.07-32.95,.5-65.89,2.8-98.89,.24-16.25-1.26-32.63-.72-48.95-1.1-28.97-.68-57.94-1.85-86.92-1.97-11.91-.05-23.81,2.52-35.76,3.1-14.61,.71-29.27,.92-43.9,.75-31.95-.37-63.9-1.66-95.84,.65-16.27,1.17-32.52,2.5-48.8,3.57-5.68,.37-9.87,2.68-13.77,6.91-9.47,10.27-20.37,19.34-28.98,30.25-11.92,15.1-22.33,31.42-33.29,47.27-10.2,14.75-20.08,29.73-30.5,44.33-4.56,6.4-7.8,12.09-2.6,19.87,2.83,4.24-.52,16.36-4.25,19.37-4.12,3.32-13.06,1.38-16.95-3.65-5.08-6.56-9.57-13.71-15.42-19.5-10.34-10.24-21.57-19.59-32.32-29.42-9.28-8.48-19.12-16.27-26-27.25-5.43-8.66-12.43-16.34-18.79-24.41-8.4-10.67-16.7-21.43-25.34-31.9-8.46-10.26-17.31-20.21-25.98-30.3-1.3-1.51-2.91-2.88-3.8-4.61-3.07-6.01-8.31-7-14.32-6.92-10.32,.15-20.65,.18-30.97,.06-4.64-.06-9.27-.87-13.9-.9-16.29-.11-32.64-.9-48.85,.2-20.87,1.42-41.63,4.42-62.43,6.72-1.31,.14-2.74,.38-3.96,.02-18.53-5.36-37.07-.85-55.61-.12-9.96,.39-19.92,1.09-29.88,1.36-43.29,1.14-86.58,2.17-129.88,3.26-20.29,.51-40.62,.41-60.85,1.75-23.2,1.53-46.32,4.28-69.46,6.65-14.88,1.52-29.79,2.94-44.59,5.09-11.46,1.67-22.97,3.68-34.07,6.87-13.89,3.98-21.19-1.35-23.02-15.53-4.38-33.83,3.31-66.95,4.38-100.43,.51-15.87,2.86-31.57,1.52-47.64-1.77-21.16-1.43-42.49-1.99-63.75-.04-1.33,.26-2.74-.08-3.98-5.58-20.42-2.01-41.01-1.11-61.54,.21-4.76,.03-8.9-3.39-12.98-2.09-2.49-2.85-6.69-2.92-10.15-.21-10.59,.01-21.2,.4-31.8,1.19-32.58,2.07-65.19,4.19-97.71,.47-7.22,1.06-14.41,.58-21.58-.34-5.19,2.11-11.48-4.32-15.01,5.55-4.16,2.5-9.92,2.16-14.76-.53-7.57-2.4-15.06-3.85-22.55-4.54-23.47-6.86-47.18-8.11-71.03-.43-8.18-2.37-16.32-2.39-24.48-.05-15.6,.91-31.2,1.2-46.81,.12-6.27-.38-12.56-.68-18.84-.29-5.97-.89-11.94-1.03-17.91-.36-14.93-1.62-29.74-.63-44.83,1.09-16.69-1.79-33.6-2.38-50.44-.53-14.96-.56-29.94-.34-44.91,.28-18.92,1.03-37.84,1.59-56.76,.07-2.31,.19-4.62,.34-6.92,1.23-19.49,2.69-38.97,3.59-58.48,.27-5.84-1.3-11.75-1.45-17.64-.11-4.55,.94-9.12,1.04-13.69,.27-11.98,.06-23.97,.49-35.95,.45-12.64,1.42-25.26,2.14-37.89,.08-1.33-.29-2.76,.08-3.98,6.27-20.5,4.61-42.15,9.12-62.9,.49-2.26,1.16-4.5,1.43-6.78,.66-5.52,1.87-11.1,1.55-16.57-.96-16.42,14.49-28.81,30.27-24.54,9.52,2.58,19.43,5.05,29.19,5.15,27.3,.26,54.61-.78,81.92-1.22,13.63-.22,27.26-.28,40.89-.35,23.36-.11,46.44-2.91,69.58-6.02,18.4-2.47,37.11-2.56,55.63-4.21,13.25-1.18,26.4-3.4,39.64-4.81,23.15-2.47,46.32-4.68,69.48-6.99,15.23-1.52,30.45-3.1,45.68-4.51,4.62-.43,9.29-.25,13.93-.55,32.17-2.09,64.34-4.29,96.52-6.33,25.25-1.6,50.49-3.47,75.76-4.38,16.29-.59,32.64,.56,48.96,.49,22.97-.09,45.94-.82,68.91-.84,38.62-.02,77.25,.43,115.87,.45,16.66,.01,33.31-.61,49.97-.82,12.65-.16,25.31-.26,37.96-.13,26.6,.28,53.18,1.61,79.81-.16,18.25-1.21,36.59-1.17,54.9-1.47,15.63-.26,31.27-.09,46.9-.32,15.27-.22,30.57-1.43,45.81-.95,42.95,1.37,85.87,3.5,128.81,5.11,23.31,.88,46.63,1.26,69.94,1.99,6.65,.21,13.29,.82,19.93,1.31,6.91,.5,13.37,1.12,20.21-2.77,4.37-2.48,11.19-2.17,16.53-1.14,13.77,2.67,27.59,3.61,41.48,2.82,17.89-1.02,35.74-2.83,53.62-4.13,5.29-.38,10.64-.44,15.94-.22,17.63,.74,35.25,1.74,52.88,2.53,10.93,.49,21.87,.72,32.81,1.22,9.12,.42,13.22,5.09,12.91,15.32-.27,8.64-.93,17.29-1.83,25.89-2.92,27.82-4.81,55.7-3.05,83.66,1.17,18.6,3.77,37.13,4.53,55.74,.78,18.92,.31,37.9-.01,56.84-.33,18.94-.96,37.88-1.86,56.8-.39,8.24-2.12,16.41-2.71,24.65-2.59,36.18-5.09,72.37-7.4,108.57-.7,10.93-.71,21.9-1.03,32.85-.66,22.26-.17,44.54-2.63,66.77-1.68,15.2-1.84,30.58-2.55,45.89-1.06,22.62-2.15,45.23-2.94,67.86-.57,16.26-.45,32.55-1.09,48.81-.54,13.63-1.19,27.3-2.74,40.84-3.76,32.77-7.9,65.47-7.71,98.56,.05,8.62-1.62,17.25-1.79,25.88-.36,18.63-.1,37.28-.4,55.92-.15,9.31-1.47,18.61-1.36,27.9,.14,12.3,1.41,24.58,1.69,36.88,.19,8.26-.39,16.54-.85,24.8-.41,7.31-1.95,14.65-1.54,21.9,1.17,20.45-3.14,40.37-4.81,60.54-1.73,20.89-2.75,41.84-3.82,62.78-.51,9.95-.77,19.94-.46,29.89,.23,7.57,1.67,15.09,2.32,22.66,.31,3.57,.3,7.21-.02,10.78-.28,3.14-1.19,6.23-2.06,10.51Zm18.51-898.16c-19.58-1.52-37.08-3.14-54.61-4.15-12.6-.73-25.25-.68-37.88-.91-6.97-.13-13.96,.06-20.92-.24-19.31-.84-38.6-2.4-57.91-2.69-36.64-.56-73.3-.48-109.95-.54-4.64,0-9.28,.77-13.92,1.04-13.91,.83-27.98,3.27-41.7,2.01-26.81-2.47-53.2,1.14-79.76,2.44-8.96,.44-17.94,.92-26.9,.78-23.3-.35-46.59-1.23-69.88-1.5-11.64-.13-23.34,1.52-34.91,.83-45.03-2.69-89.77-.19-134.49,5.17-27.76,3.32-55.72,4.53-83.72,4.23-13.33-.14-26.79-1.28-39.95,.21-17.33,1.95-34.42,2.53-51.7,.21-9.86-1.32-19.81-2.74-29.71-2.73-54.6,.07-109.22-2.09-163.8,1.33-1.66,.1-3.33-.07-5-.03-23.6,.59-47.22,.87-70.8,1.88-27.92,1.2-55.67,5.19-83.75,4.33-14.61-.44-29.29,.66-43.9,1.61-17.51,1.14-34.96,3.09-52.46,4.27-26.87,1.81-53.77,3.09-80.64,4.93-20.93,1.43-41.82,3.34-62.73,5.07-18.9,1.57-37.82,2.94-56.68,4.88-13.53,1.4-26.93,4.19-40.48,5.31-21.5,1.78-43.08,2.58-64.61,4.03-5.85,.39-11.63,1.63-17.7,2.52-.73,4.27-1.43,7.49-1.8,10.76-1.62,14.25-1.4,28.37,.17,42.75,2.89,26.45,4.34,53.07,5.79,79.65,.54,9.9-.45,19.91-1.01,29.85-.67,11.89-2.44,23.78-2.27,35.65,.27,19.25,1.48,38.51,2.78,57.73,.99,14.61,3.29,29.14,4.02,43.75,.75,14.93,4.89,29.25,6.77,43.99,2.74,21.53,5.41,42.82,3.41,64.59-1.4,15.23-1.67,30.57-2.12,45.87-.16,5.26,1.07,10.56,.95,15.83-.22,9.98-.8,19.96-1.5,29.92-.5,7.09-2.86,14.3,3.18,20.43,.99,1.01,1.25,3.16,1.15,4.74-.69,10.94-1.94,21.85-2.28,32.79-.43,13.94-.53,27.91-.05,41.84,.33,9.62,2.66,19.2,2.72,28.8,.09,15.91,3.73,31.71,1.31,47.67-.24,1.61,.15,3.32,.34,4.98,2.53,21.98,1.8,43.7-2.69,65.51-4.04,19.63-3.54,39.74-2.75,59.72,.26,6.52,1.31,13.02,1.97,19.29,1.88,.49,2.86,1.06,3.77,.94,14.8-1.85,29.58-3.84,44.38-5.68,21.46-2.67,42.93-5.36,64.41-7.85,18.16-2.1,36.26-4.85,54.71-3.05,7.54,.74,15.28-.16,22.9-.7,14.57-1.03,29.09-2.83,43.67-3.42,22.62-.92,45.27-.98,67.91-1.64,7.64-.22,15.31-2.01,22.89-1.62,27.56,1.43,54.7-3.79,82.11-4.84,21.18-.81,42.12-6.15,63.55-5,4.31,.23,8.66-.11,12.98-.17,15.61-.24,31.12-1.83,46.86-.7,17.19,1.24,34.6,.74,51.82-.41,10.16-.68,18.3,1.12,25.16,8.71,15.17,16.78,31.49,32.63,45.48,50.33,26.92,34.05,57.13,64.87,88.4,94.77,4.35,4.15,6.9,4.02,10.66-.79,2.45-3.13,4.26-6.74,6.5-10.05,13-19.27,26.09-38.48,39.06-57.76,11.48-17.07,22.84-34.21,34.27-51.31,.36-.55,.78-1.33,1.3-1.46,6.78-1.62,9.16-8.46,14.32-11.93,3.76-2.52,7.66-5.74,11.88-6.49,8.45-1.51,17.15-1.63,25.76-2.17,22.56-1.4,45.1-3.1,67.68-3.95,17.27-.65,34.58-.14,51.87-.24,25.29-.14,50.64,1.95,75.83-2.2,4.58-.75,9.3-1.13,13.93-.96,21.3,.77,42.59,2.08,63.89,2.66,23.32,.63,46.65,.69,69.98,.95,21.97,.25,43.95,1.01,65.9,.52,32.63-.73,65.23-2.94,97.85-3.41,24.93-.35,49.89,.95,74.83,1.66,18.98,.54,37.95,1.69,56.94,1.84,12.62,.1,25.26-.87,37.87-1.75,8.6-.6,9.04-1.46,8.91-9.63-.07-4.32-.12-8.65,.2-12.95,1.65-22.24,3.09-44.5,5.24-66.69,4.02-41.5,4.76-83.13,5.55-124.77,.35-18.31,1.22-36.62,.95-54.92-.18-11.99-.26-23.86,.78-35.86,.78-9.02,3.54-18.54-1.38-27.51-.62-1.13,.29-3.14,.57-4.72,.8-4.51,2.01-8.98,2.41-13.52,1.04-11.95,1.63-23.94,2.6-35.89,2.93-36.09,6.26-72.15,8.79-108.27,1.19-16.91,.66-33.93,1.32-50.88,1.06-27.26,2.44-54.52,3.72-81.77,.56-11.97,.9-23.96,1.93-35.9,1.37-15.9-.14-31.78,1.36-47.78,3.62-38.76,5.54-77.69,8.04-116.55,.31-4.88,.04-9.8,.04-15.65ZM640.73,60.53c-1.72,10.31-3.84,20.33-4.97,30.47-1.43,12.85-.29,26.25-3.48,38.57-3.68,14.22-2.9,28.73-6,43.04-3.59,16.58-1.66,34.37-2.01,51.64-.2,9.96-.09,19.93-.22,29.89-.19,13.96-.43,27.92-.75,41.88-.05,2.3-.49,4.61-.88,6.89-2.79,16.46-2.59,32.93-1.12,49.33,7.35,0,13.95,.26,20.51-.07,6.95-.36,13.85-1.48,20.8-1.93,27.89-1.8,55.82-3.12,83.69-5.27,31.15-2.39,62.24-5.51,93.36-8.26,12.85-1.14,25.74-1.92,38.56-3.31,10.22-1.11,20.33-3.59,30.57-4.26,25.19-1.65,50.41-2.73,75.63-3.81,21.89-.94,43.82-1.12,65.69-2.43,25.57-1.53,51.09-3.91,76.63-5.94,15.48-1.23,30.94-2.7,46.43-3.66,14.22-.88,28.47-1.29,42.71-1.79,9.61-.34,19.22-.62,28.83-.65,6.99-.03,13.98,.44,20.97,.58,31.23,.63,62.47,1.16,93.7,1.86,5.65,.13,11.29,.94,16.94,1.3,15.93,1.02,31.86,2.73,47.79,2.76,26.62,.04,53.26-.53,79.85-1.72,33.24-1.5,66.44-3.98,99.66-5.88,25.89-1.48,51.78-3.24,77.69-3.89,26.61-.67,53.25,.05,79.88-.22,38.95-.39,77.89-1.15,116.83-1.7,23.65-.33,47.3-.2,70.93-.97,19.61-.64,39.17-2.52,58.77-3.39,12.96-.58,25.96-.3,38.94-.5,9.62-.15,19.26-.91,28.86-.59,26.29,.9,52.56,3,78.84,3.16,26.62,.17,53.25-1.33,79.87-2.29,4.95-.18,9.86-1.32,14.81-1.91,3.52-.42,5.37-2.36,5.68-5.82,.24-2.65,.51-5.31,.59-7.97,.5-16.98,.2-34.03,1.6-50.94,1.91-23.08,.28-46-2.36-68.77-2.72-23.58-3.23-47.09-2.41-70.72,.6-17.26,1.01-34.52,1.37-51.79,.05-2.52-.64-5.06-1.17-8.88-12.57-1.25-24.72-2.71-36.91-3.6-17.93-1.3-35.89-2.17-53.83-3.28-5.6-.34-10.4,.73-14.15,5.52-5.14,6.57-12.13,6.36-19.07,3.73-12.13-4.6-24.49-4.87-37.21-3.62-12.55,1.22-25.27,2.82-37.77,1.99-31.88-2.14-63.65-5.55-95.71-5.23-20.28,.2-40.57-1.37-60.87-1.97-18.31-.54-36.64-.73-54.96-1.3-22.28-.69-44.55-2.06-66.84-2.3-14.63-.16-29.39,2.58-43.91,1.54-30.32-2.18-60.46-.28-90.7,.73-25.92,.87-51.92-.33-77.88-.69-4.95-.07-9.9-.72-14.84-.64-5.98,.09-11.95,.92-17.93,.97-15.64,.14-31.29-.05-46.94,.05-11.65,.07-23.3,.69-34.95,.54-24.3-.32-48.6-1.25-72.9-1.44-31.55-.25-63.1-.2-94.65,.07-22.97,.19-45.95,.62-68.9,1.53-25.27,1-50.51,2.64-75.75,4.08-16.93,.97-33.88,1.88-50.79,3.16-25.16,1.91-50.3,4.09-75.44,6.24-13.24,1.13-26.47,2.38-39.69,3.67-21.51,2.09-43.01,4.35-64.53,6.35-13.25,1.23-26.59,1.67-39.8,3.24-29.04,3.45-57.97,7.89-87.36,6.55-2.33-.11-4.67-.05-7,.08-37.56,2.03-75.13,3.58-112.76,2.01-5.55-.23-11.12-.03-17.61-.03Z" style="fill:#eda37b;"/><polygon points="640.73 60.53 1102.32 26.23 1788.83 11.73 2257.77 22.51 2262 309.81 1605.15 319.65 1221.92 319.65 823.28 346.28 613.09 365.07 628.49 57.94 640.73 60.53" style="fill:#eda37b;"/><path d="M1558,1314.31c.95,1.76,2.06,2.89,1.85,3.65-.27,.97-1.61,1.64-2.49,2.44-.75-.88-2.11-1.76-2.1-2.63,.01-.9,1.33-1.79,2.74-3.47Z" style="fill:#eda37b;"/><path d="M1075.54,791.45c2.32-4.26,4-7.39,5.72-10.5,7.54-13.7,15.29-27.11,28.03-37.02,10.04-7.81,20.57-10.79,32.53-5.92,2.83,1.15,5.86,3.45,7.31,6.05,8.43,15.07,16.41,30.38,24.58,45.6,.45,.83,1.23,1.48,2.37,2.83,1.26-1.14,2.61-1.98,3.46-3.18,11.19-15.78,27.74-20.57,45.74-23,17.25-2.33,32.82,3.39,48.59,8.76,6.55,2.23,13.3,3.9,20.38,5.94,1.08-5.99,1.82-11.07,2.96-16.07,1.11-4.83,2.43-9.63,4.03-14.32,1.7-5.01,3.25-10.22,5.9-14.73,5.85-9.91,18.71-12.88,28.81-6.32,6.64,4.31,12.4,9.99,18.49,15.14,4.3,3.64,8.48,7.43,13.17,11.56,6.7-3.95,13.2-7.88,19.78-11.66,13.5-7.76,28.42-12.14,43.61-12.58,20.21-.58,33.71,8.41,40.91,28.62,2.78,7.8,4.32,16.07,6.12,24.19,2.03,9.14,2.51,9.43,12.13,8.23,9.9-1.24,19.96-3.46,29.77-2.76,18.16,1.3,36.28,3.94,54.26,6.92,17.37,2.87,34.55,6.9,51.83,10.34,1.55,.31,3.21,.04,5.98,.04-4.13-7.21-10.51-10.76-16.23-14.5-16.73-10.92-33.75-21.41-50.92-31.61-6.51-3.87-13.66-6.75-20.71-9.58-6.59-2.64-10.56-7.77-9.28-13.16,1.28-5.38,7.71-9.64,14.18-8.11,21.41,5.06,42.44-.47,63.53-2.11,22.16-1.73,44.18-5.27,66.24-8.1,15.83-2.03,31.65-4.18,47.46-6.37,1.94-.27,3.93-.84,5.69-1.68,5.76-2.75,11.15-2.21,15.69,2.14,4.15,3.97,3.39,9.08,2,14.05-3.05,10.86-6.03,21.74-9.27,32.54-3.79,12.63,2.06,22.75,8.61,32.44,2.94,4.34,5.39,3.6,9.84-.23,11.56-9.95,22.88-20.27,35.08-29.38,13.49-10.07,28.4-17.45,46.07-16.27,2.64,.18,5.33,.39,7.88,1.05,7.6,1.98,10.4,6.19,9.58,13.91-.96,9-8.68,13.38-15.58,7.62-7.43-6.2-13.66-4.62-20.94-.95-14.47,7.31-26.23,17.66-36.99,29.75-6.97,7.83-15.64,14.33-24.26,20.42-6.14,4.34-9.33,3.09-15.13-1.91-14.55-12.55-24.33-27.74-23.75-47.47,.29-9.82,3.05-19.57,4.71-29.35,.38-2.21,.83-4.4,1.25-6.57-12.51-3.03-112.44,9.05-142.62,17.08,.11,.86-.11,2.24,.39,2.58,6.82,4.65,13.51,9.55,20.68,13.61,21.14,11.98,42.52,23.55,60.04,40.82,1.89,1.86,3.88,3.76,5.23,6,4.49,7.46,.44,15.47-8.22,15.53-6.24,.04-12.54-1.01-18.72-2.13-8.49-1.53-16.83-3.9-25.33-5.36-27.51-4.71-55.03-9.38-82.61-13.65-21.8-3.37-42.4,.49-61.47,11.87-5.81,3.47-6.52,3.09-9.85-2.83-2.73-4.84-3.18-9.78-2.91-15.32,.79-16.21-2.24-31.59-11.36-45.53-4.34-6.64-10.05-9.65-17.66-8.65-17.12,2.24-33.01,7.7-46.46,18.98-1.74,1.46-3.11,3.37-4.8,5.23,4.81,8.6,9.44,16.97,14.17,25.29,4.8,8.45,4.31,17.3,1.72,26.14-2.87,9.81-9.15,14.36-19.23,13.99-9.86-.37-17.8-3.91-22.97-13.21-4.22-7.6-9.59-14.64-8.49-23.92,.54-4.54,1.66-9.07,3-13.45,1.65-5.4,3.79-10.64,6.11-17.01-4.42-4.06-8.88-8.46-13.67-12.47-4.82-4.03-9.97-7.67-14.73-11.29-5.09,.8-7.43,3.98-8.53,8-3.43,12.47-6.95,24.93-1.83,37.9,1.59,4.03-3.62,12.58-8.73,15.57-4.67,2.72-7.74-.02-10.23-3.23-5.51-7.12-13.02-9.67-21.52-11.12-6.09-1.04-11.94-3.53-17.82-5.52-18.01-6.1-36.65-7.56-53.51,4.06-13.29,9.16-17.73,26.91-11.58,41.69,2.55,6.13,4.55,12.5,6.51,18.84,1.73,5.59-.68,11.76-5.03,13.88-4.09,1.99-7.87,.87-12.11-4.02-6.44-7.43-10.91-15.63-11.34-25.89-.53-12.83-4.65-24.93-10.5-36.16-7.06-13.56-15.26-26.53-22.84-39.82-5.42-9.5-12.28-11.32-21.96-2.37-13.85,12.8-22.65,29.3-25.55,48.38-1.49,9.8-3.4,19.58-4.2,29.44-.41,5.11,1.2,10.39,1.86,15.59,.41,3.25,1.36,6.58,.96,9.74-.6,4.68-5.51,8.99-9.33,9.23-4.6,.29-10.9-4.13-11.83-9-1-5.21-2-10.6-1.76-15.85,1.21-26.94-6.53-51.94-15.9-76.62-3.17-8.35-6.44-16.69-10.23-24.76-2.48-5.27-5.97-10.07-9.2-15.41-5.36-.87-9.16,2.44-12.88,5.73-11.8,10.45-19.54,23.21-23.21,38.72-4.59,19.38-10,38.56-14.92,57.86-.81,3.19-.95,6.56-1.41,9.84-.7,4.94-1.23,9.92-2.18,14.81-.9,4.59-4.35,6.5-8.71,6.82-4.72,.34-7.96-2.32-8.79-6.53-.81-4.11-.95-8.69,0-12.75,2.7-11.63,5.96-23.13,9.26-34.61,4.67-16.28,9.57-32.49,14.39-48.72,.38-1.27,.7-2.63,1.39-3.74,7.02-11.24,13.21-23.16,21.45-33.44,7-8.73,17.12-13.49,29.2-11.92,5.37,.7,9.72,2.98,12.26,7.58,4.32,7.82,8.81,15.67,11.98,23.98,5.9,15.44,10.92,31.23,16.95,48.77Zm294.53-1.84c-4.61,6.93-4.24,13.15-1.32,19.28,2.26,4.74,4.86,9.66,12.77,8.39,.42-10.74-5.14-18.67-11.45-27.67Z" style="fill:#eda37b;"/><path d="M1597.04,515.12c15.98,7.62,31.57,13.66,49.16,12.96,6.29-.25,10.51-2.82,11.5-8.73,.97-5.77,.88-11.77,.75-17.66-.27-11.91-1.24-23.82-1.13-35.72,.04-3.66,2.16-7.62,4.23-10.87,2.85-4.46,7.51-5.04,12.46-3.76,5.12,1.33,6.51,5.09,6.71,9.82,.45,10.64,.88,21.29,1.56,31.91,.19,2.91,.69,6.04,1.97,8.61,10.02,19.97,22.34,38.41,37.64,54.77,.4,.43,1.2,.47,2.54,.95,3.46-3.06,4.42-7.4,5.24-11.96,.58-3.21,1.9-6.27,2.69-9.45,3.52-14.16,12.96-24.48,22.34-34.91,18.25-20.26,48.15-23.23,70.65-7.82,12.15,8.32,20.52,18.65,24.11,32.91,.46,1.82,1.76,3.43,3.43,6.57,4.79-7.24,9.05-13.37,12.97-19.71,7.43-11.98,16.26-22.65,27.23-31.62,7.79-6.36,15.62-12.56,25.49-15.2,4.09-1.09,8.52-1.81,12.7-1.49,6.92,.53,10.76,4.35,12.22,11.17,.69,3.23,.76,6.6,1,9.91,1.26,16.9,2.31,33.82,3.81,50.7,.47,5.26,1.79,10.5,3.28,15.58,.99,3.36,2.97,6.42,5.04,10.73,6.82-5.08,12.68-9.3,18.38-13.72,4.98-3.86,9.64-8.13,14.69-11.89,14.14-10.51,28.2-21.16,42.74-31.09,5.96-4.07,12.9-6.95,19.75-9.39,9.81-3.5,15.95-.06,19.06,10.05,1.06,3.43,1.24,7.15,1.66,10.76,.34,2.97,.22,6,.68,8.95,1.71,11.19,6.35,16.08,17.78,16.38,11.96,.31,23.94-.81,35.92-1.19,6.33-.2,12.67-.44,18.99-.18,6.6,.28,11.23,3.08,11.08,6.5-.24,5.6-4.61,8.06-9.11,9.31-5.4,1.5-11.07,2.37-16.67,2.8-11.62,.9-23.27,1.36-34.92,1.96-9.74,.5-19.18-.03-28.17-4.79-10.41-5.52-15.75-13.91-16.61-25.46-.29-3.93-.65-7.85-1.05-12.61-2.9,.23-5.32-.18-7.13,.69-5.38,2.58-10.99,5.05-15.67,8.66-18.94,14.64-37.51,29.77-56.35,44.54-5.11,4.01-9.47,9.38-17.19,8.99-5.83-.29-10.72-1.88-13.28-7.2-3.3-6.86-6.72-13.83-8.64-21.13-2.44-9.29-3.19-19-5.14-28.44-1.19-5.75-3.27-11.32-5.3-18.13,2.85-6.47,2.88-14.45,.48-22.86-8.09-1.17-13.7,3.48-18.87,7.81-19.11,16.01-31.87,36.26-39.68,59.95-2.61,7.91-5.63,15.45-5.97,23.99-.25,6.48-3.91,9.25-10.52,9.66-2.6,.16-5.23-.26-8.03-.43-2.76-7.46-2.43-14.71-1.33-21.93,2.59-17.06-2.49-32.45-11.3-46.46-5.49-8.74-14.83-12.4-25.11-14.7-24.19-5.43-41.66,14.62-48.54,30.77-7.21,16.91-8.84,34.68-11.01,52.5-.42,3.47-1.51,7.33-3.56,10.04-4.02,5.29-11.71,4.22-14.97-1.52-.16-.29-.33-.59-.41-.91-3.14-12.41-11.35-21.64-19.31-31.05-8.59-10.16-17.08-20.4-25.53-30.66-1.03-1.25-1.58-2.89-2.75-5.11-2.23,3.31-3.47,4.55-4.01,6.04-3.59,9.87-11.92,11.63-20.84,12.27-16.73,1.2-32.31-3.31-47.46-9.82-1.83-.79-3.72-1.45-5.55-2.26-4.82-2.12-8.78-1.76-12.25,2.89-2.57,3.44-6.13,6.11-9.01,9.34-12.15,13.61-28.49,17.74-45.53,19.25-6.69,.59-13.63-1.75-20.29-2.73-2.53,2.56-4.82,6.79-7.95,7.55-4.18,1.01-9.47,.36-13.48-1.41-12.15-5.37-21.72-13.6-27.33-26.27-17.83-40.23,8.75-79.91,42.52-88.65,13.86-3.59,27.73-5.82,41.37-2.89,10.13,2.18,19.53,8.01,29.08,12.58,2.93,1.4,5.48,3.8,7.86,6.1,9.76,9.47,18.37,19.46,15.17,34.71-.74,3.54-.63,7.25-1,12.12Zm-23.33,10.76c-3.72-6.73-10.09-8.79-15.66-11.11-13.78-5.74-23.25-16.17-32.38-27.21-2.43-2.94-4.93-5.82-7.88-9.3-2.18,3.35-4.23,5.36-4.93,7.76-4.47,15.28-5.35,30.71,.32,45.87,4.36,11.66,11.5,15.83,24,14.7,14.99-1.36,27.3-7.59,36.54-20.71Zm-75.02,22.33c-10.82-25.45-4.32-50.26,1.13-75.49-17.63,6.83-26.11,21.53-25.45,42.79,.47,15.17,9.59,27.88,24.32,32.7Zm38.58-82.17c4.83,17.15,27.62,37.96,43.58,40.37,3.48-19.32-18.78-40.32-43.58-40.37Z" style="fill:#eda37b;"/><path d="M1024.06,547.21c-5.5,4.54-9.78,7.56-13.44,11.21-8.97,8.94-18.61,16.98-29.19,23.95-8.65,5.7-17.63,5.72-26.63,1.75-7.96-3.51-12-12.98-9.68-20.84,2.24-7.61,7.73-8.96,13.17-3.23,1.36,1.44,2.45,3.24,4.04,4.33,5.65,3.88,11.15,3.75,17.41-1.39,8.99-7.37,17.53-15.29,26.2-23.06,4.69-4.21,9.1-8.74,13.92-12.8,2.5-2.1,5.44-3.96,8.49-5.08,7.17-2.66,11.66-.01,12.96,7.56,1.07,6.22,1.3,12.6,2.5,18.79,1.49,7.67,3.59,15.23,5.66,23.79,2.85-1.47,4.67-1.81,5.47-2.9,4.87-6.7,10.01-13.29,14.12-20.45,8.41-14.67,16.16-29.71,24.31-44.52,2.82-5.13,8.52-8.08,13.23-6.93,5.28,1.29,6.98,5.34,7.85,10.33,1.46,8.42,3.47,16.74,9.62,25.77,1.45-5.04,2.7-8.33,3.33-11.74,2.98-16.19,8.69-31.46,17.75-45.03,3.45-5.17,9.84-9.2,15.76-11.75,32.03-13.85,67.35,2.29,74.37,38.29,1.57,8.04,2.27,16.25,3.53,25.51,2.1-1.54,3.68-2.2,4.51-3.39,9.59-13.71,23.4-21.37,38.53-27.18,4.04-1.55,7.98-3.41,12.11-4.62,11.37-3.32,16.25,.05,17.68,11.74,1,8.22,1.75,16.48,3.22,24.61,1.18,6.5,3.27,12.83,4.95,19.24,.5,1.9,1.43,3.82,1.39,5.72-.1,5.3-4.17,7.17-8.81,4.36-10.31-6.26-13.94-16.47-16.22-27.43-1.26-6.07-2.28-12.19-3.57-19.13-19.01,7.16-34.38,17.52-43.31,35.45-4.89,9.81-8.65,20.17-13.16,30.17-1.48,3.28-3.31,6.56-5.67,9.25-4.57,5.22-12.06,4.19-14.45-2.34-1.53-4.16-2.28-9.36-1.23-13.57,3.07-12.38,4.9-24.85,4.48-37.52-.33-9.91-.93-19.94-2.89-29.62-2.85-14.14-12.1-21.95-26.58-24.63-14.41-2.66-24.44,3.35-32.96,13.76-8.76,10.7-11.96,23.71-14.32,36.82-1.94,10.76-2.72,21.73-4.16,32.59-.39,2.95-1.15,5.87-2.02,8.72-1.91,6.27-6,10.92-9.77,9.47-4.28-1.65-9.26-4.86-11.12-8.75-5.42-11.31-9.41-23.31-14.04-35.01-.58-1.48-1.6-2.79-2.8-4.84-6.14,4.61-8.88,10.91-12.21,16.85-6.47,11.57-12.89,23.19-19.92,34.42-2.38,3.79-6.15,7.07-9.96,9.53-9.52,6.14-17.97,3.3-22.66-7.2-4.49-10.05-8.84-20.17-8.26-31.59,.08-1.55-.61-3.15-1.51-7.47Z" style="fill:#eda37b;"/><path d="M727.38,588.88c.6-10.64,.47-21.39,1.95-31.9,2.64-18.75,6.24-37.36,9.48-56.02,.45-2.62,1.13-5.2,1.68-7.8,2.44-11.43,8.18-14.07,20.67-8.56,2.25,15.43,4.47,31.48,6.96,47.48,2,12.81,3.92,25.66,6.67,38.32,1.47,6.75,4.3,13.28,7.17,19.62,1.3,2.88,3.83,5.52,6.4,7.45,5.36,4.02,9.63,3.55,13.92-1.67,11.04-13.43,17.77-28.85,19.81-46.16,.81-6.88,1.28-13.8,1.62-20.72,.31-6.44,4.52-10,8.73-13.55,7.3,2.84,11.3,7.18,10.07,15.26-.69,4.56-.32,9.28-.78,13.89-1.72,17.07-.74,33.93,4.51,50.29,2.71,8.43,7.24,16.01,14.25,21.81,11.55-10.54,17.88-23.26,22.78-36.77,3.7-10.2,9.72-19.93,7.49-31.57,6.1-9.29,4.33-19.89,4.89-30.07,.29-5.22,3.04-7.86,7.69-9.08,5.62-1.47,9.1,.7,9.83,6.57,.36,2.93-.07,5.98-.37,8.95-.91,8.92-2.12,17.83,1.83,26.96-8.96,4.23-10.55,12.13-11.26,20.55-.19,2.24-.67,4.64-1.7,6.61-7.09,13.52-14.21,27.03-21.69,40.33-2.08,3.7-5.16,6.95-8.24,9.94-7.95,7.71-18.98,7.21-26.38-.98-6.97-7.73-13.14-15.91-15.56-26.38-.81-3.49-2.36-6.81-3.74-10.68-4.39,1.18-5.31,5.06-7.1,7.9-4.52,7.15-9.89,13.33-17.25,17.71-3.65,2.17-7.04,2.86-11.31,1.43-10.28-3.44-18.24-8.9-22.33-19.57-6.07-15.84-11.9-31.58-13.42-48.76-.8-9.07-3.85-17.93-6.19-28.22-1.17,2.5-2.29,3.98-2.57,5.61-4.28,24.71-5.38,49.55-3.39,74.56,1.4,17.5,2.55,35.03,3.41,52.57,.19,3.84-.94,7.89-2.13,11.62-1.1,3.45-3.92,5.22-7.8,4.89-4.03-.34-7.12-2.11-8.37-6.01-.91-2.82-1.12-5.87-1.72-8.8-4.51-22.11-9.36-44.16-13.48-66.35-5.27-28.37-10.34-56.78-14.7-85.3-1.91-12.46-1.85-25.22-2.66-37.85-.26-4.03,.88-7.22,5.23-8.49,4.25-1.24,7.28,.16,8.44,4.5,.68,2.55,.72,5.27,.98,7.92,2.12,21.5,3.68,43.08,6.5,64.49,2.39,18.09,6.25,35.99,9.45,53.98,.58,0,1.16,.01,1.75,.02Z" style="fill:#eda37b;"/><path d="M1377.82,1222.75c2.05-2.65,4.86-5.5,6.77-8.86,8.72-15.33,16.74-31.07,25.89-46.13,6.53-10.75,14.38-20.71,21.76-30.93,8.53-11.81,17.34-23.43,25.73-35.33,3.11-4.41,8.42-7.88,7.24-14.61-.14-.8,1.48-2.1,2.5-2.88,4.35-3.3,16.69-3.87,21.15-1.08,6.04,3.77,5.85,14.57-.24,21.16-4.47,4.84-8.96,9.68-13.06,14.82-5.58,6.99-10.71,14.33-16.18,21.41-5.88,7.61-11.27,15.77-18.06,22.48-11.46,11.32-17.49,25.79-25.16,39.36-6.38,11.27-12.65,22.64-19.72,33.47-3.94,6.04-9.06,11.43-14.26,16.49-5.15,5-11.73,4.48-18.33,1.51-11.06-4.97-17.51-13.68-22.34-24.2-9.77-21.23-24.7-38.54-41.32-54.64-10.52-10.19-20.31-21.13-30.95-31.2-8.67-8.2-18.09-15.59-27.19-23.33-.76-.64-1.64-1.14-2.41-1.78-7.2-6-7.49-10.14-1.28-17.69,4.53-5.51,10.57-5.97,16.6-.69,8.26,7.23,16.43,14.58,24.26,22.27,16.14,15.86,32.59,31.47,47.85,48.15,11.41,12.46,21.47,26.21,31.53,39.84,4.79,6.49,9.95,11.4,19.24,12.38Z" style="fill:#eda37b;"/><path d="M1366.32,1114.72c6.64-7.03,12.29-13.07,17.99-19.05,14.97-15.69,27.69-33.12,40.17-50.8,4.31-6.11,10.28-11.04,15.4-16.59,4.28-4.64,8.52-9.33,12.61-14.14,4.41-5.18,9.43-9.39,16.15-11.14,5.88-1.53,8.77-.44,9.48,5.33,.62,5.05-.87,10.36-1.37,15.56-.57,5.91-4.46,8.31-9.6,10.08-2.7,.93-5.36,2.89-7.25,5.07-7.4,8.53-14.71,17.16-21.62,26.1-7.1,9.18-13.12,19.23-20.64,28.03-7.08,8.29-15.92,15.06-23.18,23.21-6.14,6.9-11.64,14.52-16.5,22.38-6.15,9.94-18.27,11.24-23.88,1.14-11.33-20.42-29.46-34.2-46.54-48.85-21.63-18.55-44.25-35.95-66.41-53.89-6.07-4.92-6.66-11.25-1.81-17.35,4.05-5.09,11.45-5.91,16.86-1.28,6.32,5.41,12.07,11.48,18.34,16.96,23.3,20.35,46.71,40.56,70.06,60.84,3.27,2.84,6.38,5.85,9.68,8.65,3.5,2.97,7.13,5.77,12.05,9.74Z" style="fill:#eda37b;"/><path d="M771.66,743.64c6.14-4.24,11.15-7.97,16.42-11.26,7.41-4.62,21.47-2.65,28.53,5,6.48,7.03,12.2,14.91,17.34,23,7.28,11.45,13.81,23.38,20.49,35.21,3.4,6.02,1.55,17.27-3.18,21.37-5.66,4.9-14.2,4.48-20.99-1.3-1.99-1.7-3.58-3.92-5.17-6.04-2.87-3.84-5.61-7.8-8.96-12.48,3.42-3.57,7.24-7.56,11.78-12.3-6.58-10.45-12.56-21.18-19.77-31.01-6.33-8.63-14.1-7.75-20.07,1.43-6.71,10.33-7.32,21.99-5.67,33.65,.47,3.35,1.28,5.69-.72,8.98-1.57,2.6-1.02,6.44-1.59,9.7-1.09,6.29-4.68,9.49-9.83,8.94-5.77-.62-9.61-4.82-9.45-10.59,.27-9.6,1-19.2,.93-28.79-.07-9.78-2.01-19.19-8.57-27.02-.85-1.02-1.86-1.97-2.46-3.13-1.53-2.92-2.49-6.63-6.74-6.27-3.87,.33-8.51,.14-11.37,2.19-13,9.33-17.97,22.63-16.41,38.34,.24,2.44,1.91,4.9,3.42,7,1.88,2.61,3.35,5.05,1.27,8.12-2.17,3.21-4.97,5.23-9.14,4.96-6.25-.41-12.56-5.81-14.13-12.08-3.33-13.29,.09-25.61,5.24-37.7,4.61-10.82,13.29-18.33,22.23-25.12,6.55-4.97,15.18-5.25,22.96-3.06,9.41,2.65,17.85,7.32,21.61,17.42,.33,.89,1.12,1.61,2,2.84Z" style="fill:#eda37b;"/><path d="M1840.01,812.59c6.63-.03,9.97,2.79,9.85,8.3-.11,5.08-7.16,12.49-12.13,12.76-4.96,.27-9.49-5.44-9.38-11.83,.1-5.91,4.26-9.2,11.66-9.23Z" style="fill:#eda37b;"/><path d="M1274.52,346.28c-2.68-.27-5.35-.54-8.03-.81,.02-.43,.05-.86,.07-1.29h8.28c-.11,.7-.21,1.4-.32,2.11Z"/><path d="M1223.73,206.53c11.86-10.74,22.49-20.59,33.38-30.14,5.17-4.53,10.48-9.15,16.44-12.43,2.91-1.6,7.83-1.22,11.17,.04,3.47,1.32,3.99,5.13,3.74,9.33-.71,12.02,4.43,22.7,10.43,32.57,2.03,3.34,7.58,4.53,11.66,6.79-.22,9.53-2.7,10.86-11.71,9.95-16.41-1.66-22.19-13.56-27.55-26.28-.62-1.47-.88-3.09-1.77-6.35-3.24,2.43-5.99,3.93-8.01,6.1-7.46,8.04-15.14,15.94-21.9,24.55-9.92,12.66-25.12,10.34-33.28-1.71-6.63-9.79-8.46-20.77-9.44-32.11-.13-1.56-.41-3.11-.63-4.72-5.82-1.07-9.55,2.03-12.76,5.23-7.51,7.51-14.59,15.45-21.91,23.15-8.72,9.16-16.81,19.08-26.44,27.17-16.08,13.52-33.57,1.94-38.83-13.12-3.05-8.73-3.6-18.14-.79-27.51,1.79-5.98,2.29-12.34,3.7-18.46,1.31-5.69,3.06-11.29,4.02-17.4-13.31,10.71-27.88,19.61-38.58,33.35-9.56,12.28-19.89,23.98-30.2,35.66-4.5,5.1-10.1,9.55-17.5,6.5-7.36-3.04-10.81-9.75-12.34-17.13-1.42-6.82-2.51-13.8-2.77-20.75-.69-18.09-4.32-35.63-9.28-52.91-1.89-6.6-4.94-12.87-8.15-21.04-4.22,3.87-7.6,6.38-10.26,9.5-8.67,10.17-11.24,22.74-14.02,35.4-4.9,22.29-3.41,45.1-6.34,67.52-1.03,7.89-.99,15.93-2.02,23.82-1.29,9.83-6.58,14.49-14.15,12.67-2.24-.54-4.63-2.42-5.98-4.36-13.83-19.87-21.5-42.55-29.32-65.15-.09-.27-.47-.44-1.26-1.14-.74,.27-2.14,.38-2.96,1.13-10.77,9.86-22.3,18.93-30.5,31.35-7.21,10.93-17.9,16.57-30.75,17.74-4.01,.37-6.9,1.63-9.46,4.56-1.96,2.24-4.28,4.18-6.83,6.63-2.09-.16-4.72-.67-7.31-.52-22.69,1.33-37.57-11.05-48.65-28.75-4.11-6.57-6.56-14.61-8.06-22.31-3.57-18.41,9.86-45.84,33.04-51.86,14.21-3.69,25.58,.31,33.6,12.6,5.42,8.31,6.41,18,9.08,27.17,.53,1.84,.73,3.78,1.37,7.22,3.71-3.68,5.69-6.63,5.75-10.73,.16-10.61,.87-21.25,.32-31.82-.73-14.02-5.29-26.65-16.25-36.33-4.44-3.92-8.26-8.56-12.8-12.37-10.22-8.57-21.61-9.92-34.59-6.6-20.24,5.19-31.95,19.88-41.63,36.3-5.67,9.61-8.71,20.81-12.66,31.39-4.3,11.52-3.08,23.65-3,35.55,.06,7.95,1.66,15.88,2.29,23.83,.54,6.81,2.08,13.09,7,18.18,3.24,3.34,3.66,7.86,1.1,10.99-2.26,2.76-6.38,4.92-9.96,5.46-4.57,.7-6.87-3.42-8.29-7.32-7.38-20.28-9.64-40.93-7.24-62.59,2.34-21.17,7-41.4,17.56-59.81,9.37-16.33,18.63-33.13,37.93-40.46,3.17-1.2,5.44-4.61,8.55-6.15,13.52-6.68,27.04-5.56,40.3,.91,14.74,7.19,26.41,18.16,35.41,31.55,7.25,10.77,10.09,23.49,10.91,36.4,1.27,20.11-2.23,39.68-7.46,59.01-.23,.84,.21,1.86,.44,3.55,1.46-.62,2.76-.83,3.55-1.57,12.29-11.65,24.37-23.52,36.86-34.95,3.09-2.83,7.31-4.64,11.28-6.25,7.89-3.21,12.78-.54,17.21,6.89,6.44,10.81,7.77,23.52,13.68,34.45,.88,1.62,1.87,3.17,3.38,5.73,4.17-7.15,4.57-14.16,5.42-20.85,2.04-16.14,3.15-32.4,5.45-48.5,.96-6.73,3.32-13.48,6.24-19.66,4.22-8.92,6.92-18.85,14.92-25.63,2.79-2.36,5.51-4.82,8.28-7.2,11.39-9.76,22.68-3.7,28.32,7.83,7.06,14.44,10.06,30.11,12.38,45.85,1.89,12.8,3.18,25.69,4.83,38.54,.33,2.57,1.05,5.09,1.88,9.01,2.97-1.26,5.69-1.67,7.32-3.22,11.76-11.24,23.06-22.95,34.97-34.02,9.95-9.24,20.31-18.08,30.93-26.54,4.06-3.23,9.21-5.23,14.09-7.25,7.68-3.17,15.47,1.76,14.96,10.31-.59,9.88-2.85,19.67-4.47,29.49-1.62,9.84-3.5,19.63-4.94,29.49-.74,5.11,.23,9.97,5.76,14.41,3.09-1.96,7.02-3.66,9.94-6.44,13.26-12.61,26.33-25.41,39.25-38.35,6.67-6.68,13.99-11.86,22.89-15.48,12.55-5.11,19.43-1.89,23.53,13.57,2.04,7.69,3.36,15.57,5.21,23.32,.43,1.81,1.67,3.42,3.24,6.53Zm-407.6,6.72c.16-.02,.32-.04,.48-.07,0-3,.1-6-.02-8.99-.28-7.46-2.01-14.48-6.63-20.56-7.23-9.5-14.56-10.37-23.74-2.82-11.89,9.78-16.46,26.26-10.32,40.77,5.95,14.06,17.34,24.07,32.29,24.5,9.46,.27,11.54-2.33,10.29-12.1-.89-6.9-1.58-13.82-2.36-20.74Z" style="fill:#fff;"/><path d="M1459.7,238.9c7.21-10.21,14.11-20.67,21.72-30.57,8.9-11.57,18.32-22.75,27.74-33.92,4.28-5.07,9.76-7.99,16.76-6.9,6.34,.98,9.01,3.29,9.21,9.61,.26,8.27-.01,16.56-.33,24.83-.49,12.87,2.07,24.32,12.93,32.82,3.91,3.06,7.85,4.15,11.94,1.87,6.34-3.53,12.98-7,18.26-11.84,7.33-6.71,13.51-14.67,20.19-22.09,7.46-8.28,15.46-7.38,20.52,2.29,7.48,14.29,13.13,16.89,29,13.4,13.77-3.02,26.1-9.54,37.63-17.16,9.33-6.16,19.77-9.31,29.8-13.51,5.52-2.31,11.18,.08,15.57,4.29,11.74,11.24,25.98,13.63,41.44,11.93,1.62-.18,3.3-.2,4.91,.01,12.08,1.58,14.75,6.4,8.78,17.19-1.32,2.39-5.25,4.64-8.02,4.7-15.98,.35-32.05,.48-47.19-5.89-3.94-1.66-8.1-3.5-11.2-6.31-5.13-4.66-9.94-4.35-15.45-1.26-9.58,5.37-19.24,10.6-28.89,15.87-11.16,6.09-22.58,11.26-35.61,12.04-11.51,.69-21.65-1.82-30.35-9.83-5.87-5.4-7.72-4.74-13.22,.73-7.29,7.24-14.64,14.54-22.76,20.78-10.45,8.03-27.17,7.38-37.45-.88-12.85-10.33-20.32-23.5-19.84-40.5,.16-5.51,.02-11.02,.02-18.51-10.06,8.83-16.77,17.64-22.49,27.23-4.26,7.14-7.93,14.64-12.23,21.75-4.1,6.78-8.4,13.48-13.15,19.81-3.21,4.27-7.46,8.26-13.46,6.81-5.93-1.43-9.67-5.65-10.85-11.8-1.99-10.43-4.45-20.8-5.8-31.32-3.15-24.38-5.8-48.82-8.54-73.25-.73-6.49-1.12-13.03-1.54-19.55-.36-5.62-.91-11.15-4.66-16.5-1.26,1.32-2.42,2.07-2.94,3.14-6.5,13.38-15.39,25.73-18.21,40.73-3.18,16.97-6.83,33.9-8.91,51.01-1.13,9.35,.27,19.06,1.14,28.56,.38,4.1,2.3,8.06,3.77,12.88-3.04,5.99-6.53,12.88-9.97,19.67-6.29-.6-11.4-.75-14.47-5.53-1.51-2.36-3.1-5.18-3.22-7.85-.41-9.63-.56-19.3-.08-28.92,.24-4.88,2.36-9.64,3.11-14.53,3.77-24.69,11.39-48.34,18.64-72.14,5.11-16.77,14.22-31.41,21.96-46.8,1.9-3.79,4.75-7.31,7.84-10.24,6.1-5.77,13.82-4.39,16.88,3.39,2.53,6.42,4.24,13.34,5.14,20.2,1.33,10.2,1.62,20.54,2.37,30.82,1.9,26.2,3.56,52.42,5.87,78.58,.59,6.73,3.22,13.28,4.92,19.91,.93,.24,1.85,.49,2.78,.73Z" style="fill:#fff;"/></svg>