<svg version="1.1" id="svg2" xmlns="http://www.w3.org/2000/svg" x="0" y="0" viewBox="0 0 321.6 150.6" xml:space="preserve"><style>.st0{fill:#8cd024}</style><g id="layer1" transform="translate(-192.902 -205.718)"><g id="g6483"><path id="path3941" class="st0" d="M316 211.8c11.8 0 21.3 9.6 21.3 21.3 0 11.8-9.6 21.3-21.3 21.3-11.8 0-21.3-9.6-21.3-21.3 0-11.7 9.5-21.3 21.3-21.3m0 48.8c15.2 0 27.5-12.3 27.5-27.5s-12.3-27.5-27.5-27.5-27.5 12.3-27.5 27.5c.1 15.2 12.3 27.5 27.5 27.5"/><path id="path3945" class="st0" d="M247.2 281c0-11.6 9.4-21 21-21v-6c-14.9 0-27 12.1-27 27s12.1 27 27 27 27-12.1 27-27h-6c0 11.6-9.4 21-21 21s-21-9.4-21-21"/><path id="path3949" class="st0" d="M229.2 281c0 21.5 17.5 39 39 39s39-17.5 39-39h-6c0 18.2-14.8 33-33.1 33-18.2 0-33-14.8-33-33s14.8-33 33-33v-6c-21.5 0-38.9 17.5-38.9 39"/><path id="path3953" class="st0" d="M217.1 281c0 28.2 22.9 51.1 51.1 51.1 28.2 0 51.1-22.9 51.1-51.1h-6c0 24.9-20.2 45-45 45-24.9 0-45-20.1-45-45 0-24.8 20.1-45 45-45v-6.1c-28.3.1-51.2 22.9-51.2 51.1"/><path id="path3957" class="st0" d="M268.2 217.8c-34.9 0-63.2 28.3-63.2 63.2s28.3 63.2 63.2 63.2 63.2-28.3 63.2-63.2h-6c0 31.6-25.6 57.1-57.2 57.1s-57.1-25.6-57.1-57.1c0-31.6 25.6-57.1 57.1-57.1v-6.1z"/><path id="path3961" class="st0" d="M268.2 350.3c-38.3 0-69.3-31-69.3-69.3s31-69.3 69.3-69.3v-6c-41.6 0-75.3 33.7-75.3 75.3s33.7 75.3 75.3 75.3 75.3-33.7 75.3-75.3h-6c0 38.3-31.1 69.3-69.3 69.3"/><path id="path3965" class="st0" d="M378.7 271.5c3 0 6.7-.7 8.7-1.6v-16.3h-10.3v5.1h4.1v7.3c-.7.1-1.8.2-2.7.2-4.5 0-8.1-2.4-8.1-10.1 0-7.6 3.6-10 8.9-10 2.2 0 5.1.5 7 1.2l.6-5.2c-2.1-.8-5.4-1.3-8-1.3-9.1 0-15 4.8-15 15.4.1 10.3 5.5 15.3 14.8 15.3"/><path id="path3969" class="st0" d="M482.2 270.9h6.4v-29.6h-6.4V253h-9.5v-11.7h-6.4v29.6h6.4v-12.6h9.5v12.6z"/><path id="path3973" class="st0" d="M456.3 270.9v-24.3h6.4v-5.3h-19.3v5.3h6.4v24.3h6.5z"/><path id="path3977" class="st0" d="M428.4 258.3h10.5V253h-10.5v-6.5h12.3v-5.3H422v29.6h19.1v-5.3h-12.7v-7.2z"/><path id="path3981" class="st0" d="M404.6 245.7c4 0 6 2.5 6 10.4 0 7.8-1.9 10.5-5.9 10.5s-6-2.6-6-10.5 1.9-10.4 5.9-10.4m0 26c8.4 0 12.5-4.5 12.5-15.7 0-10.9-4.1-15.7-12.5-15.7s-12.5 4.7-12.5 15.7 4.3 15.7 12.5 15.7"/><path id="path3985" class="st0" d="M513.9 265.6h-12.7v-7.3h10.5V253h-10.5v-6.5h12.3v-5.3h-18.7v29.6h19.1v-5.2z"/><path id="path3989" class="st0" d="M421.2 286.2h5.9v23.4h6.2v-23.4h5.9V281h-18v5.2z"/><path id="path3991" class="st0" d="M372.4 309.6V281h-6.3v28.6h6.3z"/><path id="path3995" class="st0" d="M487.5 299.7c0 3.3-1.1 5.1-4.2 5.1s-4.3-1.9-4.3-5.1V281h-6.2v18.9c0 6.9 3.5 10.2 10.5 10.2 6.9 0 10.4-3.3 10.4-10.2V281h-6.2v18.7z"/><path id="path3999" class="st0" d="M409.2 288.7c0-1.5.8-2.9 3.9-2.9 2 0 3.7.5 5.4 1.3l.7-5c-2-.9-4-1.4-6.6-1.4-6.6 0-9.4 3.8-9.4 8.7 0 9.2 11.4 7.4 11.4 12.5 0 2-1.2 3.3-3.8 3.3-2.6 0-4.7-.9-6.8-2.1l-.8 5.1c2.2 1.3 4.9 2 7.9 2 6.2 0 9.7-3.4 9.7-9-.2-9.6-11.6-8.1-11.6-12.5"/><path id="path4003" class="st0" d="M393.1 297.7l-8.8-16.7h-5.7v28.6h5.7v-16.7l8.8 16.7h5.7V281h-5.7v16.7z"/><path id="path4007" class="st0" d="M496.5 281v5.1h5.9v23.4h6.2v-23.4h5.9V281h-18z"/><path id="path4009" class="st0" d="M448.6 309.6V281h-6.3v28.6h6.3z"/><path id="path4013" class="st0" d="M451.8 286.2h5.9v23.4h6.2v-23.4h5.9V281h-18v5.2z"/></g></g></svg>