<?xml version="1.0" encoding="utf-8"?>
<!-- Generator: Adobe Illustrator 26.5.0, SVG Export Plug-In . SVG Version: 6.00 Build 0)  -->
<svg version="1.1"
	 id="svg2" xmlns:rdf="http://www.w3.org/1999/02/22-rdf-syntax-ns#" xmlns:dc="http://purl.org/dc/elements/1.1/" xmlns:svg="http://www.w3.org/2000/svg" xmlns:cc="http://creativecommons.org/ns#"
	 xmlns="http://www.w3.org/2000/svg" xmlns:xlink="http://www.w3.org/1999/xlink" x="0px" y="0px" viewBox="0 0 321.6 150.6"
	 style="enable-background:new 0 0 321.6 150.6;" xml:space="preserve">
<style type="text/css">
	.st0{fill:#8CD024;}
</style>
<g id="layer1" transform="translate(-192.90205,-205.71827)">
	<g id="g6483">
		<path id="path3941" class="st0" d="M316,211.8c11.8,0,21.3,9.6,21.3,21.3c0,11.8-9.6,21.3-21.3,21.3c-11.8,0-21.3-9.6-21.3-21.3
			C294.7,221.4,304.2,211.8,316,211.8 M316,260.6c15.2,0,27.5-12.3,27.5-27.5c0-15.2-12.3-27.5-27.5-27.5
			c-15.2,0-27.5,12.3-27.5,27.5C288.6,248.3,300.8,260.6,316,260.6"/>
		<path id="path3945" class="st0" d="M247.2,281c0-11.6,9.4-21,21-21v-6c-14.9,0-27,12.1-27,27c0,14.9,12.1,27,27,27
			c14.9,0,27-12.1,27-27h-6c0,11.6-9.4,21-21,21C256.6,302,247.2,292.6,247.2,281"/>
		<path id="path3949" class="st0" d="M229.2,281c0,21.5,17.5,39,39,39c21.5,0,39-17.5,39-39h-6c0,18.2-14.8,33-33.1,33
			c-18.2,0-33-14.8-33-33s14.8-33,33-33v-6C246.6,242,229.2,259.5,229.2,281"/>
		<path id="path3953" class="st0" d="M217.1,281c0,28.2,22.9,51.1,51.1,51.1c28.2,0,51.1-22.9,51.1-51.1h-6c0,24.9-20.2,45-45,45
			c-24.9,0-45-20.1-45-45c0-24.8,20.1-45,45-45l0-6.1C240,230,217.1,252.8,217.1,281"/>
		<path id="path3957" class="st0" d="M268.2,217.8c-34.9,0-63.2,28.3-63.2,63.2s28.3,63.2,63.2,63.2s63.2-28.3,63.2-63.2l-6,0
			c0,31.6-25.6,57.1-57.2,57.1c-31.6,0-57.1-25.6-57.1-57.1c0-31.6,25.6-57.1,57.1-57.1L268.2,217.8L268.2,217.8z"/>
		<path id="path3961" class="st0" d="M268.2,350.3c-38.3,0-69.3-31-69.3-69.3c0-38.3,31-69.3,69.3-69.3v-6
			c-41.6,0-75.3,33.7-75.3,75.3s33.7,75.3,75.3,75.3s75.3-33.7,75.3-75.3h-6C337.5,319.3,306.4,350.3,268.2,350.3"/>
		<path id="path3965" class="st0" d="M378.7,271.5c3,0,6.7-0.7,8.7-1.6v-16.3h-10.3v5.1h4.1v7.3c-0.7,0.1-1.8,0.2-2.7,0.2
			c-4.5,0-8.1-2.4-8.1-10.1c0-7.6,3.6-10,8.9-10c2.2,0,5.1,0.5,7,1.2l0.6-5.2c-2.1-0.8-5.4-1.3-8-1.3c-9.1,0-15,4.8-15,15.4
			C364,266.5,369.4,271.5,378.7,271.5"/>
		<path id="path3969" class="st0" d="M482.2,270.9h6.4v-29.6h-6.4v11.7h-9.5v-11.7h-6.4v29.6h6.4v-12.6h9.5V270.9z"/>
		<path id="path3973" class="st0" d="M456.3,270.9v-24.3h6.4v-5.3h-19.3v5.3h6.4v24.3H456.3z"/>
		<path id="path3977" class="st0" d="M428.4,258.3h10.5V253h-10.5v-6.5h12.3v-5.3h-18.7v29.6h19.1v-5.3h-12.7L428.4,258.3
			L428.4,258.3z"/>
		<path id="path3981" class="st0" d="M404.6,245.7c4,0,6,2.5,6,10.4c0,7.8-1.9,10.5-5.9,10.5c-4,0-6-2.6-6-10.5
			C398.7,248.2,400.6,245.7,404.6,245.7 M404.6,271.7c8.4,0,12.5-4.5,12.5-15.7c0-10.9-4.1-15.7-12.5-15.7s-12.5,4.7-12.5,15.7
			S396.4,271.7,404.6,271.7"/>
		<path id="path3985" class="st0" d="M513.9,265.6h-12.7v-7.3h10.5V253h-10.5v-6.5h12.3v-5.3h-18.7v29.6h19.1L513.9,265.6
			L513.9,265.6z"/>
		<path id="path3989" class="st0" d="M421.2,286.2h5.9v23.4h6.2v-23.4h5.9V281h-18V286.2z"/>
		<path id="path3991" class="st0" d="M372.4,309.6V281h-6.3v28.6H372.4z"/>
		<path id="path3995" class="st0" d="M487.5,299.7c0,3.3-1.1,5.1-4.2,5.1c-3.1,0-4.3-1.9-4.3-5.1V281h-6.2v18.9
			c0,6.9,3.5,10.2,10.5,10.2c6.9,0,10.4-3.3,10.4-10.2V281h-6.2L487.5,299.7L487.5,299.7z"/>
		<path id="path3999" class="st0" d="M409.2,288.7c0-1.5,0.8-2.9,3.9-2.9c2,0,3.7,0.5,5.4,1.3l0.7-5c-2-0.9-4-1.4-6.6-1.4
			c-6.6,0-9.4,3.8-9.4,8.7c0,9.2,11.4,7.4,11.4,12.5c0,2-1.2,3.3-3.8,3.3c-2.6,0-4.7-0.9-6.8-2.1l-0.8,5.1c2.2,1.3,4.9,2,7.9,2
			c6.2,0,9.7-3.4,9.7-9C420.6,291.6,409.2,293.1,409.2,288.7"/>
		<path id="path4003" class="st0" d="M393.1,297.7l-8.8-16.7h-5.7v28.6h5.7v-16.7l8.8,16.7h5.7V281h-5.7V297.7z"/>
		<path id="path4007" class="st0" d="M496.5,281v5.1h5.9v23.4h6.2v-23.4h5.9V281H496.5L496.5,281z"/>
		<path id="path4009" class="st0" d="M448.6,309.6V281h-6.3v28.6H448.6z"/>
		<path id="path4013" class="st0" d="M451.8,286.2h5.9v23.4h6.2v-23.4h5.9V281h-18V286.2z"/>
	</g>
</g>
</svg>
