<?xml version="1.0" encoding="utf-8"?>
<!-- Generator: Adobe Illustrator 26.5.0, SVG Export Plug-In . SVG Version: 6.00 Build 0)  -->
<svg version="1.1" id="Layer_1" xmlns="http://www.w3.org/2000/svg" xmlns:xlink="http://www.w3.org/1999/xlink" x="0px" y="0px"
	 viewBox="0 0 258.3 456.3" style="enable-background:new 0 0 258.3 456.3;" xml:space="preserve">
<style type="text/css">
	.st0{fill:#1D1D1B;}
	.st1{fill:#009ACE;}
</style>
<g id="Ebene_2">
	<g>
		<g>
			<path class="st0" d="M0,352.5h11.7c9.2,0,17,4.6,17,13.7c0,9.7-8.3,14.1-17.6,14.1H6.3v17H0.1L0,352.5z M6.2,375.1l4.9-0.1
				c4.1,0,11.1-1.5,11.1-8.8c0-7-6.8-8.6-10.4-8.6l-5.6-0.1V375.1z"/>
			<path class="st0" d="M33.4,374.3c0-2.8-0.1-5.5-0.4-8.1h5.6l0.3,8.1h0.4c1.1-4,4.5-8.6,9.1-8.6c1.7,0,3,0.4,4,0.9v5.3
				c-0.9-0.4-2.2-0.8-3.5-0.8c-5.9,0-9.2,5.8-9.6,12.4v13.8h-5.9V374.3z"/>
			<path class="st0" d="M69.8,365.3c10.7,0,15.3,9.4,15.3,16.4c0,8.3-5.4,16.6-15.3,16.6c-9.9,0-15.6-7.9-15.6-16.6
				C54.2,374.5,59,365.3,69.8,365.3z M69.7,393.9c4.8,0,9.3-3.8,9.3-12.3c0-7.9-4.3-11.9-9.3-11.9c-4,0-9.4,2.6-9.4,12
				C60.3,388.1,63.2,393.9,69.7,393.9z"/>
			<path class="st0" d="M87.8,366.1h5.1l1.1-9.3h4.6v9.3h8.8v4.5h-8.8v17.6c0,2.8,1.4,4.5,4.3,4.5c1.7,0,3.7-0.6,4.5-0.9v4.6
				c-1.1,0.7-3.1,1.6-5.2,1.6c-6,0-9.4-3.6-9.4-9.6v-17.6h-5L87.8,366.1z"/>
			<path class="st0" d="M126.1,365.3c10.7,0,15.3,9.4,15.3,16.4c0,8.3-5.4,16.6-15.3,16.6c-9.9,0-15.6-7.9-15.6-16.6
				C110.5,374.5,115.4,365.3,126.1,365.3z M126,393.9c4.8,0,9.3-3.8,9.3-12.3c0-7.9-4.3-11.9-9.3-11.9c-4,0-9.4,2.6-9.4,12
				C116.6,388.1,119.5,393.9,126,393.9z"/>
			<path class="st0" d="M144.2,366.1h5.1l1.1-9.3h4.6v9.3h8.8v4.5H155v17.6c0,2.8,1.4,4.5,4.3,4.5c1.7,0,3.7-0.6,4.5-0.9v4.6
				c-1.1,0.7-3.1,1.6-5.2,1.6c-6,0-9.4-3.6-9.4-9.6v-17.6h-5L144.2,366.1z"/>
			<path class="st0" d="M182.8,403.5c-1.9,4.8-5,6.3-8.8,6.3c-1.3,0-3-0.2-4.1-0.6v-5c0.9,0.3,2.5,0.6,3.4,0.6c2,0,3.2-0.7,4.1-2.5
				c0.6-1.3,1.6-4,1.9-5c0.3-1.4-0.6-2.2-1.8-2.1l-11.2-29h6.5l8.7,24.7h0.4l7.6-24.7h6.1C185,397.3,184.2,399.6,182.8,403.5z"/>
			<path class="st0" d="M205.3,409.2h-5.8v-38.5c0-1.3-0.1-3.4-0.1-4.6h5.5c0.1,1.2,0.1,3.5,0.1,4.7h0.4c2.1-3.2,5.1-5.2,9.2-5.2
				c8.6,0,13.3,7.6,13.3,16.3c0,9-4.8,16.3-13,16.3c-5.6,0-8.3-3.7-9.2-5h-0.4c0,0,0.1,2.2,0.1,4.2L205.3,409.2z M213.2,370.1
				c-4.3,0-7.6,4.5-7.9,7.8v7.5c0.1,3.4,3.2,8.3,8.1,8.3c5.7,0,8.3-5.4,8.3-11.8C221.7,374.8,218.9,370.1,213.2,370.1z"/>
			<path class="st0" d="M236.1,382.5c0.1,6.5,3.2,11.2,9.1,11.2c3.8,0,6.7-2.5,7.4-6h5.7c-0.7,5.1-5.3,10.5-13.5,10.5
				c-8.7,0-14.6-6.6-14.6-16.8c0-8.7,5.5-16.1,14.2-16.1c11.4,0,14.6,9.9,13.8,17.2L236.1,382.5L236.1,382.5z M252.5,378.2
				c0.1-3-1.6-8.6-7.9-8.6c-4.2,0-7.8,3-8.3,8.7L252.5,378.2z"/>
		</g>
		<g>
			<path class="st0" d="M0,411h25v5.3H6.4v14.8H24v5.2H6.4v19.5H0.1L0,411z"/>
			<path class="st0" d="M56.5,424.7v25.8c0,1.6,0.1,3.7,0.4,5.3h-6c-0.1-1.3-0.1-3.6-0.1-5.4h-0.4c-0.7,1.3-3.8,5.8-10.1,5.8
				c-4.2,0-10.6-2.3-10.6-11.7v-19.9h6v19.9c0,4.1,1.9,6.9,5.9,6.9c4.2,0,7.9-3.7,8.9-9.1v-17.7h6V424.7z"/>
			<path class="st0" d="M62.3,430c0-1.6-0.1-3.5-0.3-5.3h6v5.3h0.4c0.8-1.4,4.2-6,10.1-6c3.7,0,10.3,2,10.3,11.5v20.3h-6v-20.4
				c0-4.3-1.9-6.8-5.5-6.8c-4.3,0-7.9,4-9.1,9.1v18.1h-5.9V430z"/>
			<path class="st0" d="M114.9,411h5.8v40.2c0,1.3,0,3.4,0.1,4.6h-5.3c-0.1-1.3-0.1-3.2-0.1-4.6H115c-2.1,3.2-5.2,5.1-9.2,5.1
				c-8.7,0-13.5-7.6-13.5-16.3c0-9,4.8-16.3,13-16.3c5.6,0,8.3,3.7,9.2,5h0.4c0,0-0.1-2.1-0.1-4.2L114.9,411z M107.1,451.9
				c4.3,0,7.6-4.5,7.8-7.7v-7.6c-0.1-3.4-3.2-8.3-8.1-8.3c-5.7,0-8.3,5.4-8.3,11.8C98.6,447.2,101.4,451.9,107.1,451.9z"/>
		</g>
	</g>
	<path id="XMLID_19_" class="st1" d="M174.1,0.1l38.3,4.8l45.3,87L212.4,165c0,0-51.7,13.5-71.5,18.3H95.8v117.8l36.5,12.9
		l-0.9,12.6l-64.9-0.9l-65.1,0.9L0,314l36.8-12.9V25.3L0,12.6L1.4,0L174.1,0.1z M95.8,158.2l37.7,7.2l58.2-40.6l18-32.9l-18-33.1
		l-58.2-38.4l-37.7,5V158.2z"/>
</g>
<g id="Ebene_1">
</g>
</svg>
