<svg data-name="Ebene 1" xmlns="http://www.w3.org/2000/svg" width="300mm" height="175mm" viewBox="0 0 850.39 496.06"><path fill="#fff" d="M1.42 1.42h847.56v493.23H1.42z"/><path d="M0 0v496.06h850.39V0zm572.6 5.67h272.12V277.8H572.6zm-566.93 0h561.26V277.8H5.67zm839.05 484.72H5.67V283.46h839.05z"/><path d="M485.55 96v62.44c0 .81-.54 1.08-.95.27L449 95.47a2.38 2.38 0 00-2-1.08h-15.3a1.56 1.56 0 00-1.62 1.61v91.16a1.56 1.56 0 001.62 1.62h13.22a1.56 1.56 0 001.62-1.62v-62.3c0-.81.54-1.08.95-.27l35.63 63.11a2.38 2.38 0 002 1.08h15.28a1.57 1.57 0 001.62-1.62V96a1.57 1.57 0 00-1.62-1.62h-13.23a1.56 1.56 0 00-1.62 1.62m-95.36 92.78h13.36a1.56 1.56 0 001.62-1.62V96a1.56 1.56 0 00-1.62-1.62h-13.36a1.57 1.57 0 00-1.62 1.62v91.16a1.57 1.57 0 001.62 1.62m-53.28-16.45V96a1.57 1.57 0 00-1.62-1.62h-13.36a1.56 1.56 0 00-1.62 1.62v91.16a1.56 1.56 0 001.62 1.62h46a1.56 1.56 0 001.62-1.62v-12.4a1.56 1.56 0 00-1.62-1.62h-30.21a.77.77 0 01-.81-.8M249.61 110h12.29c10.93 0 19.7 5.8 19.7 17.8s-8.77 17.8-19.84 17.8h-12.15a.78.78 0 01-.8-.81v-34a.71.71 0 01.8-.8m31.32 78.75h17c1.35 0 1.76-.95.95-2l-20.25-27.37a.78.78 0 01.27-1.21c12-4.86 20-15.51 20-30.34 0-21-15.93-33.45-36.17-33.45h-28.91A1.57 1.57 0 00232.2 96v91.16a1.57 1.57 0 001.62 1.62h13.37a1.57 1.57 0 001.62-1.62v-25.07a.77.77 0 01.8-.81h10.26a1.66 1.66 0 011.08.54L279 187.71a2.16 2.16 0 001.89 1.08m-73.26-80.37V96a1.57 1.57 0 00-1.62-1.62h-49.09A1.57 1.57 0 00155.3 96v91.16a1.57 1.57 0 001.62 1.62h49.13a1.57 1.57 0 001.62-1.62v-12.4a1.57 1.57 0 00-1.62-1.62h-33.47a.77.77 0 01-.81-.8v-22.66a.78.78 0 01.81-.81h33.47a1.56 1.56 0 001.62-1.62V135a1.57 1.57 0 00-1.62-1.62h-33.47a.71.71 0 01-.81-.8v-21.74a.77.77 0 01.81-.8h33.47a1.57 1.57 0 001.62-1.62m-105.22 64.72H88.14a.77.77 0 01-.81-.8v-22.66a.72.72 0 01.81-.81h14.31c8.77 0 13.63 5 13.63 12.14s-4.86 12.13-13.63 12.13M101.1 110c8.5 0 13.22 4.58 13.22 11.59s-4.72 11.73-13.22 11.73h-13a.71.71 0 01-.81-.8v-21.68a.71.71 0 01.81-.8zm19.7 29.66a22.57 22.57 0 0010.8-19.82c0-14.43-10-25.49-28.34-25.49H72.48A1.56 1.56 0 0070.87 96v91.16a1.56 1.56 0 001.61 1.62h32c18.9 0 28.88-11.47 28.88-26.57 0-9.84-4.72-17.26-12.55-21.44-.54-.4-.54-.81 0-1.08" fill="#e40422"/><path d="M750.31 222.16s-4.95-32.87-7.3-46.73l1-.21a3.05 3.05 0 002-4.53c-5.56-9.69-7.57-21.69-7.57-33.69a64.34 64.34 0 013.56-21c.13-.38.27-.75.4-1.13l.28-.81a62 62 0 005-18.43 52.39 52.39 0 00-4.1-25.28l-.45-.8a6.59 6.59 0 00.86-8c-1.84-3.16-5.6-4.42-8.41-2.8-.29.17-1 .66-1.3.89-.51-.38-.81-.57-.81-.57s-.79-.52-1.47-.87c0 0-.26-.13-.26-.14a22.85 22.85 0 00-9.37-1.95 23.68 23.68 0 00-4.8.49 23.27 23.27 0 00-9.1 4.08 13.57 13.57 0 01-2.88.55l-3.8.18c-1.79.07-3.83 0-3.83 0a1.62 1.62 0 00-1.63 1.59c0 .08.59 5.3.59 5.32a4.27 4.27 0 001.79 3.25l.13.09a1.42 1.42 0 01.6.62 5.87 5.87 0 001.84 2.62c.26.16.67.08.74-.21.73-2.85 2.43.22 5.66-1.53.83-.45 1.27 1.57.92 2.45l-.3.76a5.1 5.1 0 01-4 3.18c-1.43.21-2.25.35-2.23.55.17 1.61 0 3 1.62 4a3.79 3.79 0 00.72.31c2.5.66 9.83 3.47.52 14.46a23.43 23.43 0 00-1.57 2 6 6 0 00-.51.89l-.2.39-28-10.47a6.41 6.41 0 01-2.45-2l-2.76-4.74a7.26 7.26 0 00-6.18-3.51 24.92 24.92 0 00-3.9 0c-.83 0-1.31.24-1.49.73a5.07 5.07 0 00.61 3.51l2.4 4.41c.21.31 3.24 7.09 3.24 7.09a5.14 5.14 0 001.51 2.14L694.36 121l-30.29 15.11a3.72 3.72 0 01-2.85.29l-2.71-.82c-5-2.21-8.69-.67-10.88 1.16l-.85.81a1.43 1.43 0 00.42 2.4s4.78 2.81 5.83 3.53l7.44 4.41a5.45 5.45 0 003.83.62l29.41-5.93a101.36 101.36 0 003.55 20.62 52.9 52.9 0 00-15 28.19c-1.43 7.94-1 15.13 1.2 23.59-4.11.23-8.07.83-11.36 3.12s-3.78 6.06-3.8 8l23 .05h1.94a3.29 3.29 0 003-2.44 15.48 15.48 0 00.43-2.38 51.59 51.59 0 015.39-17.6 58.19 58.19 0 019.15-12.65 91.22 91.22 0 0026 24.1 25.58 25.58 0 00-9.56 2.57 9.83 9.83 0 00-4.76 8.46h23.79a3.68 3.68 0 003.49-2.49 3.9 3.9 0 00.12-.46 2 2 0 000-.34 3.14 3.14 0 00.02-.76zM74.07 368a11.22 11.22 0 01-4.28-5.8v-.2a.48.48 0 01.34-.45l2.55-1.05a.63.63 0 01.26 0 .39.39 0 01.25.1.87.87 0 01.15.25 7.69 7.69 0 002.87 4.2 8.17 8.17 0 004.93 1.5 7.71 7.71 0 005.47-1.8 6.7 6.7 0 00.2-9.2 9.09 9.09 0 00-4.73-2.3l-2.54-.5a11.15 11.15 0 01-6.33-3.23 8.91 8.91 0 01-2.33-6.37 9.28 9.28 0 011.35-4.87 9.68 9.68 0 013.73-3.53 11.93 11.93 0 0111.92.63 10.84 10.84 0 014 5.27.25.25 0 01.06.2.49.49 0 01-.36.45L89 342.37a.5.5 0 01-.26.05.31.31 0 01-.24-.1.63.63 0 01-.16-.25 7.89 7.89 0 00-2.77-3.7 7 7 0 00-4.22-1.37 6.7 6.7 0 00-4.83 1.7 5.77 5.77 0 00-1.77 4.35 5.56 5.56 0 001.4 3.9 7 7 0 004.14 2l2.55.5a13.76 13.76 0 016.85 3.4 9 9 0 012.7 6.9 10.26 10.26 0 01-1.39 5.32 9.62 9.62 0 01-4 3.7 12.83 12.83 0 01-6 1.35 11.93 11.93 0 01-6.93-2.12zM102.77 368.32a10.59 10.59 0 01-4.17-4.27 14.38 14.38 0 010-12.73 10.64 10.64 0 014.05-4.25 11.27 11.27 0 015.78-1.5 11.13 11.13 0 015.72 1.5 10.61 10.61 0 014 4.12 12 12 0 011.46 5.93 10.81 10.81 0 010 1.15.48.48 0 01-.5.4H101.4c-.4 0-.55.22-.45.65a8.18 8.18 0 002.52 5.25 7.73 7.73 0 005.43 1.95 8.77 8.77 0 006.54-2.9c.37-.37.65-.43.86-.2l1.64 1.8c.24.2.24.42 0 .65a12.63 12.63 0 01-4.12 2.93 12.11 12.11 0 01-4.92 1 12.29 12.29 0 01-6.13-1.48zm12.92-13.15a7.55 7.55 0 00-2.47-4.57 7.09 7.09 0 00-4.82-1.73 7.18 7.18 0 00-4.88 1.78 7.43 7.43 0 00-2.48 4.57v.25c0 .2.16.3.49.3h13.75q.58 0 .41-.6zM128.5 369.27h-2.65a.44.44 0 01-.51-.5v-22.2a.45.45 0 01.51-.5h2.4a.44.44 0 01.49.5v1.65c0 .14 0 .22.13.25s.17 0 .28-.15a8.5 8.5 0 012.65-2.05 7.8 7.8 0 013.39-.7 7.56 7.56 0 015.75 2.15 7.66 7.66 0 012.06 5.5v15.55a.44.44 0 01-.5.5h-2.66c-.33 0-.49-.16-.49-.5v-14.95a5.12 5.12 0 00-1.25-3.72 4.84 4.84 0 00-3.6-1.28 5.49 5.49 0 00-3 .85 6.69 6.69 0 00-2.25 2.45 2.26 2.26 0 00-.25 1.05v15.6a.44.44 0 01-.5.5zM154.29 368.24a10.88 10.88 0 01-4.1-4.27 14.06 14.06 0 010-12.6 10.94 10.94 0 014.1-4.27 11.26 11.26 0 015.81-1.53 9.39 9.39 0 017.55 3.1.16.16 0 00.2.05.2.2 0 00.09-.2v-1.95a.45.45 0 01.51-.5h2.45a.44.44 0 01.5.5v22.2a.44.44 0 01-.5.5h-2.45a.45.45 0 01-.51-.5v-1.95a.2.2 0 00-.09-.2.17.17 0 00-.2.05 10.28 10.28 0 01-7.55 3.1 11.26 11.26 0 01-5.81-1.53zm10.55-2.77a6.12 6.12 0 002.7-2.7 1.87 1.87 0 00.21-.9v-8.4a1.93 1.93 0 00-.21-.9 6.87 6.87 0 00-2.77-2.7 8.51 8.51 0 00-4.12-1 7.81 7.81 0 00-6 2.43 10.09 10.09 0 000 12.75 7.81 7.81 0 006 2.42 8.62 8.62 0 004.19-1zM180.55 337l2.7-1.45a.57.57 0 01.24-.05c.24 0 .35.14.35.4v9.9c0 .17.08.25.26.25h2.74a.45.45 0 01.51.5v2.15a.45.45 0 01-.51.5h-2.74c-.18 0-.26.08-.26.25v19.3a.44.44 0 01-.5.5h-2.64a.44.44 0 01-.51-.5v-19.3a.22.22 0 00-.25-.25h-2.75a.44.44 0 01-.49-.5v-2.15a.44.44 0 01.49-.5h2.75a.22.22 0 00.25-.25v-8.2a.59.59 0 01.36-.6zM193.62 368.32a7.7 7.7 0 01-2.82-4l-.05-.2a.4.4 0 01.34-.4l2.41-.85.2-.05c.2 0 .35.13.44.4a4.46 4.46 0 001.73 2.5 4.65 4.65 0 002.73.9 4.55 4.55 0 003.2-1 3.45 3.45 0 001.09-2.63 3.07 3.07 0 00-1.07-2.5 6.45 6.45 0 00-3-1.25l-2-.4a6.83 6.83 0 01-4.05-2.27 6.77 6.77 0 01-.55-7.68 6.58 6.58 0 012.68-2.43 8.47 8.47 0 013.87-.87 7.64 7.64 0 014.68 1.43 7.33 7.33 0 012.67 4.07l.06.2c0 .2-.14.35-.41.45l-2.35.6-.19.05c-.21 0-.34-.13-.4-.4a4.5 4.5 0 00-1.43-2.35 4 4 0 00-2.63-.85 4.13 4.13 0 00-2.82 1 3.05 3.05 0 00-1.07 2.4 3 3 0 00.85 2.3 5 5 0 002.55 1.15l1.95.4a8.42 8.42 0 014.52 2.32 6.45 6.45 0 011.75 4.64 6.33 6.33 0 01-2.13 4.92 8.25 8.25 0 01-5.77 1.93 8.13 8.13 0 01-4.98-1.53zM226.34 346.07h2.81c.36 0 .49.18.39.55l-7.35 22.25a.62.62 0 01-.65.4h-3.85a.62.62 0 01-.65-.4l-7.35-22.25-.05-.2c0-.23.15-.35.46-.35h2.79a.58.58 0 01.6.4l5.95 18.45a.18.18 0 00.18.15.18.18 0 00.17-.15l6-18.45a.58.58 0 01.55-.4zM238.42 368.32a10.59 10.59 0 01-4.17-4.27 14.3 14.3 0 010-12.73 10.57 10.57 0 014.05-4.25 11.77 11.77 0 0111.5 0 10.68 10.68 0 014 4.12 12.06 12.06 0 011.45 5.93 8.66 8.66 0 01-.05 1.15.47.47 0 01-.49.4H237c-.4 0-.55.22-.45.65a8.19 8.19 0 002.53 5.25 7.7 7.7 0 005.42 1.95 8.78 8.78 0 006.55-2.9c.37-.37.65-.43.85-.2l1.65 1.8a.39.39 0 010 .65 12.74 12.74 0 01-4.12 2.93 12.13 12.13 0 01-4.93 1 12.28 12.28 0 01-6.08-1.48zm12.92-13.15a7.6 7.6 0 00-2.47-4.57 7.09 7.09 0 00-4.82-1.73 7.2 7.2 0 00-4.89 1.78 7.47 7.47 0 00-2.47 4.57l-.05.25c0 .2.17.3.5.3h13.75q.62 0 .45-.6zM271.79 345.62c.3 0 .45.17.45.5v2.65c0 .3-.11.45-.34.45a3.08 3.08 0 01-.73-.08 4.48 4.48 0 00-.68-.07A6.31 6.31 0 00265 352a2.16 2.16 0 00-.34 1.25v15.5a.45.45 0 01-.51.5h-2.65a.44.44 0 01-.5-.5v-22.2a.44.44 0 01.5-.5h2.4a.44.44 0 01.5.5v1.8c0 .14 0 .22.11.25s.15 0 .24-.1a7.82 7.82 0 016.31-2.95 4.31 4.31 0 01.73.07zM300.64 346.07h2.7a.48.48 0 01.38.15.52.52 0 01.08.4l-5.61 22.2c0 .3-.21.45-.55.45h-3.5a.62.62 0 01-.64-.55l-4.11-16a.18.18 0 00-.17-.15q-.12 0-.18.15l-4.09 16a.65.65 0 01-.66.55h-3.5a.52.52 0 01-.55-.45l-5.6-22.2v-.15c0-.27.16-.4.49-.4h2.7q.56 0 .6.45l4.16 17.55c0 .14.08.2.15.2s.11-.06.14-.2l4.5-17.55a.56.56 0 01.55-.45h2.65a.56.56 0 01.55.45l4.51 17.55c0 .14.08.2.15.2s.11-.06.15-.2l4.06-17.55a.55.55 0 01.64-.45zM313.14 368.24a10.85 10.85 0 01-4.09-4.27 14 14 0 010-12.6 10.92 10.92 0 014.09-4.27 11.25 11.25 0 015.8-1.53q4.9 0 7.55 3.1a.18.18 0 00.21.05.21.21 0 00.1-.2v-1.95a.44.44 0 01.5-.5h2.44a.45.45 0 01.51.5v22.2a.44.44 0 01-.51.5h-2.44a.44.44 0 01-.5-.5v-1.95a.21.21 0 00-.1-.2.19.19 0 00-.21.05 10.26 10.26 0 01-7.55 3.1 11.25 11.25 0 01-5.8-1.53zm10.55-2.77a6.12 6.12 0 002.7-2.7 1.87 1.87 0 00.2-.9v-8.4a1.92 1.92 0 00-.2-.9 6.87 6.87 0 00-2.77-2.7 8.53 8.53 0 00-4.13-1 7.79 7.79 0 00-6 2.43 10.09 10.09 0 000 12.75 7.79 7.79 0 006 2.42 8.63 8.63 0 004.2-1zM344.09 366.72V369a.44.44 0 01-.49.5h-.91a5.47 5.47 0 01-3.65-1.12 4.38 4.38 0 01-1.29-3.48v-31.3a.44.44 0 01.49-.5h2.65a.44.44 0 01.5.5v30.85c0 1.2.51 1.8 1.51 1.8h.7a.44.44 0 01.49.47zM351.19 337l2.7-1.45a.63.63 0 01.26-.05c.23 0 .34.14.34.4v9.9a.22.22 0 00.25.25h2.75a.44.44 0 01.5.5v2.15a.44.44 0 01-.5.5h-2.75a.22.22 0 00-.25.25v19.3c0 .34-.16.5-.49.5h-2.66a.44.44 0 01-.5-.5v-19.3c0-.17-.08-.25-.24-.25h-2.76a.44.44 0 01-.5-.5v-2.15a.44.44 0 01.5-.5h2.76c.16 0 .24-.08.24-.25v-8.2a.59.59 0 01.35-.6zM377.49 346.07h2.66a.44.44 0 01.49.5v22.2c0 .34-.16.5-.49.5h-2.41a.44.44 0 01-.5-.5v-1.65a.25.25 0 00-.12-.25c-.09 0-.19 0-.33.15a7.58 7.58 0 01-6 2.75 7.5 7.5 0 01-5.73-2.15 7.69 7.69 0 01-2-5.5v-15.55a.45.45 0 01.51-.5h2.64a.45.45 0 01.51.5v14.95a5.1 5.1 0 001.25 3.73 4.8 4.8 0 003.59 1.27 5.44 5.44 0 003-.85 6.61 6.61 0 002.25-2.45 2.27 2.27 0 00.26-1.05v-15.6a.44.44 0 01.42-.5zM391.39 369.27h-2.65a.44.44 0 01-.5-.5v-22.2a.44.44 0 01.5-.5h2.4a.45.45 0 01.51.5v1.65c0 .14 0 .22.12.25s.17 0 .27-.15a8.62 8.62 0 012.65-2.05 7.85 7.85 0 013.4-.7 7.23 7.23 0 017.8 7.65v15.55a.44.44 0 01-.5.5h-2.65a.44.44 0 01-.5-.5v-14.95a5.12 5.12 0 00-1.24-3.72 4.81 4.81 0 00-3.6-1.28 5.49 5.49 0 00-3 .85 6.86 6.86 0 00-2.25 2.45 2.39 2.39 0 00-.25 1.05v15.6a.44.44 0 01-.51.5zM417.74 378.54a11.58 11.58 0 01-3.9-2.77.48.48 0 010-.7l1.7-1.85a.58.58 0 01.35-.2.56.56 0 01.35.2 9.52 9.52 0 0012.25 1.38 6.06 6.06 0 001.95-4.93v-3.45a.23.23 0 00-.15-.25c-.1 0-.21 0-.35.15a9.91 9.91 0 01-7.19 2.65 11.22 11.22 0 01-5.66-1.45 10.23 10.23 0 01-4-4.1 12.37 12.37 0 01-1.46-6.1 11.87 11.87 0 011.5-6 10.59 10.59 0 014.08-4.08 11.39 11.39 0 015.72-1.45 9.53 9.53 0 017.25 2.8c.14.14.24.18.32.15s.13-.13.13-.3v-1.65a.51.51 0 01.5-.5h2.45a.44.44 0 01.5.5V370a8.65 8.65 0 01-3.08 7 12.22 12.22 0 01-8 2.53 12.68 12.68 0 01-5.26-.99zm9.75-14.07a7.2 7.2 0 002.75-2.55 1.6 1.6 0 00.25-.9v-7.75a1.5 1.5 0 00-.25-.9 7.2 7.2 0 00-2.75-2.55 8.38 8.38 0 00-4.05-.95 7.75 7.75 0 00-5.82 2.3 9.12 9.12 0 000 11.95 7.75 7.75 0 005.82 2.3 8.38 8.38 0 004.05-.95zM72.19 433.48v-19.3c0-.17-.08-.26-.25-.26h-2a.52.52 0 01-.34-.12.37.37 0 01-.15-.32v-2.2c0-.34.16-.5.49-.5h2a.22.22 0 00.25-.25v-7.41a6.24 6.24 0 011.41-4.32 5 5 0 014-1.57 7 7 0 012.75.64c.3.18.42.37.36.61l-.7 2.35c-.11.3-.33.36-.66.2a3.22 3.22 0 00-1.45-.4 1.8 1.8 0 00-1.5.7 3.2 3.2 0 00-.54 2v7.2a.22.22 0 00.25.25h3.09a.45.45 0 01.51.5v2.2a.39.39 0 01-.15.32.58.58 0 01-.36.12h-3.1c-.17 0-.25.09-.25.26v19.3a.56.56 0 01-.13.35.4.4 0 01-.33.15h-2.7a.44.44 0 01-.5-.5zM98.94 410.78h2.65a.44.44 0 01.5.5v22.2a.44.44 0 01-.5.5h-2.4a.44.44 0 01-.5-.5v-1.66q0-.19-.12-.24c-.09 0-.19 0-.33.15a7.58 7.58 0 01-6 2.75 7.5 7.5 0 01-5.73-2.15 7.72 7.72 0 01-2-5.5v-15.55a.44.44 0 01.51-.5h2.64a.45.45 0 01.51.5v15a5.07 5.07 0 001.18 3.72 4.78 4.78 0 003.59 1.28 5.44 5.44 0 003-.85 6.69 6.69 0 002.25-2.45 2.27 2.27 0 00.26-1.05v-15.6c0-.39.16-.55.49-.55zm-12.45-6.23a2.69 2.69 0 01-.8-1.92 2.69 2.69 0 014.6-1.9 2.57 2.57 0 01.8 1.9 2.65 2.65 0 01-.8 1.92 2.55 2.55 0 01-1.9.83 2.58 2.58 0 01-1.9-.83zm9.85 0a2.69 2.69 0 01-.8-1.92 2.7 2.7 0 015.4 0 2.68 2.68 0 01-.79 1.92 2.6 2.6 0 01-3.81 0zM120.49 410.33c.3 0 .45.17.45.5v2.65c0 .3-.11.44-.35.44a3.65 3.65 0 01-.72-.07 3.47 3.47 0 00-.67-.07 6.31 6.31 0 00-5.51 3 2.11 2.11 0 00-.35 1.24v15.51a.44.44 0 01-.5.5h-2.65a.44.44 0 01-.5-.5v-22.2a.44.44 0 01.5-.5h2.4a.45.45 0 01.51.5v1.79c0 .14 0 .22.09.26s.15 0 .25-.1a7.8 7.8 0 016.3-3 3.64 3.64 0 01.75.05zM141.44 434h-2.7a.44.44 0 01-.5-.5v-34a.44.44 0 01.5-.5h2.7a.44.44 0 01.5.5v16.6c0 .1 0 .15.1.17s.13 0 .2-.13l12.1-16.84a.68.68 0 01.6-.3h3.3a.42.42 0 01.4.17c.07.12 0 .26-.09.42l-10.31 14.21a.76.76 0 00-.05.7L159 433.38a.69.69 0 01.1.3c0 .2-.15.3-.44.3h-3.21a.63.63 0 01-.55-.35l-9.2-16.16c0-.09-.08-.14-.15-.14a.29.29 0 00-.2.1l-3.21 4.57a1 1 0 00-.2.65v10.85a.44.44 0 01-.5.5zM177.19 410.78h2.65a.44.44 0 01.5.5v22.2a.44.44 0 01-.5.5h-2.4a.44.44 0 01-.5-.5v-1.66a.23.23 0 00-.13-.24c-.08 0-.19 0-.32.15a7.6 7.6 0 01-6.05 2.75 7.48 7.48 0 01-5.72-2.15 7.72 7.72 0 01-2-5.5v-15.55a.44.44 0 01.5-.5h2.65a.44.44 0 01.5.5v15a5.07 5.07 0 001.25 3.72 4.81 4.81 0 003.6 1.28 5.49 5.49 0 003-.85 6.77 6.77 0 002.25-2.45 2.26 2.26 0 00.25-1.05v-15.6a.44.44 0 01.47-.55zM194.14 431.43v2.25a.44.44 0 01-.5.5h-.9a5.45 5.45 0 01-3.66-1.13 4.35 4.35 0 01-1.29-3.47v-31.3a.44.44 0 01.5-.5h2.64a.44.44 0 01.51.5v30.84c0 1.21.5 1.81 1.5 1.81h.7a.44.44 0 01.5.5zM201.24 401.73l2.7-1.45a.62.62 0 01.25 0c.23 0 .35.13.35.4v9.9a.22.22 0 00.25.25h2.75a.44.44 0 01.5.5v2.14a.44.44 0 01-.5.5h-2.75c-.17 0-.25.09-.25.26v19.3a.44.44 0 01-.5.5h-2.65a.44.44 0 01-.5-.5v-19.3a.23.23 0 00-.25-.26h-2.75a.44.44 0 01-.5-.5v-2.14a.44.44 0 01.5-.5h2.75a.22.22 0 00.25-.25v-8.2a.59.59 0 01.35-.65zM227.54 410.78h2.65a.44.44 0 01.5.5v22.2a.44.44 0 01-.5.5h-2.4a.44.44 0 01-.5-.5v-1.66c0-.13 0-.21-.13-.24s-.19 0-.32.15a7.6 7.6 0 01-6.05 2.75 7.48 7.48 0 01-5.72-2.15 7.72 7.72 0 01-2-5.5v-15.55a.44.44 0 01.5-.5h2.65a.44.44 0 01.5.5v15a5.12 5.12 0 001.25 3.72 4.81 4.81 0 003.6 1.28 5.49 5.49 0 003-.85 6.77 6.77 0 002.25-2.45 2.26 2.26 0 00.25-1.05v-15.6a.44.44 0 01.47-.55zM249.09 410.33c.3 0 .45.17.45.5v2.65c0 .3-.12.44-.35.44a3.68 3.68 0 01-.73-.07 3.39 3.39 0 00-.67-.07 6.28 6.28 0 00-5.5 3 2 2 0 00-.35 1.24v15.51a.44.44 0 01-.5.5h-2.66a.44.44 0 01-.49-.5v-22.2c0-.34.16-.5.49-.5h2.41a.44.44 0 01.5.5v1.79c0 .14 0 .22.1.26s.15 0 .25-.1a7.8 7.8 0 016.3-3 3.64 3.64 0 01.75.05zM279.94 410.78h2.65a.44.44 0 01.5.5v22.2a.44.44 0 01-.5.5h-2.4a.44.44 0 01-.5-.5v-1.66c0-.13 0-.21-.13-.24s-.19 0-.32.15a7.62 7.62 0 01-6.05 2.75 7.52 7.52 0 01-5.73-2.15 7.76 7.76 0 01-2-5.5v-15.55a.44.44 0 01.5-.5h2.65a.44.44 0 01.5.5v15a5.12 5.12 0 001.25 3.72 4.81 4.81 0 003.6 1.28 5.49 5.49 0 003-.85 6.77 6.77 0 002.25-2.45 2.39 2.39 0 00.25-1.05v-15.6a.44.44 0 01.48-.55zM293.84 434h-2.65a.44.44 0 01-.5-.5v-22.2a.44.44 0 01.5-.5h2.4a.44.44 0 01.5.5v1.64c0 .14 0 .22.12.26s.18 0 .27-.15a8.5 8.5 0 012.66-2 7.67 7.67 0 013.4-.7 7.52 7.52 0 015.74 2.15 7.62 7.62 0 012.06 5.5v15.55a.45.45 0 01-.51.5h-2.64a.44.44 0 01-.5-.5v-15a5.09 5.09 0 00-1.26-3.73 4.78 4.78 0 00-3.59-1.27 5.44 5.44 0 00-3 .85 6.61 6.61 0 00-2.25 2.45 2.27 2.27 0 00-.26 1.05v15.6a.44.44 0 01-.49.5zM333.59 397.78h2.64a.44.44 0 01.51.5v35.2a.45.45 0 01-.51.5h-2.44a.44.44 0 01-.5-.5v-1.75c0-.17 0-.26-.13-.28s-.19.05-.33.18c-1.7 1.89-4.16 2.85-7.4 2.85a11.25 11.25 0 01-5.8-1.53 10.92 10.92 0 01-4.09-4.27 14 14 0 010-12.6 11 11 0 014.09-4.28 11.34 11.34 0 015.8-1.52 10 10 0 017.21 2.64c.13.14.24.19.32.15s.13-.13.13-.29v-14.5a.44.44 0 01.5-.5zm-3.5 32.4a7.42 7.42 0 002.8-2.7 1.85 1.85 0 00.2-.8v-8.6a1.79 1.79 0 00-.2-.8 7.34 7.34 0 00-2.8-2.7 8.27 8.27 0 00-4.1-1 7.81 7.81 0 00-6 2.42 10.09 10.09 0 000 12.75 7.81 7.81 0 006 2.43 8.38 8.38 0 004.1-1zM358.74 399h17a.44.44 0 01.5.5v2.5a.44.44 0 01-.5.5h-13.55c-.17 0-.25.08-.25.24v11.36a.22.22 0 00.25.25h13.59a.44.44 0 01.5.5v2.55a.44.44 0 01-.5.5h-13.59a.22.22 0 00-.25.25v12a.22.22 0 00.25.25h13.59a.44.44 0 01.5.5v2.55a.44.44 0 01-.5.5h-17a.44.44 0 01-.5-.5v-34a.44.44 0 01.46-.45zM397.18 410.78h2.66a.44.44 0 01.5.5v22.2a.44.44 0 01-.5.5h-2.4a.44.44 0 01-.5-.5v-1.66c0-.13 0-.21-.13-.24s-.19 0-.33.15a7.58 7.58 0 01-6 2.75 7.5 7.5 0 01-5.73-2.15 7.72 7.72 0 01-2-5.5v-15.55a.44.44 0 01.51-.5h2.64a.44.44 0 01.51.5v15a5.07 5.07 0 001.25 3.72 4.81 4.81 0 003.6 1.28 5.43 5.43 0 003-.85 6.71 6.71 0 002.26-2.45 2.39 2.39 0 00.25-1.05v-15.6c-.08-.39.08-.55.41-.55zM418.74 410.33c.3 0 .44.17.44.5v2.65c0 .3-.11.44-.35.44a3.65 3.65 0 01-.72-.07 3.47 3.47 0 00-.67-.07 6.28 6.28 0 00-5.5 3 2 2 0 00-.36 1.24v15.51a.44.44 0 01-.5.5h-2.65a.44.44 0 01-.49-.5v-22.2c0-.34.16-.5.49-.5h2.4a.44.44 0 01.51.5v1.79c0 .14 0 .22.1.26s.14 0 .24-.1a7.81 7.81 0 016.3-3 3.75 3.75 0 01.76.05zM427 432.85a11.61 11.61 0 01-4.2-4.4 12.9 12.9 0 010-12.15 11.68 11.68 0 014.2-4.4 11.83 11.83 0 0111.95 0 11.68 11.68 0 014.2 4.4 12.9 12.9 0 010 12.15 11.61 11.61 0 01-4.2 4.4 11.77 11.77 0 01-11.95 0zm10.1-2.9a8 8 0 002.85-3.18 10 10 0 000-8.8 8 8 0 00-2.85-3.17 7.86 7.86 0 00-8.25 0A8 8 0 00426 418a10 10 0 000 8.8 8 8 0 002.85 3.18 7.8 7.8 0 008.25 0zM453.78 443.82h-2.64a.44.44 0 01-.51-.5v-32a.44.44 0 01.51-.5h2.4c.33 0 .49.16.49.5V413c0 .16.05.26.13.27s.19 0 .32-.17c1.67-1.91 4.13-2.85 7.4-2.85a11.45 11.45 0 015.86 1.52 11 11 0 014.09 4.28 14 14 0 010 12.6 10.92 10.92 0 01-4.09 4.27 11.36 11.36 0 01-5.86 1.53 9.66 9.66 0 01-7.15-2.66c-.13-.13-.24-.17-.32-.15s-.13.14-.13.31v11.34a.44.44 0 01-.5.53zm13.58-15.07a10.09 10.09 0 000-12.75 7.81 7.81 0 00-6-2.42 8.91 8.91 0 00-4.2 1 6 6 0 00-2.7 2.73 1.79 1.79 0 00-.2.8v8.6a1.85 1.85 0 00.2.8 6.07 6.07 0 002.7 2.72 8.91 8.91 0 004.2 1 7.81 7.81 0 006-2.48zM483.24 433a10.9 10.9 0 01-4.11-4.27 14 14 0 010-12.6 10.93 10.93 0 014.11-4.28 11.29 11.29 0 015.8-1.52 9.39 9.39 0 017.55 3.1.14.14 0 00.19 0c.07 0 .1-.09.1-.19v-2a.44.44 0 01.5-.5h2.46c.33 0 .49.16.49.5v22.2a.44.44 0 01-.49.5h-2.46a.44.44 0 01-.5-.5v-2a.22.22 0 00-.1-.21.17.17 0 00-.19.06 10.32 10.32 0 01-7.55 3.1 11.2 11.2 0 01-5.8-1.39zm10.54-2.77a6.17 6.17 0 002.7-2.7 1.92 1.92 0 00.2-.9v-8.4a1.87 1.87 0 00-.2-.9 6.8 6.8 0 00-2.77-2.7 8.42 8.42 0 00-4.13-1 7.8 7.8 0 00-6 2.42 10.05 10.05 0 000 12.75 7.81 7.81 0 006 2.43 8.75 8.75 0 004.2-1.05z"/></svg>