<svg data-name="Ebene 1" xmlns="http://www.w3.org/2000/svg" viewBox="0 0 850.39 496.06"><path fill="#fff" d="M1.42 1.42h847.56v493.23H1.42z"/><path d="M0 0v496.06h850.39V0zm572.6 5.67h272.12V277.8H572.6zm-566.93 0h561.26V277.8H5.67zm839.05 484.72H5.67V283.46h839.05z" fill="#1d1d1b"/><path d="M485.55 96v62.44c0 .81-.54 1.08-.95.27L449 95.47a2.38 2.38 0 00-2-1.08h-15.3a1.56 1.56 0 00-1.62 1.61v91.16a1.56 1.56 0 001.62 1.62h13.22a1.56 1.56 0 001.62-1.62v-62.3c0-.81.54-1.08.95-.27l35.63 63.11a2.38 2.38 0 002 1.08h15.28a1.57 1.57 0 001.62-1.62V96a1.57 1.57 0 00-1.62-1.62h-13.23a1.56 1.56 0 00-1.62 1.62m-95.36 92.78h13.36a1.56 1.56 0 001.62-1.62V96a1.56 1.56 0 00-1.62-1.62h-13.36a1.57 1.57 0 00-1.62 1.62v91.16a1.57 1.57 0 001.62 1.62m-53.28-16.45V96a1.57 1.57 0 00-1.62-1.62h-13.36a1.56 1.56 0 00-1.62 1.62v91.16a1.56 1.56 0 001.62 1.62h46a1.56 1.56 0 001.62-1.62v-12.4a1.56 1.56 0 00-1.62-1.62h-30.21a.77.77 0 01-.81-.8M249.61 110h12.29c10.93 0 19.7 5.8 19.7 17.8s-8.77 17.8-19.84 17.8h-12.15a.78.78 0 01-.8-.81v-34a.71.71 0 01.8-.8m31.32 78.75h17c1.35 0 1.76-.95.95-2l-20.25-27.37a.78.78 0 01.27-1.21c12-4.86 20-15.51 20-30.34 0-21-15.93-33.45-36.17-33.45h-28.91A1.57 1.57 0 00232.2 96v91.16a1.57 1.57 0 001.62 1.62h13.37a1.57 1.57 0 001.62-1.62v-25.07a.77.77 0 01.8-.81h10.26a1.66 1.66 0 011.08.54L279 187.71a2.16 2.16 0 001.89 1.08m-73.26-80.37V96a1.57 1.57 0 00-1.62-1.62h-49.09A1.57 1.57 0 00155.3 96v91.16a1.57 1.57 0 001.62 1.62h49.13a1.57 1.57 0 001.62-1.62v-12.4a1.57 1.57 0 00-1.62-1.62h-33.47a.77.77 0 01-.81-.8v-22.66a.78.78 0 01.81-.81h33.47a1.56 1.56 0 001.62-1.62V135a1.57 1.57 0 00-1.62-1.62h-33.47a.71.71 0 01-.81-.8v-21.74a.77.77 0 01.81-.8h33.47a1.57 1.57 0 001.62-1.62m-105.22 64.72H88.14a.77.77 0 01-.81-.8v-22.66a.72.72 0 01.81-.81h14.31c8.77 0 13.63 5 13.63 12.14s-4.86 12.13-13.63 12.13M101.1 110c8.5 0 13.22 4.58 13.22 11.59s-4.72 11.73-13.22 11.73h-13a.71.71 0 01-.81-.8v-21.68a.71.71 0 01.81-.8zm19.7 29.66a22.57 22.57 0 0010.8-19.82c0-14.43-10-25.49-28.34-25.49H72.48A1.56 1.56 0 0070.87 96v91.16a1.56 1.56 0 001.61 1.62h32c18.9 0 28.88-11.47 28.88-26.57 0-9.84-4.72-17.26-12.55-21.44-.54-.4-.54-.81 0-1.08" fill="#e40422"/><path d="M750.31 222.16s-4.95-32.87-7.3-46.73l1-.21a3.05 3.05 0 002-4.53c-5.56-9.69-7.57-21.69-7.57-33.69a64.34 64.34 0 013.56-21c.13-.38.27-.75.4-1.13l.28-.81a62 62 0 005-18.43 52.39 52.39 0 00-4.1-25.28l-.45-.8a6.59 6.59 0 00.86-8c-1.84-3.16-5.6-4.42-8.41-2.8-.29.17-1 .66-1.3.89-.51-.38-.81-.57-.81-.57s-.79-.52-1.47-.87c0 0-.26-.13-.26-.14a22.85 22.85 0 00-9.37-1.95 23.68 23.68 0 00-4.8.49 23.27 23.27 0 00-9.1 4.08 13.57 13.57 0 01-2.88.55l-3.8.18c-1.79.07-3.83 0-3.83 0a1.62 1.62 0 00-1.63 1.59c0 .08.59 5.3.59 5.32a4.27 4.27 0 001.79 3.25l.13.09a1.42 1.42 0 01.6.62 5.87 5.87 0 001.84 2.62c.26.16.67.08.74-.21.73-2.85 2.43.22 5.66-1.53.83-.45 1.27 1.57.92 2.45l-.3.76a5.1 5.1 0 01-4 3.18c-1.43.21-2.25.35-2.23.55.17 1.61 0 3 1.62 4a3.79 3.79 0 00.72.31c2.5.66 9.83 3.47.52 14.46a23.43 23.43 0 00-1.57 2 6 6 0 00-.51.89l-.2.39-28-10.47a6.41 6.41 0 01-2.45-2l-2.76-4.74a7.26 7.26 0 00-6.18-3.51 24.92 24.92 0 00-3.9 0c-.83 0-1.31.24-1.49.73a5.07 5.07 0 00.61 3.51l2.4 4.41c.21.31 3.24 7.09 3.24 7.09a5.14 5.14 0 001.51 2.14L694.36 121l-30.29 15.11a3.72 3.72 0 01-2.85.29l-2.71-.82c-5-2.21-8.69-.67-10.88 1.16l-.85.81a1.43 1.43 0 00.42 2.4s4.78 2.81 5.83 3.53l7.44 4.41a5.45 5.45 0 003.83.62l29.41-5.93a101.36 101.36 0 003.55 20.62 52.9 52.9 0 00-15 28.19c-1.43 7.94-1 15.13 1.2 23.59-4.11.23-8.07.83-11.36 3.12s-3.78 6.06-3.8 8l23 .05h1.94a3.29 3.29 0 003-2.44 15.48 15.48 0 00.43-2.38 51.59 51.59 0 015.39-17.6 58.19 58.19 0 019.15-12.65 91.22 91.22 0 0026 24.1 25.58 25.58 0 00-9.56 2.57 9.83 9.83 0 00-4.76 8.46h23.79a3.68 3.68 0 003.49-2.49 3.9 3.9 0 00.12-.46 2 2 0 000-.34 3.14 3.14 0 00.02-.76z" fill="#020a0a"/><path d="M74.07 367.67a11.22 11.22 0 01-4.28-5.8v-.2a.48.48 0 01.35-.45l2.55-1.05a.58.58 0 01.25-.05.39.39 0 01.25.1.87.87 0 01.15.25 7.69 7.69 0 002.87 4.2 8.19 8.19 0 004.93 1.5 7.71 7.71 0 005.47-1.8 6.7 6.7 0 00.2-9.2 9.09 9.09 0 00-4.72-2.3l-2.55-.5a11.18 11.18 0 01-6.33-3.23 8.91 8.91 0 01-2.33-6.37 9.28 9.28 0 011.35-4.87 9.82 9.82 0 013.73-3.53 11.95 11.95 0 0111.93.63 11 11 0 014 5.27.3.3 0 01.05.2.49.49 0 01-.35.45L89 342a.49.49 0 01-.25.05.32.32 0 01-.25-.1.53.53 0 01-.15-.25 8 8 0 00-2.78-3.7 7 7 0 00-4.17-1.35 6.7 6.7 0 00-4.83 1.7 5.76 5.76 0 00-1.77 4.35 5.56 5.56 0 001.4 3.9 7 7 0 004.14 2.05l2.55.5a13.83 13.83 0 016.86 3.4 9 9 0 012.7 6.9 10.19 10.19 0 01-1.45 5.27 9.62 9.62 0 01-4 3.7 12.79 12.79 0 01-6 1.35 11.94 11.94 0 01-6.93-2.1zM102.77 368a10.55 10.55 0 01-4.17-4.28 14.36 14.36 0 010-12.72 10.71 10.71 0 014.05-4.25 11.3 11.3 0 015.78-1.5 11.13 11.13 0 015.72 1.5 10.61 10.61 0 014 4.12 12 12 0 011.46 5.93 10.81 10.81 0 010 1.15.48.48 0 01-.5.4H101.4c-.4 0-.55.22-.45.65a8.18 8.18 0 002.52 5.25 7.73 7.73 0 005.43 1.95 8.77 8.77 0 006.54-2.9c.37-.37.66-.43.86-.2l1.65 1.8a.39.39 0 010 .65 12.78 12.78 0 01-4.13 2.93 12.11 12.11 0 01-4.92 1 12.32 12.32 0 01-6.13-1.48zm12.93-13.15a7.62 7.62 0 00-2.48-4.57 7.06 7.06 0 00-4.82-1.73 7.18 7.18 0 00-4.88 1.78 7.42 7.42 0 00-2.47 4.57v.25c0 .2.16.3.5.3h13.75q.55-.03.4-.63zM128.5 368.92h-2.65a.44.44 0 01-.5-.5v-22.2a.44.44 0 01.5-.5h2.4a.44.44 0 01.5.5v1.65c0 .14 0 .22.12.25s.18 0 .28-.15a8.5 8.5 0 012.65-2.05 7.8 7.8 0 013.39-.7 7.56 7.56 0 015.75 2.15 7.66 7.66 0 012.06 5.5v15.55a.44.44 0 01-.5.5h-2.65a.44.44 0 01-.5-.5v-14.95a5.12 5.12 0 00-1.25-3.72 4.84 4.84 0 00-3.6-1.28 5.49 5.49 0 00-3 .85 6.77 6.77 0 00-2.25 2.45 2.26 2.26 0 00-.25 1.05v15.6a.44.44 0 01-.5.5zM154.29 367.89a10.92 10.92 0 01-4.09-4.27 14 14 0 010-12.6 11 11 0 014.09-4.27 11.28 11.28 0 015.81-1.53 9.38 9.38 0 017.55 3.1.16.16 0 00.2.05c.07 0 .1-.1.1-.2v-1.95a.44.44 0 01.5-.5h2.45a.44.44 0 01.5.5v22.2a.44.44 0 01-.5.5h-2.45a.44.44 0 01-.5-.5v-1.95c0-.1 0-.17-.1-.2a.17.17 0 00-.2.05 10.28 10.28 0 01-7.55 3.1 11.28 11.28 0 01-5.81-1.53zm10.56-2.77a6.23 6.23 0 002.7-2.7 2 2 0 00.2-.9v-8.4a2 2 0 00-.2-.9 6.89 6.89 0 00-2.78-2.7 8.51 8.51 0 00-4.12-1 7.81 7.81 0 00-6 2.43 10.07 10.07 0 000 12.74 7.81 7.81 0 006 2.43 8.69 8.69 0 004.2-1zM180.55 336.67l2.7-1.45a.57.57 0 01.24-.05c.24 0 .35.14.35.4v9.9c0 .17.09.25.26.25h2.75a.44.44 0 01.5.5v2.15a.44.44 0 01-.5.5h-2.75c-.17 0-.26.08-.26.25v19.3a.44.44 0 01-.5.5h-2.64a.44.44 0 01-.5-.5v-19.3c0-.17-.09-.25-.26-.25h-2.74a.44.44 0 01-.5-.5v-2.15a.44.44 0 01.5-.5h2.74c.17 0 .26-.08.26-.25v-8.2a.58.58 0 01.35-.6zM196.37 368a10.55 10.55 0 01-4.17-4.28 14.36 14.36 0 010-12.72 10.57 10.57 0 014.05-4.25 11.77 11.77 0 0111.5 0 10.71 10.71 0 014 4.12 12.16 12.16 0 011.44 5.93 11.37 11.37 0 010 1.15.48.48 0 01-.5.4H195c-.4 0-.55.22-.44.65a8.18 8.18 0 002.52 5.25 7.73 7.73 0 005.43 1.95 8.81 8.81 0 006.55-2.9c.36-.37.64-.43.85-.2l1.64 1.8c.24.2.24.42 0 .65a12.74 12.74 0 01-4.12 2.93 12.11 12.11 0 01-4.92 1 12.29 12.29 0 01-6.14-1.48zm12.92-13.15a7.55 7.55 0 00-2.47-4.57 7.09 7.09 0 00-4.82-1.73 7.18 7.18 0 00-4.88 1.78 7.43 7.43 0 00-2.48 4.57v.25c0 .2.17.3.5.3h13.75q.57-.03.4-.63zM252.59 336.07a15.05 15.05 0 016 6.12 20.78 20.78 0 010 18.45 15 15 0 01-6 6.13 17.76 17.76 0 01-8.8 2.15h-10.45a.44.44 0 01-.5-.5v-34a.44.44 0 01.5-.5h10.45a17.76 17.76 0 018.8 2.15zm-15.8 29.3h6.85a14.28 14.28 0 006.85-1.6 11.18 11.18 0 004.68-4.75 18 18 0 000-15.2 11.23 11.23 0 00-4.68-4.75 14.4 14.4 0 00-6.85-1.6h-6.85a.22.22 0 00-.25.25v27.4a.22.22 0 00.25.25zM271.17 368a10.55 10.55 0 01-4.17-4.28 14.36 14.36 0 010-12.72 10.57 10.57 0 014-4.25 11.77 11.77 0 0111.5 0 10.61 10.61 0 014 4.12 12.06 12.06 0 011.45 5.93v1.15a.48.48 0 01-.5.4h-17.66c-.4 0-.55.22-.44.65a8.13 8.13 0 002.52 5.25 7.73 7.73 0 005.43 1.95 8.79 8.79 0 006.54-2.9c.37-.37.65-.43.85-.2l1.65 1.8c.24.2.24.42 0 .65a12.74 12.74 0 01-4.12 2.93 12.15 12.15 0 01-4.92 1 12.29 12.29 0 01-6.13-1.48zm12.92-13.15a7.55 7.55 0 00-2.47-4.57 7.58 7.58 0 00-9.7.05 7.43 7.43 0 00-2.48 4.57l-.05.25c0 .2.17.3.5.3h13.75c.41-.03.55-.23.45-.63zM296.9 378.77h-2.66a.44.44 0 01-.5-.5v-32a.44.44 0 01.5-.5h2.4a.44.44 0 01.5.5V348c0 .17 0 .26.13.28s.19-.05.32-.18q2.51-2.85 7.41-2.85a11.29 11.29 0 015.84 1.53A10.9 10.9 0 01315 351a14.06 14.06 0 010 12.6 10.83 10.83 0 01-4.11 4.27 11.29 11.29 0 01-5.84 1.53 9.66 9.66 0 01-7.16-2.65c-.13-.13-.24-.18-.32-.15s-.12.14-.12.3v11.35a.44.44 0 01-.55.52zm13.57-15.08a10 10 0 000-12.74 7.81 7.81 0 00-6-2.43 9 9 0 00-4.21 1 6.09 6.09 0 00-2.7 2.73 1.84 1.84 0 00-.19.8v8.6a1.77 1.77 0 00.19.8 6.09 6.09 0 002.7 2.73 8.92 8.92 0 004.21 1 7.81 7.81 0 006-2.49zM326.34 367.89a10.85 10.85 0 01-4.09-4.27 14 14 0 010-12.6 10.92 10.92 0 014.09-4.27 11.25 11.25 0 015.8-1.53q4.91 0 7.55 3.1a.16.16 0 00.2.05.2.2 0 00.11-.2v-1.95a.44.44 0 01.5-.5h2.44a.44.44 0 01.5.5v22.2a.44.44 0 01-.5.5h-2.44a.44.44 0 01-.5-.5v-1.95a.2.2 0 00-.11-.2.18.18 0 00-.2.05 10.26 10.26 0 01-7.55 3.1 11.25 11.25 0 01-5.8-1.53zm10.55-2.77a6.12 6.12 0 002.7-2.7 1.87 1.87 0 00.21-.9v-8.4a1.93 1.93 0 00-.21-.9 6.87 6.87 0 00-2.77-2.7 8.51 8.51 0 00-4.12-1 7.81 7.81 0 00-6 2.43 10.07 10.07 0 000 12.74 7.81 7.81 0 006 2.43 8.62 8.62 0 004.19-1zM361.89 345.27c.3 0 .45.17.45.5v2.65c0 .3-.11.45-.35.45a3.05 3.05 0 01-.72-.08 4.49 4.49 0 00-.67-.07 6.33 6.33 0 00-5.51 2.95 2.14 2.14 0 00-.35 1.25v15.5a.44.44 0 01-.5.5h-2.65c-.33 0-.49-.16-.49-.5v-22.2a.44.44 0 01.49-.5H354a.44.44 0 01.5.5V348c0 .14 0 .22.09.25s.15 0 .26-.1a7.78 7.78 0 016.29-2.95 4.36 4.36 0 01.75.07zM368.5 336.67l2.7-1.45a.54.54 0 01.24-.05c.24 0 .35.14.35.4v9.9c0 .17.09.25.26.25h2.75a.44.44 0 01.5.5v2.15a.44.44 0 01-.5.5h-2.75c-.17 0-.26.08-.26.25v19.3a.44.44 0 01-.5.5h-2.65a.44.44 0 01-.5-.5v-19.3a.22.22 0 00-.25-.25h-2.74a.44.44 0 01-.5-.5v-2.15a.44.44 0 01.5-.5h2.74a.22.22 0 00.25-.25v-8.2a.59.59 0 01.36-.6zM383.75 368.92h-2.66a.44.44 0 01-.5-.5v-22.2a.44.44 0 01.5-.5h2.4a.44.44 0 01.5.5v1.65c0 .14 0 .22.13.25s.17 0 .28-.15a7.57 7.57 0 016-2.75 8.49 8.49 0 014.13.95 7.16 7.16 0 012.72 2.6c.14.24.31.24.5 0a11.82 11.82 0 012.95-2.62 7.21 7.21 0 013.76-.93 7.49 7.49 0 015.72 2.15 7.72 7.72 0 012 5.5v15.55a.44.44 0 01-.5.5h-2.58a.44.44 0 01-.51-.5v-14.95a5 5 0 00-1.27-3.72 4.9 4.9 0 00-3.62-1.28 5.73 5.73 0 00-5.16 3.2 2.3 2.3 0 00-.29 1.2v15.55a.44.44 0 01-.5.5h-2.66a.44.44 0 01-.5-.5v-14.95a5.11 5.11 0 00-1.24-3.72 4.85 4.85 0 00-3.61-1.28 5.48 5.48 0 00-3 .85 6.8 6.8 0 00-2.26 2.45 2.5 2.5 0 00-.24 1.1v15.55a.44.44 0 01-.49.5zM423.57 368a10.51 10.51 0 01-4.18-4.28 14.32 14.32 0 010-12.72 10.57 10.57 0 014.05-4.25 11.77 11.77 0 0111.5 0 10.68 10.68 0 014 4.12 12.06 12.06 0 011.45 5.93 8.66 8.66 0 01-.05 1.15.47.47 0 01-.5.4h-17.65c-.4 0-.55.22-.45.65a8.19 8.19 0 002.53 5.25 7.69 7.69 0 005.42 1.95 8.81 8.81 0 006.55-2.9c.37-.37.65-.43.85-.2l1.65 1.8a.39.39 0 010 .65 12.74 12.74 0 01-4.12 2.93 12.13 12.13 0 01-4.93 1 12.28 12.28 0 01-6.12-1.48zm12.92-13.15a7.6 7.6 0 00-2.47-4.57 7.1 7.1 0 00-4.83-1.73 7.18 7.18 0 00-4.88 1.78 7.42 7.42 0 00-2.47 4.57v.25c0 .2.17.3.5.3H436q.64-.03.49-.63zM449.29 368.92h-2.65a.44.44 0 01-.5-.5v-22.2a.44.44 0 01.5-.5H449a.44.44 0 01.5.5v1.65c0 .14 0 .22.12.25s.18 0 .28-.15a8.5 8.5 0 012.65-2.05 7.85 7.85 0 013.4-.7 7.23 7.23 0 017.8 7.65v15.55a.44.44 0 01-.5.5h-2.65a.44.44 0 01-.5-.5v-14.95a5.12 5.12 0 00-1.25-3.72 4.81 4.81 0 00-3.6-1.28 5.49 5.49 0 00-3 .85 6.77 6.77 0 00-2.25 2.45 2.39 2.39 0 00-.25 1.05v15.6a.44.44 0 01-.46.5zM472.44 336.67l2.7-1.45a.66.66 0 01.25-.05c.23 0 .35.14.35.4v9.9a.22.22 0 00.25.25h2.75a.44.44 0 01.5.5v2.15a.44.44 0 01-.5.5H476a.22.22 0 00-.25.25v19.3c0 .34-.16.5-.49.5h-2.66a.44.44 0 01-.5-.5v-19.3a.22.22 0 00-.25-.25h-2.75a.44.44 0 01-.5-.5v-2.15a.44.44 0 01.5-.5h2.75a.22.22 0 00.25-.25v-8.2a.59.59 0 01.34-.6zM72.19 433.13v-19.3c0-.17-.08-.26-.24-.26H70a.53.53 0 01-.35-.12.37.37 0 01-.15-.32v-2.2a.44.44 0 01.5-.5h2c.16 0 .24-.08.24-.25v-7.41a6.24 6.24 0 011.41-4.32 5.05 5.05 0 014-1.58 7.06 7.06 0 012.76.65c.29.18.41.37.35.61l-.7 2.35c-.1.3-.32.36-.65.2a3.29 3.29 0 00-1.46-.4 1.8 1.8 0 00-1.5.7 3.2 3.2 0 00-.54 2v7.2a.22.22 0 00.25.25h3.1a.44.44 0 01.5.5v2.2a.39.39 0 01-.15.32.57.57 0 01-.35.12H76.1c-.17 0-.25.09-.25.26v19.3a.56.56 0 01-.13.35.4.4 0 01-.33.15h-2.7a.44.44 0 01-.5-.5zM88.42 432.5a11.53 11.53 0 01-4.2-4.4 12.9 12.9 0 010-12.15 11.6 11.6 0 014.2-4.4 11.83 11.83 0 0112 0 11.68 11.68 0 014.2 4.4 12.9 12.9 0 010 12.15 11.61 11.61 0 01-4.2 4.4 11.77 11.77 0 01-12 0zm10.1-2.9a8.05 8.05 0 002.85-3.18 10 10 0 000-8.8 8.09 8.09 0 00-2.85-3.17 7.86 7.86 0 00-8.25 0 8 8 0 00-2.85 3.17 10 10 0 000 8.8 8 8 0 002.85 3.18 7.8 7.8 0 008.25 0zM122.84 410c.31 0 .46.16.46.5v2.65c0 .29-.12.44-.35.44a3.68 3.68 0 01-.73-.07 3.47 3.47 0 00-.67-.08 6.29 6.29 0 00-5.5 3 2 2 0 00-.35 1.24v15.51a.44.44 0 01-.5.5h-2.66a.44.44 0 01-.5-.5v-22.2a.44.44 0 01.5-.5H115c.33 0 .49.16.49.5v1.79c0 .14 0 .22.11.26s.15 0 .25-.1a7.8 7.8 0 016.3-2.95 3.48 3.48 0 01.69.01zM146.9 432.15a16.65 16.65 0 01-6.31-6.5 21 21 0 010-19 16.72 16.72 0 016.31-6.5 17.44 17.44 0 018.95-2.32 18.2 18.2 0 018.69 2.07 15.59 15.59 0 016.16 5.78.58.58 0 01.05.25.46.46 0 01-.26.4l-2.14 1.39a.63.63 0 01-.41.15.59.59 0 01-.5-.34 12.28 12.28 0 00-4.84-4.56 14.71 14.71 0 00-6.75-1.5 13.65 13.65 0 00-7.08 1.85 12.81 12.81 0 00-4.87 5.18 17.71 17.71 0 000 15.35 12.75 12.75 0 004.87 5.18 13.64 13.64 0 007.08 1.84 14.7 14.7 0 006.75-1.49 12.18 12.18 0 004.84-4.55.61.61 0 01.5-.35.94.94 0 01.41.14l2.14 1.41a.42.42 0 01.21.65 15.57 15.57 0 01-6.16 5.77 18.2 18.2 0 01-8.69 2.08 17.44 17.44 0 01-8.95-2.38zM190.5 410.43h2.64a.44.44 0 01.5.5v22.2a.44.44 0 01-.5.5h-2.4a.44.44 0 01-.5-.5v-1.66q0-.2-.12-.24c-.08 0-.19 0-.32.15a7.62 7.62 0 01-6.05 2.75A7.5 7.5 0 01178 432a7.71 7.71 0 01-2-5.5v-15.57a.44.44 0 01.5-.5h2.65a.44.44 0 01.5.5v14.95a5.07 5.07 0 001.25 3.72 4.78 4.78 0 003.59 1.28 5.52 5.52 0 003-.85 6.69 6.69 0 002.25-2.45 2.27 2.27 0 00.26-1.05v-15.6a.44.44 0 01.5-.5zM207.45 431.08v2.25a.44.44 0 01-.5.5h-.9a5.43 5.43 0 01-3.66-1.13 4.35 4.35 0 01-1.29-3.47v-31.3c0-.34.16-.5.49-.5h2.65a.44.44 0 01.51.5v30.84c0 1.2.5 1.81 1.5 1.81h.7a.44.44 0 01.5.5zM214.54 401.38l2.7-1.45a.67.67 0 01.26-.05c.23 0 .35.13.35.4v9.9c0 .17.08.25.24.25h2.75a.44.44 0 01.5.5v2.14a.44.44 0 01-.5.5h-2.75c-.16 0-.24.09-.24.26v19.3a.44.44 0 01-.5.5h-2.66a.44.44 0 01-.5-.5v-19.3c0-.17-.08-.26-.24-.26h-2.76a.44.44 0 01-.5-.5v-2.14a.44.44 0 01.5-.5H214c.16 0 .24-.08.24-.25V402a.59.59 0 01.3-.62zM240.85 410.43h2.65a.44.44 0 01.5.5v22.2a.44.44 0 01-.5.5h-2.41a.44.44 0 01-.5-.5v-1.66q0-.2-.12-.24c-.08 0-.19 0-.32.15a7.62 7.62 0 01-6.05 2.75 7.5 7.5 0 01-5.73-2.15 7.71 7.71 0 01-2-5.5v-15.55a.44.44 0 01.5-.5h2.65a.44.44 0 01.5.5v14.95a5.07 5.07 0 001.25 3.72 4.8 4.8 0 003.59 1.28 5.52 5.52 0 003-.85 6.69 6.69 0 002.25-2.45 2.27 2.27 0 00.26-1.05v-15.6a.44.44 0 01.48-.5zM262.39 410c.3 0 .45.16.45.5v2.65c0 .29-.11.44-.35.44a3.65 3.65 0 01-.72-.07 3.56 3.56 0 00-.67-.08 6.32 6.32 0 00-5.51 3 2.11 2.11 0 00-.35 1.24v15.51a.44.44 0 01-.5.5h-2.65a.44.44 0 01-.5-.5v-22.2a.44.44 0 01.5-.5h2.41a.44.44 0 01.5.5v1.79c0 .14 0 .22.09.26s.15 0 .26-.1a7.78 7.78 0 016.29-2.95 3.53 3.53 0 01.75.01zM270.67 432.67a10.52 10.52 0 01-4.17-4.27 14.36 14.36 0 010-12.72 10.51 10.51 0 014-4.25 11.77 11.77 0 0111.5 0 10.54 10.54 0 014 4.12 12 12 0 011.45 5.93 11.37 11.37 0 010 1.15.49.49 0 01-.5.4h-17.66c-.4 0-.55.21-.44.65a8.13 8.13 0 002.52 5.25 7.73 7.73 0 005.43 1.95 8.82 8.82 0 006.54-2.9c.37-.37.65-.44.85-.21l1.65 1.81c.24.2.24.41 0 .65a12.71 12.71 0 01-4.12 2.92 12.11 12.11 0 01-4.92 1 12.29 12.29 0 01-6.13-1.48zm12.92-13.14a7.55 7.55 0 00-2.47-4.58 7.61 7.61 0 00-9.7.05 7.48 7.48 0 00-2.48 4.58l-.05.24c0 .21.17.31.5.31h13.75q.62 0 .45-.6zM310 432.6a10.94 10.94 0 01-4.1-4.27 14 14 0 010-12.6 11 11 0 014.1-4.28 11.35 11.35 0 015.81-1.52 9.37 9.37 0 017.54 3.1c.07.06.14.08.2 0s.1-.09.1-.19v-1.95a.44.44 0 01.5-.5h2.45a.44.44 0 01.5.5v22.2a.44.44 0 01-.5.5h-2.45a.44.44 0 01-.5-.5v-1.95a.22.22 0 00-.1-.21.19.19 0 00-.2.06 10.28 10.28 0 01-7.54 3.1 11.26 11.26 0 01-5.81-1.49zm10.55-2.77a6.17 6.17 0 002.7-2.7 1.92 1.92 0 00.2-.9v-8.4a1.87 1.87 0 00-.2-.9 6.86 6.86 0 00-2.77-2.7 8.44 8.44 0 00-4.13-1 7.79 7.79 0 00-6 2.42 10.05 10.05 0 000 12.75 7.79 7.79 0 006 2.42 8.74 8.74 0 004.19-.99zM337.89 433.63h-2.65a.44.44 0 01-.5-.5v-22.2a.44.44 0 01.5-.5h2.4a.44.44 0 01.5.5v1.64c0 .14 0 .22.13.26s.17 0 .27-.15a8.47 8.47 0 012.65-2.05 7.7 7.7 0 013.4-.7 7.56 7.56 0 015.75 2.14 7.66 7.66 0 012.05 5.51v15.55a.44.44 0 01-.5.5h-2.65a.44.44 0 01-.5-.5v-14.95a5.08 5.08 0 00-1.25-3.73 4.8 4.8 0 00-3.6-1.27 5.49 5.49 0 00-3 .85 6.69 6.69 0 00-2.25 2.45 2.26 2.26 0 00-.25 1v15.6a.44.44 0 01-.5.55zM377.64 397.43h2.65a.44.44 0 01.5.5v35.2a.44.44 0 01-.5.5h-2.45a.44.44 0 01-.5-.5v-1.75c0-.17 0-.26-.12-.28s-.19 0-.33.18c-1.7 1.89-4.17 2.85-7.4 2.85a11.25 11.25 0 01-5.8-1.53 10.94 10.94 0 01-4.1-4.27 14 14 0 010-12.6 11 11 0 014.1-4.28 11.34 11.34 0 015.8-1.52 10 10 0 017.2 2.64c.13.14.24.19.32.15s.13-.13.13-.29v-14.5a.44.44 0 01.5-.5zm-3.5 32.4a7.34 7.34 0 002.8-2.7 1.72 1.72 0 00.2-.8v-8.6a1.66 1.66 0 00-.2-.8 7.27 7.27 0 00-2.8-2.7 8.27 8.27 0 00-4.1-1 7.79 7.79 0 00-6 2.42 10.05 10.05 0 000 12.75 7.79 7.79 0 006 2.42 8.38 8.38 0 004.1-.99zM402.79 398.63h17a.44.44 0 01.5.5v2.55a.44.44 0 01-.5.5h-13.6a.22.22 0 00-.25.24v11.36a.23.23 0 00.25.25h13.6a.44.44 0 01.5.5v2.55a.44.44 0 01-.5.5h-13.6a.22.22 0 00-.25.25v12a.23.23 0 00.25.25h13.6a.44.44 0 01.5.5v2.55a.44.44 0 01-.5.5h-17a.44.44 0 01-.5-.5v-34a.44.44 0 01.5-.5zM441.24 410.43h2.65a.44.44 0 01.5.5v22.2a.44.44 0 01-.5.5h-2.4a.44.44 0 01-.5-.5v-1.66c0-.13 0-.21-.13-.24s-.19 0-.32.15a7.6 7.6 0 01-6.05 2.75 7.48 7.48 0 01-5.72-2.15 7.72 7.72 0 01-2-5.5v-15.55a.44.44 0 01.5-.5h2.65a.44.44 0 01.5.5v14.95a5.12 5.12 0 001.25 3.72 4.81 4.81 0 003.6 1.28 5.57 5.57 0 003-.85 6.77 6.77 0 002.25-2.45 2.26 2.26 0 00.25-1.05v-15.6a.44.44 0 01.47-.5zM462.79 410c.31 0 .45.16.45.5v2.65c0 .29-.12.44-.35.44a3.65 3.65 0 01-.72-.07 3.56 3.56 0 00-.68-.08 6.29 6.29 0 00-5.49 3 2 2 0 00-.36 1.24v15.51a.44.44 0 01-.49.5h-2.66a.44.44 0 01-.5-.5v-22.2a.44.44 0 01.5-.5h2.4a.44.44 0 01.5.5v1.79c0 .14 0 .22.11.26s.14 0 .24-.1a7.81 7.81 0 016.3-2.95 3.59 3.59 0 01.75.01zM471.06 432.5a11.61 11.61 0 01-4.2-4.4 12.9 12.9 0 010-12.15 11.68 11.68 0 014.2-4.4 11.85 11.85 0 0112 0 11.68 11.68 0 014.2 4.4 12.9 12.9 0 010 12.15 11.61 11.61 0 01-4.2 4.4 11.78 11.78 0 01-12 0zm10.11-2.9a8.13 8.13 0 002.85-3.18 10 10 0 000-8.8 8.17 8.17 0 00-2.85-3.17 7.87 7.87 0 00-8.26 0 8.17 8.17 0 00-2.85 3.17 10 10 0 000 8.8 8.13 8.13 0 002.85 3.18 7.82 7.82 0 008.26 0zM497.84 443.47h-2.65a.44.44 0 01-.5-.5v-32a.44.44 0 01.5-.5h2.4a.44.44 0 01.5.5v1.75c0 .16 0 .26.13.27s.19 0 .32-.17c1.67-1.91 4.13-2.85 7.4-2.85a11.39 11.39 0 015.85 1.52 10.9 10.9 0 014.1 4.28 14 14 0 010 12.6 10.87 10.87 0 01-4.1 4.27 11.3 11.3 0 01-5.85 1.53 9.66 9.66 0 01-7.15-2.66c-.13-.13-.24-.17-.33-.15s-.12.14-.12.31V443a.44.44 0 01-.5.47zm13.58-15.07a10.09 10.09 0 000-12.75 7.81 7.81 0 00-6-2.42 8.88 8.88 0 00-4.2 1 6 6 0 00-2.7 2.73 1.79 1.79 0 00-.2.8v8.6a1.85 1.85 0 00.2.8 6.07 6.07 0 002.7 2.72 8.88 8.88 0 004.2 1 7.81 7.81 0 006-2.48zM527.36 432.67a10.52 10.52 0 01-4.17-4.27 14.32 14.32 0 010-12.72 10.51 10.51 0 014.05-4.25 11.77 11.77 0 0111.5 0 10.61 10.61 0 014 4.12 12 12 0 011.45 5.93 10.81 10.81 0 01-.05 1.15.47.47 0 01-.5.4H526c-.4 0-.55.21-.45.65a8.19 8.19 0 002.53 5.25 7.69 7.69 0 005.42 1.95A8.83 8.83 0 00540 428c.37-.37.65-.44.85-.21l1.65 1.81c.24.2.24.41 0 .65a12.71 12.71 0 01-4.12 2.92 12.16 12.16 0 01-4.93 1 12.34 12.34 0 01-6.09-1.5zm12.93-13.14a7.55 7.55 0 00-2.47-4.58 7.61 7.61 0 00-9.7.05 7.48 7.48 0 00-2.48 4.58v.24c0 .21.17.31.5.31h13.75q.55 0 .4-.6z" fill="#1d1d1b"/></svg>