<?xml version="1.0" encoding="UTF-8" standalone="no"?>
<!DOCTYPE svg PUBLIC "-//W3C//DTD SVG 1.1//EN" "http://www.w3.org/Graphics/SVG/1.1/DTD/svg11.dtd">
<svg width="100%" height="100%" viewBox="0 0 419 95" version="1.1" xmlns="http://www.w3.org/2000/svg" xmlns:xlink="http://www.w3.org/1999/xlink" xml:space="preserve" xmlns:serif="http://www.serif.com/" style="fill-rule:evenodd;clip-rule:evenodd;stroke-linejoin:round;stroke-miterlimit:2;">
    <g transform="matrix(1,0,0,1,-1158.88,-250.764)">
        <g transform="matrix(1,0,0,1,947.126,0)">
            <g transform="matrix(1,0,0,1,354.679,296.398)">
                <path d="M0,21.8L-35.778,-25.139L-51.007,-25.139L-51.007,47.773L-34.735,47.773L-34.735,2.085L0,47.773L16.272,47.773L16.272,-25.139L0,-25.139L0,21.8ZM67.331,47.773L67.331,33.274L39.081,33.274L39.081,-25.139L22.809,-25.139L22.809,47.773L67.331,47.773ZM116.101,27.485C111.929,32.04 106.8,34.317 100.715,34.317C94.63,34.317 89.502,32.04 85.33,27.485C81.157,22.931 79.071,17.403 79.071,10.9C79.071,4.398 81.157,-1.148 85.33,-5.738C89.502,-10.327 94.63,-12.622 100.715,-12.622C106.8,-12.622 111.929,-10.327 116.101,-5.738C120.274,-1.148 122.36,4.398 122.36,10.9C122.36,17.403 120.274,22.931 116.101,27.485M138.945,10.847C138.945,0.139 135.258,-8.815 127.888,-16.012C120.516,-23.21 111.441,-26.808 100.663,-26.808C89.884,-26.808 80.809,-23.21 73.438,-16.012C66.067,-8.815 62.382,0.139 62.382,10.847C62.382,21.557 66.067,30.51 73.438,37.707C80.809,44.905 89.884,48.503 100.663,48.503C111.441,48.503 120.516,44.905 127.888,37.707C135.258,30.51 138.945,21.557 138.945,10.847M164.279,27.224C160.175,23.122 158.125,17.68 158.125,10.9C158.125,4.119 160.298,-1.269 164.644,-5.268C168.99,-9.266 174.223,-11.266 180.343,-11.266C187.992,-11.266 194.389,-8.067 199.536,-1.67L209.654,-13.144C201.586,-22.253 191.573,-26.808 179.613,-26.808C168.903,-26.808 159.846,-23.192 152.44,-15.96C145.034,-8.727 141.331,0.296 141.331,11.108C141.331,21.922 144.964,30.875 152.232,37.968C159.497,45.061 168.747,48.608 179.978,48.608C191.208,48.608 200.961,43.95 209.237,34.63L198.806,23.886C193.729,30.215 187.192,33.378 179.196,33.378C173.354,33.378 168.382,31.328 164.279,27.224M211.99,47.773L228.263,47.773L228.263,27.12L235.564,18.984L256.948,47.773L275.932,47.773C272.594,43.115 267.552,36.038 260.807,26.546C254.061,17.054 249.437,10.57 246.934,7.092L275.932,-25.139L255.8,-25.139L228.263,4.798L228.263,-25.139L211.99,-25.139L211.99,47.773Z" style="fill:white;fill-rule:nonzero;"/>
            </g>
        </g>
        <g transform="matrix(1,0,0,1,947.126,0)">
            <g transform="matrix(1,0,0,1,250.911,318.725)">
                <path d="M0,-7.099L-0.023,-33.379L-16.295,-33.379L-16.272,-6.577C-16.272,3.924 -13.335,12.026 -7.458,17.727C-1.583,23.43 5.91,26.28 15.021,26.28C24.13,26.28 31.606,23.447 37.447,17.779C43.289,12.112 46.209,3.994 46.209,-6.577L46.209,-33.379L29.937,-33.379L29.937,-7.099C29.937,-1.258 28.597,3.35 25.921,6.722C23.243,10.096 19.61,11.781 15.021,11.781C10.431,11.781 6.78,10.096 4.068,6.722C1.356,3.35 0,-1.258 0,-7.099" style="fill:white;fill-rule:nonzero;"/>
            </g>
        </g>
        <g transform="matrix(1,0,0,1,947.126,0)">
            <g transform="matrix(1,0,0,1,228.026,277.479)">
                <path d="M0,6.664L0,7.875L-16.272,7.875L-16.272,6.142C-16.272,-4.359 -13.335,-12.461 -7.458,-18.162C-1.583,-23.865 5.91,-26.715 15.021,-26.715C24.13,-26.715 31.606,-23.882 37.447,-18.214C43.289,-12.547 46.209,-4.429 46.209,6.142L46.209,33.379L29.937,33.379L29.937,6.664C29.937,0.823 28.597,-3.785 25.921,-7.157C23.243,-10.531 19.61,-12.216 15.021,-12.216C10.431,-12.216 6.78,-10.531 4.068,-7.157C1.356,-3.785 0,0.823 0,6.664" style="fill:white;fill-rule:nonzero;"/>
            </g>
        </g>
    </g>
</svg>
