<svg viewBox="0 0 419 95" xmlns="http://www.w3.org/2000/svg" fill-rule="evenodd" clip-rule="evenodd" stroke-linejoin="round" stroke-miterlimit="2"><path d="M142.925 67.434l-35.778-46.939H91.918v72.912h16.272V47.719l34.735 45.688h16.272V20.495h-16.272v46.939zm67.331 25.973V78.908h-28.25V20.495h-16.272v72.912h44.522zm48.77-20.288c-4.172 4.555-9.301 6.832-15.386 6.832-6.085 0-11.213-2.277-15.385-6.832-4.173-4.554-6.259-10.082-6.259-16.585 0-6.502 2.086-12.048 6.259-16.638 4.172-4.589 9.3-6.884 15.385-6.884 6.085 0 11.214 2.295 15.386 6.884 4.173 4.59 6.259 10.136 6.259 16.638 0 6.503-2.086 12.031-6.259 16.585m22.844-16.638c0-10.708-3.687-19.662-11.057-26.859-7.372-7.198-16.447-10.796-27.225-10.796-10.779 0-19.854 3.598-27.225 10.796-7.371 7.197-11.056 16.151-11.056 26.859 0 10.71 3.685 19.663 11.056 26.86 7.371 7.198 16.446 10.796 27.225 10.796 10.778 0 19.853-3.598 27.225-10.796 7.37-7.197 11.057-16.15 11.057-26.86m25.334 16.377c-4.104-4.102-6.154-9.544-6.154-16.324 0-6.781 2.173-12.169 6.519-16.168 4.346-3.998 9.579-5.998 15.699-5.998 7.649 0 14.046 3.199 19.193 9.596l10.118-11.474c-8.068-9.109-18.081-13.664-30.041-13.664-10.71 0-19.767 3.616-27.173 10.848-7.406 7.233-11.109 16.256-11.109 27.068 0 10.814 3.633 19.767 10.901 26.86 7.265 7.093 16.515 10.64 27.746 10.64 11.23 0 20.983-4.658 29.259-13.978L341.731 69.52c-5.077 6.329-11.614 9.492-19.61 9.492-5.842 0-10.814-2.05-14.917-6.154m47.711 20.549h16.273V72.754l7.301-8.136 21.384 28.789h18.984a7219.612 7219.612 0 01-15.125-21.227c-6.746-9.492-11.37-15.976-13.873-19.454l28.998-32.231h-20.132l-27.537 29.937V20.495h-16.273v72.912zM39.157 60.862l-.023-26.28H22.862l.023 26.802c0 10.501 2.937 18.603 8.814 24.304 5.875 5.703 13.368 8.553 22.479 8.553 9.109 0 16.585-2.833 22.426-8.501 5.842-5.667 8.762-13.785 8.762-24.356V34.582H69.094v26.28c0 5.841-1.34 10.449-4.016 13.821-2.678 3.374-6.311 5.059-10.9 5.059-4.59 0-8.241-1.685-10.953-5.059-2.712-3.372-4.068-7.98-4.068-13.821" fill="#fff" fill-rule="nonzero"/><path d="M16.272 33.379v1.211H0v-1.733C0 22.356 2.937 14.254 8.814 8.553 14.689 2.85 22.182 0 31.293 0c9.109 0 16.585 2.833 22.426 8.501 5.842 5.667 8.762 13.785 8.762 24.356v27.237H46.209V33.379c0-5.841-1.34-10.449-4.016-13.821-2.678-3.374-6.311-5.059-10.9-5.059-4.59 0-8.241 1.685-10.953 5.059-2.712 3.372-4.068 7.98-4.068 13.821" fill="#fff" fill-rule="nonzero"/></svg>