<svg version="1.1" id="Layer_1" xmlns="http://www.w3.org/2000/svg" x="0" y="0" viewBox="0 0 169 82.1" xml:space="preserve"><style>.st0{fill-rule:evenodd;clip-rule:evenodd}</style><g id="Symbols"><g id="Header-03-Full" transform="translate(-15 -17)"><g id="wikimedia-de-logo" transform="translate(15 17)"><path id="Fill-1" class="st0" d="M50.6 59.8l2.7-8.7h3.4l2.7 8.7 3-8.7H66l-5.2 15h-2.5L55 55.7l-3.3 10.4h-2.5l-5.2-15h3.6z"/><path id="Fill-2" class="st0" d="M68 66.1h3v-15h-3z"/><path id="Fill-3" class="st0" d="M75 51.1h3.3v6.2l5.6-6.2H88l-5.9 6.6c.5.7 1.4 2 2.8 4s2.4 3.4 3.1 4.4h-3.9l-4.3-5.9-1.5 1.7v4.2H75v-15z"/><path id="Fill-4" class="st0" d="M90 66.1h3v-15h-3z"/><path id="Fill-5" class="st0" d="M110.6 56.7l-4.1 8.2h-2l-4.1-8.2v9.4H97v-15h4.6l3.9 8.3 3.9-8.3h4.6v15h-3.4z"/><path id="Fill-6" class="st0" d="M127.8 51.1v3h-7.5v3.1h6.7v2.9h-6.7v3.1h7.7v2.9h-11v-15z"/><path id="Fill-7" class="st0" d="M140.3 62c.8-.8 1.3-1.9 1.3-3.4s-.4-2.6-1.3-3.4c-.8-.8-2.1-1.2-3.9-1.2h-1.9v9.1h2.2c1.5.1 2.7-.3 3.6-1.1m2.5-8.9c1.5 1.3 2.2 3.1 2.2 5.5s-.7 4.2-2.2 5.5c-1.4 1.4-3.6 2-6.6 2H131v-15h5.5c2.7 0 4.8.7 6.3 2"/><path id="Fill-8" class="st0" d="M147 66.1h3v-15h-3z"/><path id="Fill-9" class="st0" d="M161 55.6l-1.9 4.4h3.7l-1.8-4.4zm4.5 10.5l-1.4-3.2h-6.2l-1.4 3.2H153l6.4-15h3.2l6.4 15h-3.5z"/><path id="Fill-10" class="st0" d="M53.9 75.6c0-1.6-.9-2.4-2.6-2.4h-1.1V78h1.2c.8 0 1.4-.2 1.9-.6.4-.4.6-1 .6-1.8M54 73c.6.6 1 1.5 1 2.5 0 1.1-.3 1.9-.9 2.6-.6.6-1.6 1-2.9 1H49v-7h2.3c1.2 0 2.1.3 2.7.9"/><path id="Fill-11" class="st0" d="M64.9 72.1v1.1h-3.7v1.9h3.3v1h-3.3V78H65v1.1h-5v-7z"/><path id="Fill-12" class="st0" d="M72.7 77.5c.3.3.7.5 1.3.5.6 0 1-.2 1.3-.6.3-.4.5-.9.5-1.5v-3.8H77V76c0 1-.3 1.8-.8 2.3-.6.5-1.3.8-2.2.8-.9 0-1.6-.3-2.2-.8-.5-.5-.8-1.3-.8-2.3v-3.9h1.2V76c0 .6.2 1.1.5 1.5"/><path id="Fill-13" class="st0" d="M85 73.2v5.9h-1v-5.9h-2v-1.1h5v1.1z"/><path id="Fill-14" class="st0" d="M94.5 73.2c-.3 0-.6.1-.8.2-.2.1-.3.3-.3.6s.1.5.3.6c.2.1.6.3 1.3.5.7.2 1.2.4 1.5.7.3.3.5.7.5 1.3 0 .6-.2 1.1-.6 1.4-.4.4-1 .6-1.7.6-1 0-1.9-.4-2.7-1.1l.7-.9c.7.6 1.3.9 2 .9.4 0 .6-.1.8-.2.2-.2.3-.4.3-.6 0-.3-.1-.5-.3-.6-.2-.1-.5-.3-1-.4-.5-.1-.8-.2-1.1-.3-.2-.1-.5-.2-.7-.4-.4-.3-.6-.8-.6-1.4s.2-1.1.7-1.4c.4-.3 1-.5 1.6-.5.4 0 .8.1 1.2.2.4.1.8.3 1.1.6l-.6.9c-.2-.2-.5-.3-.8-.4-.2-.3-.5-.3-.8-.3"/><path id="Fill-15" class="st0" d="M105.4 78c.4 0 .7-.1 1-.2.3-.1.6-.3.9-.6l.7.8c-.7.8-1.5 1.2-2.5 1.2s-1.8-.3-2.4-1c-.6-.7-1-1.5-1-2.5s.3-1.8 1-2.5 1.5-1 2.5-1 1.8.4 2.5 1.2l-.7.8c-.3-.3-.6-.5-.9-.6-.3-.1-.6-.2-1-.2-.7 0-1.2.2-1.7.7-.4.4-.7 1-.7 1.7s.2 1.3.7 1.7c.4.3 1 .5 1.6.5"/><path id="Fill-16" class="st0" d="M113 79.1v-7h1v3.1h3v-3.1h1v7h-1v-2.8h-3v2.8z"/><path id="Fill-17" class="st0" d="M125 79.1v-7h1.1V78h2.9v1.1z"/><path id="Fill-18" class="st0" d="M138.7 76.4l-1.2-2.9-1.2 2.9h2.4zm-2.9 1.1l-.7 1.6H134l2.9-7h1.2l2.9 7h-1.2l-.7-1.6h-3.3z"/><path id="Fill-19" class="st0" d="M150.9 72.1h1.1v7h-1.2l-3.7-5.1v5.1H146v-7h1.1l3.8 5.3z"/><path id="Fill-20" class="st0" d="M162.9 75.6c0-1.6-.9-2.4-2.6-2.4h-1.1V78h1.2c.8 0 1.4-.2 1.9-.6.4-.4.6-1 .6-1.8m.1-2.6c.6.6 1 1.5 1 2.5 0 1.1-.3 1.9-.9 2.6-.6.6-1.6 1-2.9 1H158v-7h2.3c1.2 0 2.1.3 2.7.9"/><path id="Fill-21" class="st0" d="M20 74.1c5.7-.8 10-5.5 10-11.3 0-3.5-1.6-6.6-4.1-8.7L20 59.9v14.2z"/><path id="Fill-22" class="st0" d="M17 74.1V59.9l-5.9-5.7c-2.5 2-4.1 5.1-4.1 8.6 0 5.8 4.3 10.5 10 11.3"/><path id="Fill-23" class="st0" d="M29.2 53.1c2.7 2.7 4.2 6.3 4.2 10.1s-1.5 7.4-4.2 10.1-6.3 4.2-10.2 4.2c-3.8 0-7.4-1.5-10.2-4.2S4.6 67 4.6 63.2s1.5-7.4 4.2-10.1l.7-.7-3.3-3.3c-.2.2-.5.4-.7.7-1.7 1.7-3.1 3.8-4.1 6-1 2.3-1.5 4.8-1.5 7.4 0 2.6.5 5 1.5 7.4 1 2.3 2.3 4.3 4.1 6 1.7 1.7 3.8 3.1 6 4.1 2.3 1 4.8 1.5 7.4 1.5s5.1-.5 7.4-1.5c2.3-1 4.3-2.3 6-4.1 1.7-1.7 3.1-3.8 4.1-6 1-2.3 1.5-4.8 1.5-7.4 0-2.6-.5-5-1.5-7.4-1-2.3-2.3-4.3-4.1-6l-.7-.7-3.3 3.3c.4.2.6.4.9.7"/><path id="Fill-24" class="st0" d="M19 44.1c3.3 0 6 2.7 6 6s-2.7 6-6 6-6-2.7-6-6 2.7-6 6-6"/></g></g></g><path d="M-74.1-29.5l-8.5-11.2h-3.6v17.4h3.9v-10.9l8.3 10.9h3.9v-17.4H-74v11.2zm16.1 6.2v-3.5h-6.7v-14h-3.9v17.4H-58zm11.6-4.9c-1 1.1-2.2 1.6-3.7 1.6s-2.7-.5-3.7-1.6-1.5-2.4-1.5-4 .5-2.9 1.5-4 2.2-1.6 3.7-1.6 2.7.5 3.7 1.6 1.5 2.4 1.5 4-.5 2.9-1.5 4m5.5-3.9c0-2.6-.9-4.7-2.6-6.4-1.8-1.7-3.9-2.6-6.5-2.6s-4.7.9-6.5 2.6c-1.8 1.7-2.6 3.9-2.6 6.4 0 2.6.9 4.7 2.6 6.4 1.8 1.7 3.9 2.6 6.5 2.6s4.7-.9 6.5-2.6c1.7-1.7 2.6-3.9 2.6-6.4m6.1 3.9c-1-1-1.5-2.3-1.5-3.9s.5-2.9 1.6-3.9c1-1 2.3-1.4 3.7-1.4 1.8 0 3.4.8 4.6 2.3l2.4-2.7c-1.9-2.2-4.3-3.3-7.2-3.3-2.6 0-4.7.9-6.5 2.6-1.8 1.7-2.7 3.9-2.7 6.5s.9 4.7 2.6 6.4c1.7 1.7 3.9 2.5 6.6 2.5 2.7 0 5-1.1 7-3.3l-2.5-2.6c-1.2 1.5-2.8 2.3-4.7 2.3-1.3-.1-2.5-.6-3.4-1.5m11.4 4.9h3.9v-4.9l1.7-1.9 5.1 6.9h4.5c-.8-1.1-2-2.8-3.6-5.1s-2.7-3.8-3.3-4.6l6.9-7.7H-13l-6.6 7.2v-7.2h-3.9v17.3z" transform="translate(142.925 45.634)"/><path d="M4.9-53.4v-6.3H1v6.4c0 2.5.7 4.4 2.1 5.8 1.4 1.4 3.2 2 5.4 2s4-.7 5.4-2c1.4-1.4 2.1-3.3 2.1-5.8v-6.4h-3.9v6.3c0 1.4-.3 2.5-1 3.3-.6.8-1.5 1.2-2.6 1.2s-2-.4-2.6-1.2c-.7-.8-1-1.9-1-3.3" transform="translate(39.157 67.961)"/><path d="M22.3-18.7v.3h-3.9v-.4c0-2.5.7-4.4 2.1-5.8 1.4-1.4 3.2-2 5.4-2s4 .7 5.4 2c1.4 1.4 2.1 3.3 2.1 5.8v6.5h-3.9v-6.4c0-1.4-.3-2.5-1-3.3-.6-.8-1.5-1.2-2.6-1.2s-2 .4-2.6 1.2c-.7.8-1 1.9-1 3.3" transform="translate(16.272 26.715)"/></svg>