<?xml version="1.0" encoding="UTF-8"?>
<svg width="169px" height="38px" viewBox="0 0 169 38" version="1.1" xmlns="http://www.w3.org/2000/svg" xmlns:xlink="http://www.w3.org/1999/xlink">
    <!-- Generator: Sketch 51.3 (57544) - http://www.bohemiancoding.com/sketch -->
    <title>wikimedia-de-logo</title>
    <desc>Created with Sketch.</desc>
    <defs></defs>
    <g id="Symbols" stroke="none" stroke-width="1" fill="none" fill-rule="evenodd">
        <g id="Header-03-Full" transform="translate(-15.000000, -17.000000)" fill="#000000">
            <g id="wikimedia-de-logo" transform="translate(15.000000, 17.000000)">
                <polygon id="Fill-1" points="50.5893234 15.6266094 53.2508091 7 56.7493749 7 59.389397 15.6266094 62.3726526 7 66 7 60.763067 22 58.2732901 22 54.9893602 11.5708155 51.7268939 22 49.237117 22 44 7 47.6273474 7"></polygon>
                <polygon id="Fill-2" points="68 22 71 22 71 7 68 7"></polygon>
                <path d="M75,7 L78.3081655,7 L78.3081655,13.1587983 L83.9065996,7 L88,7 L82.1040735,13.6309013 C82.613022,14.3464132 83.553365,15.6805641 84.9244966,17.6333538 C86.2956283,19.5861435 87.3214019,21.0416922 88,22 L84.1398676,22 L79.7925988,16.0772532 L78.3081655,17.751073 L78.3081655,22 L75,22 L75,7 Z" id="Fill-3"></path>
                <polygon id="Fill-4" points="90 22 93 22 93 7 90 7"></polygon>
                <polygon id="Fill-5" points="110.608696 12.5579399 106.5 20.7553648 104.478261 20.7553648 100.391304 12.5579399 100.391304 22 97 22 97 7 101.586957 7 105.5 15.2403433 109.434783 7 114 7 114 22 110.608696 22"></polygon>
                <polygon id="Fill-6" points="127.765049 7 127.765049 9.98283262 120.332039 9.98283262 120.332039 13.0729614 127.017476 13.0729614 127.017476 15.9270386 120.332039 15.9270386 120.332039 19.0386266 128 19.0386266 128 22 117 22 117 7"></polygon>
                <path d="M140.263305,17.8798283 C141.109324,17.1072961 141.533279,15.9840589 141.533279,14.5107296 C141.533279,13.0374004 141.109324,11.9031269 140.263305,11.1091355 C139.416655,10.3151441 138.11766,9.91845494 136.365689,9.91845494 L134.44464,9.91845494 L134.44464,19.0386266 L136.630661,19.0386266 C138.205984,19.0386266 139.416655,18.6523605 140.263305,17.8798283 M142.791898,8.96321275 C144.263756,10.2722256 145,12.0931944 145,14.4248927 C145,16.756591 144.282051,18.6020846 142.846785,19.9613734 C141.411518,21.3206622 139.221712,22 136.277365,22 L131,22 L131,7 L136.454013,7 C139.20657,7 141.319409,7.65419988 142.791898,8.96321275" id="Fill-7"></path>
                <polygon id="Fill-8" points="147 22 150 22 150 7 147 7"></polygon>
                <path d="M161.011505,11.4635193 L159.145322,15.8197425 L162.855889,15.8197425 L161.011505,11.4635193 Z M165.483197,22 L164.105056,18.7596567 L157.896155,18.7596567 L156.518014,22 L153,22 L159.400848,7 L162.600363,7 L169,22 L165.483197,22 Z" id="Fill-9"></path>
                <path d="M53.866798,31.4950948 C53.866798,29.8927404 52.9935731,29.0915631 51.2477454,29.0915631 L50.1238727,29.0915631 L50.1238727,33.8888162 L51.3715145,33.8888162 C52.1775682,33.8888162 52.7951695,33.6867233 53.2236965,33.2825376 C53.6528454,32.8790059 53.866798,32.2831916 53.866798,31.4950948 M54.0384576,28.9162852 C54.6790712,29.5271419 55,30.3767168 55,31.4650098 C55,32.5533028 54.6890225,33.4146501 54.0670675,34.0490517 C53.4444905,34.6834532 52.4922774,35 51.2098062,35 L49,35 L49,28 L51.2856847,28 C52.4792163,28 53.3966,28.3054284 54.0384576,28.9162852" id="Fill-10"></path>
                <polygon id="Fill-11" points="64.8805691 28 64.8805691 29.1118378 61.173019 29.1118378 61.173019 30.9640288 64.502804 30.9640288 64.502804 32.0156965 61.173019 32.0156965 61.173019 33.8888162 65 33.8888162 65 35 60 35 60 28"></polygon>
                <path d="M72.6825152,33.3443715 C73.0068395,33.714735 73.4456702,33.8992693 74.0003309,33.8992693 C74.5543298,33.8992693 74.9931605,33.714735 75.3174848,33.3443715 C75.6418092,32.974008 75.8039713,32.4715567 75.8039713,31.8370179 L75.8039713,28 L77,28 L77,31.8868745 C77,32.885302 76.7200221,33.6532236 76.1587424,34.1919341 C75.5981247,34.7306447 74.8786542,35 74.0003309,35 C73.1213458,35 72.4018753,34.7306447 71.8412576,34.1919341 C71.2799779,33.6532236 71,32.885302 71,31.8868745 L71,28 L72.1960287,28 L72.1960287,31.8370179 C72.1960287,32.4715567 72.3581908,32.974008 72.6825152,33.3443715" id="Fill-12"></path>
                <polygon id="Fill-13" points="85.0443427 29.0816517 85.0443427 35 83.9556573 35 83.9556573 29.0816517 82 29.0816517 82 28 87 28 87 29.0816517"></polygon>
                <path d="M94.4812892,29.0537567 C94.1638098,29.0537567 93.9036697,29.1213132 93.7002656,29.2570578 C93.4968614,29.392171 93.3954611,29.5967349 93.3954611,29.8707495 C93.3954611,30.1447641 93.4968614,30.3537476 93.7002656,30.4989627 C93.9036697,30.6441779 94.3364317,30.8007576 94.999155,30.9680707 C95.6612747,31.1360152 96.1604297,31.3708848 96.4960164,31.6739425 C96.8322067,31.9770001 97,32.4227474 97,33.0130784 C97,33.602778 96.7875423,34.0813565 96.3620232,34.4488139 C95.9371077,34.8156399 95.3794061,35 94.689522,35 C93.6785369,35 92.7822308,34.6356995 92,33.9070984 L92.6838484,33.046541 C93.3369145,33.6400289 94.0147272,33.9361414 94.7172863,33.9361414 C95.0685659,33.9361414 95.3474167,33.8572202 95.5538387,33.6993776 C95.7602607,33.5415351 95.8634718,33.3319203 95.8634718,33.0711644 C95.8634718,32.8097772 95.7662965,32.6071074 95.5719459,32.4618923 C95.3781989,32.3166772 95.0432158,32.1847208 94.5694109,32.0653919 C94.0943988,31.946063 93.7340657,31.8368359 93.4878078,31.7364481 C93.24155,31.6366916 93.0224529,31.5066294 92.8317238,31.3449986 C92.449662,31.041941 92.2583293,30.577884 92.2583293,29.9528276 C92.2583293,29.3277713 92.4756156,28.8460359 92.9101883,28.5076215 C93.344761,28.1692072 93.8819411,28 94.5229358,28 C94.9357798,28 95.345606,28.0707134 95.7524143,28.2127717 C96.158619,28.35483 96.5105022,28.5543429 96.8056494,28.8119419 L96.2238049,29.6724993 C96.0324722,29.4919275 95.7735394,29.3435555 95.4476099,29.2280148 C95.1204732,29.1118427 94.7987687,29.0537567 94.4812892,29.0537567" id="Fill-14"></path>
                <path d="M105.375795,33.8881573 C105.753104,33.8881573 106.077723,33.8218634 106.349652,33.6899071 C106.621581,33.5579508 106.906228,33.3464418 107.202988,33.0566429 L107.907944,33.8104988 C107.221157,34.6034996 106.388412,35 105.408499,35 C104.428586,35 103.615222,34.6710562 102.969617,34.0137999 C102.323408,33.3565437 102,32.5250293 102,31.5192568 C102,30.5134843 102.329464,29.6762875 102.987786,29.0057725 C103.646109,28.3352575 104.477642,28 105.482386,28 C106.48713,28 107.326537,28.3870299 108,29.1604582 L107.304734,29.953459 C106.995256,29.6434563 106.703341,29.4281591 106.428384,29.3056733 C106.153427,29.1831875 105.830019,29.1219446 105.459372,29.1219446 C104.804078,29.1219446 104.253558,29.3429241 103.808418,29.7836205 C103.363278,30.2255795 103.141011,30.789393 103.141011,31.4756923 C103.141011,32.1626229 103.362067,32.7359069 103.804179,33.1968071 C104.245685,33.6577072 104.769557,33.8881573 105.375795,33.8881573" id="Fill-15"></path>
                <polygon id="Fill-16" points="113 35 113 28 114.012098 28 114.012098 31.0340092 116.987902 31.0340092 116.987902 28 118 28 118 35 116.987902 35 116.987902 32.1360366 114.012098 32.1360366 114.012098 35"></polygon>
                <polygon id="Fill-17" points="125 35 125 28 126.080096 28 126.080096 33.8783519 129 33.8783519 129 35"></polygon>
                <path d="M138.698293,32.3161435 L137.5,29.4321749 L136.302324,32.3161435 L138.698293,32.3161435 Z M135.848882,33.4076046 L135.189051,35 L134,35 L136.905474,28 L138.094526,28 L141,35 L139.811565,35 L139.151118,33.4076046 L135.848882,33.4076046 Z" id="Fill-18"></path>
                <polygon id="Fill-19" points="150.897162 28 152 28 152 35 150.803784 35 147.102838 29.8927404 147.102838 35 146 35 146 28 147.102838 28 150.897162 33.2275997"></polygon>
                <path d="M162.865554,31.4950948 C162.865554,29.8927404 161.993573,29.0915631 160.246502,29.0915631 L159.123251,29.0915631 L159.123251,33.8888162 L160.371514,33.8888162 C161.177568,33.8888162 161.795169,33.6867233 162.223696,33.2825376 C162.652845,32.8790059 162.865554,32.2831916 162.865554,31.4950948 M163.038458,28.9162852 C163.678449,29.5271419 164,30.3767168 164,31.4650098 C164,32.5533028 163.687779,33.4146501 163.065824,34.0490517 C162.443247,34.6834532 161.491033,35 160.209806,35 L158,35 L158,28 L160.285063,28 C161.478594,28 162.3966,28.3054284 163.038458,28.9162852" id="Fill-20"></path>
                <path d="M20,30 C25.652414,29.2178301 30,24.4623333 30,18.7114021 C30,15.2180704 28.3951905,12.0917938 25.8677382,10 L20,15.7467259 L20,30 Z" id="Fill-21"></path>
                <path d="M17,30 L17,15.7467259 L11.1322618,10 C8.60542298,12.0917938 7,15.2180704 7,18.7114021 C7,24.4623333 11.3481995,29.2178301 17,30" id="Fill-22"></path>
                <path d="M29.1588518,8.94001451 C31.8724777,11.6444395 33.3666348,15.2401094 33.3666348,19.0641147 C33.3666348,22.8887339 31.8724777,26.4844038 29.1588518,29.1888287 C26.445226,31.8932537 22.8373231,33.3823447 19.0003079,33.3823447 C15.1626769,33.3823447 11.554774,31.8932537 8.84114815,29.1888287 C6.12752233,26.4844038 4.63336521,22.8887339 4.63336521,19.0641147 C4.63336521,15.2401094 6.12752233,11.6444395 8.84114815,8.94001451 C9.07395582,8.70799621 9.3141542,8.48518498 9.55989562,8.27158083 L6.27780029,5 C6.03513833,5.21851459 5.79740352,5.44316723 5.56521175,5.67518554 C3.82100196,7.41348139 2.45125529,9.43781039 1.49415712,11.6929301 C0.502568923,14.029072 0,16.5088444 0,19.0641147 C0,21.6199989 0.502568923,24.0997712 1.49415712,26.4359132 C2.45125529,28.6904191 3.82100196,30.7153619 5.56521175,32.4536577 C7.30942155,34.1919536 9.3412535,35.557056 11.6040454,36.510909 C13.9475194,37.4991351 16.4363442,38 19.0003079,38 C21.5642717,38 24.0524806,37.4991351 26.3965704,36.510909 C28.6593624,35.557056 30.6911943,34.1919536 32.4354041,32.4536577 C34.178998,30.7153619 35.5487447,28.6904191 36.5058429,26.4359132 C37.4974311,24.0997712 38,21.6199989 38,19.0641147 C38,16.5088444 37.4974311,14.029072 36.5058429,11.6929301 C35.5487447,9.43781039 34.178998,7.41348139 32.4354041,5.67518554 C32.2025965,5.44316723 31.9648617,5.21851459 31.7228156,5 L28.4401044,8.27158083 C28.6858458,8.48518498 28.9260442,8.70799621 29.1588518,8.94001451" id="Fill-23"></path>
                <path d="M19,0 C22.3135725,0 25,2.68656716 25,6.00031203 C25,9.31405689 22.3135725,12 19,12 C15.6864275,12 13,9.31405689 13,6.00031203 C13,2.68656716 15.6864275,0 19,0" id="Fill-24"></path>
            </g>
        </g>
    </g>
</svg>