<?xml version="1.0" encoding="utf-8"?>
<!-- Generator: Adobe Illustrator 26.5.0, SVG Export Plug-In . SVG Version: 6.00 Build 0)  -->
<svg version="1.1" id="Layer_1" xmlns="http://www.w3.org/2000/svg" xmlns:xlink="http://www.w3.org/1999/xlink" x="0px" y="0px"
	 viewBox="0 0 169 82.1" style="enable-background:new 0 0 169 82.1;" xml:space="preserve">
<style type="text/css">
	.st0{fill-rule:evenodd;clip-rule:evenodd;}
</style>
<g id="Symbols">
	<g id="Header-03-Full" transform="translate(-15.000000, -17.000000)">
		<g id="wikimedia-de-logo" transform="translate(15.000000, 17.000000)">
			<polygon id="Fill-1" class="st0" points="50.6,59.8 53.3,51.1 56.7,51.1 59.4,59.8 62.4,51.1 66,51.1 60.8,66.1 58.3,66.1 
				55,55.7 51.7,66.1 49.2,66.1 44,51.1 47.6,51.1 			"/>
			<polygon id="Fill-2" class="st0" points="68,66.1 71,66.1 71,51.1 68,51.1 			"/>
			<path id="Fill-3" class="st0" d="M75,51.1h3.3v6.2l5.6-6.2H88l-5.9,6.6c0.5,0.7,1.4,2,2.8,4s2.4,3.4,3.1,4.4h-3.9l-4.3-5.9
				l-1.5,1.7v4.2H75V51.1z"/>
			<polygon id="Fill-4" class="st0" points="90,66.1 93,66.1 93,51.1 90,51.1 			"/>
			<polygon id="Fill-5" class="st0" points="110.6,56.7 106.5,64.9 104.5,64.9 100.4,56.7 100.4,66.1 97,66.1 97,51.1 101.6,51.1 
				105.5,59.4 109.4,51.1 114,51.1 114,66.1 110.6,66.1 			"/>
			<polygon id="Fill-6" class="st0" points="127.8,51.1 127.8,54.1 120.3,54.1 120.3,57.2 127,57.2 127,60.1 120.3,60.1 120.3,63.2 
				128,63.2 128,66.1 117,66.1 117,51.1 			"/>
			<path id="Fill-7" class="st0" d="M140.3,62c0.8-0.8,1.3-1.9,1.3-3.4c0-1.5-0.4-2.6-1.3-3.4c-0.8-0.8-2.1-1.2-3.9-1.2h-1.9v9.1
				h2.2C138.2,63.2,139.4,62.8,140.3,62 M142.8,53.1c1.5,1.3,2.2,3.1,2.2,5.5s-0.7,4.2-2.2,5.5c-1.4,1.4-3.6,2-6.6,2H131v-15h5.5
				C139.2,51.1,141.3,51.8,142.8,53.1"/>
			<polygon id="Fill-8" class="st0" points="147,66.1 150,66.1 150,51.1 147,51.1 			"/>
			<path id="Fill-9" class="st0" d="M161,55.6l-1.9,4.4h3.7L161,55.6z M165.5,66.1l-1.4-3.2h-6.2l-1.4,3.2H153l6.4-15h3.2l6.4,15
				H165.5z"/>
			<path id="Fill-10" class="st0" d="M53.9,75.6c0-1.6-0.9-2.4-2.6-2.4h-1.1V78h1.2c0.8,0,1.4-0.2,1.9-0.6
				C53.7,77,53.9,76.4,53.9,75.6 M54,73c0.6,0.6,1,1.5,1,2.5c0,1.1-0.3,1.9-0.9,2.6c-0.6,0.6-1.6,1-2.9,1H49v-7h2.3
				C52.5,72.1,53.4,72.4,54,73"/>
			<polygon id="Fill-11" class="st0" points="64.9,72.1 64.9,73.2 61.2,73.2 61.2,75.1 64.5,75.1 64.5,76.1 61.2,76.1 61.2,78 
				65,78 65,79.1 60,79.1 60,72.1 			"/>
			<path id="Fill-12" class="st0" d="M72.7,77.5C73,77.8,73.4,78,74,78c0.6,0,1-0.2,1.3-0.6c0.3-0.4,0.5-0.9,0.5-1.5v-3.8H77V76
				c0,1-0.3,1.8-0.8,2.3c-0.6,0.5-1.3,0.8-2.2,0.8c-0.9,0-1.6-0.3-2.2-0.8C71.3,77.8,71,77,71,76v-3.9h1.2V76
				C72.2,76.6,72.4,77.1,72.7,77.5"/>
			<polygon id="Fill-13" class="st0" points="85,73.2 85,79.1 84,79.1 84,73.2 82,73.2 82,72.1 87,72.1 87,73.2 			"/>
			<path id="Fill-14" class="st0" d="M94.5,73.2c-0.3,0-0.6,0.1-0.8,0.2c-0.2,0.1-0.3,0.3-0.3,0.6c0,0.3,0.1,0.5,0.3,0.6
				c0.2,0.1,0.6,0.3,1.3,0.5c0.7,0.2,1.2,0.4,1.5,0.7c0.3,0.3,0.5,0.7,0.5,1.3c0,0.6-0.2,1.1-0.6,1.4c-0.4,0.4-1,0.6-1.7,0.6
				c-1,0-1.9-0.4-2.7-1.1l0.7-0.9c0.7,0.6,1.3,0.9,2,0.9c0.4,0,0.6-0.1,0.8-0.2c0.2-0.2,0.3-0.4,0.3-0.6c0-0.3-0.1-0.5-0.3-0.6
				c-0.2-0.1-0.5-0.3-1-0.4c-0.5-0.1-0.8-0.2-1.1-0.3c-0.2-0.1-0.5-0.2-0.7-0.4c-0.4-0.3-0.6-0.8-0.6-1.4s0.2-1.1,0.7-1.4
				c0.4-0.3,1-0.5,1.6-0.5c0.4,0,0.8,0.1,1.2,0.2c0.4,0.1,0.8,0.3,1.1,0.6l-0.6,0.9c-0.2-0.2-0.5-0.3-0.8-0.4
				C95.1,73.2,94.8,73.2,94.5,73.2"/>
			<path id="Fill-15" class="st0" d="M105.4,78c0.4,0,0.7-0.1,1-0.2c0.3-0.1,0.6-0.3,0.9-0.6l0.7,0.8c-0.7,0.8-1.5,1.2-2.5,1.2
				s-1.8-0.3-2.4-1c-0.6-0.7-1-1.5-1-2.5c0-1,0.3-1.8,1-2.5c0.7-0.7,1.5-1,2.5-1s1.8,0.4,2.5,1.2l-0.7,0.8c-0.3-0.3-0.6-0.5-0.9-0.6
				c-0.3-0.1-0.6-0.2-1-0.2c-0.7,0-1.2,0.2-1.7,0.7c-0.4,0.4-0.7,1-0.7,1.7c0,0.7,0.2,1.3,0.7,1.7C104.2,77.8,104.8,78,105.4,78"/>
			<polygon id="Fill-16" class="st0" points="113,79.1 113,72.1 114,72.1 114,75.2 117,75.2 117,72.1 118,72.1 118,79.1 117,79.1 
				117,76.3 114,76.3 114,79.1 			"/>
			<polygon id="Fill-17" class="st0" points="125,79.1 125,72.1 126.1,72.1 126.1,78 129,78 129,79.1 			"/>
			<path id="Fill-18" class="st0" d="M138.7,76.4l-1.2-2.9l-1.2,2.9H138.7z M135.8,77.5l-0.7,1.6H134l2.9-7h1.2l2.9,7h-1.2l-0.7-1.6
				H135.8z"/>
			<polygon id="Fill-19" class="st0" points="150.9,72.1 152,72.1 152,79.1 150.8,79.1 147.1,74 147.1,79.1 146,79.1 146,72.1 
				147.1,72.1 150.9,77.4 			"/>
			<path id="Fill-20" class="st0" d="M162.9,75.6c0-1.6-0.9-2.4-2.6-2.4h-1.1V78h1.2c0.8,0,1.4-0.2,1.9-0.6
				C162.7,77,162.9,76.4,162.9,75.6 M163,73c0.6,0.6,1,1.5,1,2.5c0,1.1-0.3,1.9-0.9,2.6c-0.6,0.6-1.6,1-2.9,1H158v-7h2.3
				C161.5,72.1,162.4,72.4,163,73"/>
			<path id="Fill-21" class="st0" d="M20,74.1c5.7-0.8,10-5.5,10-11.3c0-3.5-1.6-6.6-4.1-8.7L20,59.9V74.1z"/>
			<path id="Fill-22" class="st0" d="M17,74.1V59.9l-5.9-5.7C8.6,56.2,7,59.3,7,62.8C7,68.6,11.3,73.3,17,74.1"/>
			<path id="Fill-23" class="st0" d="M29.2,53.1c2.7,2.7,4.2,6.3,4.2,10.1c0,3.8-1.5,7.4-4.2,10.1s-6.3,4.2-10.2,4.2
				c-3.8,0-7.4-1.5-10.2-4.2S4.6,67,4.6,63.2c0-3.8,1.5-7.4,4.2-10.1c0.2-0.2,0.5-0.5,0.7-0.7l-3.3-3.3c-0.2,0.2-0.5,0.4-0.7,0.7
				c-1.7,1.7-3.1,3.8-4.1,6c-1,2.3-1.5,4.8-1.5,7.4c0,2.6,0.5,5,1.5,7.4c1,2.3,2.3,4.3,4.1,6c1.7,1.7,3.8,3.1,6,4.1
				c2.3,1,4.8,1.5,7.4,1.5s5.1-0.5,7.4-1.5c2.3-1,4.3-2.3,6-4.1c1.7-1.7,3.1-3.8,4.1-6c1-2.3,1.5-4.8,1.5-7.4c0-2.6-0.5-5-1.5-7.4
				c-1-2.3-2.3-4.3-4.1-6c-0.2-0.2-0.5-0.5-0.7-0.7l-3.3,3.3C28.7,52.6,28.9,52.8,29.2,53.1"/>
			<path id="Fill-24" class="st0" d="M19,44.1c3.3,0,6,2.7,6,6c0,3.3-2.7,6-6,6s-6-2.7-6-6C13,46.8,15.7,44.1,19,44.1"/>
		</g>
	</g>
</g>
<g transform="matrix(1,0,0,1,-1158.88,-250.764)">
	<g transform="matrix(1,0,0,1,947.126,0)">
		<g transform="matrix(1,0,0,1,354.679,296.398)">
			<path d="M-74.1-29.5l-8.5-11.2h-3.6v17.4h3.9v-10.9l8.3,10.9h3.9v-17.4h-3.9V-29.5z M-58-23.3v-3.5h-6.7v-14h-3.9v17.4H-58z
				 M-46.4-28.2c-1,1.1-2.2,1.6-3.7,1.6s-2.7-0.5-3.7-1.6c-1-1.1-1.5-2.4-1.5-4c0-1.6,0.5-2.9,1.5-4c1-1.1,2.2-1.6,3.7-1.6
				s2.7,0.5,3.7,1.6c1,1.1,1.5,2.4,1.5,4C-44.9-30.6-45.4-29.3-46.4-28.2 M-40.9-32.1c0-2.6-0.9-4.7-2.6-6.4
				c-1.8-1.7-3.9-2.6-6.5-2.6c-2.6,0-4.7,0.9-6.5,2.6c-1.8,1.7-2.6,3.9-2.6,6.4c0,2.6,0.9,4.7,2.6,6.4c1.8,1.7,3.9,2.6,6.5,2.6
				c2.6,0,4.7-0.9,6.5-2.6C-41.8-27.4-40.9-29.6-40.9-32.1 M-34.8-28.2c-1-1-1.5-2.3-1.5-3.9c0-1.6,0.5-2.9,1.6-3.9
				c1-1,2.3-1.4,3.7-1.4c1.8,0,3.4,0.8,4.6,2.3l2.4-2.7c-1.9-2.2-4.3-3.3-7.2-3.3c-2.6,0-4.7,0.9-6.5,2.6c-1.8,1.7-2.7,3.9-2.7,6.5
				c0,2.6,0.9,4.7,2.6,6.4c1.7,1.7,3.9,2.5,6.6,2.5c2.7,0,5-1.1,7-3.3l-2.5-2.6c-1.2,1.5-2.8,2.3-4.7,2.3
				C-32.7-26.8-33.9-27.3-34.8-28.2 M-23.4-23.3h3.9v-4.9l1.7-1.9l5.1,6.9h4.5c-0.8-1.1-2-2.8-3.6-5.1c-1.6-2.3-2.7-3.8-3.3-4.6
				l6.9-7.7H-13l-6.6,7.2v-7.2h-3.9V-23.3z"/>
		</g>
	</g>
	<g transform="matrix(1,0,0,1,947.126,0)">
		<g transform="matrix(1,0,0,1,250.911,318.725)">
			<path d="M4.9-53.4l0-6.3H1l0,6.4c0,2.5,0.7,4.4,2.1,5.8c1.4,1.4,3.2,2,5.4,2c2.2,0,4-0.7,5.4-2c1.4-1.4,2.1-3.3,2.1-5.8v-6.4
				h-3.9v6.3c0,1.4-0.3,2.5-1,3.3c-0.6,0.8-1.5,1.2-2.6,1.2c-1.1,0-2-0.4-2.6-1.2C5.2-50.9,4.9-52,4.9-53.4"/>
		</g>
	</g>
	<g transform="matrix(1,0,0,1,947.126,0)">
		<g transform="matrix(1,0,0,1,228.026,277.479)">
			<path d="M22.3-18.7v0.3h-3.9v-0.4c0-2.5,0.7-4.4,2.1-5.8c1.4-1.4,3.2-2,5.4-2c2.2,0,4,0.7,5.4,2c1.4,1.4,2.1,3.3,2.1,5.8v6.5
				h-3.9v-6.4c0-1.4-0.3-2.5-1-3.3c-0.6-0.8-1.5-1.2-2.6-1.2c-1.1,0-2,0.4-2.6,1.2C22.6-21.2,22.3-20.1,22.3-18.7"/>
		</g>
	</g>
</g>
</svg>
