<svg id="Layer_1" data-name="Layer 1" xmlns="http://www.w3.org/2000/svg" viewBox="0 0 575.94 540.44"><path d="M135.69,337.88l-1.58,1.57a12.86,12.86,0,0,1,4.28.63,8.41,8.41,0,0,1,3,2,7.57,7.57,0,0,1,1.81,3,12,12,0,0,1,.54,4.12,15,15,0,0,1,4.69,1.14,11.61,11.61,0,0,1,3.6,2.43,10.49,10.49,0,0,1,3.36,6.67,10,10,0,0,1-3.14,8.23l-12.43,12.43a5.17,5.17,0,0,1,1.78,3.36,3.69,3.69,0,0,1-1.16,2.84,3.65,3.65,0,0,1-2.83,1.16,5.93,5.93,0,0,1-3.62-2.08l-5.28-5.28,17.53-17.52a3.7,3.7,0,0,0,1.3-2.22,2.66,2.66,0,0,0-.92-1.9,4.58,4.58,0,0,0-2.2-1.22,17,17,0,0,0-5,.11l-11.19,11.19a5.15,5.15,0,0,1,1.79,3.36,3.94,3.94,0,0,1-4,4,5.88,5.88,0,0,1-3.61-2.07l-5.28-5.28L134.71,351a3.53,3.53,0,0,0,1.27-2.22,2.6,2.6,0,0,0-.92-1.92,4.92,4.92,0,0,0-2.53-1.31,13.91,13.91,0,0,0-4.7.14l-11.19,11.19a5.28,5.28,0,0,1,1.81,3.37,3.67,3.67,0,0,1-1.16,2.86,3.63,3.63,0,0,1-2.84,1.14,6,6,0,0,1-3.63-2.09l-5-5a6,6,0,0,1-2.08-3.63,3.95,3.95,0,0,1,4-4,5.31,5.31,0,0,1,3.37,1.83l13.49-13.49a5.2,5.2,0,0,1-1.81-3.38,3.7,3.7,0,0,1,1.16-2.85,3.64,3.64,0,0,1,2.84-1.14,6,6,0,0,1,3.63,2.09Z" style="fill:#ceb9d1"/><path d="M158,409.33l1.3-1.3a25.42,25.42,0,0,1-6.27-2.94,30.33,30.33,0,0,1-5.13-4,15.31,15.31,0,0,1-4.89-9.63q-.42-5.16,2.45-8,3.5-3.5,10.05-2.92t12.83,6.85a52.61,52.61,0,0,1,5.29,6.36l1.32-1.33a3.44,3.44,0,0,0,1-3.1q-.28-1.84-3.3-4.86a38.85,38.85,0,0,0-7.36-5.41,15.3,15.3,0,0,1-2.63-1.93,3.54,3.54,0,0,1-1.08-2.68,4,4,0,0,1,1.27-2.82,3.63,3.63,0,0,1,1.49-.94,2.93,2.93,0,0,1,1.58-.07,12.49,12.49,0,0,1,2.78,1.28,56.81,56.81,0,0,1,5.11,3.29,35.37,35.37,0,0,1,4.21,3.54q5.17,5.18,5.79,10.26a10.37,10.37,0,0,1-3.25,9l-11.43,11.43.95.95a6,6,0,0,1,2.09,3.63,3.69,3.69,0,0,1-1.17,2.87,3.64,3.64,0,0,1-2.84,1.14,6,6,0,0,1-3.63-2.09Zm9.94-9.94a45.49,45.49,0,0,0-5.5-6.8,14.3,14.3,0,0,0-7.47-4.17c-1.72-.31-2.94-.1-3.66.62a2.09,2.09,0,0,0-.54,2,9.36,9.36,0,0,0,2.81,4.6,21.68,21.68,0,0,0,5.33,3.75,23.11,23.11,0,0,0,6.65,2.37Z" style="fill:#ceb9d1"/><path d="M218.48,422.68a4.28,4.28,0,0,1,3,1.11,3.63,3.63,0,0,1,1.11,2.82,5.94,5.94,0,0,1-2.06,3.6L217,433.79a6,6,0,0,1-3.62,2.07,3.73,3.73,0,0,1-2.86-1.18,4.18,4.18,0,0,1-1.27-2.57,5.21,5.21,0,0,1,1.1-2.89,4.63,4.63,0,0,0,.66-3.8,15.41,15.41,0,0,0-4.31-6.91,12.18,12.18,0,0,0-8.59-4,11,11,0,0,0-8.2,3.45,8.93,8.93,0,0,0-2.86,7.41q.4,4.15,5.68,9.44a26.65,26.65,0,0,0,6.36,4.95,9.91,9.91,0,0,0,3.94,1,4.74,4.74,0,0,1,3.16,1.07,3.75,3.75,0,0,1,1.12,2.8,3.87,3.87,0,0,1-1.15,2.81q-1.84,1.85-6,1-6.21-1.28-13.41-8.48-6.47-6.46-7.39-12.75a16.42,16.42,0,0,1,5-14.74,18.7,18.7,0,0,1,13.78-5.86q7.83.07,14.2,6.43a28.19,28.19,0,0,1,3.85,4.72A20.7,20.7,0,0,1,218.48,422.68Z" style="fill:#ceb9d1"/><path d="M248.93,430.05l-11.84,11.84a20.43,20.43,0,0,1,5,2,18.8,18.8,0,0,1,4.09,3.09,18,18,0,0,1,4.14,6.09,12.33,12.33,0,0,1,.65,6.8,12.65,12.65,0,0,1-3.82,6.77L236.77,477a8.54,8.54,0,0,1,2.35,3.17,3.77,3.77,0,0,1-1.08,3.68,3.61,3.61,0,0,1-2.83,1.15c-1.08,0-2.28-.73-3.62-2.07l-6.34-6.34a5.87,5.87,0,0,1-2.05-3.6,3.65,3.65,0,0,1,1.16-2.87A3.78,3.78,0,0,1,228,469.1a8.15,8.15,0,0,1,3.17,2.36l10-10q2.15-2.13,2-4a7.69,7.69,0,0,0-2.6-4.93,10,10,0,0,0-4-2.54,24.4,24.4,0,0,0-6.93-.73l-10.4,10.4a8.43,8.43,0,0,1,2.36,3.16,3.78,3.78,0,0,1-1.06,3.71,3.57,3.57,0,0,1-2.84,1.14,6,6,0,0,1-3.63-2.08l-6.31-6.31a6,6,0,0,1-2.09-3.63,3.64,3.64,0,0,1,1.17-2.87,3.7,3.7,0,0,1,3.68-1c.72.14,1.78.93,3.17,2.35l24-24-.95-.95a6,6,0,0,1-2.08-3.63,3.93,3.93,0,0,1,4-4,6,6,0,0,1,3.62,2.09Z" style="fill:#ceb9d1"/><path d="M270.48,483.78l-11.13,11.14c-1.19,1.19-1.73,2.22-1.62,3.08q.24,2,3.17,5a24.28,24.28,0,0,0,9.67,6,7.51,7.51,0,0,1,2.87,1.46,3.66,3.66,0,0,1,1.07,2.7,3.85,3.85,0,0,1-1.18,2.77,3.45,3.45,0,0,1-2.74,1Q268,516.88,263,514a36.75,36.75,0,0,1-7.67-5.53c-3.44-3.45-5.29-6.78-5.52-10a9.82,9.82,0,0,1,2.9-8.07l12.21-12.22-2-2a6,6,0,0,1-2.09-3.63,3.95,3.95,0,0,1,4-4,6,6,0,0,1,3.63,2.08l2,2,5-5a6,6,0,0,1,3.62-2.09,3.7,3.7,0,0,1,2.88,1.17,3.6,3.6,0,0,1,1.13,2.84,6,6,0,0,1-2.08,3.63l-5,5L286.3,488.5a6,6,0,0,1,2.09,3.63,3.69,3.69,0,0,1-1.17,2.87,3.64,3.64,0,0,1-2.84,1.14,6,6,0,0,1-3.63-2.09Z" style="fill:#ceb9d1"/><path d="M293.13,538.93a4.94,4.94,0,0,1-3.74,1.51,7,7,0,0,1-6.12-6.12,5.19,5.19,0,0,1,5.25-5.25,7,7,0,0,1,6.12,6.12A4.94,4.94,0,0,1,293.13,538.93Z" style="fill:#ceb9d1"/><path d="M327.12,454.86a15.5,15.5,0,0,0-4.1,1.58,15.93,15.93,0,0,0-3.54,2.69,14.89,14.89,0,0,0-4.06,6.18c-.26.87-.2,1.48.16,1.84s1.2.44,2.36.08a22.06,22.06,0,0,0,4.71-3,64.17,64.17,0,0,1,9.21-6.18,13.21,13.21,0,0,1,7.36-1.4,9.4,9.4,0,0,1,5.72,2.62,8.57,8.57,0,0,1,2.36,7.61q-.87,6.67-6.88,12.68a31.25,31.25,0,0,1-4.88,4,22.44,22.44,0,0,1-5,2.52,4.55,4.55,0,0,1-.33,1.41,3.4,3.4,0,0,1-.76,1.14,3.75,3.75,0,0,1-2.92,1.22,6,6,0,0,1-3.63-2.09l-1.87-1.87a6,6,0,0,1-2.08-3.62,4,4,0,0,1,3.39-4,5.22,5.22,0,0,1,3,.85,12.06,12.06,0,0,0,4.7-1.42,19.64,19.64,0,0,0,4.67-3.56q3.82-3.83,4.74-7.12.4-1.61-.24-2.25c-.72-.72-1.8-.84-3.22-.35s-3.81,2.06-7.13,4.74q-7.39,6-11.65,6.23a8.83,8.83,0,0,1-7.12-2.63,8.57,8.57,0,0,1-2.43-7.48q.69-6.12,6.22-11.64a25.16,25.16,0,0,1,4.07-3.33,21.54,21.54,0,0,1,4.52-2.28,6.94,6.94,0,0,1,.39-1.53,3.18,3.18,0,0,1,.64-1,3.47,3.47,0,0,1,2.75-1,6,6,0,0,1,3.61,2.1l1.36,1.36a6.83,6.83,0,0,1,2,2.89,3.89,3.89,0,0,1-1.11,3.61,3.84,3.84,0,0,1-2.39,1.13A4,4,0,0,1,327.12,454.86Z" style="fill:#a0cfaf"/><path d="M362.54,449.49l9.11,9.1,3.33-3.33a6,6,0,0,1,3.62-2.08,3.65,3.65,0,0,1,2.88,1.16,3.61,3.61,0,0,1,1.13,2.85,6,6,0,0,1-2.08,3.62l-9.83,9.84a6,6,0,0,1-3.63,2.08,3.59,3.59,0,0,1-2.85-1.14,3.64,3.64,0,0,1-1.15-2.88,6.05,6.05,0,0,1,2.08-3.62l.94-.94L341,439.07l-.95.94a6,6,0,0,1-3.62,2.09,3.68,3.68,0,0,1-2.88-1.17,3.6,3.6,0,0,1-1.13-2.84,6,6,0,0,1,2.08-3.63L341,428l1.9,1.9a21.3,21.3,0,0,1,2.06-6,20.07,20.07,0,0,1,3.63-4.93,19,19,0,0,1,13.55-5.83q7.88-.15,12.85,4.83,5.5,5.5,4.34,13.82a20.36,20.36,0,0,1-5.94,11.88,20.78,20.78,0,0,1-4.84,3.61A25.47,25.47,0,0,1,362.54,449.49Zm6.94-26a9.8,9.8,0,0,0-3.89-2,10.85,10.85,0,0,0-5.84-.18,11.58,11.58,0,0,0-5.68,3.28,11.17,11.17,0,0,0-3.47,9.69,9.69,9.69,0,0,0,2.46,5.77q2.24,2.22,6.7,1.95a13.11,13.11,0,0,0,11.75-11.72C371.69,427.27,371,425,369.48,423.49Z" style="fill:#a0cfaf"/><path d="M380,388.93l3.47,3.47a43.61,43.61,0,0,1,2.15-8.87,14,14,0,0,1,2.94-4.62,11.89,11.89,0,0,1,7.26-3.25q3.09-.37,4.49,1a4,4,0,0,1,0,5.66,4.68,4.68,0,0,1-3.19,1.14,4.63,4.63,0,0,0-3.07,1c-.77.78-1.44,2.42-2,4.94a77.76,77.76,0,0,0-1.4,10.17l8.37,8.37,7.91-7.91a6,6,0,0,1,3.63-2.08,3.93,3.93,0,0,1,4,4,6,6,0,0,1-2.09,3.63l-16.76,16.76a6,6,0,0,1-3.63,2.09,3.68,3.68,0,0,1-2.87-1.17,3.57,3.57,0,0,1-1.14-2.84,6,6,0,0,1,2.08-3.63l3.31-3.31L380,400l-2,2a6,6,0,0,1-3.63,2.09,3.68,3.68,0,0,1-2.87-1.17,3.57,3.57,0,0,1-1.14-2.84,6,6,0,0,1,2.08-3.63Z" style="fill:#a0cfaf"/><path d="M444.07,374.09l-1.3-1.3a25.42,25.42,0,0,1-2.94,6.27,30.33,30.33,0,0,1-4,5.13,15.31,15.31,0,0,1-9.63,4.89q-5.16.42-8-2.45-3.5-3.5-2.93-10.05t6.85-12.84a52.79,52.79,0,0,1,6.37-5.28l-1.33-1.32a3.41,3.41,0,0,0-3.1-1q-1.86.29-4.86,3.29a39.73,39.73,0,0,0-5.42,7.37,14.83,14.83,0,0,1-1.92,2.63,3.54,3.54,0,0,1-2.68,1.08,4,4,0,0,1-2.82-1.27,3.76,3.76,0,0,1-.95-1.49,3.06,3.06,0,0,1-.06-1.59,12.2,12.2,0,0,1,1.28-2.77,56.81,56.81,0,0,1,3.29-5.11,35.37,35.37,0,0,1,3.54-4.21q5.18-5.18,10.26-5.79a10.34,10.34,0,0,1,9,3.25L444.07,363,445,362a6,6,0,0,1,3.63-2.09,3.69,3.69,0,0,1,2.87,1.17,3.6,3.6,0,0,1,1.13,2.84,6,6,0,0,1-2.08,3.63Zm-9.94-9.94a45.49,45.49,0,0,0-6.8,5.5,14.3,14.3,0,0,0-4.17,7.47c-.31,1.72-.1,2.94.62,3.66a2.11,2.11,0,0,0,2,.54,9.31,9.31,0,0,0,4.6-2.82,21.41,21.41,0,0,0,3.75-5.32,23.11,23.11,0,0,0,2.37-6.65Z" style="fill:#a0cfaf"/><path d="M457.42,313.56a4.3,4.3,0,0,1,1.11-3,3.61,3.61,0,0,1,2.82-1.11,5.89,5.89,0,0,1,3.6,2.06l3.57,3.57a6,6,0,0,1,2.08,3.62,3.73,3.73,0,0,1-1.18,2.86,4.12,4.12,0,0,1-2.57,1.27,5.21,5.21,0,0,1-2.89-1.1,4.64,4.64,0,0,0-3.8-.66,15.36,15.36,0,0,0-6.91,4.31,12.18,12.18,0,0,0-4,8.6,11,11,0,0,0,3.45,8.19,8.94,8.94,0,0,0,7.41,2.86q4.15-.4,9.43-5.68a26.73,26.73,0,0,0,5-6.36,9.91,9.91,0,0,0,1-3.94,4.74,4.74,0,0,1,1.07-3.16,3.75,3.75,0,0,1,2.8-1.12,3.87,3.87,0,0,1,2.81,1.15c1.22,1.23,1.55,3.23,1,6q-1.27,6.19-8.48,13.41-6.46,6.46-12.75,7.39a16.4,16.4,0,0,1-14.74-5A18.66,18.66,0,0,1,441.32,334q.06-7.85,6.43-14.21a28.55,28.55,0,0,1,4.71-3.85A20.94,20.94,0,0,1,457.42,313.56Z" style="fill:#a0cfaf"/><path d="M464.79,283.11,476.62,295a20.84,20.84,0,0,1,2-5,18.8,18.8,0,0,1,3.09-4.09,18,18,0,0,1,6.09-4.14,12.33,12.33,0,0,1,6.8-.65,12.69,12.69,0,0,1,6.77,3.82l10.43,10.42a8.54,8.54,0,0,1,3.17-2.35,3.77,3.77,0,0,1,3.68,1.08,3.64,3.64,0,0,1,1.15,2.83c0,1.08-.74,2.28-2.07,3.62l-6.34,6.34a5.92,5.92,0,0,1-3.6,2,3.65,3.65,0,0,1-2.87-1.16,3.78,3.78,0,0,1-1.06-3.66,8.15,8.15,0,0,1,2.36-3.17l-10.05-10q-2.13-2.15-4-2a7.64,7.64,0,0,0-4.93,2.61,10,10,0,0,0-2.55,4,25.22,25.22,0,0,0-.73,6.93l10.4,10.4a8.51,8.51,0,0,1,3.17-2.36,3.78,3.78,0,0,1,3.71,1.06,3.61,3.61,0,0,1,1.14,2.84,5.92,5.92,0,0,1-2.09,3.63L494,324.17a6,6,0,0,1-3.63,2.09,3.66,3.66,0,0,1-2.87-1.17,3.71,3.71,0,0,1-1-3.68c.14-.72.93-1.78,2.35-3.17l-24-24-1,.95a6,6,0,0,1-3.63,2.08,3.93,3.93,0,0,1-4-4,6,6,0,0,1,2.09-3.63Z" style="fill:#a0cfaf"/><path d="M543.38,255.81l-22.77,22.78a10,10,0,0,0,6.57.42,16.27,16.27,0,0,0,7.29-4.64,48.91,48.91,0,0,0,6.89-9.54,19.57,19.57,0,0,1,2.38-3.46,3.52,3.52,0,0,1,2.65-1.09,3.91,3.91,0,0,1,2.74,1.22,3.47,3.47,0,0,1,1,2.66c-.06,1.39-1.18,3.78-3.37,7.19a54.46,54.46,0,0,1-7.17,9Q533,287,525.2,287.22A17.31,17.31,0,0,1,511.94,282a16.84,16.84,0,0,1-5.2-13.84A21.08,21.08,0,0,1,513,254.49a22.57,22.57,0,0,1,7.41-5,18.78,18.78,0,0,1,6.79-1.64,23.09,23.09,0,0,1,8.18,1.74,17.16,17.16,0,0,1,5.63,3.9Zm-11.69.6a12.27,12.27,0,0,0-6.9-.23A15.16,15.16,0,0,0,515,266a12.61,12.61,0,0,0,.21,6.92Z" style="fill:#a0cfaf"/><path d="M573.67,238.91a4.94,4.94,0,0,1,1.51,3.74,7,7,0,0,1-6.12,6.12,5.17,5.17,0,0,1-5.25-5.25,7,7,0,0,1,6.12-6.12A4.94,4.94,0,0,1,573.67,238.91Z" style="fill:#a0cfaf"/><rect x="180.91" y="253.15" width="314.4" height="36.86" transform="translate(-93 318.62) rotate(-45)" style="fill:#a0cfaf"/><rect x="229.95" y="302.19" width="314.4" height="36.86" transform="translate(-113.32 367.66) rotate(-45)" style="fill:#a0cfaf"/><rect x="131.87" y="204.11" width="314.4" height="36.86" transform="translate(-72.69 269.58) rotate(-45)" style="fill:#a0cfaf"/><rect x="82.83" y="155.07" width="314.4" height="36.86" transform="translate(-52.38 220.54) rotate(-45)" style="fill:#a0cfaf"/><rect x="33.79" y="106.03" width="314.4" height="36.86" transform="translate(-32.06 171.5) rotate(-45)" style="fill:#a0cfaf"/><rect x="221.58" y="114.46" width="36.87" height="314.27" transform="translate(-121.75 249.26) rotate(-45)" style="fill:#ceb9d1"/><rect x="172.52" y="163.52" width="36.87" height="314.27" transform="translate(-170.81 228.94) rotate(-45)" style="fill:#ceb9d1"/><rect x="270.64" y="65.4" width="36.87" height="314.27" transform="translate(-72.69 269.58) rotate(-45)" style="fill:#ceb9d1"/><rect x="319.7" y="16.34" width="36.87" height="314.27" transform="translate(-23.63 289.9) rotate(-45)" style="fill:#ceb9d1"/><rect x="368.76" y="-32.72" width="36.87" height="314.27" transform="translate(25.43 310.23) rotate(-45)" style="fill:#ceb9d1"/><rect x="172.56" y="204.14" width="36.87" height="36.87" transform="translate(-101.45 200.25) rotate(-45)" style="fill:#a0cfaf"/><rect x="270.62" y="302.21" width="36.87" height="36.87" transform="translate(-142.06 298.31) rotate(-45)" style="fill:#a0cfaf"/><rect x="270.64" y="204.11" width="36.87" height="36.86" transform="translate(-72.69 269.58) rotate(-45)" style="fill:#a0cfaf"/><rect x="270.67" y="105.99" width="36.9" height="36.9" transform="translate(-3.31 240.88) rotate(-45)" style="fill:#a0cfaf"/><rect x="368.85" y="204.21" width="36.77" height="36.77" transform="translate(-43.98 339.01) rotate(-45)" style="fill:#a0cfaf"/></svg>