<svg xmlns="http://www.w3.org/2000/svg" viewBox="0 0 65 96"><g id="FILM"><rect x="1" y="1" width="63" height="94" style="fill:#fff"/><path d="M63,2V94H2V2H63m2-2H0V96H65V0Z"/><rect x="4" y="4" width="4" height="4"/><rect x="4" y="10.29" width="4" height="4"/><rect x="4" y="16.57" width="4" height="4"/><rect x="4" y="22.86" width="4" height="4"/><rect x="4" y="29.14" width="4" height="4"/><rect x="4" y="35.43" width="4" height="4"/><rect x="4" y="41.14" width="4" height="4"/><rect x="4" y="47.43" width="4" height="4"/><rect x="4" y="54" width="4" height="4"/><rect x="4" y="60.29" width="4" height="4"/><rect x="4" y="66.57" width="4" height="4"/><rect x="4" y="72.86" width="4" height="4"/><rect x="4" y="79.14" width="4" height="4"/><rect x="4" y="85.43" width="4" height="4"/><rect x="4" y="91.14" width="4" height="4"/><rect x="57" y="4" width="4" height="4"/><rect x="57" y="10.29" width="4" height="4"/><rect x="57" y="16.57" width="4" height="4"/><rect x="57" y="22.86" width="4" height="4"/><rect x="57" y="29.14" width="4" height="4"/><rect x="57" y="35.43" width="4" height="4"/><rect x="57" y="41.14" width="4" height="4"/><rect x="57" y="47.43" width="4" height="4"/><rect x="57" y="54" width="4" height="4"/><rect x="57" y="60.29" width="4" height="4"/><rect x="57" y="66.57" width="4" height="4"/><rect x="57" y="72.86" width="4" height="4"/><rect x="57" y="79.14" width="4" height="4"/><rect x="57" y="85.43" width="4" height="4"/><rect x="57" y="91.14" width="4" height="4"/><rect x="10" y="4" width="45" height="24"/><path d="M21.3,29s.36-4.46,3.28-5.22C27.14,23.12,28,22.27,28,20.1c0-1.35-3.55-1.62-3.72-5.74s2.86-5.89,5.64-6,6.48,1.51,6.31,4.71-2.27,4.12-2.1,6.73,6.48,3.11,6.48,5.64V29H21.3" style="fill:#fff"/><rect x="10" y="32" width="45" height="24"/><path d="M24.3,57s.36-4.46,3.28-5.22C30.14,51.12,31,50.27,31,48.1c0-1.35-3.55-1.62-3.72-5.74s2.86-5.89,5.64-6,6.48,1.51,6.31,4.71-2.27,4.12-2.1,6.73,6.48,3.11,6.48,5.64V57H24.3" style="fill:#fff"/><rect x="10" y="59" width="45" height="24"/><path d="M28.3,84s.36-4.46,3.28-5.22C34.14,78.12,35,77.27,35,75.1c0-1.35-3.55-1.62-3.72-5.74s2.86-5.89,5.64-6,6.48,1.51,6.31,4.71-2.27,4.12-2.1,6.73,6.48,3.11,6.48,5.64V84H28.3" style="fill:#fff"/><rect x="10" y="86" width="45" height="24"/><path d="M32.3,111s.36-4.46,3.28-5.22c2.56-.66,3.37-1.51,3.38-3.68,0-1.35-3.55-1.62-3.72-5.74s2.86-5.89,5.64-6,6.48,1.51,6.31,4.71-2.27,4.12-2.1,6.73,6.48,3.11,6.48,5.64V111H32.3" style="fill:#fff"/></g></svg>