<svg xmlns="http://www.w3.org/2000/svg" viewBox="0 0 65 96"><g id="FILM"><rect x="1" y="1" width="63" height="94" style="fill:#fff"/><path d="M63,2V94H2V2H63m2-2H0V96H65V0Z"/><rect x="4" y="4" width="4" height="4"/><rect x="4" y="10.29" width="4" height="4"/><rect x="4" y="16.57" width="4" height="4"/><rect x="4" y="22.86" width="4" height="4"/><rect x="4" y="29.14" width="4" height="4"/><rect x="4" y="35.43" width="4" height="4"/><rect x="4" y="41.14" width="4" height="4"/><rect x="4" y="47.43" width="4" height="4"/><rect x="4" y="54" width="4" height="4"/><rect x="4" y="60.29" width="4" height="4"/><rect x="4" y="66.57" width="4" height="4"/><rect x="4" y="72.86" width="4" height="4"/><rect x="4" y="79.14" width="4" height="4"/><rect x="4" y="85.43" width="4" height="4"/><rect x="4" y="91.14" width="4" height="4"/><rect x="57" y="4" width="4" height="4"/><rect x="57" y="10.29" width="4" height="4"/><rect x="57" y="16.57" width="4" height="4"/><rect x="57" y="22.86" width="4" height="4"/><rect x="57" y="29.14" width="4" height="4"/><rect x="57" y="35.43" width="4" height="4"/><rect x="57" y="41.14" width="4" height="4"/><rect x="57" y="47.43" width="4" height="4"/><rect x="57" y="54" width="4" height="4"/><rect x="57" y="60.29" width="4" height="4"/><rect x="57" y="66.57" width="4" height="4"/><rect x="57" y="72.86" width="4" height="4"/><rect x="57" y="79.14" width="4" height="4"/><rect x="57" y="85.43" width="4" height="4"/><rect x="57" y="91.14" width="4" height="4"/><path d="M53,6V26H42.57v-.53c0-2.72-2.74-3.6-4.55-4.19a9.44,9.44,0,0,1-1.94-.77,3.86,3.86,0,0,1,.69-1.87,9.61,9.61,0,0,0,1.42-4.44A5.64,5.64,0,0,0,36.59,10a9.24,9.24,0,0,0-6.5-2.57h-.27a8.07,8.07,0,0,0-5.66,2.43,7.55,7.55,0,0,0-1.91,5.62,7.25,7.25,0,0,0,3.44,6l0,0c-.2.06-.44.11-.65.16l-1,.25A6.15,6.15,0,0,0,20,26H12V6H53m2-2H10V28H21.46c.29-1.36,1.08-3.69,3.12-4.22,2.56-.66,3.37-.51,3.38-2.68,0-1.35-3.55-1.62-3.72-5.74s2.86-5.89,5.64-6h.21c2.75,0,6.26,1.6,6.1,4.72s-2.27,4.12-2.1,6.73,6.48,2.11,6.48,4.64V28H55V4Z"/><path d="M53,34V54H45.57v-.53c0-2.72-2.74-3.6-4.55-4.19a9.44,9.44,0,0,1-1.94-.77,3.86,3.86,0,0,1,.69-1.87,9.61,9.61,0,0,0,1.42-4.44A5.64,5.64,0,0,0,39.59,38a9.24,9.24,0,0,0-6.5-2.57h-.27a8.07,8.07,0,0,0-5.66,2.43,7.55,7.55,0,0,0-1.91,5.62,7.25,7.25,0,0,0,3.44,6l0,0c-.2.06-.44.11-.65.16l-1,.25A6.15,6.15,0,0,0,23,54H12V34H53m2-2H10V56H24.46c.29-1.36,1.08-3.69,3.12-4.22,2.56-.66,3.37-.51,3.38-2.68,0-1.35-3.55-1.62-3.72-5.74s2.86-5.89,5.64-6h.21c2.75,0,6.26,1.6,6.1,4.72s-2.27,4.12-2.1,6.73,6.48,2.11,6.48,4.64V56H55V32Z"/><path d="M53,61V81H49.57v-.53c0-2.72-2.74-3.6-4.55-4.19a9.44,9.44,0,0,1-1.94-.77,3.86,3.86,0,0,1,.69-1.87,9.61,9.61,0,0,0,1.42-4.44A5.64,5.64,0,0,0,43.59,65a9.24,9.24,0,0,0-6.5-2.57h-.27a8.07,8.07,0,0,0-5.66,2.43,7.55,7.55,0,0,0-1.91,5.62,7.25,7.25,0,0,0,3.44,6l0,0c-.2.06-.44.11-.65.16l-1,.25A6.15,6.15,0,0,0,27,81H12V61H53m2-2H10V83H28.46c.29-1.36,1.08-3.69,3.12-4.22,2.56-.66,3.37-.51,3.38-2.68,0-1.35-3.55-1.62-3.72-5.74s2.86-5.89,5.64-6h.21c2.75,0,6.26,1.6,6.1,4.72s-2.27,4.12-2.1,6.73,6.48,2.11,6.48,4.64V83H55V59Z"/><path d="M53,88v17.58c-.9-1.3-2.68-1.88-4-2.3a9.44,9.44,0,0,1-1.94-.77,3.86,3.86,0,0,1,.69-1.87,9.61,9.61,0,0,0,1.42-4.44A5.64,5.64,0,0,0,47.59,92a9.24,9.24,0,0,0-6.5-2.57h-.27a8.07,8.07,0,0,0-5.66,2.43,7.55,7.55,0,0,0-1.91,5.62,7.25,7.25,0,0,0,3.44,6l0,0c-.2.06-.44.11-.65.16l-1,.25A6.15,6.15,0,0,0,31,108H12V88H53m2-2H10v24H32.46c.29-1.36,1.08-3.69,3.12-4.22,2.56-.66,3.37-.51,3.38-2.68,0-1.35-3.55-1.62-3.72-5.74s2.86-5.89,5.64-6h.21c2.75,0,6.26,1.6,6.1,4.72s-2.27,4.12-2.1,6.73,6.48,2.11,6.48,4.64V110H55V86Z"/></g></svg>