<svg xmlns="http://www.w3.org/2000/svg" viewBox="0 0 70 96"><g id="Layer_5" data-name="Layer 5"><rect x="1" y="1" width="68" height="94" style="fill:#fff"/><path d="M68,2V94H2V2H68m2-2H0V96H70V0Z"/><path d="M36.33,47.94v2.49A1.79,1.79,0,0,1,36,51.69a1.12,1.12,0,0,1-.88.38,1.17,1.17,0,0,1-.91-.38,1.84,1.84,0,0,1-.35-1.26V46.3q6.42-2.37,8.76-4.75a4.47,4.47,0,0,0,1.32-3.31,7.59,7.59,0,0,0-2.39-5.61,8.49,8.49,0,0,0-6.19-2.33,14.78,14.78,0,0,0-3.65.44,23.84,23.84,0,0,0-4.18,1.64V34.9a1.9,1.9,0,0,1-.33,1.26,1.12,1.12,0,0,1-.9.38,1.1,1.1,0,0,1-.87-.38,1.79,1.79,0,0,1-.36-1.26V30.77A53.92,53.92,0,0,1,31,28.4a19.31,19.31,0,0,1,4.57-.56,10.74,10.74,0,0,1,7.87,2.93,10,10,0,0,1,3,7.42,7.38,7.38,0,0,1-1.77,4.87Q42.84,45.19,36.33,47.94Zm-2.52,9.85h2.46a3,3,0,0,1,3.08,3A2.9,2.9,0,0,1,38.43,63a3,3,0,0,1-2.16.88H33.81A3,3,0,0,1,31.66,63a2.9,2.9,0,0,1-.89-2.13,3,3,0,0,1,.9-2.2A3,3,0,0,1,33.81,57.79Z"/></g></svg>