<svg xmlns="http://www.w3.org/2000/svg" viewBox="0 0 896.04 437.03"><g id="logo_without_gaps" data-name="logo without gaps"><path d="M362.87,387.87l2.37,2.36a19.48,19.48,0,0,1,.93-6.44,12.85,12.85,0,0,1,3.06-4.57,11.29,11.29,0,0,1,4.53-2.73,18.31,18.31,0,0,1,6.2-.82,23.07,23.07,0,0,1,1.72-7.06,17.31,17.31,0,0,1,3.67-5.42q4.65-4.65,10-5.06a15.13,15.13,0,0,1,12.4,4.73l18.72,18.73q2.61-2.61,5.06-2.7a5.61,5.61,0,0,1,4.29,1.76,5.49,5.49,0,0,1,1.73,4.26c-.07,1.62-1.11,3.43-3.12,5.45l-8,7.95-26.39-26.39c-1.28-1.28-2.4-1.93-3.35-2a3.9,3.9,0,0,0-2.85,1.39,6.69,6.69,0,0,0-1.84,3.3,25.38,25.38,0,0,0,.16,7.51L409.09,399q2.61-2.61,5.06-2.7a5.61,5.61,0,0,1,4.29,1.76,5.49,5.49,0,0,1,1.73,4.26q-.1,2.43-3.12,5.45l-8,8L382.7,389.34a5.42,5.42,0,0,0-3.35-1.92,4,4,0,0,0-2.9,1.39,7.57,7.57,0,0,0-2,3.81,21,21,0,0,0,.22,7.08l16.85,16.85c1.74-1.74,3.43-2.65,5.08-2.71a5.53,5.53,0,0,1,4.3,1.73,5.44,5.44,0,0,1,1.72,4.28q-.12,2.46-3.14,5.47L392,432.87c-2,2-3.84,3.06-5.47,3.14a6,6,0,0,1-6.06-6q.1-2.43,2.76-5.08L362.87,404.6q-2.65,2.64-5.1,2.73a5.6,5.6,0,0,1-4.28-1.75,5.47,5.47,0,0,1-1.72-4.29q.12-2.44,3.14-5.47Z" style="fill:#ceb9d1"/><path d="M470.49,354.33l-1.95-2a38.49,38.49,0,0,1-4.43,9.45,45.81,45.81,0,0,1-6.06,7.73q-6.74,6.74-14.5,7.36t-12.1-3.69Q426.19,368,427,358.09t10.33-19.34a78.35,78.35,0,0,1,9.58-8l-2-2a5.15,5.15,0,0,0-4.67-1.45q-2.79.44-7.32,5a59.52,59.52,0,0,0-8.16,11.1,22.07,22.07,0,0,1-2.9,4,5.36,5.36,0,0,1-4,1.63,6,6,0,0,1-4.24-1.92,5.53,5.53,0,0,1-1.43-2.24,4.62,4.62,0,0,1-.1-2.39,18.83,18.83,0,0,1,1.94-4.18,81.72,81.72,0,0,1,5-7.69,54.17,54.17,0,0,1,5.32-6.35q7.8-7.79,15.46-8.73a15.64,15.64,0,0,1,13.51,4.9l17.21,17.22,1.43-1.43c2-2,3.84-3.06,5.47-3.14a5.93,5.93,0,0,1,6,6q-.12,2.46-3.14,5.47Zm-15-15a68.46,68.46,0,0,0-10.24,8.28A21.61,21.61,0,0,0,439,358.9c-.46,2.59-.15,4.42.94,5.51a3.14,3.14,0,0,0,3,.82,14.24,14.24,0,0,0,6.94-4.25,32.92,32.92,0,0,0,5.65-8,35.19,35.19,0,0,0,3.57-10Z" style="fill:#ceb9d1"/><path d="M490.61,263.15a6.37,6.37,0,0,1,1.67-4.53,5.35,5.35,0,0,1,4.24-1.67c1.64.08,3.44,1.11,5.43,3.1l5.38,5.38c2,2,3.06,3.83,3.13,5.45a5.56,5.56,0,0,1-1.78,4.3,6.13,6.13,0,0,1-3.87,1.92c-1.07.08-2.51-.47-4.35-1.65a7,7,0,0,0-5.73-1q-5.26,1.35-10.4,6.49-5.93,5.91-6,12.95a16.53,16.53,0,0,0,5.2,12.34,13.46,13.46,0,0,0,11.16,4.31q6.25-.6,14.22-8.55a40.11,40.11,0,0,0,7.46-9.59,15,15,0,0,0,1.49-5.94c.12-2.21.66-3.8,1.61-4.75a5.68,5.68,0,0,1,4.22-1.69,5.82,5.82,0,0,1,4.23,1.73q2.77,2.78,1.47,9.06-1.92,9.35-12.77,20.2-9.75,9.75-19.22,11.13-12.76,1.92-22.19-7.5-8.94-8.94-8.84-20.75t9.69-21.4a43,43,0,0,1,7.1-5.79A31.82,31.82,0,0,1,490.61,263.15Z" style="fill:#ceb9d1"/><path d="M501.7,217.29l17.83,17.83a31.51,31.51,0,0,1,3-7.59,28.17,28.17,0,0,1,4.65-6.16,27.36,27.36,0,0,1,9.18-6.24,18.59,18.59,0,0,1,10.24-1,19.17,19.17,0,0,1,10.2,5.75l15.71,15.71q3.18-3.18,4.77-3.55a5.71,5.71,0,0,1,5.55,1.63,5.49,5.49,0,0,1,1.73,4.27c-.06,1.61-1.1,3.43-3.12,5.44L571.88,253c-2,2-3.8,3-5.43,3.1a5.52,5.52,0,0,1-4.32-1.75,5.63,5.63,0,0,1-1.59-5.51q.36-1.68,3.55-4.78L549,228.88q-3.23-3.23-6-3.06-3.68.17-7.42,3.91a15.34,15.34,0,0,0-3.84,6c-.71,2.15-1.07,5.63-1.1,10.45l15.67,15.66q3.22-3.22,4.77-3.55a5.67,5.67,0,0,1,5.59,1.59,5.5,5.5,0,0,1,1.71,4.29q-.12,2.44-3.14,5.47l-9.5,9.5q-3,3-5.47,3.14a5.55,5.55,0,0,1-4.33-1.75,5.63,5.63,0,0,1-1.55-5.55q.33-1.64,3.55-4.77L501.71,234l-1.43,1.43q-3,3-5.47,3.14a5.53,5.53,0,0,1-4.32-1.76,5.44,5.44,0,0,1-1.72-4.28q.12-2.45,3.14-5.47Z" style="fill:#ceb9d1"/><path d="M582.65,184.82l16.77,16.76c1.79,1.8,3.34,2.61,4.65,2.45q3.06-.36,7.46-4.77a36.62,36.62,0,0,0,9.1-14.57,11.33,11.33,0,0,1,2.2-4.32,5.43,5.43,0,0,1,4.06-1.61,5.78,5.78,0,0,1,4.19,1.77,5.23,5.23,0,0,1,1.51,4.12q-.09,3.91-4.37,11.43a55.25,55.25,0,0,1-8.32,11.54q-7.8,7.8-15.06,8.32a14.86,14.86,0,0,1-12.16-4.36l-18.4-18.4-3,3q-3,3-5.47,3.14a5.55,5.55,0,0,1-4.33-1.75,5.5,5.5,0,0,1-1.71-4.29q.12-2.45,3.14-5.46l3-3-7.55-7.55c-2-2-3.06-3.84-3.14-5.47a5.53,5.53,0,0,1,1.76-4.32,5.44,5.44,0,0,1,4.28-1.72c1.63.08,3.46,1.13,5.47,3.14l7.55,7.55L589.75,161q3-3,5.46-3.14a5.91,5.91,0,0,1,6,6q-.12,2.45-3.14,5.46Z" style="fill:#ceb9d1"/><path d="M665.71,150.71a7.42,7.42,0,0,1,2.29,5.63,10.58,10.58,0,0,1-9.22,9.22,7.82,7.82,0,0,1-7.92-7.91,10.57,10.57,0,0,1,9.22-9.23A7.4,7.4,0,0,1,665.71,150.71Z" style="fill:#ceb9d1"/><path d="M518,378.39a23.51,23.51,0,0,0-6.19,2.38,24.7,24.7,0,0,0-5.32,4.06q-4.86,4.86-6.12,9.3c-.38,1.31-.3,2.23.25,2.78s1.8.67,3.54.12c1.31-.43,3.68-2,7.1-4.57q9.46-7.18,13.87-9.3a19.84,19.84,0,0,1,11.1-2.12,14.14,14.14,0,0,1,8.61,4q4.49,4.49,3.55,11.46-1.3,10-10.36,19.09a46.94,46.94,0,0,1-7.35,6.08,34.84,34.84,0,0,1-7.5,3.8,6.92,6.92,0,0,1-.49,2.12,5.57,5.57,0,0,1-1.14,1.71,5.67,5.67,0,0,1-4.41,1.84c-1.63-.08-3.46-1.13-5.47-3.14l-2.81-2.82c-2-2-3.06-3.83-3.15-5.47a5.53,5.53,0,0,1,1.76-4.32,5.41,5.41,0,0,1,3.37-1.69,7.8,7.8,0,0,1,4.46,1.28,18.21,18.21,0,0,0,7.08-2.14,29.75,29.75,0,0,0,7-5.37q5.74-5.74,7.14-10.73c.41-1.6.28-2.73-.37-3.38q-1.63-1.63-4.85-.53t-10.73,7.14q-11.14,9-17.55,9.38a13.31,13.31,0,0,1-10.73-4,12.92,12.92,0,0,1-3.67-11.26q1.06-9.21,9.39-17.54a39.21,39.21,0,0,1,6.12-5,32.66,32.66,0,0,1,6.81-3.42,10,10,0,0,1,.59-2.31,4.56,4.56,0,0,1,1-1.53,5.16,5.16,0,0,1,4.14-1.57c1.62.09,3.43,1.15,5.45,3.16l2,2q2.73,2.73,3.06,4.37a5.79,5.79,0,0,1-1.68,5.42,5.72,5.72,0,0,1-3.59,1.72A6.06,6.06,0,0,1,518,378.39Z" style="fill:#9cdcb2"/><path d="M571.39,370.31,585.1,384l5-5q3-3,5.46-3.14a5.54,5.54,0,0,1,4.33,1.75,5.47,5.47,0,0,1,1.71,4.29q-.12,2.44-3.14,5.46l-14.81,14.81c-2,2-3.84,3.06-5.47,3.14a5.88,5.88,0,0,1-6-6.06c.09-1.64,1.13-3.46,3.12-5.44l1.42-1.43L539,354.6,537.53,356q-3,3-5.47,3.14a5.93,5.93,0,0,1-6-6q.12-2.44,3.14-5.46l9.79-9.8,2.86,2.86a32.64,32.64,0,0,1,3.1-9.06,30.56,30.56,0,0,1,5.47-7.42,28.71,28.71,0,0,1,20.42-8.8q11.85-.21,19.36,7.29,8.28,8.28,6.52,20.8a30.69,30.69,0,0,1-8.93,17.91,31.31,31.31,0,0,1-7.3,5.43A38.26,38.26,0,0,1,571.39,370.31Zm10.44-39.17a14.84,14.84,0,0,0-5.85-3.08,16.39,16.39,0,0,0-8.79-.26,17.45,17.45,0,0,0-8.57,4.93,16.87,16.87,0,0,0-5.22,14.61q.74,5.71,3.71,8.69,3.35,3.35,10.08,2.94a19.77,19.77,0,0,0,17.7-17.67Q585.31,334.61,581.83,331.14Z" style="fill:#9cdcb2"/><path d="M597.74,279.08l5.23,5.23a65.4,65.4,0,0,1,3.24-13.37,21,21,0,0,1,4.43-6.95,18,18,0,0,1,10.93-4.9q4.65-.57,6.77,1.55a5.86,5.86,0,0,1,1.8,4.29,5.78,5.78,0,0,1-1.76,4.24,7.09,7.09,0,0,1-4.81,1.71c-2.18.11-3.71.61-4.61,1.51q-1.76,1.75-3,7.45a116.52,116.52,0,0,0-2.1,15.32l12.61,12.6,11.91-11.91q3-3,5.47-3.14a5.52,5.52,0,0,1,4.32,1.75,5.43,5.43,0,0,1,1.71,4.29c-.08,1.63-1.12,3.45-3.14,5.47l-25.25,25.25c-2,2-3.84,3.06-5.47,3.14a5.93,5.93,0,0,1-6-6c.09-1.63,1.13-3.45,3.14-5.46l5-5-20.32-20.32-3,3q-3,3-5.47,3.14a5.55,5.55,0,0,1-4.33-1.75,5.5,5.5,0,0,1-1.71-4.29q.12-2.44,3.14-5.46Z" style="fill:#9cdcb2"/><path d="M694.19,256.73l-2-2a38.21,38.21,0,0,1-4.42,9.44,45.51,45.51,0,0,1-6.06,7.73q-6.74,6.74-14.51,7.37t-12.09-3.69q-5.26-5.26-4.41-15.14t10.32-19.34a77.63,77.63,0,0,1,9.59-7.95l-2-2a5.13,5.13,0,0,0-4.67-1.45c-1.86.28-4.3,1.94-7.32,4.95a59.08,59.08,0,0,0-8.16,11.1,22.57,22.57,0,0,1-2.9,4,5.36,5.36,0,0,1-4,1.63,6,6,0,0,1-4.24-1.92,5.47,5.47,0,0,1-1.43-2.24,4.62,4.62,0,0,1-.1-2.39,19,19,0,0,1,1.94-4.18,81.62,81.62,0,0,1,4.95-7.69,53.21,53.21,0,0,1,5.33-6.34q7.79-7.8,15.46-8.73a15.59,15.59,0,0,1,13.5,4.89L694.19,240l1.43-1.43q3-3,5.47-3.14a5.52,5.52,0,0,1,4.32,1.75,5.43,5.43,0,0,1,1.71,4.29c-.08,1.63-1.12,3.45-3.14,5.47Zm-15-15A69.11,69.11,0,0,0,669,250a21.57,21.57,0,0,0-6.28,11.26c-.47,2.58-.15,4.42.93,5.5a3.15,3.15,0,0,0,3,.82,14.25,14.25,0,0,0,6.94-4.24,33.19,33.19,0,0,0,5.65-8,35.7,35.7,0,0,0,3.57-10Z" style="fill:#9cdcb2"/><path d="M714.31,165.54A6.37,6.37,0,0,1,716,161a5.41,5.41,0,0,1,4.24-1.67c1.63.08,3.44,1.12,5.43,3.1l5.38,5.39q3,3,3.12,5.44a5.57,5.57,0,0,1-1.77,4.31,6.26,6.26,0,0,1-3.88,1.92q-1.59.12-4.34-1.66a7,7,0,0,0-5.73-1q-5.26,1.35-10.41,6.49-5.91,5.91-6,12.95a16.56,16.56,0,0,0,5.21,12.34,13.42,13.42,0,0,0,11.15,4.31q6.27-.6,14.22-8.55a40.45,40.45,0,0,0,7.47-9.59,14.94,14.94,0,0,0,1.49-5.93q.18-3.33,1.61-4.75a5.65,5.65,0,0,1,4.22-1.7,5.8,5.8,0,0,1,4.22,1.74c1.86,1.85,2.34,4.87,1.47,9q-1.92,9.35-12.77,20.2-9.75,9.75-19.21,11.14-12.78,1.91-22.2-7.51-8.93-8.94-8.83-20.75t9.69-21.39a42.15,42.15,0,0,1,7.1-5.8A31.82,31.82,0,0,1,714.31,165.54Z" style="fill:#9cdcb2"/><path d="M725.4,119.68l17.83,17.83a31.27,31.27,0,0,1,3-7.58,27.94,27.94,0,0,1,4.65-6.16,27.05,27.05,0,0,1,9.18-6.25,18.68,18.68,0,0,1,10.24-1,19.19,19.19,0,0,1,10.2,5.76L796.19,138q3.18-3.18,4.77-3.55a5.72,5.72,0,0,1,5.55,1.64,5.49,5.49,0,0,1,1.73,4.26c-.07,1.62-1.11,3.43-3.12,5.45l-9.54,9.54q-3,3-5.43,3.1a5.52,5.52,0,0,1-4.32-1.75,5.65,5.65,0,0,1-1.6-5.51q.38-1.67,3.55-4.77l-15.13-15.14q-3.23-3.22-6-3.06c-2.45.11-4.92,1.42-7.43,3.92a15.24,15.24,0,0,0-3.83,6c-.71,2.14-1.08,5.63-1.1,10.44L770,164.24c2.15-2.15,3.74-3.34,4.78-3.55a5.68,5.68,0,0,1,5.59,1.59,5.46,5.46,0,0,1,1.71,4.28c-.08,1.63-1.13,3.46-3.14,5.47l-9.51,9.51q-3,3-5.46,3.14a5.54,5.54,0,0,1-4.33-1.76,5.63,5.63,0,0,1-1.55-5.55c.22-1.08,1.4-2.68,3.55-4.77L725.4,136.41,724,137.84q-3,3-5.46,3.14a5.91,5.91,0,0,1-6-6q.12-2.44,3.14-5.46Z" style="fill:#9cdcb2"/><path d="M843.8,78.56l-34.31,34.31a15.1,15.1,0,0,0,9.89.63q5.32-1.32,11-7,4.65-4.65,10.36-14.36a30.29,30.29,0,0,1,3.59-5.23,5.36,5.36,0,0,1,4-1.63,5.83,5.83,0,0,1,4.12,1.84,5.18,5.18,0,0,1,1.55,4q-.12,3.14-5.08,10.83a81.47,81.47,0,0,1-10.79,13.52q-10,10-21.73,10.39a26.06,26.06,0,0,1-20-7.94,25.38,25.38,0,0,1-7.83-20.85,31.82,31.82,0,0,1,9.46-20.52A33.85,33.85,0,0,1,809.22,69a28.31,28.31,0,0,1,10.22-2.47,34.62,34.62,0,0,1,12.32,2.62A25.86,25.86,0,0,1,840.25,75Zm-17.63.9a18.47,18.47,0,0,0-10.38-.35,22.86,22.86,0,0,0-14.73,14.73,18.86,18.86,0,0,0,.31,10.42Z" style="fill:#9cdcb2"/><path d="M889.41,53.1a7.43,7.43,0,0,1,2.29,5.63,9.11,9.11,0,0,1-3,6.2,9.06,9.06,0,0,1-6.2,3A7.8,7.8,0,0,1,874.56,60a9,9,0,0,1,3-6.2,9,9,0,0,1,6.2-3A7.41,7.41,0,0,1,889.41,53.1Z" style="fill:#9cdcb2"/></g><g id="logo_app_icon" data-name="logo app icon"><rect x="263.49" y="211.45" width="32.2" height="136.28" transform="translate(-115.81 279.63) rotate(-45.01)" style="fill:#9cdcb2"/><rect x="239.21" y="318.63" width="32.21" height="67.6" transform="translate(-174.43 283.8) rotate(-45.01)" style="fill:#9cdcb2"/><rect x="153.85" y="216.63" width="32.21" height="100.88" transform="translate(-139.07 198.4) rotate(-45)" style="fill:#9cdcb2"/><rect x="68.5" y="147.91" width="32.21" height="67.61" transform="translate(-103.71 113.02) rotate(-44.99)" style="fill:#9cdcb2"/><rect x="165.61" y="50.8" width="32.21" height="67.6" transform="translate(-6.6 153.27) rotate(-45)" style="fill:#9cdcb2"/><rect x="336.32" y="221.51" width="32.21" height="67.6" transform="translate(-77.31 323.98) rotate(-45)" style="fill:#9cdcb2"/><rect x="299.37" y="-33.49" width="33.27" height="309.03" transform="translate(6.98 258.9) rotate(-45)" style="fill:#9cdcb2"/><rect x="104.38" y="161.5" width="33.27" height="309.03" transform="translate(-188.01 178.13) rotate(-45)" style="fill:#9cdcb2"/><rect x="141.34" y="89.3" width="32.2" height="136.28" transform="translate(-65.21 157.44) rotate(-45)" style="fill:#9cdcb2"/><rect x="250.97" y="119.52" width="32.21" height="100.88" transform="translate(-41.95 238.63) rotate(-45)" style="fill:#9cdcb2"/><rect x="168.08" y="202.41" width="100.87" height="32.21" transform="translate(-90.51 218.51) rotate(-45)" style="fill:#ceb9d2"/><rect x="265.19" y="202.41" width="100.88" height="32.21" transform="translate(-62.07 287.18) rotate(-45)" style="fill:#ceb9d2"/><rect x="275.25" y="129.57" width="32.2" height="32.2" transform="translate(-17.67 248.68) rotate(-45)" style="fill:#ceb9d2"/><rect x="168.08" y="105.29" width="100.87" height="32.21" transform="translate(-21.84 190.07) rotate(-45)" style="fill:#ceb9d2"/><rect x="129.57" y="275.25" width="32.2" height="32.21" transform="translate(-163.35 188.34) rotate(-45)" style="fill:#ceb9d2"/><rect x="70.96" y="202.41" width="100.88" height="32.21" transform="translate(-118.96 149.84) rotate(-45)" style="fill:#ceb9d2"/><rect x="168.08" y="299.53" width="100.88" height="32.21" transform="translate(-159.18 246.96) rotate(-45)" style="fill:#ceb9d2"/><rect x="275.63" y="323.65" width="32.2" height="33.27" transform="translate(-155.17 305.94) rotate(-45)" style="fill:#ceb9d2"/><rect x="324.18" y="275.09" width="32.21" height="33.27" transform="translate(-106.62 326.06) rotate(-45)" style="fill:#ceb9d2"/><rect x="227.07" y="372.21" width="32.2" height="33.27" transform="translate(-203.73 285.83) rotate(-45)" style="fill:#ceb9d2"/><rect x="372.75" y="226.53" width="32.2" height="33.27" transform="translate(-58.06 346.17) rotate(-45)" style="fill:#ceb9d2"/><rect x="177.73" y="31.56" width="32.2" height="33.2" transform="translate(22.72 151.16) rotate(-45)" style="fill:#ceb9d2"/><rect x="32.05" y="177.23" width="32.2" height="33.19" transform="translate(-122.95 90.82) rotate(-45)" style="fill:#ceb9d2"/><rect x="129.17" y="80.12" width="32.2" height="33.19" transform="translate(-25.84 131.05) rotate(-45)" style="fill:#ceb9d2"/><rect x="80.61" y="128.67" width="32.2" height="33.19" transform="translate(-74.4 110.93) rotate(-45)" style="fill:#ceb9d2"/></g></svg>