<svg xmlns="http://www.w3.org/2000/svg" viewBox="0 0 575.94 540.44"><g id="logo"><path d="M567.94,259.82a9.2,9.2,0,0,0,8-8,7.19,7.19,0,0,0-7.24-7.27,8.07,8.07,0,0,0-5.39,2.64,8,8,0,0,0-2.57,5.38,7.12,7.12,0,0,0,7.2,7.24m-56.4,16.63a14.12,14.12,0,0,1,4.32-8.26,12.17,12.17,0,0,1,7.87-3.79A11.49,11.49,0,0,1,531.9,267l-18.29,18.29a13.09,13.09,0,0,1-2.07-8.82M536,270.21l.42-.42q2.92-2.93,3-4.12c.08-.79-.4-1.71-1.45-2.77a16.18,16.18,0,0,0-12.61-4.8A19.77,19.77,0,0,0,512,264.34q-6.54,6.54-6.77,14.47t6,14.13q6.09,6.09,13.63,5.94t13.95-6.56a35.47,35.47,0,0,0,5.22-6.67,41.23,41.23,0,0,0,3.71-7.89,8.6,8.6,0,0,0,.56-3.2,3.08,3.08,0,0,0-.89-2.07,2.52,2.52,0,0,0-1.89-.77,2.83,2.83,0,0,0-1.93.88c-.55.54-1.52,2.69-2.94,6.44a24.66,24.66,0,0,1-5.41,8.92q-4.35,4.37-9.08,4.66t-9-3.53Zm-47.28,62.84a7.82,7.82,0,0,0-2.16,3,2.33,2.33,0,0,0,.87,2.19,2.79,2.79,0,0,0,2.06,1,3.32,3.32,0,0,0,2.15-1.14l7.48-7.47a3.71,3.71,0,0,0,1.34-2.22,3,3,0,0,0-1.12-2.05,2.48,2.48,0,0,0-2.11-.93,5.94,5.94,0,0,0-2.69,1.86l-1,1L481.9,316.53a8.73,8.73,0,0,1-2.62-7,10.43,10.43,0,0,1,3.14-7,7.65,7.65,0,0,1,6.06-2.61q3.22.24,6.51,3.52l11.69,11.69-1,1a5.81,5.81,0,0,0-1.78,2.6,2.49,2.49,0,0,0,1,2.11,3,3,0,0,0,2,1.12,3.83,3.83,0,0,0,2.23-1.35l7.49-7.49a3.52,3.52,0,0,0,1.18-2.2,2.7,2.7,0,0,0-1-2.07,2.42,2.42,0,0,0-2.09-.86,5,5,0,0,0-2.51,1.57l-1.32,1.34-12.73-12.73q-4.67-4.67-9.73-4.87t-9.31,4a14.32,14.32,0,0,0-3.27,5.08,22,22,0,0,0-1.23,6.89l-12.73-12.73a1.39,1.39,0,0,0-1.26-.42,2.72,2.72,0,0,0-1.49.87l-4.27,4.27a3.42,3.42,0,0,0-1.16,2.18,2.66,2.66,0,0,0,.94,2.09,2.4,2.4,0,0,0,2.29.85,7.45,7.45,0,0,0,3.07-2.17l.54-.53,28.77,28.76Zm-41.57-2.61a23,23,0,0,0-4.86,3.71,19.73,19.73,0,0,0-6.2,14,19.46,19.46,0,0,0,19.53,19.49,19.92,19.92,0,0,0,14.06-6.25,25.6,25.6,0,0,0,6.6-11.23q1.88-6.53-.34-8.74a2.65,2.65,0,0,0-3.93,0q-1,1-1.38,4.35c-.13,1.07-.26,1.9-.39,2.48a16.57,16.57,0,0,1-1.66,4.77,17.06,17.06,0,0,1-3.06,4.1,12.86,12.86,0,0,1-9.41,4.1,13.18,13.18,0,0,1-9.47-4.21,12.39,12.39,0,0,1-3.94-9.43,14.06,14.06,0,0,1,4.53-9.7,11.86,11.86,0,0,1,5.59-3.26,13.75,13.75,0,0,1,6.72.17,9.69,9.69,0,0,0,3.14.48,2.9,2.9,0,0,0,1.74-.87,3.17,3.17,0,0,0,1.09-2.13,3,3,0,0,0-1-2.08L459.28,325a8.17,8.17,0,0,0-3.21-2.35,2.48,2.48,0,0,0-2.26.92,3.7,3.7,0,0,0-1.23,2.09,2.37,2.37,0,0,0,.83,1.89l.12.11a34.48,34.48,0,0,0-6.35,2.79m-7.53,55.93a3.51,3.51,0,0,0,2.05.7,2.59,2.59,0,0,0,1.77-.81l4.41-4.41a3.52,3.52,0,0,0,1.18-2.2,2.75,2.75,0,0,0-.95-2.08,2.37,2.37,0,0,0-2.2-.84,8,8,0,0,0-3.09,2.25l-1.37,1.38-12.73-12.73q-4.91-4.92-10-4.9t-10,5a32.6,32.6,0,0,0-6.79,9.08q-2,4.26-.29,5.92a3.76,3.76,0,0,0,2.23,1.17,2.38,2.38,0,0,0,2-.69,17.28,17.28,0,0,0,2.39-4.75,17.42,17.42,0,0,1,3.71-6.07c2.17-2.17,4.28-3.26,6.35-3.26s4.16,1.08,6.32,3.23l.19.2a37.82,37.82,0,0,0-7.56,5.81q-6.18,6.18-7.15,12a11.29,11.29,0,0,0,3.47,10.29,11.08,11.08,0,0,0,8.64,3.51,13.73,13.73,0,0,0,9.09-4.43,20.88,20.88,0,0,0,4.48-6.67,23.89,23.89,0,0,0,1.84-8.19Zm-8-7.08q2,2,.84,6.94a17.53,17.53,0,0,1-4.74,8.48,8.83,8.83,0,0,1-5.21,2.74,5.42,5.42,0,0,1-4.71-1.59q-2.48-2.48-1.43-6.43t5.36-8.29a26.52,26.52,0,0,1,3.12-2.64,29.15,29.15,0,0,1,3.74-2.25Zm-49.74,37.28a38,38,0,0,1,.45-10.31,12.1,12.1,0,0,1,3.05-6.18,8,8,0,0,1,3.6-1.88,7.79,7.79,0,0,0,3-1.32,3.29,3.29,0,0,0,.9-2.5,3.6,3.6,0,0,0-1.06-2.61,4.22,4.22,0,0,0-4.14-1,10.25,10.25,0,0,0-5.05,3,17.76,17.76,0,0,0-4.61,7.86,27.78,27.78,0,0,0-.59,10.54l-4.77-4.78a1.43,1.43,0,0,0-1.26-.46,2.67,2.67,0,0,0-1.44.85l-6.4,6.41a3.48,3.48,0,0,0-1.19,2.16,2.63,2.63,0,0,0,.92,2,2.45,2.45,0,0,0,2.25.9c.73-.16,2-1.15,3.83-3l1.91-1.91,18,18-4.89,4.89a3.93,3.93,0,0,0-1.3,2.26,2.52,2.52,0,0,0,.89,2,2.72,2.72,0,0,0,2.07.95,3.38,3.38,0,0,0,2.16-1.15L406.7,423a4,4,0,0,0,1.38-2.25,3,3,0,0,0-1.1-2.08,2.71,2.71,0,0,0-2-1,3.43,3.43,0,0,0-2.09,1.16l-9.32,9.32Zm-27.61,45.74a12.47,12.47,0,0,1-8.78-21.5,12.3,12.3,0,0,1,8.88-3.9,11.93,11.93,0,0,1,8.82,3.79,12.11,12.11,0,0,1,3.87,8.86,12.42,12.42,0,0,1-3.95,8.86,12.13,12.13,0,0,1-8.84,3.89m.18,4.87a15.72,15.72,0,0,0,7.21-1.16,19.66,19.66,0,0,0,6.53-4.43,17.63,17.63,0,0,0,5.62-12.75,17.35,17.35,0,0,0-5.51-12.7A18.45,18.45,0,0,0,355,430.36a18.33,18.33,0,0,0-18.54,18.76l-2.73-2.72a1.41,1.41,0,0,0-1.24-.49,2.89,2.89,0,0,0-1.51.94l-4.27,4.27a3.75,3.75,0,0,0-1.21,2.19,2.62,2.62,0,0,0,.91,2.05,2.4,2.4,0,0,0,2.28.86,7.7,7.7,0,0,0,3.11-2.21l.53-.53,29.16,29.16-.53.53a7.76,7.76,0,0,0-2.21,3.1,2.41,2.41,0,0,0,.86,2.29,2.67,2.67,0,0,0,2.06.92,3.61,3.61,0,0,0,2.21-1.19l12.38-12.4a4.09,4.09,0,0,0,1.4-2.28,3.52,3.52,0,0,0-3.08-3.05,3.22,3.22,0,0,0-2.11,1.09l-6.74,6.74Zm-35,43a2.51,2.51,0,0,0,2.19-.82,3.92,3.92,0,0,0,.86-1.5,17.53,17.53,0,0,0,.72-2.66q3.67-2.26,5.94-3.95A33.69,33.69,0,0,0,333,498c3.38-3.38,5.29-6.82,5.76-10.31a10.25,10.25,0,0,0-3.09-9.05q-4-4-8.55-3.16T316.58,482q-5.59,5.37-8,6.26a3.66,3.66,0,0,1-4.19-.86,5,5,0,0,1-1.35-4.58,10.06,10.06,0,0,1,3.09-5.43A16.7,16.7,0,0,1,310.7,474a13.21,13.21,0,0,1,5.15-1.2,28.14,28.14,0,0,1,2.92.06c1.78.13,3-.08,3.51-.65a2.29,2.29,0,0,0,.78-2.09,5.61,5.61,0,0,0-1.7-2.6l-3.29-3.28a5.31,5.31,0,0,0-2.57-1.64,2.2,2.2,0,0,0-2.12.71,4.56,4.56,0,0,0-1.17,2.26,4.1,4.1,0,0,1-.63,1.73c-.07.07-1.06.66-3,1.76a24.09,24.09,0,0,0-5,3.8q-5.31,5.31-6.19,10.3a9.36,9.36,0,0,0,2.82,8.69,9.21,9.21,0,0,0,8.8,2.78q5-1,10.72-6.74l1.55-1.55q3.51-3.51,5.8-4.11a4.28,4.28,0,0,1,4.29,1.39,5.18,5.18,0,0,1,1.37,5,11.82,11.82,0,0,1-3.57,6,19.23,19.23,0,0,1-6,4.18,9.48,9.48,0,0,1-8.15.43c-1.5-.6-2.64-.51-3.4.25a2.65,2.65,0,0,0-1,2,3.79,3.79,0,0,0,1.3,2.24l5,5a4.75,4.75,0,0,0,2.5,1.46" style="fill:#ceb9d2"/><path d="M271.27,531.5a9.15,9.15,0,0,0,8,8,7.15,7.15,0,0,0,7.26-7.23,8.07,8.07,0,0,0-2.64-5.39,7.94,7.94,0,0,0-5.38-2.57,7.12,7.12,0,0,0-7.23,7.2m-10.56-57.36,5.7-5.7q2.5-2.51,2.73-3.68a2.72,2.72,0,0,0-1-2.42,2.9,2.9,0,0,0-2.18-1,3.64,3.64,0,0,0-2.31,1.26l-1.49,1.49-5.76,5.76-3.17-3.18q-2.39-2.38-3.54-2.69a2.32,2.32,0,0,0-2.3.84,2.63,2.63,0,0,0-1,2,3.61,3.61,0,0,0,1.25,2.18l4.78,4.77L243,483.16l-.87.87a36.89,36.89,0,0,0-3.92,4.4,10.06,10.06,0,0,0-1.53,3.13,9.89,9.89,0,0,0,.2,6.46,18.14,18.14,0,0,0,4.46,6.57,26.44,26.44,0,0,0,4.65,3.64,49.55,49.55,0,0,0,6.56,3.36,9.93,9.93,0,0,0,3.68,1,3.1,3.1,0,0,0,2.3-.93,2.65,2.65,0,0,0,.83-1.93,2.51,2.51,0,0,0-.77-1.89c-.56-.56-2.53-1.54-5.9-2.92a23.13,23.13,0,0,1-7.61-4.64c-1.93-1.92-2.8-3.78-2.62-5.54s1.79-4.2,4.87-7.26l9.38-9.39,11.37,11.38a3.86,3.86,0,0,0,2.26,1.27,2.53,2.53,0,0,0,2.07-.88,2.49,2.49,0,0,0,.89-2.14,4.72,4.72,0,0,0-1.53-2.49ZM198,452.31a7.82,7.82,0,0,0-3-2.16,2.33,2.33,0,0,0-2.19.87,2.78,2.78,0,0,0-1,2.07,3.34,3.34,0,0,0,1.14,2.15l7.47,7.47a3.79,3.79,0,0,0,2.22,1.35,3.07,3.07,0,0,0,2.05-1.13,2.47,2.47,0,0,0,.93-2.1,5.91,5.91,0,0,0-1.86-2.7l-1-1,11.69-11.69a8.72,8.72,0,0,1,7-2.62,10.47,10.47,0,0,1,7,3.14,7.68,7.68,0,0,1,2.61,6.06q-.24,3.22-3.52,6.51L216,470.24l-1-1a5.91,5.91,0,0,0-2.6-1.79,2.46,2.46,0,0,0-2.11,1,3,3,0,0,0-1.12,2,3.74,3.74,0,0,0,1.35,2.22l7.49,7.49a3.45,3.45,0,0,0,2.2,1.19,2.72,2.72,0,0,0,2.07-.95,2.41,2.41,0,0,0,.85-2.1,4.77,4.77,0,0,0-1.57-2.5l-1.33-1.33,12.73-12.73q4.66-4.67,4.87-9.73t-4-9.31a14,14,0,0,0-5.09-3.26,21.89,21.89,0,0,0-6.88-1.24l12.73-12.72a1.41,1.41,0,0,0,.42-1.27,2.7,2.7,0,0,0-.87-1.48l-4.27-4.28a3.42,3.42,0,0,0-2.18-1.16,2.7,2.7,0,0,0-2.09.94,2.41,2.41,0,0,0-.86,2.29,7.67,7.67,0,0,0,2.18,3.07l.53.54L198.63,452.9Zm2.61-41.57a23,23,0,0,0-3.71-4.86,19.68,19.68,0,0,0-14-6.19,19.44,19.44,0,0,0-19.49,19.52,19.88,19.88,0,0,0,6.24,14.06,25.88,25.88,0,0,0,11.24,6.6q6.53,1.88,8.74-.34a2.65,2.65,0,0,0,0-3.93c-.7-.69-2.14-1.15-4.35-1.38-1.07-.13-1.9-.26-2.48-.39a16.74,16.74,0,0,1-4.78-1.66,17.48,17.48,0,0,1-4.09-3.06,12.78,12.78,0,0,1-4.1-9.41,13.14,13.14,0,0,1,4.21-9.47,12.43,12.43,0,0,1,9.43-4,14.12,14.12,0,0,1,9.7,4.54,11.76,11.76,0,0,1,3.25,5.59,13.62,13.62,0,0,1-.16,6.72,9.42,9.42,0,0,0-.48,3.14,2.9,2.9,0,0,0,.87,1.74,3.07,3.07,0,0,0,2.12,1.08,2.85,2.85,0,0,0,2.09-1l5.23-5.22a8.25,8.25,0,0,0,2.35-3.22,2.49,2.49,0,0,0-.92-2.26,3.62,3.62,0,0,0-2.09-1.22,2.3,2.3,0,0,0-1.89.83l-.12.11a34.11,34.11,0,0,0-2.78-6.35m-55.93-7.53a3.51,3.51,0,0,0-.7,2.05,2.56,2.56,0,0,0,.81,1.77l4.41,4.41a3.47,3.47,0,0,0,2.2,1.18,2.71,2.71,0,0,0,2.07-1,2.34,2.34,0,0,0,.85-2.18,8.1,8.1,0,0,0-2.25-3.1L150.73,405l12.73-12.73q4.92-4.92,4.9-9.95t-5-10a33,33,0,0,0-9.08-6.79c-2.84-1.3-4.82-1.39-5.92-.29a3.73,3.73,0,0,0-1.17,2.23,2.37,2.37,0,0,0,.69,2,16.83,16.83,0,0,0,4.75,2.39,17.27,17.27,0,0,1,6.07,3.71Q162,378.85,162,382c0,2.05-1.08,4.16-3.23,6.31l-.2.2a39.94,39.94,0,0,0-2.74-4.06,36.82,36.82,0,0,0-3.07-3.49q-6.18-6.18-12-7.15a11.27,11.27,0,0,0-10.3,3.47,11,11,0,0,0-3.5,8.63,13.69,13.69,0,0,0,4.43,9.09,20.88,20.88,0,0,0,6.67,4.48,23.89,23.89,0,0,0,8.19,1.84Zm7.08-8q-2,2-6.94.85a17.71,17.71,0,0,1-8.48-4.75,8.81,8.81,0,0,1-2.74-5.21,5.41,5.41,0,0,1,1.59-4.71c1.64-1.64,3.79-2.12,6.43-1.43s5.4,2.48,8.28,5.37a24,24,0,0,1,2.64,3.11,28.05,28.05,0,0,1,2.25,3.74Zm-36.91-23.76a4.88,4.88,0,0,0-1.61,2.66,2.86,2.86,0,0,0,1,2.34l3.4,3.4a2.86,2.86,0,0,0,2,1,2.94,2.94,0,0,0,2-1,2.47,2.47,0,0,0,.93-2.1,6.1,6.1,0,0,0-1.9-2.74l-.44-.44L133,361.83q5.28-5.28,6-9.31c.46-2.69-.51-5.24-2.94-7.66a10.34,10.34,0,0,0-4.37-2.7,10.92,10.92,0,0,0-5.33-.13,7.12,7.12,0,0,0,.69-4.48,8.21,8.21,0,0,0-2.4-4.11,10.28,10.28,0,0,0-3.57-2.39,11,11,0,0,0-4.3-.67,3.24,3.24,0,0,0,1-1.7,2.43,2.43,0,0,0-.91-1.54l-4.3-4.3a3.52,3.52,0,0,0-2.17-1.2,2.65,2.65,0,0,0-2,.9,2.45,2.45,0,0,0-.86,2.28,7.82,7.82,0,0,0,2.22,3.11l.51.5-18,18-.56-.56a7.65,7.65,0,0,0-2.95-2.15,2.37,2.37,0,0,0-2.19.88,2.91,2.91,0,0,0-1,2.05,3.27,3.27,0,0,0,1.13,2.1l7.45,7.46a3.93,3.93,0,0,0,2.25,1.38,3,3,0,0,0,2.07-1.11,2.47,2.47,0,0,0,.93-2.1,5.93,5.93,0,0,0-1.84-2.68l-1-1,15.48-15.48a8.6,8.6,0,0,1,4-.4,5.52,5.52,0,0,1,3.06,1.58,4.4,4.4,0,0,1,1.39,3.83,7.49,7.49,0,0,1-2.37,4.29l-2.2,2.19L104,358.58l-.82.81a6.18,6.18,0,0,0-2,2.85,2.76,2.76,0,0,0,1.08,2.2l3.57,3.57a2.73,2.73,0,0,0,2,1,3.08,3.08,0,0,0,2-1,2.48,2.48,0,0,0,1-2.1,6,6,0,0,0-1.86-2.68l-.5-.5L120.06,351a12.26,12.26,0,0,1,6.16-3.72,5.35,5.35,0,0,1,5.09,1.48,3.6,3.6,0,0,1,1.05,3.85q-.68,2.1-4.64,6.06Z" style="fill:#9cdcb2"/><rect x="325.17" y="212.14" width="32.2" height="136.28" transform="translate(-98.23 323.45) rotate(-45.01)" style="fill:#9cdcb2"/><rect x="300.88" y="319.32" width="32.21" height="67.6" transform="translate(-156.85 327.62) rotate(-45.01)" style="fill:#9cdcb2"/><rect x="263.03" y="300.22" width="34.33" height="32.21" transform="translate(-141.61 290.78) rotate(-45)" style="fill:#9cdcb2"/><rect x="215.53" y="217.32" width="32.21" height="100.88" transform="translate(-121.49 242.21) rotate(-45)" style="fill:#9cdcb2"/><rect x="130.17" y="148.6" width="32.21" height="67.61" transform="translate(-86.13 156.83) rotate(-44.99)" style="fill:#9cdcb2"/><rect x="165.91" y="203.1" width="34.33" height="32.21" transform="translate(-101.38 193.66) rotate(-45)" style="fill:#9cdcb2"/><rect x="263.03" y="203.1" width="34.33" height="32.21" transform="translate(-72.93 262.32) rotate(-45)" style="fill:#9cdcb2"/><rect x="360.14" y="203.1" width="34.34" height="32.21" transform="translate(-44.49 331) rotate(-45)" style="fill:#9cdcb2"/><rect x="227.29" y="51.49" width="32.21" height="67.6" transform="translate(10.98 197.09) rotate(-45)" style="fill:#9cdcb2"/><rect x="398" y="222.2" width="32.21" height="67.6" transform="translate(-59.73 367.8) rotate(-45)" style="fill:#9cdcb2"/><rect x="361.05" y="-32.8" width="33.27" height="309.03" transform="translate(24.56 302.71) rotate(-45)" style="fill:#9cdcb2"/><rect x="166.06" y="162.19" width="33.27" height="309.03" transform="translate(-170.43 221.94) rotate(-45)" style="fill:#9cdcb2"/><rect x="203.01" y="89.99" width="32.2" height="136.28" transform="translate(-47.64 201.25) rotate(-45)" style="fill:#9cdcb2"/><rect x="263.02" y="105.98" width="34.33" height="32.21" transform="translate(-4.26 233.89) rotate(-45)" style="fill:#9cdcb2"/><rect x="312.65" y="120.21" width="32.21" height="100.88" transform="translate(-24.38 282.44) rotate(-45)" style="fill:#9cdcb2"/><rect x="229.75" y="203.1" width="100.87" height="32.21" transform="translate(-72.93 262.33) rotate(-45)" style="fill:#ceb9d2"/><rect x="326.87" y="203.1" width="100.88" height="32.21" transform="translate(-44.49 331) rotate(-45)" style="fill:#ceb9d2"/><rect x="336.93" y="130.26" width="32.2" height="32.2" transform="translate(-0.1 292.5) rotate(-45)" style="fill:#ceb9d2"/><rect x="229.75" y="105.98" width="100.87" height="32.21" transform="translate(-4.26 233.88) rotate(-45)" style="fill:#ceb9d2"/><rect x="191.25" y="275.94" width="32.2" height="32.21" transform="translate(-145.77 232.15) rotate(-45)" style="fill:#ceb9d2"/><rect x="132.63" y="203.1" width="100.88" height="32.21" transform="translate(-101.38 193.65) rotate(-45)" style="fill:#ceb9d2"/><rect x="229.75" y="300.22" width="100.88" height="32.21" transform="translate(-141.61 290.77) rotate(-45)" style="fill:#ceb9d2"/><rect x="337.3" y="324.34" width="32.2" height="33.27" transform="translate(-137.6 349.76) rotate(-45)" style="fill:#ceb9d2"/><rect x="385.86" y="275.78" width="32.21" height="33.27" transform="translate(-89.04 369.87) rotate(-45)" style="fill:#ceb9d2"/><rect x="288.74" y="372.9" width="32.2" height="33.27" transform="translate(-186.16 329.64) rotate(-45)" style="fill:#ceb9d2"/><rect x="434.42" y="227.22" width="32.2" height="33.27" transform="translate(-40.48 389.99) rotate(-45)" style="fill:#ceb9d2"/><rect x="239.41" y="32.25" width="32.2" height="33.2" transform="translate(40.3 194.97) rotate(-45)" style="fill:#ceb9d2"/><rect x="93.73" y="177.92" width="32.2" height="33.19" transform="translate(-105.38 134.63) rotate(-45)" style="fill:#ceb9d2"/><rect x="190.85" y="80.81" width="32.2" height="33.19" transform="translate(-8.26 174.86) rotate(-45)" style="fill:#ceb9d2"/><rect x="142.29" y="129.36" width="32.2" height="33.19" transform="translate(-56.82 154.75) rotate(-45)" style="fill:#ceb9d2"/></g></svg>