<svg xmlns="http://www.w3.org/2000/svg" viewBox="0 0 514.27 540.44"><g id="logo"><path d="M506.26,259.82a9.2,9.2,0,0,0,8-8,7.17,7.17,0,0,0-7.23-7.27,9.1,9.1,0,0,0-8,8,7.12,7.12,0,0,0,7.2,7.24m-56.4,16.63a14.12,14.12,0,0,1,4.32-8.26,12.19,12.19,0,0,1,7.87-3.79,11.53,11.53,0,0,1,8.18,2.58l-18.29,18.29a13.16,13.16,0,0,1-2.08-8.82m24.49-6.24.43-.42q2.93-2.93,3-4.12c.09-.79-.39-1.71-1.45-2.77a16.16,16.16,0,0,0-12.61-4.8,19.81,19.81,0,0,0-13.43,6.24q-6.54,6.54-6.76,14.47t6,14.13q6.09,6.09,13.64,5.94t13.95-6.56a35.84,35.84,0,0,0,5.21-6.67,40.63,40.63,0,0,0,3.71-7.89,8.86,8.86,0,0,0,.57-3.2,3.09,3.09,0,0,0-.9-2.07,2.48,2.48,0,0,0-1.88-.77,2.84,2.84,0,0,0-1.94.88c-.55.54-1.52,2.69-2.93,6.44a24.8,24.8,0,0,1-5.41,8.92q-4.35,4.37-9.09,4.66t-9-3.53Zm-47.27,62.84a7.77,7.77,0,0,0-2.17,3,2.32,2.32,0,0,0,.88,2.19,2.76,2.76,0,0,0,2.06,1,3.34,3.34,0,0,0,2.15-1.14l7.47-7.47a3.79,3.79,0,0,0,1.35-2.22,3,3,0,0,0-1.13-2.05,2.47,2.47,0,0,0-2.1-.93,6,6,0,0,0-2.7,1.86l-1,1-11.69-11.69a8.73,8.73,0,0,1-2.62-7,10.44,10.44,0,0,1,3.15-7,7.61,7.61,0,0,1,6.05-2.61q3.22.24,6.51,3.52L445,315.13l-1,1a5.86,5.86,0,0,0-1.79,2.6,2.51,2.51,0,0,0,.95,2.11,3,3,0,0,0,2.05,1.12,3.83,3.83,0,0,0,2.23-1.35l7.49-7.49a3.47,3.47,0,0,0,1.18-2.2,2.72,2.72,0,0,0-.95-2.07,2.45,2.45,0,0,0-2.1-.86,4.91,4.91,0,0,0-2.5,1.57l-1.33,1.34-12.72-12.73q-4.68-4.67-9.74-4.87t-9.31,4a14.16,14.16,0,0,0-3.26,5.08,22,22,0,0,0-1.24,6.89l-12.72-12.73a1.4,1.4,0,0,0-1.27-.42,2.7,2.7,0,0,0-1.48.87l-4.28,4.27a3.42,3.42,0,0,0-1.16,2.18,2.73,2.73,0,0,0,.94,2.09,2.41,2.41,0,0,0,2.29.85,7.45,7.45,0,0,0,3.07-2.17l.54-.53,28.77,28.76Zm-41.58-2.61a23,23,0,0,0-4.86,3.71,19.72,19.72,0,0,0-6.19,14A19.44,19.44,0,0,0,394,367.67,19.89,19.89,0,0,0,408,361.42a25.6,25.6,0,0,0,6.6-11.23q1.88-6.53-.33-8.74a2.67,2.67,0,0,0-3.94,0q-1,1-1.38,4.35a23.94,23.94,0,0,1-.39,2.48,16.57,16.57,0,0,1-1.66,4.77,17.06,17.06,0,0,1-3.06,4.1,12.86,12.86,0,0,1-9.41,4.1A13.18,13.18,0,0,1,385,357a12.39,12.39,0,0,1-3.94-9.43,14.11,14.11,0,0,1,4.53-9.7,11.86,11.86,0,0,1,5.59-3.26,13.74,13.74,0,0,1,6.72.17,9.71,9.71,0,0,0,3.15.48,2.91,2.91,0,0,0,1.73-.87,3.13,3.13,0,0,0,1.09-2.13,2.9,2.9,0,0,0-1-2.08L397.61,325a8.25,8.25,0,0,0-3.22-2.35,2.49,2.49,0,0,0-2.26.92,3.62,3.62,0,0,0-1.22,2.09,2.31,2.31,0,0,0,.83,1.89l.11.11a34.78,34.78,0,0,0-6.35,2.79M378,386.37a3.52,3.52,0,0,0,2.06.7,2.55,2.55,0,0,0,1.76-.81l4.41-4.41a3.52,3.52,0,0,0,1.18-2.2,2.75,2.75,0,0,0-.95-2.08,2.35,2.35,0,0,0-2.19-.84,8.1,8.1,0,0,0-3.1,2.25l-1.37,1.38L367,367.63q-4.91-4.92-10-4.9c-3.37,0-6.69,1.66-10,5a33,33,0,0,0-6.79,9.08q-1.94,4.26-.29,5.92a3.75,3.75,0,0,0,2.24,1.17,2.36,2.36,0,0,0,2-.69,17,17,0,0,0,2.39-4.75,17.42,17.42,0,0,1,3.71-6.07q3.25-3.25,6.35-3.26c2.06,0,4.16,1.08,6.32,3.23l.19.2a38.35,38.35,0,0,0-4.06,2.74,36.82,36.82,0,0,0-3.49,3.07q-6.18,6.18-7.15,12A11.24,11.24,0,0,0,352,400.66a11.05,11.05,0,0,0,8.63,3.51,13.73,13.73,0,0,0,9.09-4.43,20.88,20.88,0,0,0,4.48-6.67,23.89,23.89,0,0,0,1.84-8.19Zm-8-7.08q2,2,.84,6.94a17.62,17.62,0,0,1-4.75,8.48,8.78,8.78,0,0,1-5.21,2.74,5.42,5.42,0,0,1-4.71-1.59q-2.46-2.48-1.43-6.43t5.37-8.29a25.63,25.63,0,0,1,3.11-2.64,29.15,29.15,0,0,1,3.74-2.25Zm-49.75,37.28a38,38,0,0,1,.45-10.31,12.11,12.11,0,0,1,3.06-6.18,7.94,7.94,0,0,1,3.59-1.88,7.79,7.79,0,0,0,3-1.32,3.34,3.34,0,0,0,.91-2.5,3.65,3.65,0,0,0-1.07-2.61,4.22,4.22,0,0,0-4.14-1,10.25,10.25,0,0,0-5.05,3,17.76,17.76,0,0,0-4.61,7.86,28,28,0,0,0-.59,10.54l-4.77-4.78a1.41,1.41,0,0,0-1.25-.46,2.69,2.69,0,0,0-1.45.85l-6.4,6.41a3.48,3.48,0,0,0-1.19,2.16,2.63,2.63,0,0,0,.92,2,2.45,2.45,0,0,0,2.25.9q1.11-.24,3.83-3l1.91-1.91,18,18-4.89,4.89a3.9,3.9,0,0,0-1.31,2.26,2.55,2.55,0,0,0,.89,2,2.72,2.72,0,0,0,2.08.95,3.41,3.41,0,0,0,2.16-1.15L345,423a4,4,0,0,0,1.38-2.25,3,3,0,0,0-1.1-2.08,2.71,2.71,0,0,0-2-1,3.38,3.38,0,0,0-2.08,1.16l-9.33,9.32Zm-27.61,45.74a12.46,12.46,0,0,1-8.77-21.5,12.28,12.28,0,0,1,8.87-3.9,13.1,13.1,0,0,1,12.69,12.65,12.38,12.38,0,0,1-3.95,8.86,12.13,12.13,0,0,1-8.84,3.89m.19,4.87A15.68,15.68,0,0,0,300,466a19.7,19.7,0,0,0,6.54-4.43,17.66,17.66,0,0,0,5.61-12.75,17.38,17.38,0,0,0-5.5-12.7,18.49,18.49,0,0,0-13.37-5.78A19,19,0,0,0,276,442a18.35,18.35,0,0,0-1.27,7.17L272,446.4a1.42,1.42,0,0,0-1.25-.49,2.84,2.84,0,0,0-1.5.94L265,451.12a3.64,3.64,0,0,0-1.21,2.19,2.57,2.57,0,0,0,.9,2.05,2.41,2.41,0,0,0,2.29.86,7.62,7.62,0,0,0,3.1-2.21l.53-.53,29.16,29.16-.53.53a7.86,7.86,0,0,0-2.21,3.1,2.44,2.44,0,0,0,.86,2.29,2.67,2.67,0,0,0,2.07.92,3.59,3.59,0,0,0,2.2-1.19l12.39-12.4a4,4,0,0,0,1.39-2.28,3.5,3.5,0,0,0-3.07-3.05,3.17,3.17,0,0,0-2.11,1.09L304,478.39Zm-35,43a2.52,2.52,0,0,0,2.19-.82,4.06,4.06,0,0,0,.85-1.5,17.53,17.53,0,0,0,.72-2.66c2.45-1.51,4.44-2.83,5.94-3.95a33.69,33.69,0,0,0,3.86-3.26c3.38-3.38,5.29-6.82,5.76-10.31a10.24,10.24,0,0,0-3.08-9.05q-4-4-8.56-3.16T254.9,482q-5.58,5.37-8,6.26a3.66,3.66,0,0,1-4.19-.86,5,5,0,0,1-1.35-4.58,10.06,10.06,0,0,1,3.09-5.43A16.85,16.85,0,0,1,249,474a13.26,13.26,0,0,1,5.15-1.2,28.33,28.33,0,0,1,2.93.06c1.77.13,2.95-.08,3.5-.65a2.26,2.26,0,0,0,.78-2.09,5.61,5.61,0,0,0-1.7-2.6l-3.29-3.28a5.31,5.31,0,0,0-2.57-1.64,2.21,2.21,0,0,0-2.12.71,4.47,4.47,0,0,0-1.16,2.26,4.4,4.4,0,0,1-.63,1.73c-.08.07-1.07.66-3,1.76a23.77,23.77,0,0,0-5,3.8q-5.33,5.31-6.2,10.3a9.34,9.34,0,0,0,2.83,8.69,9.19,9.19,0,0,0,8.79,2.78q5-1,10.73-6.74l1.54-1.55q3.51-3.51,5.81-4.11a4.27,4.27,0,0,1,4.28,1.39,5.2,5.2,0,0,1,1.38,5,12,12,0,0,1-3.57,6,19.46,19.46,0,0,1-6,4.18,11.48,11.48,0,0,1-5.91,1.05,11.72,11.72,0,0,1-2.25-.62c-1.5-.6-2.63-.51-3.4.25a2.69,2.69,0,0,0-1,2,3.81,3.81,0,0,0,1.31,2.24l5,5a4.68,4.68,0,0,0,2.5,1.46" style="fill:#ceb9d2"/><path d="M209.59,531.5a9.18,9.18,0,0,0,8,8,7.17,7.17,0,0,0,7.27-7.23,8.12,8.12,0,0,0-2.64-5.39,8,8,0,0,0-5.38-2.57,6.57,6.57,0,0,0-5.13,2.06,6.65,6.65,0,0,0-2.11,5.14M199,474.14l5.71-5.7q2.49-2.51,2.72-3.68a2.74,2.74,0,0,0-1-2.42,2.91,2.91,0,0,0-2.19-1,3.64,3.64,0,0,0-2.31,1.26l-1.48,1.49-5.76,5.76-3.18-3.18q-2.39-2.38-3.54-2.69a2.32,2.32,0,0,0-2.3.84,2.67,2.67,0,0,0-1,2A3.66,3.66,0,0,0,186,469l4.78,4.77-9.39,9.39-.87.87a37.83,37.83,0,0,0-3.92,4.4,10.37,10.37,0,0,0-1.33,9.59,18.27,18.27,0,0,0,4.46,6.57,26.82,26.82,0,0,0,4.65,3.64,49.73,49.73,0,0,0,6.57,3.36,9.88,9.88,0,0,0,3.68,1,3.13,3.13,0,0,0,2.3-.93,2.73,2.73,0,0,0,.83-1.93,2.51,2.51,0,0,0-.78-1.89c-.56-.56-2.53-1.54-5.9-2.92a23.35,23.35,0,0,1-7.61-4.64c-1.93-1.92-2.8-3.78-2.62-5.54s1.8-4.2,4.87-7.26l9.38-9.39,11.38,11.38a3.84,3.84,0,0,0,2.26,1.27,2.51,2.51,0,0,0,2.06-.88,2.46,2.46,0,0,0,.89-2.14,4.65,4.65,0,0,0-1.53-2.49Zm-62.67-21.83a7.75,7.75,0,0,0-3-2.16,2.33,2.33,0,0,0-2.19.87,2.82,2.82,0,0,0-1,2.07,3.34,3.34,0,0,0,1.14,2.15l7.47,7.47a3.79,3.79,0,0,0,2.22,1.35,3.09,3.09,0,0,0,2.06-1.13,2.48,2.48,0,0,0,.92-2.1,6,6,0,0,0-1.85-2.7l-1-1,11.68-11.69a8.73,8.73,0,0,1,7-2.62,10.47,10.47,0,0,1,7,3.14,7.65,7.65,0,0,1,2.61,6.06c-.15,2.15-1.33,4.32-3.52,6.51l-11.69,11.69-1-1a5.8,5.8,0,0,0-2.6-1.79,2.46,2.46,0,0,0-2.11,1,3,3,0,0,0-1.12,2,3.79,3.79,0,0,0,1.35,2.22l7.49,7.49a3.47,3.47,0,0,0,2.2,1.19,2.75,2.75,0,0,0,2.08-.95,2.47,2.47,0,0,0,.85-2.1,4.91,4.91,0,0,0-1.57-2.5l-1.33-1.33,12.72-12.73q4.67-4.67,4.87-9.73t-4-9.31a13.94,13.94,0,0,0-5.08-3.26,22,22,0,0,0-6.89-1.24l12.73-12.72a1.39,1.39,0,0,0,.42-1.27,2.7,2.7,0,0,0-.87-1.48l-4.27-4.28A3.42,3.42,0,0,0,166,417.3a2.71,2.71,0,0,0-2.09.94,2.44,2.44,0,0,0-.86,2.29,7.67,7.67,0,0,0,2.18,3.07l.54.54L137,452.9ZM139,410.74a22.65,22.65,0,0,0-3.71-4.86,19.68,19.68,0,0,0-14-6.19,19.46,19.46,0,0,0-19.5,19.52A19.89,19.89,0,0,0,108,433.27a25.77,25.77,0,0,0,11.24,6.6q6.51,1.88,8.73-.34a2.65,2.65,0,0,0,0-3.93q-1-1-4.35-1.38c-1.07-.13-1.89-.26-2.47-.39a16.53,16.53,0,0,1-4.78-1.66,17.33,17.33,0,0,1-4.1-3.06,12.86,12.86,0,0,1-4.1-9.41,13.18,13.18,0,0,1,4.21-9.47,12.45,12.45,0,0,1,9.43-4,14.1,14.1,0,0,1,9.7,4.54,11.78,11.78,0,0,1,3.26,5.59,13.75,13.75,0,0,1-.17,6.72,9.69,9.69,0,0,0-.48,3.14A2.86,2.86,0,0,0,135,428a3,3,0,0,0,2.12,1.08,2.86,2.86,0,0,0,2.09-1l5.23-5.22a8.3,8.3,0,0,0,2.34-3.22,2.46,2.46,0,0,0-.91-2.26,3.67,3.67,0,0,0-2.1-1.22,2.32,2.32,0,0,0-1.89.83l-.12.11a34.11,34.11,0,0,0-2.78-6.35M83,403.21a3.51,3.51,0,0,0-.7,2.05,2.53,2.53,0,0,0,.82,1.77l4.41,4.41a3.48,3.48,0,0,0,2.19,1.18,2.73,2.73,0,0,0,2.08-1,2.3,2.3,0,0,0,.84-2.18,8.1,8.1,0,0,0-2.25-3.1L89.05,405l12.73-12.73q4.92-4.92,4.9-9.95t-5-10a33,33,0,0,0-9.08-6.79c-2.84-1.3-4.81-1.39-5.91-.29a3.62,3.62,0,0,0-1.17,2.23,2.31,2.31,0,0,0,.69,2A16.83,16.83,0,0,0,91,371.89a17.31,17.31,0,0,1,6.06,3.71q3.25,3.25,3.26,6.35c0,2.05-1.08,4.16-3.23,6.31l-.2.2a38.35,38.35,0,0,0-2.74-4.06,35.46,35.46,0,0,0-3.07-3.49q-6.18-6.18-12-7.15a11.28,11.28,0,0,0-10.3,3.47,11,11,0,0,0-3.49,8.63A13.67,13.67,0,0,0,69.67,395a21,21,0,0,0,6.67,4.48,23.89,23.89,0,0,0,8.19,1.84Zm7.08-8q-2,2-6.94.85a17.71,17.71,0,0,1-8.48-4.75A8.81,8.81,0,0,1,72,386.12a5.41,5.41,0,0,1,1.59-4.71Q76,378.95,80,380t8.29,5.37a24,24,0,0,1,2.64,3.11,30.34,30.34,0,0,1,2.25,3.74ZM53.21,371.47a4.85,4.85,0,0,0-1.6,2.66,2.82,2.82,0,0,0,1,2.34l3.4,3.4a2.88,2.88,0,0,0,2,1,2.92,2.92,0,0,0,2-1,2.47,2.47,0,0,0,.93-2.1A6.14,6.14,0,0,0,59.05,375l-.45-.44,12.73-12.73q5.28-5.28,6-9.31c.45-2.69-.52-5.24-2.94-7.66a10.31,10.31,0,0,0-4.38-2.7,10.88,10.88,0,0,0-5.32-.13,7.11,7.11,0,0,0,.68-4.48,8.21,8.21,0,0,0-2.4-4.11,10.19,10.19,0,0,0-3.57-2.39,10.9,10.9,0,0,0-4.29-.67,3.27,3.27,0,0,0,1-1.7c0-.41-.28-.92-.9-1.54l-4.3-4.3a3.55,3.55,0,0,0-2.17-1.2,2.65,2.65,0,0,0-2,.9,2.42,2.42,0,0,0-.85,2.28A7.77,7.77,0,0,0,48,327.93l.51.5-18,18-.55-.56a7.67,7.67,0,0,0-3-2.15,2.37,2.37,0,0,0-2.19.88,2.86,2.86,0,0,0-1,2.05,3.2,3.2,0,0,0,1.12,2.1l7.45,7.46a3.92,3.92,0,0,0,2.26,1.38,2.93,2.93,0,0,0,2.06-1.11,2.47,2.47,0,0,0,.93-2.1,6,6,0,0,0-1.83-2.68l-1-1,15.47-15.48a8.6,8.6,0,0,1,4-.4,5.52,5.52,0,0,1,3.06,1.58,4.4,4.4,0,0,1,1.39,3.83,7.49,7.49,0,0,1-2.37,4.29l-2.19,2.19L42.28,358.58l-.81.81a6.23,6.23,0,0,0-2,2.85,2.79,2.79,0,0,0,1.08,2.2L44.14,368a2.73,2.73,0,0,0,2,1,3.06,3.06,0,0,0,2-1,2.49,2.49,0,0,0,1-2.1,6,6,0,0,0-1.86-2.68l-.5-.5L58.38,351a12.26,12.26,0,0,1,6.16-3.72,5.34,5.34,0,0,1,5.09,1.48,3.58,3.58,0,0,1,1.06,3.85q-.68,2.1-4.64,6.06Z" style="fill:#9cdcb2"/><rect x="263.49" y="212.14" width="32.2" height="136.28" transform="translate(-116.3 279.84) rotate(-45.01)" style="fill:#9cdcb2"/><rect x="239.21" y="319.32" width="32.21" height="67.6" transform="translate(-174.92 284.01) rotate(-45.01)" style="fill:#9cdcb2"/><rect x="201.35" y="300.22" width="34.33" height="32.21" transform="translate(-159.67 247.17) rotate(-45)" style="fill:#9cdcb2"/><rect x="153.85" y="217.32" width="32.21" height="100.88" transform="translate(-139.56 198.6) rotate(-45)" style="fill:#9cdcb2"/><rect x="68.5" y="148.6" width="32.21" height="67.61" transform="translate(-104.19 113.22) rotate(-44.99)" style="fill:#9cdcb2"/><rect x="104.23" y="203.1" width="34.33" height="32.21" transform="translate(-119.44 150.04) rotate(-45)" style="fill:#9cdcb2"/><rect x="201.35" y="203.1" width="34.33" height="32.21" transform="translate(-91 218.71) rotate(-45)" style="fill:#9cdcb2"/><rect x="298.46" y="203.1" width="34.34" height="32.21" transform="translate(-62.56 287.38) rotate(-45)" style="fill:#9cdcb2"/><rect x="165.61" y="51.49" width="32.21" height="67.6" transform="translate(-7.09 153.47) rotate(-45)" style="fill:#9cdcb2"/><rect x="336.32" y="222.2" width="32.21" height="67.6" transform="translate(-77.8 324.18) rotate(-45)" style="fill:#9cdcb2"/><rect x="299.37" y="-32.8" width="33.27" height="309.03" transform="translate(6.49 259.1) rotate(-45)" style="fill:#9cdcb2"/><rect x="104.38" y="162.19" width="33.27" height="309.03" transform="translate(-188.49 178.33) rotate(-45)" style="fill:#9cdcb2"/><rect x="141.34" y="89.99" width="32.2" height="136.28" transform="translate(-65.7 157.64) rotate(-45)" style="fill:#9cdcb2"/><rect x="201.35" y="105.98" width="34.33" height="32.21" transform="translate(-22.33 190.27) rotate(-45)" style="fill:#9cdcb2"/><rect x="250.97" y="120.21" width="32.21" height="100.88" transform="translate(-42.44 238.83) rotate(-45)" style="fill:#9cdcb2"/><rect x="168.08" y="203.1" width="100.87" height="32.21" transform="translate(-91 218.71) rotate(-45)" style="fill:#ceb9d2"/><rect x="265.19" y="203.1" width="100.88" height="32.21" transform="translate(-62.56 287.39) rotate(-45)" style="fill:#ceb9d2"/><rect x="275.25" y="130.26" width="32.2" height="32.2" transform="translate(-18.16 248.89) rotate(-45)" style="fill:#ceb9d2"/><rect x="168.08" y="105.98" width="100.87" height="32.21" transform="translate(-22.33 190.27) rotate(-45)" style="fill:#ceb9d2"/><rect x="129.57" y="275.94" width="32.2" height="32.21" transform="translate(-163.84 188.54) rotate(-45)" style="fill:#ceb9d2"/><rect x="70.96" y="203.1" width="100.88" height="32.21" transform="translate(-119.44 150.04) rotate(-45)" style="fill:#ceb9d2"/><rect x="168.08" y="300.22" width="100.88" height="32.21" transform="translate(-159.67 247.16) rotate(-45)" style="fill:#ceb9d2"/><rect x="275.63" y="324.34" width="32.2" height="33.27" transform="translate(-155.66 306.15) rotate(-45)" style="fill:#ceb9d2"/><rect x="324.18" y="275.78" width="32.21" height="33.27" transform="translate(-107.1 326.26) rotate(-45)" style="fill:#ceb9d2"/><rect x="227.07" y="372.9" width="32.2" height="33.27" transform="translate(-204.22 286.03) rotate(-45)" style="fill:#ceb9d2"/><rect x="372.75" y="227.22" width="32.2" height="33.27" transform="translate(-58.55 346.37) rotate(-45)" style="fill:#ceb9d2"/><rect x="177.73" y="32.25" width="32.2" height="33.2" transform="translate(22.23 151.36) rotate(-45)" style="fill:#ceb9d2"/><rect x="32.05" y="177.92" width="32.2" height="33.19" transform="translate(-123.44 91.02) rotate(-45)" style="fill:#ceb9d2"/><rect x="129.17" y="80.81" width="32.2" height="33.19" transform="translate(-26.33 131.25) rotate(-45)" style="fill:#ceb9d2"/><rect x="80.61" y="129.36" width="32.2" height="33.19" transform="translate(-74.88 111.14) rotate(-45)" style="fill:#ceb9d2"/></g></svg>