<svg xmlns="http://www.w3.org/2000/svg" viewBox="0 0 437.03 437.03"><g id="logo_app_icon" data-name="logo app icon"><rect x="263.49" y="211.45" width="32.2" height="136.28" transform="translate(-115.81 279.63) rotate(-45.01)" style="fill:#9cdcb2"/><rect x="239.21" y="318.63" width="32.21" height="67.6" transform="translate(-174.43 283.8) rotate(-45.01)" style="fill:#9cdcb2"/><rect x="153.85" y="216.63" width="32.21" height="100.88" transform="translate(-139.07 198.4) rotate(-45)" style="fill:#9cdcb2"/><rect x="68.5" y="147.91" width="32.21" height="67.61" transform="translate(-103.71 113.02) rotate(-44.99)" style="fill:#9cdcb2"/><rect x="165.61" y="50.8" width="32.21" height="67.6" transform="translate(-6.6 153.27) rotate(-45)" style="fill:#9cdcb2"/><rect x="336.32" y="221.51" width="32.21" height="67.6" transform="translate(-77.31 323.98) rotate(-45)" style="fill:#9cdcb2"/><rect x="299.37" y="-33.49" width="33.27" height="309.03" transform="translate(6.98 258.9) rotate(-45)" style="fill:#9cdcb2"/><rect x="104.38" y="161.5" width="33.27" height="309.03" transform="translate(-188.01 178.13) rotate(-45)" style="fill:#9cdcb2"/><rect x="141.34" y="89.3" width="32.2" height="136.28" transform="translate(-65.21 157.44) rotate(-45)" style="fill:#9cdcb2"/><rect x="250.97" y="119.52" width="32.21" height="100.88" transform="translate(-41.95 238.63) rotate(-45)" style="fill:#9cdcb2"/><rect x="168.08" y="202.41" width="100.87" height="32.21" transform="translate(-90.51 218.51) rotate(-45)" style="fill:#ceb9d2"/><rect x="265.19" y="202.41" width="100.88" height="32.21" transform="translate(-62.07 287.18) rotate(-45)" style="fill:#ceb9d2"/><rect x="275.25" y="129.57" width="32.2" height="32.2" transform="translate(-17.67 248.68) rotate(-45)" style="fill:#ceb9d2"/><rect x="168.08" y="105.29" width="100.87" height="32.21" transform="translate(-21.84 190.07) rotate(-45)" style="fill:#ceb9d2"/><rect x="129.57" y="275.25" width="32.2" height="32.21" transform="translate(-163.35 188.34) rotate(-45)" style="fill:#ceb9d2"/><rect x="70.96" y="202.41" width="100.88" height="32.21" transform="translate(-118.96 149.84) rotate(-45)" style="fill:#ceb9d2"/><rect x="168.08" y="299.53" width="100.88" height="32.21" transform="translate(-159.18 246.96) rotate(-45)" style="fill:#ceb9d2"/><rect x="275.63" y="323.65" width="32.2" height="33.27" transform="translate(-155.17 305.94) rotate(-45)" style="fill:#ceb9d2"/><rect x="324.18" y="275.09" width="32.21" height="33.27" transform="translate(-106.62 326.06) rotate(-45)" style="fill:#ceb9d2"/><rect x="227.07" y="372.21" width="32.2" height="33.27" transform="translate(-203.73 285.83) rotate(-45)" style="fill:#ceb9d2"/><rect x="372.75" y="226.53" width="32.2" height="33.27" transform="translate(-58.06 346.17) rotate(-45)" style="fill:#ceb9d2"/><rect x="177.73" y="31.56" width="32.2" height="33.2" transform="translate(22.72 151.16) rotate(-45)" style="fill:#ceb9d2"/><rect x="32.05" y="177.23" width="32.2" height="33.19" transform="translate(-122.95 90.82) rotate(-45)" style="fill:#ceb9d2"/><rect x="129.17" y="80.12" width="32.2" height="33.19" transform="translate(-25.84 131.05) rotate(-45)" style="fill:#ceb9d2"/><rect x="80.61" y="128.67" width="32.2" height="33.19" transform="translate(-74.4 110.93) rotate(-45)" style="fill:#ceb9d2"/></g></svg>